<?xml version="1.0" encoding="utf-8" standalone="no"?>
<!DOCTYPE svg PUBLIC "-//W3C//DTD SVG 1.1//EN"
  "http://www.w3.org/Graphics/SVG/1.1/DTD/svg11.dtd">
<svg xmlns:xlink="http://www.w3.org/1999/xlink" width="1000.340625pt" height="330.541644pt" viewBox="0 0 1000.340625 330.541644" xmlns="http://www.w3.org/2000/svg" version="1.1">
 <metadata>
  <rdf:RDF xmlns:dc="http://purl.org/dc/elements/1.1/" xmlns:cc="http://creativecommons.org/ns#" xmlns:rdf="http://www.w3.org/1999/02/22-rdf-syntax-ns#">
   <cc:Work>
    <dc:type rdf:resource="http://purl.org/dc/dcmitype/StillImage"/>
    <dc:date>2025-05-20T01:35:27.781877</dc:date>
    <dc:format>image/svg+xml</dc:format>
    <dc:creator>
     <cc:Agent>
      <dc:title>Matplotlib v3.8.2, https://matplotlib.org/</dc:title>
     </cc:Agent>
    </dc:creator>
   </cc:Work>
  </rdf:RDF>
 </metadata>
 <defs>
  <style type="text/css">*{stroke-linejoin: round; stroke-linecap: butt}</style>
 </defs>
 <g id="figure_1">
  <g id="axes_1">
   <g id="patch_1">
    <path d="M 40.600625 273.99006 
L 993.140625 273.99006 
L 993.140625 31.48286 
L 40.600625 31.48286 
z
" style="fill: #ffffff"/>
   </g>
   <g id="matplotlib.axis_1">
    <g id="xtick_1">
     <g id="text_1">
      <!-- 0 -->
      <g transform="translate(78.13377 287.06881) scale(0.08 -0.08)">
       <defs>
        <path id="DejaVuSans-30" d="M 2034 4250 
Q 1547 4250 1301 3770 
Q 1056 3291 1056 2328 
Q 1056 1369 1301 889 
Q 1547 409 2034 409 
Q 2525 409 2770 889 
Q 3016 1369 3016 2328 
Q 3016 3291 2770 3770 
Q 2525 4250 2034 4250 
z
M 2034 4750 
Q 2819 4750 3233 4129 
Q 3647 3509 3647 2328 
Q 3647 1150 3233 529 
Q 2819 -91 2034 -91 
Q 1250 -91 836 529 
Q 422 1150 422 2328 
Q 422 3509 836 4129 
Q 1250 4750 2034 4750 
z
" transform="scale(0.015625)"/>
       </defs>
       <use xlink:href="#DejaVuSans-30"/>
      </g>
     </g>
    </g>
    <g id="xtick_2">
     <g id="text_2">
      <!-- 50 -->
      <g transform="translate(236.545174 287.06881) scale(0.08 -0.08)">
       <defs>
        <path id="DejaVuSans-35" d="M 691 4666 
L 3169 4666 
L 3169 4134 
L 1269 4134 
L 1269 2991 
Q 1406 3038 1543 3061 
Q 1681 3084 1819 3084 
Q 2600 3084 3056 2656 
Q 3513 2228 3513 1497 
Q 3513 744 3044 326 
Q 2575 -91 1722 -91 
Q 1428 -91 1123 -41 
Q 819 9 494 109 
L 494 744 
Q 775 591 1075 516 
Q 1375 441 1709 441 
Q 2250 441 2565 725 
Q 2881 1009 2881 1497 
Q 2881 1984 2565 2268 
Q 2250 2553 1709 2553 
Q 1456 2553 1204 2497 
Q 953 2441 691 2322 
L 691 4666 
z
" transform="scale(0.015625)"/>
       </defs>
       <use xlink:href="#DejaVuSans-35"/>
       <use xlink:href="#DejaVuSans-30" x="63.623047"/>
      </g>
     </g>
    </g>
    <g id="xtick_3">
     <g id="text_3">
      <!-- 100 -->
      <g transform="translate(394.956578 287.06881) scale(0.08 -0.08)">
       <defs>
        <path id="DejaVuSans-31" d="M 794 531 
L 1825 531 
L 1825 4091 
L 703 3866 
L 703 4441 
L 1819 4666 
L 2450 4666 
L 2450 531 
L 3481 531 
L 3481 0 
L 794 0 
L 794 531 
z
" transform="scale(0.015625)"/>
       </defs>
       <use xlink:href="#DejaVuSans-31"/>
       <use xlink:href="#DejaVuSans-30" x="63.623047"/>
       <use xlink:href="#DejaVuSans-30" x="127.246094"/>
      </g>
     </g>
    </g>
    <g id="xtick_4">
     <g id="text_4">
      <!-- 150 -->
      <g transform="translate(555.912982 287.06881) scale(0.08 -0.08)">
       <use xlink:href="#DejaVuSans-31"/>
       <use xlink:href="#DejaVuSans-35" x="63.623047"/>
       <use xlink:href="#DejaVuSans-30" x="127.246094"/>
      </g>
     </g>
    </g>
    <g id="xtick_5">
     <g id="text_5">
      <!-- 200 -->
      <g transform="translate(716.869386 287.06881) scale(0.08 -0.08)">
       <defs>
        <path id="DejaVuSans-32" d="M 1228 531 
L 3431 531 
L 3431 0 
L 469 0 
L 469 531 
Q 828 903 1448 1529 
Q 2069 2156 2228 2338 
Q 2531 2678 2651 2914 
Q 2772 3150 2772 3378 
Q 2772 3750 2511 3984 
Q 2250 4219 1831 4219 
Q 1534 4219 1204 4116 
Q 875 4013 500 3803 
L 500 4441 
Q 881 4594 1212 4672 
Q 1544 4750 1819 4750 
Q 2544 4750 2975 4387 
Q 3406 4025 3406 3419 
Q 3406 3131 3298 2873 
Q 3191 2616 2906 2266 
Q 2828 2175 2409 1742 
Q 1991 1309 1228 531 
z
" transform="scale(0.015625)"/>
       </defs>
       <use xlink:href="#DejaVuSans-32"/>
       <use xlink:href="#DejaVuSans-30" x="63.623047"/>
       <use xlink:href="#DejaVuSans-30" x="127.246094"/>
      </g>
     </g>
    </g>
    <g id="xtick_6">
     <g id="text_6">
      <!-- 250 -->
      <g transform="translate(877.825791 287.06881) scale(0.08 -0.08)">
       <use xlink:href="#DejaVuSans-32"/>
       <use xlink:href="#DejaVuSans-35" x="63.623047"/>
       <use xlink:href="#DejaVuSans-30" x="127.246094"/>
      </g>
     </g>
    </g>
    <g id="text_7">
     <!-- Insert size -->
     <g transform="translate(491.246406 300.330997) scale(0.1 -0.1)">
      <defs>
       <path id="DejaVuSans-49" d="M 628 4666 
L 1259 4666 
L 1259 0 
L 628 0 
L 628 4666 
z
" transform="scale(0.015625)"/>
       <path id="DejaVuSans-6e" d="M 3513 2113 
L 3513 0 
L 2938 0 
L 2938 2094 
Q 2938 2591 2744 2837 
Q 2550 3084 2163 3084 
Q 1697 3084 1428 2787 
Q 1159 2491 1159 1978 
L 1159 0 
L 581 0 
L 581 3500 
L 1159 3500 
L 1159 2956 
Q 1366 3272 1645 3428 
Q 1925 3584 2291 3584 
Q 2894 3584 3203 3211 
Q 3513 2838 3513 2113 
z
" transform="scale(0.015625)"/>
       <path id="DejaVuSans-73" d="M 2834 3397 
L 2834 2853 
Q 2591 2978 2328 3040 
Q 2066 3103 1784 3103 
Q 1356 3103 1142 2972 
Q 928 2841 928 2578 
Q 928 2378 1081 2264 
Q 1234 2150 1697 2047 
L 1894 2003 
Q 2506 1872 2764 1633 
Q 3022 1394 3022 966 
Q 3022 478 2636 193 
Q 2250 -91 1575 -91 
Q 1294 -91 989 -36 
Q 684 19 347 128 
L 347 722 
Q 666 556 975 473 
Q 1284 391 1588 391 
Q 1994 391 2212 530 
Q 2431 669 2431 922 
Q 2431 1156 2273 1281 
Q 2116 1406 1581 1522 
L 1381 1569 
Q 847 1681 609 1914 
Q 372 2147 372 2553 
Q 372 3047 722 3315 
Q 1072 3584 1716 3584 
Q 2034 3584 2315 3537 
Q 2597 3491 2834 3397 
z
" transform="scale(0.015625)"/>
       <path id="DejaVuSans-65" d="M 3597 1894 
L 3597 1613 
L 953 1613 
Q 991 1019 1311 708 
Q 1631 397 2203 397 
Q 2534 397 2845 478 
Q 3156 559 3463 722 
L 3463 178 
Q 3153 47 2828 -22 
Q 2503 -91 2169 -91 
Q 1331 -91 842 396 
Q 353 884 353 1716 
Q 353 2575 817 3079 
Q 1281 3584 2069 3584 
Q 2775 3584 3186 3129 
Q 3597 2675 3597 1894 
z
M 3022 2063 
Q 3016 2534 2758 2815 
Q 2500 3097 2075 3097 
Q 1594 3097 1305 2825 
Q 1016 2553 972 2059 
L 3022 2063 
z
" transform="scale(0.015625)"/>
       <path id="DejaVuSans-72" d="M 2631 2963 
Q 2534 3019 2420 3045 
Q 2306 3072 2169 3072 
Q 1681 3072 1420 2755 
Q 1159 2438 1159 1844 
L 1159 0 
L 581 0 
L 581 3500 
L 1159 3500 
L 1159 2956 
Q 1341 3275 1631 3429 
Q 1922 3584 2338 3584 
Q 2397 3584 2469 3576 
Q 2541 3569 2628 3553 
L 2631 2963 
z
" transform="scale(0.015625)"/>
       <path id="DejaVuSans-74" d="M 1172 4494 
L 1172 3500 
L 2356 3500 
L 2356 3053 
L 1172 3053 
L 1172 1153 
Q 1172 725 1289 603 
Q 1406 481 1766 481 
L 2356 481 
L 2356 0 
L 1766 0 
Q 1100 0 847 248 
Q 594 497 594 1153 
L 594 3053 
L 172 3053 
L 172 3500 
L 594 3500 
L 594 4494 
L 1172 4494 
z
" transform="scale(0.015625)"/>
       <path id="DejaVuSans-20" transform="scale(0.015625)"/>
       <path id="DejaVuSans-69" d="M 603 3500 
L 1178 3500 
L 1178 0 
L 603 0 
L 603 3500 
z
M 603 4863 
L 1178 4863 
L 1178 4134 
L 603 4134 
L 603 4863 
z
" transform="scale(0.015625)"/>
       <path id="DejaVuSans-7a" d="M 353 3500 
L 3084 3500 
L 3084 2975 
L 922 459 
L 3084 459 
L 3084 0 
L 275 0 
L 275 525 
L 2438 3041 
L 353 3041 
L 353 3500 
z
" transform="scale(0.015625)"/>
      </defs>
      <use xlink:href="#DejaVuSans-49"/>
      <use xlink:href="#DejaVuSans-6e" x="29.492188"/>
      <use xlink:href="#DejaVuSans-73" x="92.871094"/>
      <use xlink:href="#DejaVuSans-65" x="144.970703"/>
      <use xlink:href="#DejaVuSans-72" x="206.494141"/>
      <use xlink:href="#DejaVuSans-74" x="247.607422"/>
      <use xlink:href="#DejaVuSans-20" x="286.816406"/>
      <use xlink:href="#DejaVuSans-73" x="318.603516"/>
      <use xlink:href="#DejaVuSans-69" x="370.703125"/>
      <use xlink:href="#DejaVuSans-7a" x="398.486328"/>
      <use xlink:href="#DejaVuSans-65" x="450.976562"/>
     </g>
    </g>
   </g>
   <g id="matplotlib.axis_2">
    <g id="ytick_1">
     <g id="line2d_1">
      <path d="M 40.600625 273.99006 
L 993.140625 273.99006 
" clip-path="url(#pd55e0e3fd7)" style="fill: none; stroke: #dedede; stroke-linecap: square"/>
     </g>
     <g id="text_8">
      <!-- 0.0 -->
      <g transform="translate(20.878125 277.029435) scale(0.08 -0.08)">
       <defs>
        <path id="DejaVuSans-2e" d="M 684 794 
L 1344 794 
L 1344 0 
L 684 0 
L 684 794 
z
" transform="scale(0.015625)"/>
       </defs>
       <use xlink:href="#DejaVuSans-30"/>
       <use xlink:href="#DejaVuSans-2e" x="63.623047"/>
       <use xlink:href="#DejaVuSans-30" x="95.410156"/>
      </g>
     </g>
    </g>
    <g id="ytick_2">
     <g id="line2d_2">
      <path d="M 40.600625 241.495016 
L 993.140625 241.495016 
" clip-path="url(#pd55e0e3fd7)" style="fill: none; stroke: #dedede; stroke-linecap: square"/>
     </g>
     <g id="text_9">
      <!-- 0.1 -->
      <g transform="translate(20.878125 244.534391) scale(0.08 -0.08)">
       <use xlink:href="#DejaVuSans-30"/>
       <use xlink:href="#DejaVuSans-2e" x="63.623047"/>
       <use xlink:href="#DejaVuSans-31" x="95.410156"/>
      </g>
     </g>
    </g>
    <g id="ytick_3">
     <g id="line2d_3">
      <path d="M 40.600625 208.999971 
L 993.140625 208.999971 
" clip-path="url(#pd55e0e3fd7)" style="fill: none; stroke: #dedede; stroke-linecap: square"/>
     </g>
     <g id="text_10">
      <!-- 0.2 -->
      <g transform="translate(20.878125 212.039346) scale(0.08 -0.08)">
       <use xlink:href="#DejaVuSans-30"/>
       <use xlink:href="#DejaVuSans-2e" x="63.623047"/>
       <use xlink:href="#DejaVuSans-32" x="95.410156"/>
      </g>
     </g>
    </g>
    <g id="ytick_4">
     <g id="line2d_4">
      <path d="M 40.600625 176.504927 
L 993.140625 176.504927 
" clip-path="url(#pd55e0e3fd7)" style="fill: none; stroke: #dedede; stroke-linecap: square"/>
     </g>
     <g id="text_11">
      <!-- 0.3 -->
      <g transform="translate(20.878125 179.544302) scale(0.08 -0.08)">
       <defs>
        <path id="DejaVuSans-33" d="M 2597 2516 
Q 3050 2419 3304 2112 
Q 3559 1806 3559 1356 
Q 3559 666 3084 287 
Q 2609 -91 1734 -91 
Q 1441 -91 1130 -33 
Q 819 25 488 141 
L 488 750 
Q 750 597 1062 519 
Q 1375 441 1716 441 
Q 2309 441 2620 675 
Q 2931 909 2931 1356 
Q 2931 1769 2642 2001 
Q 2353 2234 1838 2234 
L 1294 2234 
L 1294 2753 
L 1863 2753 
Q 2328 2753 2575 2939 
Q 2822 3125 2822 3475 
Q 2822 3834 2567 4026 
Q 2313 4219 1838 4219 
Q 1578 4219 1281 4162 
Q 984 4106 628 3988 
L 628 4550 
Q 988 4650 1302 4700 
Q 1616 4750 1894 4750 
Q 2613 4750 3031 4423 
Q 3450 4097 3450 3541 
Q 3450 3153 3228 2886 
Q 3006 2619 2597 2516 
z
" transform="scale(0.015625)"/>
       </defs>
       <use xlink:href="#DejaVuSans-30"/>
       <use xlink:href="#DejaVuSans-2e" x="63.623047"/>
       <use xlink:href="#DejaVuSans-33" x="95.410156"/>
      </g>
     </g>
    </g>
    <g id="ytick_5">
     <g id="line2d_5">
      <path d="M 40.600625 144.009883 
L 993.140625 144.009883 
" clip-path="url(#pd55e0e3fd7)" style="fill: none; stroke: #dedede; stroke-linecap: square"/>
     </g>
     <g id="text_12">
      <!-- 0.4 -->
      <g transform="translate(20.878125 147.049258) scale(0.08 -0.08)">
       <defs>
        <path id="DejaVuSans-34" d="M 2419 4116 
L 825 1625 
L 2419 1625 
L 2419 4116 
z
M 2253 4666 
L 3047 4666 
L 3047 1625 
L 3713 1625 
L 3713 1100 
L 3047 1100 
L 3047 0 
L 2419 0 
L 2419 1100 
L 313 1100 
L 313 1709 
L 2253 4666 
z
" transform="scale(0.015625)"/>
       </defs>
       <use xlink:href="#DejaVuSans-30"/>
       <use xlink:href="#DejaVuSans-2e" x="63.623047"/>
       <use xlink:href="#DejaVuSans-34" x="95.410156"/>
      </g>
     </g>
    </g>
    <g id="ytick_6">
     <g id="line2d_6">
      <path d="M 40.600625 111.514838 
L 993.140625 111.514838 
" clip-path="url(#pd55e0e3fd7)" style="fill: none; stroke: #dedede; stroke-linecap: square"/>
     </g>
     <g id="text_13">
      <!-- 0.5 -->
      <g transform="translate(20.878125 114.554213) scale(0.08 -0.08)">
       <use xlink:href="#DejaVuSans-30"/>
       <use xlink:href="#DejaVuSans-2e" x="63.623047"/>
       <use xlink:href="#DejaVuSans-35" x="95.410156"/>
      </g>
     </g>
    </g>
    <g id="ytick_7">
     <g id="line2d_7">
      <path d="M 40.600625 79.019794 
L 993.140625 79.019794 
" clip-path="url(#pd55e0e3fd7)" style="fill: none; stroke: #dedede; stroke-linecap: square"/>
     </g>
     <g id="text_14">
      <!-- 0.6 -->
      <g transform="translate(20.878125 82.059169) scale(0.08 -0.08)">
       <defs>
        <path id="DejaVuSans-36" d="M 2113 2584 
Q 1688 2584 1439 2293 
Q 1191 2003 1191 1497 
Q 1191 994 1439 701 
Q 1688 409 2113 409 
Q 2538 409 2786 701 
Q 3034 994 3034 1497 
Q 3034 2003 2786 2293 
Q 2538 2584 2113 2584 
z
M 3366 4563 
L 3366 3988 
Q 3128 4100 2886 4159 
Q 2644 4219 2406 4219 
Q 1781 4219 1451 3797 
Q 1122 3375 1075 2522 
Q 1259 2794 1537 2939 
Q 1816 3084 2150 3084 
Q 2853 3084 3261 2657 
Q 3669 2231 3669 1497 
Q 3669 778 3244 343 
Q 2819 -91 2113 -91 
Q 1303 -91 875 529 
Q 447 1150 447 2328 
Q 447 3434 972 4092 
Q 1497 4750 2381 4750 
Q 2619 4750 2861 4703 
Q 3103 4656 3366 4563 
z
" transform="scale(0.015625)"/>
       </defs>
       <use xlink:href="#DejaVuSans-30"/>
       <use xlink:href="#DejaVuSans-2e" x="63.623047"/>
       <use xlink:href="#DejaVuSans-36" x="95.410156"/>
      </g>
     </g>
    </g>
    <g id="ytick_8">
     <g id="line2d_8">
      <path d="M 40.600625 46.52475 
L 993.140625 46.52475 
" clip-path="url(#pd55e0e3fd7)" style="fill: none; stroke: #dedede; stroke-linecap: square"/>
     </g>
     <g id="text_15">
      <!-- 0.7 -->
      <g transform="translate(20.878125 49.564125) scale(0.08 -0.08)">
       <defs>
        <path id="DejaVuSans-37" d="M 525 4666 
L 3525 4666 
L 3525 4397 
L 1831 0 
L 1172 0 
L 2766 4134 
L 525 4134 
L 525 4666 
z
" transform="scale(0.015625)"/>
       </defs>
       <use xlink:href="#DejaVuSans-30"/>
       <use xlink:href="#DejaVuSans-2e" x="63.623047"/>
       <use xlink:href="#DejaVuSans-37" x="95.410156"/>
      </g>
     </g>
    </g>
    <g id="text_16">
     <!-- Read percent -->
     <g transform="translate(14.798438 186.038022) rotate(-90) scale(0.1 -0.1)">
      <defs>
       <path id="DejaVuSans-52" d="M 2841 2188 
Q 3044 2119 3236 1894 
Q 3428 1669 3622 1275 
L 4263 0 
L 3584 0 
L 2988 1197 
Q 2756 1666 2539 1819 
Q 2322 1972 1947 1972 
L 1259 1972 
L 1259 0 
L 628 0 
L 628 4666 
L 2053 4666 
Q 2853 4666 3247 4331 
Q 3641 3997 3641 3322 
Q 3641 2881 3436 2590 
Q 3231 2300 2841 2188 
z
M 1259 4147 
L 1259 2491 
L 2053 2491 
Q 2509 2491 2742 2702 
Q 2975 2913 2975 3322 
Q 2975 3731 2742 3939 
Q 2509 4147 2053 4147 
L 1259 4147 
z
" transform="scale(0.015625)"/>
       <path id="DejaVuSans-61" d="M 2194 1759 
Q 1497 1759 1228 1600 
Q 959 1441 959 1056 
Q 959 750 1161 570 
Q 1363 391 1709 391 
Q 2188 391 2477 730 
Q 2766 1069 2766 1631 
L 2766 1759 
L 2194 1759 
z
M 3341 1997 
L 3341 0 
L 2766 0 
L 2766 531 
Q 2569 213 2275 61 
Q 1981 -91 1556 -91 
Q 1019 -91 701 211 
Q 384 513 384 1019 
Q 384 1609 779 1909 
Q 1175 2209 1959 2209 
L 2766 2209 
L 2766 2266 
Q 2766 2663 2505 2880 
Q 2244 3097 1772 3097 
Q 1472 3097 1187 3025 
Q 903 2953 641 2809 
L 641 3341 
Q 956 3463 1253 3523 
Q 1550 3584 1831 3584 
Q 2591 3584 2966 3190 
Q 3341 2797 3341 1997 
z
" transform="scale(0.015625)"/>
       <path id="DejaVuSans-64" d="M 2906 2969 
L 2906 4863 
L 3481 4863 
L 3481 0 
L 2906 0 
L 2906 525 
Q 2725 213 2448 61 
Q 2172 -91 1784 -91 
Q 1150 -91 751 415 
Q 353 922 353 1747 
Q 353 2572 751 3078 
Q 1150 3584 1784 3584 
Q 2172 3584 2448 3432 
Q 2725 3281 2906 2969 
z
M 947 1747 
Q 947 1113 1208 752 
Q 1469 391 1925 391 
Q 2381 391 2643 752 
Q 2906 1113 2906 1747 
Q 2906 2381 2643 2742 
Q 2381 3103 1925 3103 
Q 1469 3103 1208 2742 
Q 947 2381 947 1747 
z
" transform="scale(0.015625)"/>
       <path id="DejaVuSans-70" d="M 1159 525 
L 1159 -1331 
L 581 -1331 
L 581 3500 
L 1159 3500 
L 1159 2969 
Q 1341 3281 1617 3432 
Q 1894 3584 2278 3584 
Q 2916 3584 3314 3078 
Q 3713 2572 3713 1747 
Q 3713 922 3314 415 
Q 2916 -91 2278 -91 
Q 1894 -91 1617 61 
Q 1341 213 1159 525 
z
M 3116 1747 
Q 3116 2381 2855 2742 
Q 2594 3103 2138 3103 
Q 1681 3103 1420 2742 
Q 1159 2381 1159 1747 
Q 1159 1113 1420 752 
Q 1681 391 2138 391 
Q 2594 391 2855 752 
Q 3116 1113 3116 1747 
z
" transform="scale(0.015625)"/>
       <path id="DejaVuSans-63" d="M 3122 3366 
L 3122 2828 
Q 2878 2963 2633 3030 
Q 2388 3097 2138 3097 
Q 1578 3097 1268 2742 
Q 959 2388 959 1747 
Q 959 1106 1268 751 
Q 1578 397 2138 397 
Q 2388 397 2633 464 
Q 2878 531 3122 666 
L 3122 134 
Q 2881 22 2623 -34 
Q 2366 -91 2075 -91 
Q 1284 -91 818 406 
Q 353 903 353 1747 
Q 353 2603 823 3093 
Q 1294 3584 2113 3584 
Q 2378 3584 2631 3529 
Q 2884 3475 3122 3366 
z
" transform="scale(0.015625)"/>
      </defs>
      <use xlink:href="#DejaVuSans-52"/>
      <use xlink:href="#DejaVuSans-65" x="64.982422"/>
      <use xlink:href="#DejaVuSans-61" x="126.505859"/>
      <use xlink:href="#DejaVuSans-64" x="187.785156"/>
      <use xlink:href="#DejaVuSans-20" x="251.261719"/>
      <use xlink:href="#DejaVuSans-70" x="283.048828"/>
      <use xlink:href="#DejaVuSans-65" x="346.525391"/>
      <use xlink:href="#DejaVuSans-72" x="408.048828"/>
      <use xlink:href="#DejaVuSans-63" x="446.912109"/>
      <use xlink:href="#DejaVuSans-65" x="501.892578"/>
      <use xlink:href="#DejaVuSans-6e" x="563.416016"/>
      <use xlink:href="#DejaVuSans-74" x="626.794922"/>
     </g>
    </g>
   </g>
   <g id="line2d_9">
    <path d="M 83.897898 273.99006 
L 180.47174 273.99006 
L 183.690868 270.172949 
L 186.909996 269.504123 
L 190.129124 269.814517 
L 193.348253 269.141996 
L 196.567381 269.138301 
L 206.224765 268.443609 
L 209.443893 268.528598 
L 212.663021 267.69349 
L 215.882149 267.142909 
L 219.101277 266.780782 
L 222.320405 266.769697 
L 225.539533 266.51473 
L 228.758661 266.533206 
L 231.97779 265.727659 
L 235.196918 265.432045 
L 238.416046 265.010796 
L 241.635174 264.397398 
L 244.854302 263.499471 
L 248.07343 262.867597 
L 251.292558 262.117477 
L 254.511686 262.039879 
L 257.730814 261.688838 
L 260.949942 260.820473 
L 264.16907 260.373357 
L 270.607327 258.300366 
L 273.826455 257.029228 
L 277.045583 256.474952 
L 280.264711 254.649538 
L 283.483839 254.25046 
L 286.702967 252.543291 
L 293.141223 250.57746 
L 296.360351 249.443043 
L 299.579479 247.857815 
L 302.798607 245.799605 
L 306.017736 243.083654 
L 309.236864 241.867943 
L 312.455992 239.155688 
L 315.67512 236.635582 
L 318.894248 233.845728 
L 322.113376 233.5612 
L 325.332504 231.100217 
L 328.551632 229.640624 
L 331.77076 227.630452 
L 334.989888 224.171772 
L 341.428144 218.237328 
L 344.647273 214.519987 
L 351.085529 208.689008 
L 354.304657 207.554591 
L 357.523785 204.177205 
L 360.742913 202.429389 
L 363.962041 200.227068 
L 367.181169 196.930976 
L 370.400297 193.427954 
L 373.619425 189.21546 
L 376.838553 185.727219 
L 380.057681 181.015877 
L 383.27681 177.664357 
L 386.495938 172.886502 
L 389.715066 170.081867 
L 392.934194 168.914193 
L 396.153322 165.38161 
L 399.37245 162.355266 
L 402.591578 160.07165 
L 405.810706 154.695177 
L 409.029834 148.594451 
L 412.248962 144.648009 
L 415.46809 138.820725 
L 418.687218 137.357438 
L 421.906347 132.221151 
L 425.125475 129.043304 
L 428.344603 126.34583 
L 431.563731 124.043739 
L 434.782859 120.732866 
L 438.001987 116.15455 
L 441.221115 113.301878 
L 444.440243 105.445946 
L 447.659371 99.736907 
L 450.878499 96.995091 
L 454.097627 93.314701 
L 457.316755 91.356261 
L 460.535884 92.08421 
L 463.755012 88.396429 
L 466.97414 84.025043 
L 470.193268 81.567754 
L 476.631524 73.76725 
L 479.850652 70.131202 
L 483.06978 65.64896 
L 486.288908 62.774118 
L 489.508036 64.396297 
L 492.727164 61.798593 
L 495.946292 62.81846 
L 499.165421 58.125593 
L 502.384549 57.763466 
L 505.603677 55.494632 
L 508.822805 53.643351 
L 512.041933 50.620702 
L 515.261061 47.11029 
L 518.480189 47.11768 
L 521.699317 45.890884 
L 524.918445 48.621615 
L 528.137573 48.62531 
L 531.356701 48.019302 
L 534.575829 49.157414 
L 537.794958 49.48998 
L 541.014086 48.41099 
L 544.233214 43.030822 
L 547.452342 45.639612 
L 550.67147 44.168934 
L 553.890598 47.664566 
L 557.109726 46.700126 
L 560.328854 49.889058 
L 563.547982 49.179586 
L 569.986238 50.964353 
L 573.205366 48.226232 
L 576.424495 49.364344 
L 579.643623 50.044255 
L 582.862751 47.014216 
L 586.081879 50.58375 
L 589.301007 50.02578 
L 592.520135 51.55558 
L 595.739263 55.616572 
L 598.958391 57.279399 
L 602.177519 55.967614 
L 605.396647 59.13807 
L 611.834903 59.24523 
L 615.054032 59.958398 
L 618.27316 58.838761 
L 621.492288 60.963484 
L 624.711416 62.452638 
L 627.930544 61.983351 
L 631.149672 66.454507 
L 634.3688 69.381082 
L 637.587928 68.845283 
L 640.807056 66.258663 
L 644.026184 68.390777 
L 647.245312 66.280834 
L 650.46444 69.303484 
L 653.683569 68.191237 
L 656.902697 72.492416 
L 660.121825 74.724299 
L 663.340953 76.076731 
L 669.779209 79.661046 
L 672.998337 82.177458 
L 676.217465 80.839806 
L 679.436593 79.158503 
L 682.655721 82.502633 
L 685.874849 81.57145 
L 689.093977 84.17285 
L 695.532234 89.024608 
L 698.751362 91.821852 
L 701.97049 91.201064 
L 708.408746 91.267577 
L 711.627874 91.988135 
L 714.847002 92.357652 
L 718.06613 94.718866 
L 721.285258 95.12164 
L 724.504386 97.41634 
L 727.723514 99.966008 
L 730.942643 100.376172 
L 734.161771 101.74708 
L 737.380899 102.870412 
L 743.819155 104.078733 
L 747.038283 102.641311 
L 750.257411 103.180806 
L 753.476539 106.469508 
L 756.695667 107.060735 
L 759.914795 108.749428 
L 763.133923 109.795161 
L 766.353051 111.154984 
L 769.57218 113.33144 
L 772.791308 112.873238 
L 776.010436 114.003961 
L 779.229564 114.879716 
L 782.448692 115.400735 
L 785.66782 114.188719 
L 788.886948 115.988267 
L 792.106076 117.167026 
L 795.325204 119.698218 
L 798.544332 122.776295 
L 801.76346 121.741647 
L 804.982589 123.278838 
L 808.201717 123.504244 
L 811.420845 125.377695 
L 814.639973 124.040043 
L 817.859101 125.946751 
L 824.297357 126.966618 
L 827.516485 129.871022 
L 830.735613 129.682569 
L 833.954741 132.97127 
L 837.173869 134.098297 
L 840.392997 134.811465 
L 843.612126 135.775905 
L 846.831254 134.427168 
L 850.050382 135.203153 
L 853.26951 132.919538 
L 856.488638 136.559281 
L 859.707766 136.041957 
L 862.926894 138.698785 
L 866.146022 140.435515 
L 869.36515 140.073388 
L 872.584278 141.447991 
L 875.803406 143.572714 
L 879.022534 141.52559 
L 882.241663 143.443383 
L 885.460791 144.252626 
L 888.679919 144.315444 
L 891.899047 145.460947 
L 895.118175 145.959795 
L 898.337303 148.343179 
L 901.556431 148.520548 
L 904.775559 150.334876 
L 907.994687 149.603233 
L 911.213815 150.231412 
L 914.432943 150.988922 
L 917.652071 152.042045 
L 920.8712 151.691004 
L 924.090328 153.054522 
L 927.309456 153.357526 
L 930.528584 154.214805 
L 933.747712 154.769081 
L 936.96684 157.259626 
L 940.185968 157.045306 
L 943.405096 157.326139 
L 946.624224 155.755691 
L 949.843352 156.960317 
L 949.843352 156.960317 
" clip-path="url(#pd55e0e3fd7)" style="fill: none; stroke: #7cb5ec; stroke-linecap: square"/>
   </g>
   <g id="line2d_10">
    <path d="M 83.897898 273.99006 
L 180.47174 273.99006 
L 183.690868 270.208855 
L 186.909996 269.737407 
L 190.129124 269.819189 
L 193.348253 269.328498 
L 196.567381 269.362173 
L 199.786509 269.232284 
L 203.005637 268.948454 
L 206.224765 269.006182 
L 209.443893 268.789701 
L 212.663021 268.111393 
L 219.101277 267.231036 
L 222.320405 266.971259 
L 225.539533 266.581592 
L 228.758661 266.653753 
L 231.97779 266.143819 
L 235.196918 265.412594 
L 241.635174 264.705422 
L 244.854302 263.815444 
L 251.292558 263.079408 
L 254.511686 262.049919 
L 257.730814 261.948895 
L 260.949942 261.21767 
L 264.16907 260.24591 
L 267.388199 258.610274 
L 270.607327 258.172501 
L 280.264711 253.905416 
L 283.483839 253.082787 
L 286.702967 252.05811 
L 289.922095 250.720737 
L 293.141223 249.219801 
L 296.360351 247.367684 
L 299.579479 246.516191 
L 302.798607 244.56305 
L 306.017736 242.985142 
L 309.236864 240.045809 
L 312.455992 237.751108 
L 315.67512 234.91761 
L 318.894248 233.027007 
L 322.113376 231.891684 
L 325.332504 229.750925 
L 328.551632 228.779165 
L 331.77076 226.724999 
L 334.989888 224.194575 
L 338.209016 221.082056 
L 341.428144 218.258179 
L 344.647273 215.876886 
L 347.866401 212.331405 
L 351.085529 210.758309 
L 354.304657 208.473229 
L 357.523785 205.432871 
L 360.742913 203.171845 
L 363.962041 202.204896 
L 367.181169 199.80436 
L 370.400297 197.153668 
L 373.619425 194.80605 
L 376.838553 189.60088 
L 380.057681 185.930321 
L 383.27681 184.150364 
L 386.495938 180.008358 
L 389.715066 177.45869 
L 392.934194 176.775572 
L 396.153322 175.139936 
L 399.37245 171.190357 
L 402.591578 169.75196 
L 405.810706 166.567281 
L 409.029834 160.092088 
L 412.248962 157.205672 
L 415.46809 152.914534 
L 418.687218 150.143574 
L 421.906347 147.829631 
L 425.125475 143.783838 
L 428.344603 142.595597 
L 431.563731 138.338133 
L 434.782859 137.885928 
L 441.221115 130.953719 
L 444.440243 124.415987 
L 447.659371 121.10623 
L 450.878499 118.061061 
L 454.097627 115.631661 
L 457.316755 114.852329 
L 460.535884 110.62373 
L 463.755012 109.348896 
L 466.97414 105.442613 
L 470.193268 101.175528 
L 473.412396 97.567508 
L 476.631524 93.48804 
L 479.850652 90.625678 
L 483.06978 86.300865 
L 486.288908 85.863092 
L 489.508036 84.694093 
L 492.727164 84.208213 
L 495.946292 81.75957 
L 499.165421 77.093198 
L 502.384549 76.390837 
L 505.603677 74.692662 
L 508.822805 71.469498 
L 512.041933 67.452569 
L 515.261061 65.682234 
L 518.480189 66.702101 
L 521.699317 63.421208 
L 524.918445 62.60339 
L 528.137573 61.934704 
L 531.356701 61.602766 
L 534.575829 61.742276 
L 537.794958 61.044725 
L 541.014086 59.635192 
L 544.233214 55.007305 
L 547.452342 52.813629 
L 550.67147 55.459511 
L 553.890598 55.252651 
L 557.109726 57.013365 
L 560.328854 55.757774 
L 563.547982 56.137818 
L 566.76711 53.886414 
L 569.986238 54.660936 
L 573.205366 53.001246 
L 576.424495 52.063161 
L 579.643623 53.525612 
L 582.862751 53.390913 
L 586.081879 55.87323 
L 589.301007 54.709043 
L 592.520135 56.946015 
L 595.739263 56.811315 
L 598.958391 54.877417 
L 602.177519 60.063344 
L 605.396647 59.360983 
L 608.615775 57.19136 
L 611.834903 60.79938 
L 615.054032 58.235281 
L 618.27316 59.158934 
L 621.492288 59.250337 
L 624.711416 64.113948 
L 627.930544 61.395906 
L 631.149672 64.171676 
L 634.3688 63.401965 
L 637.587928 66.577023 
L 640.807056 65.970875 
L 644.026184 62.848735 
L 647.245312 64.54691 
L 650.46444 65.124193 
L 653.683569 68.280008 
L 656.902697 68.583082 
L 660.121825 69.222904 
L 663.340953 72.142995 
L 666.560081 72.835734 
L 669.779209 73.643931 
L 672.998337 74.962061 
L 676.217465 72.922327 
L 679.436593 73.475557 
L 682.655721 75.553776 
L 685.874849 78.093822 
L 689.093977 79.796808 
L 692.313106 78.00723 
L 695.532234 82.79868 
L 698.751362 83.289371 
L 701.97049 84.015785 
L 705.189618 84.068703 
L 708.408746 83.654983 
L 711.627874 82.72652 
L 714.847002 84.366966 
L 718.06613 85.810174 
L 721.285258 85.98817 
L 724.504386 86.849284 
L 727.723514 90.890266 
L 730.942643 90.563139 
L 734.161771 90.5006 
L 737.380899 93.699711 
L 740.600027 93.589065 
L 743.819155 92.405634 
L 747.038283 92.487416 
L 750.257411 94.546393 
L 759.914795 98.269869 
L 763.133923 99.193523 
L 766.353051 102.99397 
L 769.57218 102.22907 
L 772.791308 102.498469 
L 776.010436 104.759495 
L 779.229564 103.561632 
L 782.448692 105.197268 
L 785.66782 104.889383 
L 788.886948 106.457669 
L 792.106076 109.1709 
L 795.325204 110.90756 
L 798.544332 110.642972 
L 801.76346 112.653842 
L 804.982589 111.412683 
L 808.201717 111.018206 
L 811.420845 114.217317 
L 814.639973 112.980969 
L 817.859101 115.732686 
L 821.078229 115.809657 
L 824.297357 118.162086 
L 830.735613 118.840394 
L 833.954741 121.149526 
L 840.392997 121.221687 
L 843.612126 123.343202 
L 846.831254 122.857322 
L 850.050382 121.669081 
L 853.26951 123.044939 
L 856.488638 123.930107 
L 859.707766 127.884497 
L 862.926894 128.702315 
L 866.146022 132.016882 
L 869.36515 128.865878 
L 872.584278 130.703563 
L 875.803406 129.255544 
L 879.022534 130.987394 
L 882.241663 131.348196 
L 885.460791 133.45528 
L 888.679919 132.507573 
L 891.899047 133.796839 
L 895.118175 134.715681 
L 898.337303 138.116841 
L 901.556431 136.923789 
L 904.775559 139.199247 
L 911.213815 137.573233 
L 914.432943 140.806019 
L 917.652071 139.954526 
L 920.8712 139.728423 
L 924.090328 143.182501 
L 927.309456 142.990073 
L 933.747712 145.154885 
L 936.96684 146.578851 
L 940.185968 145.227046 
L 943.405096 145.126021 
L 946.624224 145.510877 
L 949.843352 145.260721 
L 949.843352 145.260721 
" clip-path="url(#pd55e0e3fd7)" style="fill: none; stroke: #434348; stroke-linecap: square"/>
   </g>
   <g id="line2d_11">
    <path d="M 40.600625 273.99006 
L 993.140625 273.99006 
" clip-path="url(#pd55e0e3fd7)" style="fill: none; stroke: #dedede; stroke-width: 2; stroke-linecap: square"/>
   </g>
   <g id="text_17">
    <!-- Fastp: Insert Size Distribution -->
    <g transform="translate(399.354375 19.3575) scale(0.16 -0.16)">
     <defs>
      <path id="DejaVuSans-46" d="M 628 4666 
L 3309 4666 
L 3309 4134 
L 1259 4134 
L 1259 2759 
L 3109 2759 
L 3109 2228 
L 1259 2228 
L 1259 0 
L 628 0 
L 628 4666 
z
" transform="scale(0.015625)"/>
      <path id="DejaVuSans-3a" d="M 750 794 
L 1409 794 
L 1409 0 
L 750 0 
L 750 794 
z
M 750 3309 
L 1409 3309 
L 1409 2516 
L 750 2516 
L 750 3309 
z
" transform="scale(0.015625)"/>
      <path id="DejaVuSans-53" d="M 3425 4513 
L 3425 3897 
Q 3066 4069 2747 4153 
Q 2428 4238 2131 4238 
Q 1616 4238 1336 4038 
Q 1056 3838 1056 3469 
Q 1056 3159 1242 3001 
Q 1428 2844 1947 2747 
L 2328 2669 
Q 3034 2534 3370 2195 
Q 3706 1856 3706 1288 
Q 3706 609 3251 259 
Q 2797 -91 1919 -91 
Q 1588 -91 1214 -16 
Q 841 59 441 206 
L 441 856 
Q 825 641 1194 531 
Q 1563 422 1919 422 
Q 2459 422 2753 634 
Q 3047 847 3047 1241 
Q 3047 1584 2836 1778 
Q 2625 1972 2144 2069 
L 1759 2144 
Q 1053 2284 737 2584 
Q 422 2884 422 3419 
Q 422 4038 858 4394 
Q 1294 4750 2059 4750 
Q 2388 4750 2728 4690 
Q 3069 4631 3425 4513 
z
" transform="scale(0.015625)"/>
      <path id="DejaVuSans-44" d="M 1259 4147 
L 1259 519 
L 2022 519 
Q 2988 519 3436 956 
Q 3884 1394 3884 2338 
Q 3884 3275 3436 3711 
Q 2988 4147 2022 4147 
L 1259 4147 
z
M 628 4666 
L 1925 4666 
Q 3281 4666 3915 4102 
Q 4550 3538 4550 2338 
Q 4550 1131 3912 565 
Q 3275 0 1925 0 
L 628 0 
L 628 4666 
z
" transform="scale(0.015625)"/>
      <path id="DejaVuSans-62" d="M 3116 1747 
Q 3116 2381 2855 2742 
Q 2594 3103 2138 3103 
Q 1681 3103 1420 2742 
Q 1159 2381 1159 1747 
Q 1159 1113 1420 752 
Q 1681 391 2138 391 
Q 2594 391 2855 752 
Q 3116 1113 3116 1747 
z
M 1159 2969 
Q 1341 3281 1617 3432 
Q 1894 3584 2278 3584 
Q 2916 3584 3314 3078 
Q 3713 2572 3713 1747 
Q 3713 922 3314 415 
Q 2916 -91 2278 -91 
Q 1894 -91 1617 61 
Q 1341 213 1159 525 
L 1159 0 
L 581 0 
L 581 4863 
L 1159 4863 
L 1159 2969 
z
" transform="scale(0.015625)"/>
      <path id="DejaVuSans-75" d="M 544 1381 
L 544 3500 
L 1119 3500 
L 1119 1403 
Q 1119 906 1312 657 
Q 1506 409 1894 409 
Q 2359 409 2629 706 
Q 2900 1003 2900 1516 
L 2900 3500 
L 3475 3500 
L 3475 0 
L 2900 0 
L 2900 538 
Q 2691 219 2414 64 
Q 2138 -91 1772 -91 
Q 1169 -91 856 284 
Q 544 659 544 1381 
z
M 1991 3584 
L 1991 3584 
z
" transform="scale(0.015625)"/>
      <path id="DejaVuSans-6f" d="M 1959 3097 
Q 1497 3097 1228 2736 
Q 959 2375 959 1747 
Q 959 1119 1226 758 
Q 1494 397 1959 397 
Q 2419 397 2687 759 
Q 2956 1122 2956 1747 
Q 2956 2369 2687 2733 
Q 2419 3097 1959 3097 
z
M 1959 3584 
Q 2709 3584 3137 3096 
Q 3566 2609 3566 1747 
Q 3566 888 3137 398 
Q 2709 -91 1959 -91 
Q 1206 -91 779 398 
Q 353 888 353 1747 
Q 353 2609 779 3096 
Q 1206 3584 1959 3584 
z
" transform="scale(0.015625)"/>
     </defs>
     <use xlink:href="#DejaVuSans-46"/>
     <use xlink:href="#DejaVuSans-61" x="48.394531"/>
     <use xlink:href="#DejaVuSans-73" x="109.673828"/>
     <use xlink:href="#DejaVuSans-74" x="161.773438"/>
     <use xlink:href="#DejaVuSans-70" x="200.982422"/>
     <use xlink:href="#DejaVuSans-3a" x="264.458984"/>
     <use xlink:href="#DejaVuSans-20" x="298.150391"/>
     <use xlink:href="#DejaVuSans-49" x="329.9375"/>
     <use xlink:href="#DejaVuSans-6e" x="359.429688"/>
     <use xlink:href="#DejaVuSans-73" x="422.808594"/>
     <use xlink:href="#DejaVuSans-65" x="474.908203"/>
     <use xlink:href="#DejaVuSans-72" x="536.431641"/>
     <use xlink:href="#DejaVuSans-74" x="577.544922"/>
     <use xlink:href="#DejaVuSans-20" x="616.753906"/>
     <use xlink:href="#DejaVuSans-53" x="648.541016"/>
     <use xlink:href="#DejaVuSans-69" x="712.017578"/>
     <use xlink:href="#DejaVuSans-7a" x="739.800781"/>
     <use xlink:href="#DejaVuSans-65" x="792.291016"/>
     <use xlink:href="#DejaVuSans-20" x="853.814453"/>
     <use xlink:href="#DejaVuSans-44" x="885.601562"/>
     <use xlink:href="#DejaVuSans-69" x="962.603516"/>
     <use xlink:href="#DejaVuSans-73" x="990.386719"/>
     <use xlink:href="#DejaVuSans-74" x="1042.486328"/>
     <use xlink:href="#DejaVuSans-72" x="1081.695312"/>
     <use xlink:href="#DejaVuSans-69" x="1122.808594"/>
     <use xlink:href="#DejaVuSans-62" x="1150.591797"/>
     <use xlink:href="#DejaVuSans-75" x="1214.068359"/>
     <use xlink:href="#DejaVuSans-74" x="1277.447266"/>
     <use xlink:href="#DejaVuSans-69" x="1316.65625"/>
     <use xlink:href="#DejaVuSans-6f" x="1344.439453"/>
     <use xlink:href="#DejaVuSans-6e" x="1405.621094"/>
    </g>
   </g>
   <g id="legend_1">
    <g id="line2d_12">
     <path d="M 47.800625 315.455394 
L 55.800625 315.455394 
L 63.800625 315.455394 
" style="fill: none; stroke: #7cb5ec; stroke-linecap: square"/>
    </g>
    <g id="text_18">
     <!-- Minus_cre_p53mut -->
     <g transform="translate(70.200625 318.255394) scale(0.08 -0.08)">
      <defs>
       <path id="DejaVuSans-4d" d="M 628 4666 
L 1569 4666 
L 2759 1491 
L 3956 4666 
L 4897 4666 
L 4897 0 
L 4281 0 
L 4281 4097 
L 3078 897 
L 2444 897 
L 1241 4097 
L 1241 0 
L 628 0 
L 628 4666 
z
" transform="scale(0.015625)"/>
       <path id="DejaVuSans-5f" d="M 3263 -1063 
L 3263 -1509 
L -63 -1509 
L -63 -1063 
L 3263 -1063 
z
" transform="scale(0.015625)"/>
       <path id="DejaVuSans-6d" d="M 3328 2828 
Q 3544 3216 3844 3400 
Q 4144 3584 4550 3584 
Q 5097 3584 5394 3201 
Q 5691 2819 5691 2113 
L 5691 0 
L 5113 0 
L 5113 2094 
Q 5113 2597 4934 2840 
Q 4756 3084 4391 3084 
Q 3944 3084 3684 2787 
Q 3425 2491 3425 1978 
L 3425 0 
L 2847 0 
L 2847 2094 
Q 2847 2600 2669 2842 
Q 2491 3084 2119 3084 
Q 1678 3084 1418 2786 
Q 1159 2488 1159 1978 
L 1159 0 
L 581 0 
L 581 3500 
L 1159 3500 
L 1159 2956 
Q 1356 3278 1631 3431 
Q 1906 3584 2284 3584 
Q 2666 3584 2933 3390 
Q 3200 3197 3328 2828 
z
" transform="scale(0.015625)"/>
      </defs>
      <use xlink:href="#DejaVuSans-4d"/>
      <use xlink:href="#DejaVuSans-69" x="86.279297"/>
      <use xlink:href="#DejaVuSans-6e" x="114.0625"/>
      <use xlink:href="#DejaVuSans-75" x="177.441406"/>
      <use xlink:href="#DejaVuSans-73" x="240.820312"/>
      <use xlink:href="#DejaVuSans-5f" x="292.919922"/>
      <use xlink:href="#DejaVuSans-63" x="342.919922"/>
      <use xlink:href="#DejaVuSans-72" x="397.900391"/>
      <use xlink:href="#DejaVuSans-65" x="436.763672"/>
      <use xlink:href="#DejaVuSans-5f" x="498.287109"/>
      <use xlink:href="#DejaVuSans-70" x="548.287109"/>
      <use xlink:href="#DejaVuSans-35" x="611.763672"/>
      <use xlink:href="#DejaVuSans-33" x="675.386719"/>
      <use xlink:href="#DejaVuSans-6d" x="739.009766"/>
      <use xlink:href="#DejaVuSans-75" x="836.421875"/>
      <use xlink:href="#DejaVuSans-74" x="899.800781"/>
     </g>
    </g>
    <g id="line2d_13">
     <path d="M 895.569375 315.455394 
L 903.569375 315.455394 
L 911.569375 315.455394 
" style="fill: none; stroke: #434348; stroke-linecap: square"/>
    </g>
    <g id="text_19">
     <!-- Plus_cre_p53mut -->
     <g transform="translate(917.969375 318.255394) scale(0.08 -0.08)">
      <defs>
       <path id="DejaVuSans-50" d="M 1259 4147 
L 1259 2394 
L 2053 2394 
Q 2494 2394 2734 2622 
Q 2975 2850 2975 3272 
Q 2975 3691 2734 3919 
Q 2494 4147 2053 4147 
L 1259 4147 
z
M 628 4666 
L 2053 4666 
Q 2838 4666 3239 4311 
Q 3641 3956 3641 3272 
Q 3641 2581 3239 2228 
Q 2838 1875 2053 1875 
L 1259 1875 
L 1259 0 
L 628 0 
L 628 4666 
z
" transform="scale(0.015625)"/>
       <path id="DejaVuSans-6c" d="M 603 4863 
L 1178 4863 
L 1178 0 
L 603 0 
L 603 4863 
z
" transform="scale(0.015625)"/>
      </defs>
      <use xlink:href="#DejaVuSans-50"/>
      <use xlink:href="#DejaVuSans-6c" x="60.302734"/>
      <use xlink:href="#DejaVuSans-75" x="88.085938"/>
      <use xlink:href="#DejaVuSans-73" x="151.464844"/>
      <use xlink:href="#DejaVuSans-5f" x="203.564453"/>
      <use xlink:href="#DejaVuSans-63" x="253.564453"/>
      <use xlink:href="#DejaVuSans-72" x="308.544922"/>
      <use xlink:href="#DejaVuSans-65" x="347.408203"/>
      <use xlink:href="#DejaVuSans-5f" x="408.931641"/>
      <use xlink:href="#DejaVuSans-70" x="458.931641"/>
      <use xlink:href="#DejaVuSans-35" x="522.408203"/>
      <use xlink:href="#DejaVuSans-33" x="586.03125"/>
      <use xlink:href="#DejaVuSans-6d" x="649.654297"/>
      <use xlink:href="#DejaVuSans-75" x="747.066406"/>
      <use xlink:href="#DejaVuSans-74" x="810.445312"/>
     </g>
    </g>
   </g>
  </g>
 </g>
 <defs>
  <clipPath id="pd55e0e3fd7">
   <rect x="40.600625" y="31.48286" width="952.54" height="242.5072"/>
  </clipPath>
 </defs>
</svg>
