<?xml version="1.0" encoding="utf-8" standalone="no"?>
<!DOCTYPE svg PUBLIC "-//W3C//DTD SVG 1.1//EN"
  "http://www.w3.org/Graphics/SVG/1.1/DTD/svg11.dtd">
<svg xmlns:xlink="http://www.w3.org/1999/xlink" width="1000.300625pt" height="330.541644pt" viewBox="0 0 1000.300625 330.541644" xmlns="http://www.w3.org/2000/svg" version="1.1">
 <metadata>
  <rdf:RDF xmlns:dc="http://purl.org/dc/elements/1.1/" xmlns:cc="http://creativecommons.org/ns#" xmlns:rdf="http://www.w3.org/1999/02/22-rdf-syntax-ns#">
   <cc:Work>
    <dc:type rdf:resource="http://purl.org/dc/dcmitype/StillImage"/>
    <dc:date>2025-05-20T01:35:26.043486</dc:date>
    <dc:format>image/svg+xml</dc:format>
    <dc:creator>
     <cc:Agent>
      <dc:title>Matplotlib v3.8.2, https://matplotlib.org/</dc:title>
     </cc:Agent>
    </dc:creator>
   </cc:Work>
  </rdf:RDF>
 </metadata>
 <defs>
  <style type="text/css">*{stroke-linejoin: round; stroke-linecap: butt}</style>
 </defs>
 <g id="figure_1">
  <g id="axes_1">
   <g id="patch_1">
    <path d="M 45.690625 273.99006 
L 993.100625 273.99006 
L 993.100625 31.48286 
L 45.690625 31.48286 
z
" style="fill: #ffffff"/>
   </g>
   <g id="patch_2">
    <path d="M 45.690625 25.171931 
L 956.323263 25.171931 
L 956.323263 -970.100583 
L 45.690625 -970.100583 
z
" clip-path="url(#pf697f50ddc)" style="fill: #e6c3c3"/>
   </g>
   <g id="patch_3">
    <path d="M 45.690625 211.785528 
L 956.323263 211.785528 
L 956.323263 25.171931 
L 45.690625 25.171931 
z
" clip-path="url(#pf697f50ddc)" style="fill: #e6dcc3"/>
   </g>
   <g id="patch_4">
    <path d="M 45.690625 273.99006 
L 956.323263 273.99006 
L 956.323263 211.785528 
L 45.690625 211.785528 
z
" clip-path="url(#pf697f50ddc)" style="fill: #c3e6c3"/>
   </g>
   <g id="matplotlib.axis_1">
    <g id="xtick_1">
     <g id="text_1">
      <!-- 0 -->
      <g transform="translate(79.922987 287.06881) scale(0.08 -0.08)">
       <defs>
        <path id="DejaVuSans-30" d="M 2034 4250 
Q 1547 4250 1301 3770 
Q 1056 3291 1056 2328 
Q 1056 1369 1301 889 
Q 1547 409 2034 409 
Q 2525 409 2770 889 
Q 3016 1369 3016 2328 
Q 3016 3291 2770 3770 
Q 2525 4250 2034 4250 
z
M 2034 4750 
Q 2819 4750 3233 4129 
Q 3647 3509 3647 2328 
Q 3647 1150 3233 529 
Q 2819 -91 2034 -91 
Q 1250 -91 836 529 
Q 422 1150 422 2328 
Q 422 3509 836 4129 
Q 1250 4750 2034 4750 
z
" transform="scale(0.015625)"/>
       </defs>
       <use xlink:href="#DejaVuSans-30"/>
      </g>
     </g>
    </g>
    <g id="xtick_2">
     <g id="text_2">
      <!-- 20 -->
      <g transform="translate(203.112559 287.06881) scale(0.08 -0.08)">
       <defs>
        <path id="DejaVuSans-32" d="M 1228 531 
L 3431 531 
L 3431 0 
L 469 0 
L 469 531 
Q 828 903 1448 1529 
Q 2069 2156 2228 2338 
Q 2531 2678 2651 2914 
Q 2772 3150 2772 3378 
Q 2772 3750 2511 3984 
Q 2250 4219 1831 4219 
Q 1534 4219 1204 4116 
Q 875 4013 500 3803 
L 500 4441 
Q 881 4594 1212 4672 
Q 1544 4750 1819 4750 
Q 2544 4750 2975 4387 
Q 3406 4025 3406 3419 
Q 3406 3131 3298 2873 
Q 3191 2616 2906 2266 
Q 2828 2175 2409 1742 
Q 1991 1309 1228 531 
z
" transform="scale(0.015625)"/>
       </defs>
       <use xlink:href="#DejaVuSans-32"/>
       <use xlink:href="#DejaVuSans-30" x="63.623047"/>
      </g>
     </g>
    </g>
    <g id="xtick_3">
     <g id="text_3">
      <!-- 40 -->
      <g transform="translate(328.847131 287.06881) scale(0.08 -0.08)">
       <defs>
        <path id="DejaVuSans-34" d="M 2419 4116 
L 825 1625 
L 2419 1625 
L 2419 4116 
z
M 2253 4666 
L 3047 4666 
L 3047 1625 
L 3713 1625 
L 3713 1100 
L 3047 1100 
L 3047 0 
L 2419 0 
L 2419 1100 
L 313 1100 
L 313 1709 
L 2253 4666 
z
" transform="scale(0.015625)"/>
       </defs>
       <use xlink:href="#DejaVuSans-34"/>
       <use xlink:href="#DejaVuSans-30" x="63.623047"/>
      </g>
     </g>
    </g>
    <g id="xtick_4">
     <g id="text_4">
      <!-- 60 -->
      <g transform="translate(454.581703 287.06881) scale(0.08 -0.08)">
       <defs>
        <path id="DejaVuSans-36" d="M 2113 2584 
Q 1688 2584 1439 2293 
Q 1191 2003 1191 1497 
Q 1191 994 1439 701 
Q 1688 409 2113 409 
Q 2538 409 2786 701 
Q 3034 994 3034 1497 
Q 3034 2003 2786 2293 
Q 2538 2584 2113 2584 
z
M 3366 4563 
L 3366 3988 
Q 3128 4100 2886 4159 
Q 2644 4219 2406 4219 
Q 1781 4219 1451 3797 
Q 1122 3375 1075 2522 
Q 1259 2794 1537 2939 
Q 1816 3084 2150 3084 
Q 2853 3084 3261 2657 
Q 3669 2231 3669 1497 
Q 3669 778 3244 343 
Q 2819 -91 2113 -91 
Q 1303 -91 875 529 
Q 447 1150 447 2328 
Q 447 3434 972 4092 
Q 1497 4750 2381 4750 
Q 2619 4750 2861 4703 
Q 3103 4656 3366 4563 
z
" transform="scale(0.015625)"/>
       </defs>
       <use xlink:href="#DejaVuSans-36"/>
       <use xlink:href="#DejaVuSans-30" x="63.623047"/>
      </g>
     </g>
    </g>
    <g id="xtick_5">
     <g id="text_5">
      <!-- 80 -->
      <g transform="translate(580.316275 287.06881) scale(0.08 -0.08)">
       <defs>
        <path id="DejaVuSans-38" d="M 2034 2216 
Q 1584 2216 1326 1975 
Q 1069 1734 1069 1313 
Q 1069 891 1326 650 
Q 1584 409 2034 409 
Q 2484 409 2743 651 
Q 3003 894 3003 1313 
Q 3003 1734 2745 1975 
Q 2488 2216 2034 2216 
z
M 1403 2484 
Q 997 2584 770 2862 
Q 544 3141 544 3541 
Q 544 4100 942 4425 
Q 1341 4750 2034 4750 
Q 2731 4750 3128 4425 
Q 3525 4100 3525 3541 
Q 3525 3141 3298 2862 
Q 3072 2584 2669 2484 
Q 3125 2378 3379 2068 
Q 3634 1759 3634 1313 
Q 3634 634 3220 271 
Q 2806 -91 2034 -91 
Q 1263 -91 848 271 
Q 434 634 434 1313 
Q 434 1759 690 2068 
Q 947 2378 1403 2484 
z
M 1172 3481 
Q 1172 3119 1398 2916 
Q 1625 2713 2034 2713 
Q 2441 2713 2670 2916 
Q 2900 3119 2900 3481 
Q 2900 3844 2670 4047 
Q 2441 4250 2034 4250 
Q 1625 4250 1398 4047 
Q 1172 3844 1172 3481 
z
" transform="scale(0.015625)"/>
       </defs>
       <use xlink:href="#DejaVuSans-38"/>
       <use xlink:href="#DejaVuSans-30" x="63.623047"/>
      </g>
     </g>
    </g>
    <g id="xtick_6">
     <g id="text_6">
      <!-- 100 -->
      <g transform="translate(703.505847 287.06881) scale(0.08 -0.08)">
       <defs>
        <path id="DejaVuSans-31" d="M 794 531 
L 1825 531 
L 1825 4091 
L 703 3866 
L 703 4441 
L 1819 4666 
L 2450 4666 
L 2450 531 
L 3481 531 
L 3481 0 
L 794 0 
L 794 531 
z
" transform="scale(0.015625)"/>
       </defs>
       <use xlink:href="#DejaVuSans-31"/>
       <use xlink:href="#DejaVuSans-30" x="63.623047"/>
       <use xlink:href="#DejaVuSans-30" x="127.246094"/>
      </g>
     </g>
    </g>
    <g id="xtick_7">
     <g id="text_7">
      <!-- 120 -->
      <g transform="translate(829.240419 287.06881) scale(0.08 -0.08)">
       <use xlink:href="#DejaVuSans-31"/>
       <use xlink:href="#DejaVuSans-32" x="63.623047"/>
       <use xlink:href="#DejaVuSans-30" x="127.246094"/>
      </g>
     </g>
    </g>
    <g id="xtick_8">
     <g id="text_8">
      <!-- 140 -->
      <g transform="translate(954.974991 287.06881) scale(0.08 -0.08)">
       <use xlink:href="#DejaVuSans-31"/>
       <use xlink:href="#DejaVuSans-34" x="63.623047"/>
       <use xlink:href="#DejaVuSans-30" x="127.246094"/>
      </g>
     </g>
    </g>
    <g id="text_9">
     <!-- Position (bp) -->
     <g transform="translate(488.0925 300.330997) scale(0.1 -0.1)">
      <defs>
       <path id="DejaVuSans-50" d="M 1259 4147 
L 1259 2394 
L 2053 2394 
Q 2494 2394 2734 2622 
Q 2975 2850 2975 3272 
Q 2975 3691 2734 3919 
Q 2494 4147 2053 4147 
L 1259 4147 
z
M 628 4666 
L 2053 4666 
Q 2838 4666 3239 4311 
Q 3641 3956 3641 3272 
Q 3641 2581 3239 2228 
Q 2838 1875 2053 1875 
L 1259 1875 
L 1259 0 
L 628 0 
L 628 4666 
z
" transform="scale(0.015625)"/>
       <path id="DejaVuSans-6f" d="M 1959 3097 
Q 1497 3097 1228 2736 
Q 959 2375 959 1747 
Q 959 1119 1226 758 
Q 1494 397 1959 397 
Q 2419 397 2687 759 
Q 2956 1122 2956 1747 
Q 2956 2369 2687 2733 
Q 2419 3097 1959 3097 
z
M 1959 3584 
Q 2709 3584 3137 3096 
Q 3566 2609 3566 1747 
Q 3566 888 3137 398 
Q 2709 -91 1959 -91 
Q 1206 -91 779 398 
Q 353 888 353 1747 
Q 353 2609 779 3096 
Q 1206 3584 1959 3584 
z
" transform="scale(0.015625)"/>
       <path id="DejaVuSans-73" d="M 2834 3397 
L 2834 2853 
Q 2591 2978 2328 3040 
Q 2066 3103 1784 3103 
Q 1356 3103 1142 2972 
Q 928 2841 928 2578 
Q 928 2378 1081 2264 
Q 1234 2150 1697 2047 
L 1894 2003 
Q 2506 1872 2764 1633 
Q 3022 1394 3022 966 
Q 3022 478 2636 193 
Q 2250 -91 1575 -91 
Q 1294 -91 989 -36 
Q 684 19 347 128 
L 347 722 
Q 666 556 975 473 
Q 1284 391 1588 391 
Q 1994 391 2212 530 
Q 2431 669 2431 922 
Q 2431 1156 2273 1281 
Q 2116 1406 1581 1522 
L 1381 1569 
Q 847 1681 609 1914 
Q 372 2147 372 2553 
Q 372 3047 722 3315 
Q 1072 3584 1716 3584 
Q 2034 3584 2315 3537 
Q 2597 3491 2834 3397 
z
" transform="scale(0.015625)"/>
       <path id="DejaVuSans-69" d="M 603 3500 
L 1178 3500 
L 1178 0 
L 603 0 
L 603 3500 
z
M 603 4863 
L 1178 4863 
L 1178 4134 
L 603 4134 
L 603 4863 
z
" transform="scale(0.015625)"/>
       <path id="DejaVuSans-74" d="M 1172 4494 
L 1172 3500 
L 2356 3500 
L 2356 3053 
L 1172 3053 
L 1172 1153 
Q 1172 725 1289 603 
Q 1406 481 1766 481 
L 2356 481 
L 2356 0 
L 1766 0 
Q 1100 0 847 248 
Q 594 497 594 1153 
L 594 3053 
L 172 3053 
L 172 3500 
L 594 3500 
L 594 4494 
L 1172 4494 
z
" transform="scale(0.015625)"/>
       <path id="DejaVuSans-6e" d="M 3513 2113 
L 3513 0 
L 2938 0 
L 2938 2094 
Q 2938 2591 2744 2837 
Q 2550 3084 2163 3084 
Q 1697 3084 1428 2787 
Q 1159 2491 1159 1978 
L 1159 0 
L 581 0 
L 581 3500 
L 1159 3500 
L 1159 2956 
Q 1366 3272 1645 3428 
Q 1925 3584 2291 3584 
Q 2894 3584 3203 3211 
Q 3513 2838 3513 2113 
z
" transform="scale(0.015625)"/>
       <path id="DejaVuSans-20" transform="scale(0.015625)"/>
       <path id="DejaVuSans-28" d="M 1984 4856 
Q 1566 4138 1362 3434 
Q 1159 2731 1159 2009 
Q 1159 1288 1364 580 
Q 1569 -128 1984 -844 
L 1484 -844 
Q 1016 -109 783 600 
Q 550 1309 550 2009 
Q 550 2706 781 3412 
Q 1013 4119 1484 4856 
L 1984 4856 
z
" transform="scale(0.015625)"/>
       <path id="DejaVuSans-62" d="M 3116 1747 
Q 3116 2381 2855 2742 
Q 2594 3103 2138 3103 
Q 1681 3103 1420 2742 
Q 1159 2381 1159 1747 
Q 1159 1113 1420 752 
Q 1681 391 2138 391 
Q 2594 391 2855 752 
Q 3116 1113 3116 1747 
z
M 1159 2969 
Q 1341 3281 1617 3432 
Q 1894 3584 2278 3584 
Q 2916 3584 3314 3078 
Q 3713 2572 3713 1747 
Q 3713 922 3314 415 
Q 2916 -91 2278 -91 
Q 1894 -91 1617 61 
Q 1341 213 1159 525 
L 1159 0 
L 581 0 
L 581 4863 
L 1159 4863 
L 1159 2969 
z
" transform="scale(0.015625)"/>
       <path id="DejaVuSans-70" d="M 1159 525 
L 1159 -1331 
L 581 -1331 
L 581 3500 
L 1159 3500 
L 1159 2969 
Q 1341 3281 1617 3432 
Q 1894 3584 2278 3584 
Q 2916 3584 3314 3078 
Q 3713 2572 3713 1747 
Q 3713 922 3314 415 
Q 2916 -91 2278 -91 
Q 1894 -91 1617 61 
Q 1341 213 1159 525 
z
M 3116 1747 
Q 3116 2381 2855 2742 
Q 2594 3103 2138 3103 
Q 1681 3103 1420 2742 
Q 1159 2381 1159 1747 
Q 1159 1113 1420 752 
Q 1681 391 2138 391 
Q 2594 391 2855 752 
Q 3116 1113 3116 1747 
z
" transform="scale(0.015625)"/>
       <path id="DejaVuSans-29" d="M 513 4856 
L 1013 4856 
Q 1481 4119 1714 3412 
Q 1947 2706 1947 2009 
Q 1947 1309 1714 600 
Q 1481 -109 1013 -844 
L 513 -844 
Q 928 -128 1133 580 
Q 1338 1288 1338 2009 
Q 1338 2731 1133 3434 
Q 928 4138 513 4856 
z
" transform="scale(0.015625)"/>
      </defs>
      <use xlink:href="#DejaVuSans-50"/>
      <use xlink:href="#DejaVuSans-6f" x="56.677734"/>
      <use xlink:href="#DejaVuSans-73" x="117.859375"/>
      <use xlink:href="#DejaVuSans-69" x="169.958984"/>
      <use xlink:href="#DejaVuSans-74" x="197.742188"/>
      <use xlink:href="#DejaVuSans-69" x="236.951172"/>
      <use xlink:href="#DejaVuSans-6f" x="264.734375"/>
      <use xlink:href="#DejaVuSans-6e" x="325.916016"/>
      <use xlink:href="#DejaVuSans-20" x="389.294922"/>
      <use xlink:href="#DejaVuSans-28" x="421.082031"/>
      <use xlink:href="#DejaVuSans-62" x="460.095703"/>
      <use xlink:href="#DejaVuSans-70" x="523.572266"/>
      <use xlink:href="#DejaVuSans-29" x="587.048828"/>
     </g>
    </g>
   </g>
   <g id="matplotlib.axis_2">
    <g id="ytick_1">
     <g id="line2d_1">
      <path d="M 45.690625 273.99006 
L 993.100625 273.99006 
" clip-path="url(#pf697f50ddc)" style="fill: none; stroke: #dedede; stroke-linecap: square"/>
     </g>
     <g id="text_10">
      <!-- 0.0 -->
      <g transform="translate(25.968125 277.029435) scale(0.08 -0.08)">
       <defs>
        <path id="DejaVuSans-2e" d="M 684 794 
L 1344 794 
L 1344 0 
L 684 0 
L 684 794 
z
" transform="scale(0.015625)"/>
       </defs>
       <use xlink:href="#DejaVuSans-30"/>
       <use xlink:href="#DejaVuSans-2e" x="63.623047"/>
       <use xlink:href="#DejaVuSans-30" x="95.410156"/>
      </g>
     </g>
    </g>
    <g id="ytick_2">
     <g id="line2d_2">
      <path d="M 45.690625 242.887794 
L 993.100625 242.887794 
" clip-path="url(#pf697f50ddc)" style="fill: none; stroke: #dedede; stroke-linecap: square"/>
     </g>
     <g id="text_11">
      <!-- 2.5 -->
      <g transform="translate(25.968125 245.927169) scale(0.08 -0.08)">
       <defs>
        <path id="DejaVuSans-35" d="M 691 4666 
L 3169 4666 
L 3169 4134 
L 1269 4134 
L 1269 2991 
Q 1406 3038 1543 3061 
Q 1681 3084 1819 3084 
Q 2600 3084 3056 2656 
Q 3513 2228 3513 1497 
Q 3513 744 3044 326 
Q 2575 -91 1722 -91 
Q 1428 -91 1123 -41 
Q 819 9 494 109 
L 494 744 
Q 775 591 1075 516 
Q 1375 441 1709 441 
Q 2250 441 2565 725 
Q 2881 1009 2881 1497 
Q 2881 1984 2565 2268 
Q 2250 2553 1709 2553 
Q 1456 2553 1204 2497 
Q 953 2441 691 2322 
L 691 4666 
z
" transform="scale(0.015625)"/>
       </defs>
       <use xlink:href="#DejaVuSans-32"/>
       <use xlink:href="#DejaVuSans-2e" x="63.623047"/>
       <use xlink:href="#DejaVuSans-35" x="95.410156"/>
      </g>
     </g>
    </g>
    <g id="ytick_3">
     <g id="line2d_3">
      <path d="M 45.690625 211.785528 
L 993.100625 211.785528 
" clip-path="url(#pf697f50ddc)" style="fill: none; stroke: #dedede; stroke-linecap: square"/>
     </g>
     <g id="text_12">
      <!-- 5.0 -->
      <g transform="translate(25.968125 214.824903) scale(0.08 -0.08)">
       <use xlink:href="#DejaVuSans-35"/>
       <use xlink:href="#DejaVuSans-2e" x="63.623047"/>
       <use xlink:href="#DejaVuSans-30" x="95.410156"/>
      </g>
     </g>
    </g>
    <g id="ytick_4">
     <g id="line2d_4">
      <path d="M 45.690625 180.683262 
L 993.100625 180.683262 
" clip-path="url(#pf697f50ddc)" style="fill: none; stroke: #dedede; stroke-linecap: square"/>
     </g>
     <g id="text_13">
      <!-- 7.5 -->
      <g transform="translate(25.968125 183.722637) scale(0.08 -0.08)">
       <defs>
        <path id="DejaVuSans-37" d="M 525 4666 
L 3525 4666 
L 3525 4397 
L 1831 0 
L 1172 0 
L 2766 4134 
L 525 4134 
L 525 4666 
z
" transform="scale(0.015625)"/>
       </defs>
       <use xlink:href="#DejaVuSans-37"/>
       <use xlink:href="#DejaVuSans-2e" x="63.623047"/>
       <use xlink:href="#DejaVuSans-35" x="95.410156"/>
      </g>
     </g>
    </g>
    <g id="ytick_5">
     <g id="line2d_5">
      <path d="M 45.690625 149.580996 
L 993.100625 149.580996 
" clip-path="url(#pf697f50ddc)" style="fill: none; stroke: #dedede; stroke-linecap: square"/>
     </g>
     <g id="text_14">
      <!-- 10.0 -->
      <g transform="translate(20.878125 152.620371) scale(0.08 -0.08)">
       <use xlink:href="#DejaVuSans-31"/>
       <use xlink:href="#DejaVuSans-30" x="63.623047"/>
       <use xlink:href="#DejaVuSans-2e" x="127.246094"/>
       <use xlink:href="#DejaVuSans-30" x="159.033203"/>
      </g>
     </g>
    </g>
    <g id="ytick_6">
     <g id="line2d_6">
      <path d="M 45.690625 118.47873 
L 993.100625 118.47873 
" clip-path="url(#pf697f50ddc)" style="fill: none; stroke: #dedede; stroke-linecap: square"/>
     </g>
     <g id="text_15">
      <!-- 12.5 -->
      <g transform="translate(20.878125 121.518105) scale(0.08 -0.08)">
       <use xlink:href="#DejaVuSans-31"/>
       <use xlink:href="#DejaVuSans-32" x="63.623047"/>
       <use xlink:href="#DejaVuSans-2e" x="127.246094"/>
       <use xlink:href="#DejaVuSans-35" x="159.033203"/>
      </g>
     </g>
    </g>
    <g id="ytick_7">
     <g id="line2d_7">
      <path d="M 45.690625 87.376464 
L 993.100625 87.376464 
" clip-path="url(#pf697f50ddc)" style="fill: none; stroke: #dedede; stroke-linecap: square"/>
     </g>
     <g id="text_16">
      <!-- 15.0 -->
      <g transform="translate(20.878125 90.415839) scale(0.08 -0.08)">
       <use xlink:href="#DejaVuSans-31"/>
       <use xlink:href="#DejaVuSans-35" x="63.623047"/>
       <use xlink:href="#DejaVuSans-2e" x="127.246094"/>
       <use xlink:href="#DejaVuSans-30" x="159.033203"/>
      </g>
     </g>
    </g>
    <g id="ytick_8">
     <g id="line2d_8">
      <path d="M 45.690625 56.274197 
L 993.100625 56.274197 
" clip-path="url(#pf697f50ddc)" style="fill: none; stroke: #dedede; stroke-linecap: square"/>
     </g>
     <g id="text_17">
      <!-- 17.5 -->
      <g transform="translate(20.878125 59.313572) scale(0.08 -0.08)">
       <use xlink:href="#DejaVuSans-31"/>
       <use xlink:href="#DejaVuSans-37" x="63.623047"/>
       <use xlink:href="#DejaVuSans-2e" x="127.246094"/>
       <use xlink:href="#DejaVuSans-35" x="159.033203"/>
      </g>
     </g>
    </g>
    <g id="text_18">
     <!-- % of Sequences -->
     <g transform="translate(14.798438 192.754429) rotate(-90) scale(0.1 -0.1)">
      <defs>
       <path id="DejaVuSans-25" d="M 4653 2053 
Q 4381 2053 4226 1822 
Q 4072 1591 4072 1178 
Q 4072 772 4226 539 
Q 4381 306 4653 306 
Q 4919 306 5073 539 
Q 5228 772 5228 1178 
Q 5228 1588 5073 1820 
Q 4919 2053 4653 2053 
z
M 4653 2450 
Q 5147 2450 5437 2106 
Q 5728 1763 5728 1178 
Q 5728 594 5436 251 
Q 5144 -91 4653 -91 
Q 4153 -91 3862 251 
Q 3572 594 3572 1178 
Q 3572 1766 3864 2108 
Q 4156 2450 4653 2450 
z
M 1428 4353 
Q 1159 4353 1004 4120 
Q 850 3888 850 3481 
Q 850 3069 1003 2837 
Q 1156 2606 1428 2606 
Q 1700 2606 1854 2837 
Q 2009 3069 2009 3481 
Q 2009 3884 1853 4118 
Q 1697 4353 1428 4353 
z
M 4250 4750 
L 4750 4750 
L 1831 -91 
L 1331 -91 
L 4250 4750 
z
M 1428 4750 
Q 1922 4750 2215 4408 
Q 2509 4066 2509 3481 
Q 2509 2891 2217 2550 
Q 1925 2209 1428 2209 
Q 931 2209 642 2551 
Q 353 2894 353 3481 
Q 353 4063 643 4406 
Q 934 4750 1428 4750 
z
" transform="scale(0.015625)"/>
       <path id="DejaVuSans-66" d="M 2375 4863 
L 2375 4384 
L 1825 4384 
Q 1516 4384 1395 4259 
Q 1275 4134 1275 3809 
L 1275 3500 
L 2222 3500 
L 2222 3053 
L 1275 3053 
L 1275 0 
L 697 0 
L 697 3053 
L 147 3053 
L 147 3500 
L 697 3500 
L 697 3744 
Q 697 4328 969 4595 
Q 1241 4863 1831 4863 
L 2375 4863 
z
" transform="scale(0.015625)"/>
       <path id="DejaVuSans-53" d="M 3425 4513 
L 3425 3897 
Q 3066 4069 2747 4153 
Q 2428 4238 2131 4238 
Q 1616 4238 1336 4038 
Q 1056 3838 1056 3469 
Q 1056 3159 1242 3001 
Q 1428 2844 1947 2747 
L 2328 2669 
Q 3034 2534 3370 2195 
Q 3706 1856 3706 1288 
Q 3706 609 3251 259 
Q 2797 -91 1919 -91 
Q 1588 -91 1214 -16 
Q 841 59 441 206 
L 441 856 
Q 825 641 1194 531 
Q 1563 422 1919 422 
Q 2459 422 2753 634 
Q 3047 847 3047 1241 
Q 3047 1584 2836 1778 
Q 2625 1972 2144 2069 
L 1759 2144 
Q 1053 2284 737 2584 
Q 422 2884 422 3419 
Q 422 4038 858 4394 
Q 1294 4750 2059 4750 
Q 2388 4750 2728 4690 
Q 3069 4631 3425 4513 
z
" transform="scale(0.015625)"/>
       <path id="DejaVuSans-65" d="M 3597 1894 
L 3597 1613 
L 953 1613 
Q 991 1019 1311 708 
Q 1631 397 2203 397 
Q 2534 397 2845 478 
Q 3156 559 3463 722 
L 3463 178 
Q 3153 47 2828 -22 
Q 2503 -91 2169 -91 
Q 1331 -91 842 396 
Q 353 884 353 1716 
Q 353 2575 817 3079 
Q 1281 3584 2069 3584 
Q 2775 3584 3186 3129 
Q 3597 2675 3597 1894 
z
M 3022 2063 
Q 3016 2534 2758 2815 
Q 2500 3097 2075 3097 
Q 1594 3097 1305 2825 
Q 1016 2553 972 2059 
L 3022 2063 
z
" transform="scale(0.015625)"/>
       <path id="DejaVuSans-71" d="M 947 1747 
Q 947 1113 1208 752 
Q 1469 391 1925 391 
Q 2381 391 2643 752 
Q 2906 1113 2906 1747 
Q 2906 2381 2643 2742 
Q 2381 3103 1925 3103 
Q 1469 3103 1208 2742 
Q 947 2381 947 1747 
z
M 2906 525 
Q 2725 213 2448 61 
Q 2172 -91 1784 -91 
Q 1150 -91 751 415 
Q 353 922 353 1747 
Q 353 2572 751 3078 
Q 1150 3584 1784 3584 
Q 2172 3584 2448 3432 
Q 2725 3281 2906 2969 
L 2906 3500 
L 3481 3500 
L 3481 -1331 
L 2906 -1331 
L 2906 525 
z
" transform="scale(0.015625)"/>
       <path id="DejaVuSans-75" d="M 544 1381 
L 544 3500 
L 1119 3500 
L 1119 1403 
Q 1119 906 1312 657 
Q 1506 409 1894 409 
Q 2359 409 2629 706 
Q 2900 1003 2900 1516 
L 2900 3500 
L 3475 3500 
L 3475 0 
L 2900 0 
L 2900 538 
Q 2691 219 2414 64 
Q 2138 -91 1772 -91 
Q 1169 -91 856 284 
Q 544 659 544 1381 
z
M 1991 3584 
L 1991 3584 
z
" transform="scale(0.015625)"/>
       <path id="DejaVuSans-63" d="M 3122 3366 
L 3122 2828 
Q 2878 2963 2633 3030 
Q 2388 3097 2138 3097 
Q 1578 3097 1268 2742 
Q 959 2388 959 1747 
Q 959 1106 1268 751 
Q 1578 397 2138 397 
Q 2388 397 2633 464 
Q 2878 531 3122 666 
L 3122 134 
Q 2881 22 2623 -34 
Q 2366 -91 2075 -91 
Q 1284 -91 818 406 
Q 353 903 353 1747 
Q 353 2603 823 3093 
Q 1294 3584 2113 3584 
Q 2378 3584 2631 3529 
Q 2884 3475 3122 3366 
z
" transform="scale(0.015625)"/>
      </defs>
      <use xlink:href="#DejaVuSans-25"/>
      <use xlink:href="#DejaVuSans-20" x="95.019531"/>
      <use xlink:href="#DejaVuSans-6f" x="126.806641"/>
      <use xlink:href="#DejaVuSans-66" x="187.988281"/>
      <use xlink:href="#DejaVuSans-20" x="223.193359"/>
      <use xlink:href="#DejaVuSans-53" x="254.980469"/>
      <use xlink:href="#DejaVuSans-65" x="318.457031"/>
      <use xlink:href="#DejaVuSans-71" x="379.980469"/>
      <use xlink:href="#DejaVuSans-75" x="443.457031"/>
      <use xlink:href="#DejaVuSans-65" x="506.835938"/>
      <use xlink:href="#DejaVuSans-6e" x="568.359375"/>
      <use xlink:href="#DejaVuSans-63" x="631.738281"/>
      <use xlink:href="#DejaVuSans-65" x="686.71875"/>
      <use xlink:href="#DejaVuSans-73" x="748.242188"/>
     </g>
    </g>
   </g>
   <g id="line2d_9">
    <path d="M 88.754716 273.945202 
L 95.041445 273.941339 
L 101.328173 273.926528 
L 107.614902 273.855865 
L 113.90163 273.848733 
L 120.188359 273.837025 
L 126.475088 273.831824 
L 132.761816 273.819416 
L 139.048545 273.804894 
L 145.335273 273.746008 
L 157.908731 273.690087 
L 170.482188 273.621872 
L 183.055645 273.548494 
L 195.629102 273.474311 
L 208.202559 273.406788 
L 220.776017 273.336406 
L 233.349474 273.263766 
L 245.922931 273.192973 
L 258.496388 273.106001 
L 271.069845 272.990464 
L 283.643303 272.853859 
L 296.21676 272.693989 
L 308.790217 272.513696 
L 321.363674 272.310283 
L 333.937131 272.084455 
L 346.510589 271.809649 
L 359.084046 271.520069 
L 371.657503 271.205726 
L 384.23096 270.839971 
L 396.804417 270.42288 
L 409.377875 269.949777 
L 421.951332 269.425786 
L 434.524789 268.849341 
L 447.098246 268.192661 
L 459.671703 267.444409 
L 472.245161 266.578012 
L 484.818618 265.614068 
L 497.392075 264.533986 
L 509.965532 263.314082 
L 522.538989 261.919255 
L 535.112446 260.302811 
L 547.685904 258.453858 
L 560.259361 256.447725 
L 572.832818 254.235707 
L 585.406275 251.756563 
L 597.979732 248.97933 
L 610.55319 245.910648 
L 623.126647 242.616717 
L 635.700104 239.099459 
L 648.273561 235.266961 
L 660.847018 231.051495 
L 673.420476 226.437854 
L 685.993933 221.503621 
L 698.56739 216.321473 
L 711.140847 210.852954 
L 723.714304 204.938049 
L 736.287762 198.540035 
L 748.861219 191.797501 
L 761.434676 184.770095 
L 774.008133 177.443825 
L 786.58159 169.708212 
L 799.155048 161.446145 
L 811.728505 152.850369 
L 824.301962 144.08173 
L 836.875419 135.031365 
L 849.448876 125.631926 
L 862.022334 115.870229 
L 874.595791 105.850438 
L 887.169248 95.758219 
L 899.742705 85.46575 
L 912.316162 75.097052 
L 924.88962 64.537128 
L 937.463077 53.778041 
L 950.036534 43.030822 
" clip-path="url(#pf697f50ddc)" style="fill: none; stroke: #7cb5ec; stroke-linecap: square"/>
   </g>
   <g id="line2d_10">
    <path d="M 88.754716 273.947255 
L 95.041445 273.91999 
L 101.328173 273.908737 
L 107.614902 273.892831 
L 113.90163 273.875633 
L 120.188359 273.862039 
L 126.475088 273.845768 
L 132.761816 273.78835 
L 139.048545 273.71977 
L 145.335273 273.639648 
L 157.908731 273.596097 
L 170.482188 273.535045 
L 183.055645 273.470008 
L 195.629102 273.408498 
L 208.202559 273.347377 
L 220.776017 273.280607 
L 233.349474 273.213273 
L 245.922931 273.151544 
L 258.496388 273.079101 
L 271.069845 273.006233 
L 283.643303 272.939676 
L 296.21676 272.87711 
L 308.790217 272.791947 
L 321.363674 272.719216 
L 333.937131 272.656795 
L 346.510589 272.594966 
L 359.084046 272.527724 
L 371.657503 272.467333 
L 384.23096 272.405535 
L 396.804417 272.348572 
L 409.377875 272.288705 
L 421.951332 272.225166 
L 434.524789 272.167101 
L 447.098246 272.106345 
L 459.671703 272.047063 
L 472.245161 271.991371 
L 484.818618 271.92365 
L 497.392075 271.86357 
L 509.965532 271.802867 
L 522.538989 271.744445 
L 535.112446 271.689261 
L 547.685904 271.632322 
L 560.259361 271.572751 
L 572.832818 271.50798 
L 585.406275 271.451216 
L 597.979732 271.389053 
L 610.55319 271.331429 
L 623.126647 271.274284 
L 635.700104 271.214668 
L 648.273561 271.155371 
L 660.847018 271.09815 
L 673.420476 271.03585 
L 685.993933 270.978462 
L 698.56739 270.924434 
L 711.140847 270.871889 
L 723.714304 270.823496 
L 736.287762 270.776159 
L 748.861219 270.727468 
L 761.434676 270.670004 
L 774.008133 270.617292 
L 786.58159 270.56337 
L 799.155048 270.511981 
L 811.728505 270.461329 
L 824.301962 270.413642 
L 836.875419 270.365157 
L 849.448876 270.313418 
L 862.022334 270.261276 
L 874.595791 270.213126 
L 887.169248 270.16347 
L 899.742705 270.115335 
L 912.316162 270.063025 
L 924.88962 270.0147 
L 937.463077 269.972571 
L 950.036534 269.930929 
" clip-path="url(#pf697f50ddc)" style="fill: none; stroke: #434348; stroke-linecap: square"/>
   </g>
   <g id="line2d_11">
    <path d="M 88.754716 273.99006 
L 95.041445 273.99006 
L 101.328173 273.867559 
L 107.614902 273.844795 
L 113.90163 273.838941 
L 120.188359 273.835109 
L 126.475088 273.832052 
L 132.761816 273.827855 
L 139.048545 273.821636 
L 145.335273 273.815941 
L 157.908731 273.80906 
L 170.482188 273.801336 
L 183.055645 273.793968 
L 195.629102 273.786502 
L 208.202559 273.780252 
L 220.776017 273.773311 
L 233.349474 273.766711 
L 245.922931 273.759237 
L 258.496388 273.751345 
L 271.069845 273.743727 
L 283.643303 273.73655 
L 296.21676 273.728262 
L 308.790217 273.71964 
L 321.363674 273.710205 
L 333.937131 273.699173 
L 346.510589 273.662701 
L 359.084046 273.38616 
L 371.657503 263.127365 
L 384.23096 263.105772 
L 396.804417 263.089243 
L 409.377875 263.079367 
L 421.951332 263.069323 
L 434.524789 263.0569 
L 447.098246 263.039694 
L 459.671703 263.021348 
L 472.245161 262.997519 
L 484.818618 262.949916 
L 497.392075 262.506807 
L 509.965532 262.317239 
L 522.538989 261.011193 
L 535.112446 249.86878 
L 547.685904 249.247484 
L 560.259361 249.046762 
L 572.832818 248.939901 
L 585.406275 248.825276 
L 597.979732 248.697803 
L 610.55319 248.574944 
L 623.126647 248.453614 
L 635.700104 248.327151 
L 648.273561 248.20522 
L 660.847018 248.080096 
L 673.420476 247.944753 
L 685.993933 247.803419 
L 698.56739 247.65493 
L 711.140847 247.48678 
L 723.714304 247.29617 
L 736.287762 247.073323 
L 748.861219 246.807549 
L 761.434676 246.505493 
L 774.008133 246.160464 
L 786.58159 245.770538 
L 799.155048 245.339366 
L 811.728505 244.884761 
L 824.301962 244.382363 
L 836.875419 243.820121 
L 849.448876 243.180008 
L 862.022334 242.477511 
L 874.595791 241.67549 
L 887.169248 240.772636 
L 899.742705 239.776591 
L 912.316162 238.678528 
L 924.88962 237.491577 
L 937.463077 236.197893 
L 950.036534 234.776964 
" clip-path="url(#pf697f50ddc)" style="fill: none; stroke: #90ed7d; stroke-linecap: square"/>
   </g>
   <g id="line2d_12">
    <path d="M 88.754716 273.945126 
L 95.041445 273.941811 
L 101.328173 273.928216 
L 107.614902 273.860169 
L 113.90163 273.853432 
L 120.188359 273.842773 
L 126.475088 273.838272 
L 132.761816 273.826745 
L 139.048545 273.812984 
L 145.335273 273.755497 
L 157.908731 273.701051 
L 170.482188 273.633375 
L 183.055645 273.559831 
L 195.629102 273.48475 
L 208.202559 273.415197 
L 220.776017 273.343173 
L 233.349474 273.267248 
L 245.922931 273.192509 
L 258.496388 273.101591 
L 271.069845 272.981242 
L 283.643303 272.840569 
L 296.21676 272.675688 
L 308.790217 272.488773 
L 321.363674 272.278456 
L 333.937131 272.045284 
L 346.510589 271.763764 
L 359.084046 271.466042 
L 371.657503 271.145958 
L 384.23096 270.775223 
L 396.804417 270.353198 
L 409.377875 269.875054 
L 421.951332 269.349801 
L 434.524789 268.774846 
L 447.098246 268.118911 
L 459.671703 267.369237 
L 472.245161 266.50319 
L 484.818618 265.539603 
L 497.392075 264.463026 
L 509.965532 263.244643 
L 522.538989 261.851724 
L 535.112446 260.245377 
L 547.685904 258.411273 
L 560.259361 256.428443 
L 572.832818 254.240497 
L 585.406275 251.789271 
L 597.979732 249.043356 
L 610.55319 246.006744 
L 623.126647 242.750843 
L 635.700104 239.275433 
L 648.273561 235.492789 
L 660.847018 231.342785 
L 673.420476 226.812892 
L 685.993933 221.974048 
L 698.56739 216.890466 
L 711.140847 211.5237 
L 723.714304 205.710517 
L 736.287762 199.420026 
L 748.861219 192.776918 
L 761.434676 185.851333 
L 774.008133 178.635202 
L 786.58159 171.024393 
L 799.155048 162.897433 
L 811.728505 154.450618 
L 824.301962 145.859222 
L 836.875419 137.002614 
L 849.448876 127.809463 
L 862.022334 118.269686 
L 874.595791 108.464637 
L 887.169248 98.569255 
L 899.742705 88.443042 
L 912.316162 78.208935 
L 924.88962 67.759218 
L 937.463077 57.09155 
L 950.036534 46.425624 
" clip-path="url(#pf697f50ddc)" style="fill: none; stroke: #f7a35c; stroke-linecap: square"/>
   </g>
   <g id="line2d_13">
    <path d="M 88.754716 273.925129 
L 95.041445 273.893713 
L 101.328173 273.880378 
L 107.614902 273.862297 
L 113.90163 273.841906 
L 120.188359 273.827171 
L 126.475088 273.810155 
L 132.761816 273.74597 
L 139.048545 273.672813 
L 145.335273 273.587757 
L 157.908731 273.541636 
L 170.482188 273.479048 
L 183.055645 273.411274 
L 195.629102 273.350593 
L 208.202559 273.292285 
L 220.776017 273.224207 
L 233.349474 273.15473 
L 245.922931 273.091494 
L 258.496388 273.017531 
L 271.069845 272.941949 
L 283.643303 272.874114 
L 296.21676 272.807541 
L 308.790217 272.715308 
L 321.363674 272.641611 
L 333.937131 272.580239 
L 346.510589 272.517536 
L 359.084046 272.448758 
L 371.657503 272.388055 
L 384.23096 272.326029 
L 396.804417 272.269234 
L 409.377875 272.20888 
L 421.951332 272.141783 
L 434.524789 272.080791 
L 447.098246 272.019054 
L 459.671703 271.958404 
L 472.245161 271.901806 
L 484.818618 271.832131 
L 497.392075 271.775952 
L 509.965532 271.71483 
L 522.538989 271.653481 
L 535.112446 271.597324 
L 547.685904 271.538575 
L 560.259361 271.479203 
L 572.832818 271.414173 
L 585.406275 271.355454 
L 597.979732 271.29412 
L 610.55319 271.235759 
L 623.126647 271.176546 
L 635.700104 271.115113 
L 648.273561 271.053801 
L 660.847018 270.994254 
L 673.420476 270.932045 
L 685.993933 270.875067 
L 698.56739 270.820234 
L 711.140847 270.767156 
L 723.714304 270.719455 
L 736.287762 270.668651 
L 748.861219 270.619101 
L 761.434676 270.560823 
L 774.008133 270.507875 
L 786.58159 270.453414 
L 799.155048 270.403158 
L 811.728505 270.352285 
L 824.301962 270.304865 
L 836.875419 270.257665 
L 849.448876 270.208724 
L 862.022334 270.157524 
L 874.595791 270.110431 
L 887.169248 270.061938 
L 899.742705 270.014517 
L 912.316162 269.965629 
L 924.88962 269.920649 
L 937.463077 269.879623 
L 950.036534 269.836301 
" clip-path="url(#pf697f50ddc)" style="fill: none; stroke: #8085e9; stroke-linecap: square"/>
   </g>
   <g id="line2d_14">
    <path d="M 88.754716 242.099363 
L 95.041445 241.954113 
L 101.328173 241.877505 
L 107.614902 241.758577 
L 113.90163 241.691989 
L 120.188359 241.581196 
L 126.475088 241.458102 
L 132.761816 241.359551 
L 139.048545 241.247253 
L 145.335273 241.076586 
L 157.908731 240.800046 
L 170.482188 240.681338 
L 183.055645 240.614393 
L 195.629102 240.558411 
L 208.202559 240.512595 
L 220.776017 240.474116 
L 233.349474 240.445444 
L 245.922931 240.423015 
L 258.496388 240.400099 
L 271.069845 240.376286 
L 283.643303 240.355728 
L 296.21676 240.337883 
L 308.790217 240.320023 
L 321.363674 240.302141 
L 333.937131 240.286783 
L 346.510589 240.272481 
L 359.084046 240.25764 
L 371.657503 240.243323 
L 384.23096 240.22906 
L 396.804417 240.215047 
L 409.377875 240.200533 
L 421.951332 240.187494 
L 434.524789 240.175063 
L 447.098246 240.161552 
L 459.671703 240.148429 
L 472.245161 240.135101 
L 484.818618 240.121309 
L 497.392075 240.10814 
L 509.965532 240.095086 
L 522.538989 240.082328 
L 535.112446 240.069934 
L 547.685904 240.056697 
L 560.259361 240.011147 
L 572.832818 239.950748 
L 585.406275 239.854029 
L 597.979732 239.808859 
L 610.55319 239.758405 
L 623.126647 239.671524 
L 635.700104 239.590255 
L 648.273561 239.5005 
L 660.847018 239.403477 
L 673.420476 239.304499 
L 685.993933 239.212228 
L 698.56739 239.118003 
L 711.140847 239.023382 
L 723.714304 238.929278 
L 736.287762 238.818387 
L 748.861219 238.678809 
L 761.434676 238.517335 
L 774.008133 238.333058 
L 786.58159 238.125326 
L 799.155048 237.892481 
L 811.728505 237.633504 
L 824.301962 237.330201 
L 836.875419 237.002127 
L 849.448876 236.647617 
L 862.022334 236.249875 
L 874.595791 235.793659 
L 887.169248 235.273059 
L 899.742705 234.697496 
L 912.316162 234.082435 
L 924.88962 233.35808 
L 937.463077 232.547224 
L 950.036534 231.614915 
" clip-path="url(#pf697f50ddc)" style="fill: none; stroke: #f15c80; stroke-linecap: square"/>
   </g>
   <g id="line2d_15">
    <path d="M 88.754716 273.931112 
L 95.041445 273.927633 
L 101.328173 273.912728 
L 107.614902 273.850638 
L 113.90163 273.844616 
L 120.188359 273.83491 
L 126.475088 273.830085 
L 132.761816 273.817442 
L 139.048545 273.803696 
L 145.335273 273.75164 
L 157.908731 273.702089 
L 170.482188 273.640682 
L 183.055645 273.572869 
L 195.629102 273.506141 
L 208.202559 273.444388 
L 220.776017 273.381578 
L 233.349474 273.313849 
L 245.922931 273.246102 
L 258.496388 273.166853 
L 271.069845 273.061225 
L 283.643303 272.937503 
L 296.21676 272.797398 
L 308.790217 272.644398 
L 321.363674 272.471678 
L 333.937131 272.277497 
L 346.510589 272.04883 
L 359.084046 271.805986 
L 371.657503 271.538513 
L 384.23096 271.227455 
L 396.804417 270.871821 
L 409.377875 270.467927 
L 421.951332 270.015661 
L 434.524789 269.504437 
L 447.098246 268.913769 
L 459.671703 268.237969 
L 472.245161 267.44864 
L 484.818618 266.558012 
L 497.392075 265.557455 
L 509.965532 264.430521 
L 522.538989 263.150335 
L 535.112446 261.656321 
L 547.685904 259.987155 
L 560.259361 258.179194 
L 572.832818 256.206311 
L 585.406275 254.017945 
L 597.979732 251.608487 
L 610.55319 248.971156 
L 623.126647 246.161535 
L 635.700104 243.173386 
L 648.273561 239.956972 
L 660.847018 236.447435 
L 673.420476 232.672322 
L 685.993933 228.666074 
L 698.56739 224.473388 
L 711.140847 220.069801 
L 723.714304 215.3332 
L 736.287762 210.289188 
L 748.861219 204.983509 
L 761.434676 199.463339 
L 774.008133 193.740853 
L 786.58159 187.696742 
L 799.155048 181.290648 
L 811.728505 174.63525 
L 824.301962 167.799164 
L 836.875419 160.730642 
L 849.448876 153.352876 
L 862.022334 145.67964 
L 874.595791 137.806838 
L 887.169248 129.833849 
L 899.742705 121.653392 
L 912.316162 113.33226 
L 924.88962 104.790549 
L 937.463077 96.073349 
L 950.036534 87.271281 
" clip-path="url(#pf697f50ddc)" style="fill: none; stroke: #e4d354; stroke-linecap: square"/>
   </g>
   <g id="line2d_16">
    <path d="M 88.754716 273.950749 
L 95.041445 273.922565 
L 101.328173 273.912073 
L 107.614902 273.896027 
L 113.90163 273.881402 
L 120.188359 273.871173 
L 126.475088 273.858137 
L 132.761816 273.806988 
L 139.048545 273.745478 
L 145.335273 273.672812 
L 157.908731 273.630695 
L 170.482188 273.574861 
L 183.055645 273.51322 
L 195.629102 273.458498 
L 208.202559 273.404076 
L 220.776017 273.341817 
L 233.349474 273.278914 
L 245.922931 273.223285 
L 258.496388 273.157464 
L 271.069845 273.090072 
L 283.643303 273.026757 
L 296.21676 272.971718 
L 308.790217 272.894956 
L 321.363674 272.829107 
L 333.937131 272.774816 
L 346.510589 272.721833 
L 359.084046 272.660669 
L 371.657503 272.606107 
L 384.23096 272.550889 
L 396.804417 272.499544 
L 409.377875 272.449151 
L 421.951332 272.39529 
L 434.524789 272.343739 
L 447.098246 272.290513 
L 459.671703 272.236605 
L 472.245161 272.187532 
L 484.818618 272.126143 
L 497.392075 272.076013 
L 509.965532 272.02563 
L 522.538989 271.972938 
L 535.112446 271.925454 
L 547.685904 271.876371 
L 560.259361 271.82754 
L 572.832818 271.773427 
L 585.406275 271.72498 
L 597.979732 271.668865 
L 610.55319 271.618669 
L 623.126647 271.569782 
L 635.700104 271.517025 
L 648.273561 271.463089 
L 660.847018 271.41294 
L 673.420476 271.360182 
L 685.993933 271.308453 
L 698.56739 271.26152 
L 711.140847 271.217992 
L 723.714304 271.174688 
L 736.287762 271.133478 
L 748.861219 271.092316 
L 761.434676 271.041091 
L 774.008133 270.992738 
L 786.58159 270.944422 
L 799.155048 270.896059 
L 811.728505 270.849809 
L 824.301962 270.806393 
L 836.875419 270.763528 
L 849.448876 270.718373 
L 862.022334 270.671459 
L 874.595791 270.629455 
L 887.169248 270.582429 
L 899.742705 270.538966 
L 912.316162 270.48864 
L 924.88962 270.447168 
L 937.463077 270.409914 
L 950.036534 270.369939 
" clip-path="url(#pf697f50ddc)" style="fill: none; stroke: #2b908f; stroke-linecap: square"/>
   </g>
   <g id="line2d_17">
    <path d="M 88.754716 273.99006 
L 95.041445 273.99006 
L 101.328173 273.856847 
L 107.614902 273.834012 
L 113.90163 273.827242 
L 120.188359 273.823109 
L 126.475088 273.819911 
L 132.761816 273.815871 
L 139.048545 273.808708 
L 145.335273 273.802443 
L 157.908731 273.796206 
L 170.482188 273.78851 
L 183.055645 273.781207 
L 195.629102 273.774727 
L 208.202559 273.768425 
L 220.776017 273.762421 
L 233.349474 273.755904 
L 245.922931 273.749835 
L 258.496388 273.742495 
L 271.069845 273.735192 
L 283.643303 273.728094 
L 296.21676 273.720455 
L 308.790217 273.711908 
L 321.363674 273.702809 
L 333.937131 273.689381 
L 346.510589 273.649285 
L 359.084046 273.279587 
L 371.657503 248.614737 
L 384.23096 248.55851 
L 396.804417 248.531373 
L 409.377875 248.521349 
L 421.951332 248.509399 
L 434.524789 248.495849 
L 447.098246 248.478157 
L 459.671703 248.457754 
L 472.245161 248.42626 
L 484.818618 248.352509 
L 497.392075 247.062289 
L 509.965532 246.534028 
L 522.538989 242.929205 
L 535.112446 209.369086 
L 547.685904 207.737492 
L 560.259361 207.396558 
L 572.832818 207.267553 
L 585.406275 207.140801 
L 597.979732 207.002763 
L 610.55319 206.869541 
L 623.126647 206.759883 
L 635.700104 206.650477 
L 648.273561 206.545822 
L 660.847018 206.438744 
L 673.420476 206.32731 
L 685.993933 206.210105 
L 698.56739 206.093153 
L 711.140847 205.961642 
L 723.714304 205.807305 
L 736.287762 205.625627 
L 748.861219 205.412847 
L 761.434676 205.181627 
L 774.008133 204.918567 
L 786.58159 204.618234 
L 799.155048 204.285417 
L 811.728505 203.929932 
L 824.301962 203.542347 
L 836.875419 203.10997 
L 849.448876 202.617916 
L 862.022334 202.072187 
L 874.595791 201.440309 
L 887.169248 200.73193 
L 899.742705 199.926621 
L 912.316162 199.020097 
L 924.88962 198.009123 
L 937.463077 196.889828 
L 950.036534 195.648813 
" clip-path="url(#pf697f50ddc)" style="fill: none; stroke: #f45b5b; stroke-linecap: square"/>
   </g>
   <g id="line2d_18">
    <path d="M 88.754716 273.924267 
L 95.041445 273.920901 
L 101.328173 273.906463 
L 107.614902 273.841493 
L 113.90163 273.835377 
L 120.188359 273.825914 
L 126.475088 273.821052 
L 132.761816 273.80796 
L 139.048545 273.793373 
L 145.335273 273.738717 
L 157.908731 273.685912 
L 170.482188 273.620091 
L 183.055645 273.546537 
L 195.629102 273.472945 
L 208.202559 273.403346 
L 220.776017 273.332467 
L 233.349474 273.255406 
L 245.922931 273.177288 
L 258.496388 273.085668 
L 271.069845 272.965312 
L 283.643303 272.825628 
L 296.21676 272.667046 
L 308.790217 272.494672 
L 321.363674 272.300818 
L 333.937131 272.083222 
L 346.510589 271.829186 
L 359.084046 271.559281 
L 371.657503 271.262035 
L 384.23096 270.921718 
L 396.804417 270.534524 
L 409.377875 270.094602 
L 421.951332 269.603791 
L 434.524789 269.052751 
L 447.098246 268.417731 
L 459.671703 267.685975 
L 472.245161 266.83249 
L 484.818618 265.870692 
L 497.392075 264.78939 
L 509.965532 263.569873 
L 522.538989 262.186349 
L 535.112446 260.58207 
L 547.685904 258.788144 
L 560.259361 256.850869 
L 572.832818 254.739256 
L 585.406275 252.40179 
L 597.979732 249.821967 
L 610.55319 246.992971 
L 623.126647 243.988757 
L 635.700104 240.794103 
L 648.273561 237.355717 
L 660.847018 233.610172 
L 673.420476 229.588953 
L 685.993933 225.334896 
L 698.56739 220.882086 
L 711.140847 216.20232 
L 723.714304 211.162301 
L 736.287762 205.783601 
L 748.861219 200.116884 
L 761.434676 194.223996 
L 774.008133 188.112091 
L 786.58159 181.673793 
L 799.155048 174.845037 
L 811.728505 167.761676 
L 824.301962 160.511559 
L 836.875419 153.025473 
L 849.448876 145.210393 
L 862.022334 137.08894 
L 874.595791 128.741102 
L 887.169248 120.264707 
L 899.742705 111.543982 
L 912.316162 102.636744 
L 924.88962 93.472075 
L 937.463077 84.102285 
L 950.036534 74.636218 
" clip-path="url(#pf697f50ddc)" style="fill: none; stroke: #91e8e1; stroke-linecap: square"/>
   </g>
   <g id="line2d_19">
    <path d="M 88.754716 273.935563 
L 95.041445 273.902573 
L 101.328173 273.890828 
L 107.614902 273.873753 
L 113.90163 273.856828 
L 120.188359 273.844167 
L 126.475088 273.829785 
L 132.761816 273.774783 
L 139.048545 273.70957 
L 145.335273 273.632135 
L 157.908731 273.589168 
L 170.482188 273.531893 
L 183.055645 273.47215 
L 195.629102 273.415699 
L 208.202559 273.358967 
L 220.776017 273.296961 
L 233.349474 273.233786 
L 245.922931 273.177531 
L 258.496388 273.111355 
L 271.069845 273.041017 
L 283.643303 272.975131 
L 296.21676 272.914228 
L 308.790217 272.828265 
L 321.363674 272.758657 
L 333.937131 272.702907 
L 346.510589 272.645212 
L 359.084046 272.576978 
L 371.657503 272.523248 
L 384.23096 272.465731 
L 396.804417 272.412421 
L 409.377875 272.355698 
L 421.951332 272.297209 
L 434.524789 272.241 
L 447.098246 272.185559 
L 459.671703 272.129276 
L 472.245161 272.076303 
L 484.818618 272.011912 
L 497.392075 271.959098 
L 509.965532 271.903329 
L 522.538989 271.846738 
L 535.112446 271.79671 
L 547.685904 271.743971 
L 560.259361 271.68939 
L 572.832818 271.628796 
L 585.406275 271.57687 
L 597.979732 271.51867 
L 610.55319 271.465604 
L 623.126647 271.410275 
L 635.700104 271.353814 
L 648.273561 271.295315 
L 660.847018 271.238854 
L 673.420476 271.17883 
L 685.993933 271.123361 
L 698.56739 271.071379 
L 711.140847 271.021894 
L 723.714304 270.975541 
L 736.287762 270.930283 
L 748.861219 270.883435 
L 761.434676 270.8302 
L 774.008133 270.779556 
L 786.58159 270.726358 
L 799.155048 270.676163 
L 811.728505 270.629427 
L 824.301962 270.586562 
L 836.875419 270.540107 
L 849.448876 270.490931 
L 862.022334 270.441025 
L 874.595791 270.396337 
L 887.169248 270.347263 
L 899.742705 270.302706 
L 912.316162 270.250734 
L 924.88962 270.203605 
L 937.463077 270.161105 
L 950.036534 270.119241 
" clip-path="url(#pf697f50ddc)" style="fill: none; stroke: #7cb5ec; stroke-linecap: square"/>
   </g>
   <g id="line2d_20">
    <path d="M 88.754716 200.64146 
L 95.041445 200.316778 
L 101.328173 200.229777 
L 107.614902 199.998791 
L 113.90163 199.910313 
L 120.188359 199.738723 
L 126.475088 199.539007 
L 132.761816 199.416753 
L 139.048545 199.259732 
L 145.335273 198.957361 
L 157.908731 198.368778 
L 170.482188 198.145188 
L 183.055645 198.039382 
L 195.629102 197.963032 
L 208.202559 197.901559 
L 220.776017 197.851962 
L 233.349474 197.818645 
L 245.922931 197.793126 
L 258.496388 197.76959 
L 271.069845 197.74741 
L 283.643303 197.728642 
L 296.21676 197.711296 
L 308.790217 197.695166 
L 321.363674 197.679157 
L 333.937131 197.66486 
L 346.510589 197.650871 
L 359.084046 197.636947 
L 371.657503 197.623145 
L 384.23096 197.610082 
L 396.804417 197.597496 
L 409.377875 197.583974 
L 421.951332 197.571958 
L 434.524789 197.559494 
L 447.098246 197.546627 
L 459.671703 197.53376 
L 472.245161 197.52194 
L 484.818618 197.508578 
L 497.392075 197.495711 
L 509.965532 197.484443 
L 522.538989 197.473278 
L 535.112446 197.462067 
L 547.685904 197.449789 
L 560.259361 197.386044 
L 572.832818 197.313294 
L 585.406275 197.211228 
L 597.979732 197.147053 
L 610.55319 197.069637 
L 623.126647 196.961307 
L 635.700104 196.852817 
L 648.273561 196.743337 
L 660.847018 196.622916 
L 673.420476 196.501868 
L 685.993933 196.386422 
L 698.56739 196.272977 
L 711.140847 196.16041 
L 723.714304 196.046002 
L 736.287762 195.92213 
L 748.861219 195.770103 
L 761.434676 195.599702 
L 774.008133 195.412917 
L 786.58159 195.212265 
L 799.155048 194.98544 
L 811.728505 194.733256 
L 824.301962 194.450905 
L 836.875419 194.145336 
L 849.448876 193.812013 
L 862.022334 193.43879 
L 874.595791 193.011463 
L 887.169248 192.524608 
L 899.742705 191.98478 
L 912.316162 191.391773 
L 924.88962 190.684854 
L 937.463077 189.892327 
L 950.036534 188.969308 
" clip-path="url(#pf697f50ddc)" style="fill: none; stroke: #434348; stroke-linecap: square"/>
   </g>
   <g id="line2d_21">
    <path d="M 45.690625 273.99006 
L 993.100625 273.99006 
" clip-path="url(#pf697f50ddc)" style="fill: none; stroke: #dedede; stroke-width: 2; stroke-linecap: square"/>
   </g>
   <g id="text_19">
    <!-- FastQC: Adapter Content -->
    <g transform="translate(420.098125 19.3575) scale(0.16 -0.16)">
     <defs>
      <path id="DejaVuSans-46" d="M 628 4666 
L 3309 4666 
L 3309 4134 
L 1259 4134 
L 1259 2759 
L 3109 2759 
L 3109 2228 
L 1259 2228 
L 1259 0 
L 628 0 
L 628 4666 
z
" transform="scale(0.015625)"/>
      <path id="DejaVuSans-61" d="M 2194 1759 
Q 1497 1759 1228 1600 
Q 959 1441 959 1056 
Q 959 750 1161 570 
Q 1363 391 1709 391 
Q 2188 391 2477 730 
Q 2766 1069 2766 1631 
L 2766 1759 
L 2194 1759 
z
M 3341 1997 
L 3341 0 
L 2766 0 
L 2766 531 
Q 2569 213 2275 61 
Q 1981 -91 1556 -91 
Q 1019 -91 701 211 
Q 384 513 384 1019 
Q 384 1609 779 1909 
Q 1175 2209 1959 2209 
L 2766 2209 
L 2766 2266 
Q 2766 2663 2505 2880 
Q 2244 3097 1772 3097 
Q 1472 3097 1187 3025 
Q 903 2953 641 2809 
L 641 3341 
Q 956 3463 1253 3523 
Q 1550 3584 1831 3584 
Q 2591 3584 2966 3190 
Q 3341 2797 3341 1997 
z
" transform="scale(0.015625)"/>
      <path id="DejaVuSans-51" d="M 2522 4238 
Q 1834 4238 1429 3725 
Q 1025 3213 1025 2328 
Q 1025 1447 1429 934 
Q 1834 422 2522 422 
Q 3209 422 3611 934 
Q 4013 1447 4013 2328 
Q 4013 3213 3611 3725 
Q 3209 4238 2522 4238 
z
M 3406 84 
L 4238 -825 
L 3475 -825 
L 2784 -78 
Q 2681 -84 2626 -87 
Q 2572 -91 2522 -91 
Q 1538 -91 948 567 
Q 359 1225 359 2328 
Q 359 3434 948 4092 
Q 1538 4750 2522 4750 
Q 3503 4750 4090 4092 
Q 4678 3434 4678 2328 
Q 4678 1516 4351 937 
Q 4025 359 3406 84 
z
" transform="scale(0.015625)"/>
      <path id="DejaVuSans-43" d="M 4122 4306 
L 4122 3641 
Q 3803 3938 3442 4084 
Q 3081 4231 2675 4231 
Q 1875 4231 1450 3742 
Q 1025 3253 1025 2328 
Q 1025 1406 1450 917 
Q 1875 428 2675 428 
Q 3081 428 3442 575 
Q 3803 722 4122 1019 
L 4122 359 
Q 3791 134 3420 21 
Q 3050 -91 2638 -91 
Q 1578 -91 968 557 
Q 359 1206 359 2328 
Q 359 3453 968 4101 
Q 1578 4750 2638 4750 
Q 3056 4750 3426 4639 
Q 3797 4528 4122 4306 
z
" transform="scale(0.015625)"/>
      <path id="DejaVuSans-3a" d="M 750 794 
L 1409 794 
L 1409 0 
L 750 0 
L 750 794 
z
M 750 3309 
L 1409 3309 
L 1409 2516 
L 750 2516 
L 750 3309 
z
" transform="scale(0.015625)"/>
      <path id="DejaVuSans-41" d="M 2188 4044 
L 1331 1722 
L 3047 1722 
L 2188 4044 
z
M 1831 4666 
L 2547 4666 
L 4325 0 
L 3669 0 
L 3244 1197 
L 1141 1197 
L 716 0 
L 50 0 
L 1831 4666 
z
" transform="scale(0.015625)"/>
      <path id="DejaVuSans-64" d="M 2906 2969 
L 2906 4863 
L 3481 4863 
L 3481 0 
L 2906 0 
L 2906 525 
Q 2725 213 2448 61 
Q 2172 -91 1784 -91 
Q 1150 -91 751 415 
Q 353 922 353 1747 
Q 353 2572 751 3078 
Q 1150 3584 1784 3584 
Q 2172 3584 2448 3432 
Q 2725 3281 2906 2969 
z
M 947 1747 
Q 947 1113 1208 752 
Q 1469 391 1925 391 
Q 2381 391 2643 752 
Q 2906 1113 2906 1747 
Q 2906 2381 2643 2742 
Q 2381 3103 1925 3103 
Q 1469 3103 1208 2742 
Q 947 2381 947 1747 
z
" transform="scale(0.015625)"/>
      <path id="DejaVuSans-72" d="M 2631 2963 
Q 2534 3019 2420 3045 
Q 2306 3072 2169 3072 
Q 1681 3072 1420 2755 
Q 1159 2438 1159 1844 
L 1159 0 
L 581 0 
L 581 3500 
L 1159 3500 
L 1159 2956 
Q 1341 3275 1631 3429 
Q 1922 3584 2338 3584 
Q 2397 3584 2469 3576 
Q 2541 3569 2628 3553 
L 2631 2963 
z
" transform="scale(0.015625)"/>
     </defs>
     <use xlink:href="#DejaVuSans-46"/>
     <use xlink:href="#DejaVuSans-61" x="48.394531"/>
     <use xlink:href="#DejaVuSans-73" x="109.673828"/>
     <use xlink:href="#DejaVuSans-74" x="161.773438"/>
     <use xlink:href="#DejaVuSans-51" x="200.982422"/>
     <use xlink:href="#DejaVuSans-43" x="279.693359"/>
     <use xlink:href="#DejaVuSans-3a" x="349.517578"/>
     <use xlink:href="#DejaVuSans-20" x="383.208984"/>
     <use xlink:href="#DejaVuSans-41" x="414.996094"/>
     <use xlink:href="#DejaVuSans-64" x="481.654297"/>
     <use xlink:href="#DejaVuSans-61" x="545.130859"/>
     <use xlink:href="#DejaVuSans-70" x="606.410156"/>
     <use xlink:href="#DejaVuSans-74" x="669.886719"/>
     <use xlink:href="#DejaVuSans-65" x="709.095703"/>
     <use xlink:href="#DejaVuSans-72" x="770.619141"/>
     <use xlink:href="#DejaVuSans-20" x="811.732422"/>
     <use xlink:href="#DejaVuSans-43" x="843.519531"/>
     <use xlink:href="#DejaVuSans-6f" x="913.34375"/>
     <use xlink:href="#DejaVuSans-6e" x="974.525391"/>
     <use xlink:href="#DejaVuSans-74" x="1037.904297"/>
     <use xlink:href="#DejaVuSans-65" x="1077.113281"/>
     <use xlink:href="#DejaVuSans-6e" x="1138.636719"/>
     <use xlink:href="#DejaVuSans-74" x="1202.015625"/>
    </g>
   </g>
   <g id="legend_1">
    <g id="line2d_22">
     <path d="M 52.890625 291.525394 
L 60.890625 291.525394 
L 68.890625 291.525394 
" style="fill: none; stroke: #7cb5ec; stroke-linecap: square"/>
    </g>
    <g id="text_20">
     <!-- Minus_cre_p53mut_1 - illumina_universal_adapter -->
     <g transform="translate(75.290625 294.325394) scale(0.08 -0.08)">
      <defs>
       <path id="DejaVuSans-4d" d="M 628 4666 
L 1569 4666 
L 2759 1491 
L 3956 4666 
L 4897 4666 
L 4897 0 
L 4281 0 
L 4281 4097 
L 3078 897 
L 2444 897 
L 1241 4097 
L 1241 0 
L 628 0 
L 628 4666 
z
" transform="scale(0.015625)"/>
       <path id="DejaVuSans-5f" d="M 3263 -1063 
L 3263 -1509 
L -63 -1509 
L -63 -1063 
L 3263 -1063 
z
" transform="scale(0.015625)"/>
       <path id="DejaVuSans-33" d="M 2597 2516 
Q 3050 2419 3304 2112 
Q 3559 1806 3559 1356 
Q 3559 666 3084 287 
Q 2609 -91 1734 -91 
Q 1441 -91 1130 -33 
Q 819 25 488 141 
L 488 750 
Q 750 597 1062 519 
Q 1375 441 1716 441 
Q 2309 441 2620 675 
Q 2931 909 2931 1356 
Q 2931 1769 2642 2001 
Q 2353 2234 1838 2234 
L 1294 2234 
L 1294 2753 
L 1863 2753 
Q 2328 2753 2575 2939 
Q 2822 3125 2822 3475 
Q 2822 3834 2567 4026 
Q 2313 4219 1838 4219 
Q 1578 4219 1281 4162 
Q 984 4106 628 3988 
L 628 4550 
Q 988 4650 1302 4700 
Q 1616 4750 1894 4750 
Q 2613 4750 3031 4423 
Q 3450 4097 3450 3541 
Q 3450 3153 3228 2886 
Q 3006 2619 2597 2516 
z
" transform="scale(0.015625)"/>
       <path id="DejaVuSans-6d" d="M 3328 2828 
Q 3544 3216 3844 3400 
Q 4144 3584 4550 3584 
Q 5097 3584 5394 3201 
Q 5691 2819 5691 2113 
L 5691 0 
L 5113 0 
L 5113 2094 
Q 5113 2597 4934 2840 
Q 4756 3084 4391 3084 
Q 3944 3084 3684 2787 
Q 3425 2491 3425 1978 
L 3425 0 
L 2847 0 
L 2847 2094 
Q 2847 2600 2669 2842 
Q 2491 3084 2119 3084 
Q 1678 3084 1418 2786 
Q 1159 2488 1159 1978 
L 1159 0 
L 581 0 
L 581 3500 
L 1159 3500 
L 1159 2956 
Q 1356 3278 1631 3431 
Q 1906 3584 2284 3584 
Q 2666 3584 2933 3390 
Q 3200 3197 3328 2828 
z
" transform="scale(0.015625)"/>
       <path id="DejaVuSans-2d" d="M 313 2009 
L 1997 2009 
L 1997 1497 
L 313 1497 
L 313 2009 
z
" transform="scale(0.015625)"/>
       <path id="DejaVuSans-6c" d="M 603 4863 
L 1178 4863 
L 1178 0 
L 603 0 
L 603 4863 
z
" transform="scale(0.015625)"/>
       <path id="DejaVuSans-76" d="M 191 3500 
L 800 3500 
L 1894 563 
L 2988 3500 
L 3597 3500 
L 2284 0 
L 1503 0 
L 191 3500 
z
" transform="scale(0.015625)"/>
      </defs>
      <use xlink:href="#DejaVuSans-4d"/>
      <use xlink:href="#DejaVuSans-69" x="86.279297"/>
      <use xlink:href="#DejaVuSans-6e" x="114.0625"/>
      <use xlink:href="#DejaVuSans-75" x="177.441406"/>
      <use xlink:href="#DejaVuSans-73" x="240.820312"/>
      <use xlink:href="#DejaVuSans-5f" x="292.919922"/>
      <use xlink:href="#DejaVuSans-63" x="342.919922"/>
      <use xlink:href="#DejaVuSans-72" x="397.900391"/>
      <use xlink:href="#DejaVuSans-65" x="436.763672"/>
      <use xlink:href="#DejaVuSans-5f" x="498.287109"/>
      <use xlink:href="#DejaVuSans-70" x="548.287109"/>
      <use xlink:href="#DejaVuSans-35" x="611.763672"/>
      <use xlink:href="#DejaVuSans-33" x="675.386719"/>
      <use xlink:href="#DejaVuSans-6d" x="739.009766"/>
      <use xlink:href="#DejaVuSans-75" x="836.421875"/>
      <use xlink:href="#DejaVuSans-74" x="899.800781"/>
      <use xlink:href="#DejaVuSans-5f" x="939.009766"/>
      <use xlink:href="#DejaVuSans-31" x="989.009766"/>
      <use xlink:href="#DejaVuSans-20" x="1052.632812"/>
      <use xlink:href="#DejaVuSans-2d" x="1084.419922"/>
      <use xlink:href="#DejaVuSans-20" x="1120.503906"/>
      <use xlink:href="#DejaVuSans-69" x="1152.291016"/>
      <use xlink:href="#DejaVuSans-6c" x="1180.074219"/>
      <use xlink:href="#DejaVuSans-6c" x="1207.857422"/>
      <use xlink:href="#DejaVuSans-75" x="1235.640625"/>
      <use xlink:href="#DejaVuSans-6d" x="1299.019531"/>
      <use xlink:href="#DejaVuSans-69" x="1396.431641"/>
      <use xlink:href="#DejaVuSans-6e" x="1424.214844"/>
      <use xlink:href="#DejaVuSans-61" x="1487.59375"/>
      <use xlink:href="#DejaVuSans-5f" x="1548.873047"/>
      <use xlink:href="#DejaVuSans-75" x="1598.873047"/>
      <use xlink:href="#DejaVuSans-6e" x="1662.251953"/>
      <use xlink:href="#DejaVuSans-69" x="1725.630859"/>
      <use xlink:href="#DejaVuSans-76" x="1753.414062"/>
      <use xlink:href="#DejaVuSans-65" x="1812.59375"/>
      <use xlink:href="#DejaVuSans-72" x="1874.117188"/>
      <use xlink:href="#DejaVuSans-73" x="1915.230469"/>
      <use xlink:href="#DejaVuSans-61" x="1967.330078"/>
      <use xlink:href="#DejaVuSans-6c" x="2028.609375"/>
      <use xlink:href="#DejaVuSans-5f" x="2056.392578"/>
      <use xlink:href="#DejaVuSans-61" x="2106.392578"/>
      <use xlink:href="#DejaVuSans-64" x="2167.671875"/>
      <use xlink:href="#DejaVuSans-61" x="2231.148438"/>
      <use xlink:href="#DejaVuSans-70" x="2292.427734"/>
      <use xlink:href="#DejaVuSans-74" x="2355.904297"/>
      <use xlink:href="#DejaVuSans-65" x="2395.113281"/>
      <use xlink:href="#DejaVuSans-72" x="2456.636719"/>
     </g>
    </g>
    <g id="line2d_23">
     <path d="M 52.890625 303.490394 
L 60.890625 303.490394 
L 68.890625 303.490394 
" style="fill: none; stroke: #434348; stroke-linecap: square"/>
    </g>
    <g id="text_21">
     <!-- Minus_cre_p53mut_1 - polya -->
     <g transform="translate(75.290625 306.290394) scale(0.08 -0.08)">
      <defs>
       <path id="DejaVuSans-79" d="M 2059 -325 
Q 1816 -950 1584 -1140 
Q 1353 -1331 966 -1331 
L 506 -1331 
L 506 -850 
L 844 -850 
Q 1081 -850 1212 -737 
Q 1344 -625 1503 -206 
L 1606 56 
L 191 3500 
L 800 3500 
L 1894 763 
L 2988 3500 
L 3597 3500 
L 2059 -325 
z
" transform="scale(0.015625)"/>
      </defs>
      <use xlink:href="#DejaVuSans-4d"/>
      <use xlink:href="#DejaVuSans-69" x="86.279297"/>
      <use xlink:href="#DejaVuSans-6e" x="114.0625"/>
      <use xlink:href="#DejaVuSans-75" x="177.441406"/>
      <use xlink:href="#DejaVuSans-73" x="240.820312"/>
      <use xlink:href="#DejaVuSans-5f" x="292.919922"/>
      <use xlink:href="#DejaVuSans-63" x="342.919922"/>
      <use xlink:href="#DejaVuSans-72" x="397.900391"/>
      <use xlink:href="#DejaVuSans-65" x="436.763672"/>
      <use xlink:href="#DejaVuSans-5f" x="498.287109"/>
      <use xlink:href="#DejaVuSans-70" x="548.287109"/>
      <use xlink:href="#DejaVuSans-35" x="611.763672"/>
      <use xlink:href="#DejaVuSans-33" x="675.386719"/>
      <use xlink:href="#DejaVuSans-6d" x="739.009766"/>
      <use xlink:href="#DejaVuSans-75" x="836.421875"/>
      <use xlink:href="#DejaVuSans-74" x="899.800781"/>
      <use xlink:href="#DejaVuSans-5f" x="939.009766"/>
      <use xlink:href="#DejaVuSans-31" x="989.009766"/>
      <use xlink:href="#DejaVuSans-20" x="1052.632812"/>
      <use xlink:href="#DejaVuSans-2d" x="1084.419922"/>
      <use xlink:href="#DejaVuSans-20" x="1120.503906"/>
      <use xlink:href="#DejaVuSans-70" x="1152.291016"/>
      <use xlink:href="#DejaVuSans-6f" x="1215.767578"/>
      <use xlink:href="#DejaVuSans-6c" x="1276.949219"/>
      <use xlink:href="#DejaVuSans-79" x="1304.732422"/>
      <use xlink:href="#DejaVuSans-61" x="1363.912109"/>
     </g>
    </g>
    <g id="line2d_24">
     <path d="M 52.890625 315.455394 
L 60.890625 315.455394 
L 68.890625 315.455394 
" style="fill: none; stroke: #90ed7d; stroke-linecap: square"/>
    </g>
    <g id="text_22">
     <!-- Minus_cre_p53mut_1 - polyg -->
     <g transform="translate(75.290625 318.255394) scale(0.08 -0.08)">
      <defs>
       <path id="DejaVuSans-67" d="M 2906 1791 
Q 2906 2416 2648 2759 
Q 2391 3103 1925 3103 
Q 1463 3103 1205 2759 
Q 947 2416 947 1791 
Q 947 1169 1205 825 
Q 1463 481 1925 481 
Q 2391 481 2648 825 
Q 2906 1169 2906 1791 
z
M 3481 434 
Q 3481 -459 3084 -895 
Q 2688 -1331 1869 -1331 
Q 1566 -1331 1297 -1286 
Q 1028 -1241 775 -1147 
L 775 -588 
Q 1028 -725 1275 -790 
Q 1522 -856 1778 -856 
Q 2344 -856 2625 -561 
Q 2906 -266 2906 331 
L 2906 616 
Q 2728 306 2450 153 
Q 2172 0 1784 0 
Q 1141 0 747 490 
Q 353 981 353 1791 
Q 353 2603 747 3093 
Q 1141 3584 1784 3584 
Q 2172 3584 2450 3431 
Q 2728 3278 2906 2969 
L 2906 3500 
L 3481 3500 
L 3481 434 
z
" transform="scale(0.015625)"/>
      </defs>
      <use xlink:href="#DejaVuSans-4d"/>
      <use xlink:href="#DejaVuSans-69" x="86.279297"/>
      <use xlink:href="#DejaVuSans-6e" x="114.0625"/>
      <use xlink:href="#DejaVuSans-75" x="177.441406"/>
      <use xlink:href="#DejaVuSans-73" x="240.820312"/>
      <use xlink:href="#DejaVuSans-5f" x="292.919922"/>
      <use xlink:href="#DejaVuSans-63" x="342.919922"/>
      <use xlink:href="#DejaVuSans-72" x="397.900391"/>
      <use xlink:href="#DejaVuSans-65" x="436.763672"/>
      <use xlink:href="#DejaVuSans-5f" x="498.287109"/>
      <use xlink:href="#DejaVuSans-70" x="548.287109"/>
      <use xlink:href="#DejaVuSans-35" x="611.763672"/>
      <use xlink:href="#DejaVuSans-33" x="675.386719"/>
      <use xlink:href="#DejaVuSans-6d" x="739.009766"/>
      <use xlink:href="#DejaVuSans-75" x="836.421875"/>
      <use xlink:href="#DejaVuSans-74" x="899.800781"/>
      <use xlink:href="#DejaVuSans-5f" x="939.009766"/>
      <use xlink:href="#DejaVuSans-31" x="989.009766"/>
      <use xlink:href="#DejaVuSans-20" x="1052.632812"/>
      <use xlink:href="#DejaVuSans-2d" x="1084.419922"/>
      <use xlink:href="#DejaVuSans-20" x="1120.503906"/>
      <use xlink:href="#DejaVuSans-70" x="1152.291016"/>
      <use xlink:href="#DejaVuSans-6f" x="1215.767578"/>
      <use xlink:href="#DejaVuSans-6c" x="1276.949219"/>
      <use xlink:href="#DejaVuSans-79" x="1304.732422"/>
      <use xlink:href="#DejaVuSans-67" x="1363.912109"/>
     </g>
    </g>
    <g id="line2d_25">
     <path d="M 257.356875 291.525394 
L 265.356875 291.525394 
L 273.356875 291.525394 
" style="fill: none; stroke: #f7a35c; stroke-linecap: square"/>
    </g>
    <g id="text_23">
     <!-- Minus_cre_p53mut_2 - illumina_universal_adapter -->
     <g transform="translate(279.756875 294.325394) scale(0.08 -0.08)">
      <use xlink:href="#DejaVuSans-4d"/>
      <use xlink:href="#DejaVuSans-69" x="86.279297"/>
      <use xlink:href="#DejaVuSans-6e" x="114.0625"/>
      <use xlink:href="#DejaVuSans-75" x="177.441406"/>
      <use xlink:href="#DejaVuSans-73" x="240.820312"/>
      <use xlink:href="#DejaVuSans-5f" x="292.919922"/>
      <use xlink:href="#DejaVuSans-63" x="342.919922"/>
      <use xlink:href="#DejaVuSans-72" x="397.900391"/>
      <use xlink:href="#DejaVuSans-65" x="436.763672"/>
      <use xlink:href="#DejaVuSans-5f" x="498.287109"/>
      <use xlink:href="#DejaVuSans-70" x="548.287109"/>
      <use xlink:href="#DejaVuSans-35" x="611.763672"/>
      <use xlink:href="#DejaVuSans-33" x="675.386719"/>
      <use xlink:href="#DejaVuSans-6d" x="739.009766"/>
      <use xlink:href="#DejaVuSans-75" x="836.421875"/>
      <use xlink:href="#DejaVuSans-74" x="899.800781"/>
      <use xlink:href="#DejaVuSans-5f" x="939.009766"/>
      <use xlink:href="#DejaVuSans-32" x="989.009766"/>
      <use xlink:href="#DejaVuSans-20" x="1052.632812"/>
      <use xlink:href="#DejaVuSans-2d" x="1084.419922"/>
      <use xlink:href="#DejaVuSans-20" x="1120.503906"/>
      <use xlink:href="#DejaVuSans-69" x="1152.291016"/>
      <use xlink:href="#DejaVuSans-6c" x="1180.074219"/>
      <use xlink:href="#DejaVuSans-6c" x="1207.857422"/>
      <use xlink:href="#DejaVuSans-75" x="1235.640625"/>
      <use xlink:href="#DejaVuSans-6d" x="1299.019531"/>
      <use xlink:href="#DejaVuSans-69" x="1396.431641"/>
      <use xlink:href="#DejaVuSans-6e" x="1424.214844"/>
      <use xlink:href="#DejaVuSans-61" x="1487.59375"/>
      <use xlink:href="#DejaVuSans-5f" x="1548.873047"/>
      <use xlink:href="#DejaVuSans-75" x="1598.873047"/>
      <use xlink:href="#DejaVuSans-6e" x="1662.251953"/>
      <use xlink:href="#DejaVuSans-69" x="1725.630859"/>
      <use xlink:href="#DejaVuSans-76" x="1753.414062"/>
      <use xlink:href="#DejaVuSans-65" x="1812.59375"/>
      <use xlink:href="#DejaVuSans-72" x="1874.117188"/>
      <use xlink:href="#DejaVuSans-73" x="1915.230469"/>
      <use xlink:href="#DejaVuSans-61" x="1967.330078"/>
      <use xlink:href="#DejaVuSans-6c" x="2028.609375"/>
      <use xlink:href="#DejaVuSans-5f" x="2056.392578"/>
      <use xlink:href="#DejaVuSans-61" x="2106.392578"/>
      <use xlink:href="#DejaVuSans-64" x="2167.671875"/>
      <use xlink:href="#DejaVuSans-61" x="2231.148438"/>
      <use xlink:href="#DejaVuSans-70" x="2292.427734"/>
      <use xlink:href="#DejaVuSans-74" x="2355.904297"/>
      <use xlink:href="#DejaVuSans-65" x="2395.113281"/>
      <use xlink:href="#DejaVuSans-72" x="2456.636719"/>
     </g>
    </g>
    <g id="line2d_26">
     <path d="M 257.356875 303.490394 
L 265.356875 303.490394 
L 273.356875 303.490394 
" style="fill: none; stroke: #8085e9; stroke-linecap: square"/>
    </g>
    <g id="text_24">
     <!-- Minus_cre_p53mut_2 - polya -->
     <g transform="translate(279.756875 306.290394) scale(0.08 -0.08)">
      <use xlink:href="#DejaVuSans-4d"/>
      <use xlink:href="#DejaVuSans-69" x="86.279297"/>
      <use xlink:href="#DejaVuSans-6e" x="114.0625"/>
      <use xlink:href="#DejaVuSans-75" x="177.441406"/>
      <use xlink:href="#DejaVuSans-73" x="240.820312"/>
      <use xlink:href="#DejaVuSans-5f" x="292.919922"/>
      <use xlink:href="#DejaVuSans-63" x="342.919922"/>
      <use xlink:href="#DejaVuSans-72" x="397.900391"/>
      <use xlink:href="#DejaVuSans-65" x="436.763672"/>
      <use xlink:href="#DejaVuSans-5f" x="498.287109"/>
      <use xlink:href="#DejaVuSans-70" x="548.287109"/>
      <use xlink:href="#DejaVuSans-35" x="611.763672"/>
      <use xlink:href="#DejaVuSans-33" x="675.386719"/>
      <use xlink:href="#DejaVuSans-6d" x="739.009766"/>
      <use xlink:href="#DejaVuSans-75" x="836.421875"/>
      <use xlink:href="#DejaVuSans-74" x="899.800781"/>
      <use xlink:href="#DejaVuSans-5f" x="939.009766"/>
      <use xlink:href="#DejaVuSans-32" x="989.009766"/>
      <use xlink:href="#DejaVuSans-20" x="1052.632812"/>
      <use xlink:href="#DejaVuSans-2d" x="1084.419922"/>
      <use xlink:href="#DejaVuSans-20" x="1120.503906"/>
      <use xlink:href="#DejaVuSans-70" x="1152.291016"/>
      <use xlink:href="#DejaVuSans-6f" x="1215.767578"/>
      <use xlink:href="#DejaVuSans-6c" x="1276.949219"/>
      <use xlink:href="#DejaVuSans-79" x="1304.732422"/>
      <use xlink:href="#DejaVuSans-61" x="1363.912109"/>
     </g>
    </g>
    <g id="line2d_27">
     <path d="M 257.356875 315.455394 
L 265.356875 315.455394 
L 273.356875 315.455394 
" style="fill: none; stroke: #f15c80; stroke-linecap: square"/>
    </g>
    <g id="text_25">
     <!-- Minus_cre_p53mut_2 - polyg -->
     <g transform="translate(279.756875 318.255394) scale(0.08 -0.08)">
      <use xlink:href="#DejaVuSans-4d"/>
      <use xlink:href="#DejaVuSans-69" x="86.279297"/>
      <use xlink:href="#DejaVuSans-6e" x="114.0625"/>
      <use xlink:href="#DejaVuSans-75" x="177.441406"/>
      <use xlink:href="#DejaVuSans-73" x="240.820312"/>
      <use xlink:href="#DejaVuSans-5f" x="292.919922"/>
      <use xlink:href="#DejaVuSans-63" x="342.919922"/>
      <use xlink:href="#DejaVuSans-72" x="397.900391"/>
      <use xlink:href="#DejaVuSans-65" x="436.763672"/>
      <use xlink:href="#DejaVuSans-5f" x="498.287109"/>
      <use xlink:href="#DejaVuSans-70" x="548.287109"/>
      <use xlink:href="#DejaVuSans-35" x="611.763672"/>
      <use xlink:href="#DejaVuSans-33" x="675.386719"/>
      <use xlink:href="#DejaVuSans-6d" x="739.009766"/>
      <use xlink:href="#DejaVuSans-75" x="836.421875"/>
      <use xlink:href="#DejaVuSans-74" x="899.800781"/>
      <use xlink:href="#DejaVuSans-5f" x="939.009766"/>
      <use xlink:href="#DejaVuSans-32" x="989.009766"/>
      <use xlink:href="#DejaVuSans-20" x="1052.632812"/>
      <use xlink:href="#DejaVuSans-2d" x="1084.419922"/>
      <use xlink:href="#DejaVuSans-20" x="1120.503906"/>
      <use xlink:href="#DejaVuSans-70" x="1152.291016"/>
      <use xlink:href="#DejaVuSans-6f" x="1215.767578"/>
      <use xlink:href="#DejaVuSans-6c" x="1276.949219"/>
      <use xlink:href="#DejaVuSans-79" x="1304.732422"/>
      <use xlink:href="#DejaVuSans-67" x="1363.912109"/>
     </g>
    </g>
    <g id="line2d_28">
     <path d="M 461.823125 291.525394 
L 469.823125 291.525394 
L 477.823125 291.525394 
" style="fill: none; stroke: #e4d354; stroke-linecap: square"/>
    </g>
    <g id="text_26">
     <!-- Plus_cre_p53mut_1 - illumina_universal_adapter -->
     <g transform="translate(484.223125 294.325394) scale(0.08 -0.08)">
      <use xlink:href="#DejaVuSans-50"/>
      <use xlink:href="#DejaVuSans-6c" x="60.302734"/>
      <use xlink:href="#DejaVuSans-75" x="88.085938"/>
      <use xlink:href="#DejaVuSans-73" x="151.464844"/>
      <use xlink:href="#DejaVuSans-5f" x="203.564453"/>
      <use xlink:href="#DejaVuSans-63" x="253.564453"/>
      <use xlink:href="#DejaVuSans-72" x="308.544922"/>
      <use xlink:href="#DejaVuSans-65" x="347.408203"/>
      <use xlink:href="#DejaVuSans-5f" x="408.931641"/>
      <use xlink:href="#DejaVuSans-70" x="458.931641"/>
      <use xlink:href="#DejaVuSans-35" x="522.408203"/>
      <use xlink:href="#DejaVuSans-33" x="586.03125"/>
      <use xlink:href="#DejaVuSans-6d" x="649.654297"/>
      <use xlink:href="#DejaVuSans-75" x="747.066406"/>
      <use xlink:href="#DejaVuSans-74" x="810.445312"/>
      <use xlink:href="#DejaVuSans-5f" x="849.654297"/>
      <use xlink:href="#DejaVuSans-31" x="899.654297"/>
      <use xlink:href="#DejaVuSans-20" x="963.277344"/>
      <use xlink:href="#DejaVuSans-2d" x="995.064453"/>
      <use xlink:href="#DejaVuSans-20" x="1031.148438"/>
      <use xlink:href="#DejaVuSans-69" x="1062.935547"/>
      <use xlink:href="#DejaVuSans-6c" x="1090.71875"/>
      <use xlink:href="#DejaVuSans-6c" x="1118.501953"/>
      <use xlink:href="#DejaVuSans-75" x="1146.285156"/>
      <use xlink:href="#DejaVuSans-6d" x="1209.664062"/>
      <use xlink:href="#DejaVuSans-69" x="1307.076172"/>
      <use xlink:href="#DejaVuSans-6e" x="1334.859375"/>
      <use xlink:href="#DejaVuSans-61" x="1398.238281"/>
      <use xlink:href="#DejaVuSans-5f" x="1459.517578"/>
      <use xlink:href="#DejaVuSans-75" x="1509.517578"/>
      <use xlink:href="#DejaVuSans-6e" x="1572.896484"/>
      <use xlink:href="#DejaVuSans-69" x="1636.275391"/>
      <use xlink:href="#DejaVuSans-76" x="1664.058594"/>
      <use xlink:href="#DejaVuSans-65" x="1723.238281"/>
      <use xlink:href="#DejaVuSans-72" x="1784.761719"/>
      <use xlink:href="#DejaVuSans-73" x="1825.875"/>
      <use xlink:href="#DejaVuSans-61" x="1877.974609"/>
      <use xlink:href="#DejaVuSans-6c" x="1939.253906"/>
      <use xlink:href="#DejaVuSans-5f" x="1967.037109"/>
      <use xlink:href="#DejaVuSans-61" x="2017.037109"/>
      <use xlink:href="#DejaVuSans-64" x="2078.316406"/>
      <use xlink:href="#DejaVuSans-61" x="2141.792969"/>
      <use xlink:href="#DejaVuSans-70" x="2203.072266"/>
      <use xlink:href="#DejaVuSans-74" x="2266.548828"/>
      <use xlink:href="#DejaVuSans-65" x="2305.757812"/>
      <use xlink:href="#DejaVuSans-72" x="2367.28125"/>
     </g>
    </g>
    <g id="line2d_29">
     <path d="M 461.823125 303.490394 
L 469.823125 303.490394 
L 477.823125 303.490394 
" style="fill: none; stroke: #2b908f; stroke-linecap: square"/>
    </g>
    <g id="text_27">
     <!-- Plus_cre_p53mut_1 - polya -->
     <g transform="translate(484.223125 306.290394) scale(0.08 -0.08)">
      <use xlink:href="#DejaVuSans-50"/>
      <use xlink:href="#DejaVuSans-6c" x="60.302734"/>
      <use xlink:href="#DejaVuSans-75" x="88.085938"/>
      <use xlink:href="#DejaVuSans-73" x="151.464844"/>
      <use xlink:href="#DejaVuSans-5f" x="203.564453"/>
      <use xlink:href="#DejaVuSans-63" x="253.564453"/>
      <use xlink:href="#DejaVuSans-72" x="308.544922"/>
      <use xlink:href="#DejaVuSans-65" x="347.408203"/>
      <use xlink:href="#DejaVuSans-5f" x="408.931641"/>
      <use xlink:href="#DejaVuSans-70" x="458.931641"/>
      <use xlink:href="#DejaVuSans-35" x="522.408203"/>
      <use xlink:href="#DejaVuSans-33" x="586.03125"/>
      <use xlink:href="#DejaVuSans-6d" x="649.654297"/>
      <use xlink:href="#DejaVuSans-75" x="747.066406"/>
      <use xlink:href="#DejaVuSans-74" x="810.445312"/>
      <use xlink:href="#DejaVuSans-5f" x="849.654297"/>
      <use xlink:href="#DejaVuSans-31" x="899.654297"/>
      <use xlink:href="#DejaVuSans-20" x="963.277344"/>
      <use xlink:href="#DejaVuSans-2d" x="995.064453"/>
      <use xlink:href="#DejaVuSans-20" x="1031.148438"/>
      <use xlink:href="#DejaVuSans-70" x="1062.935547"/>
      <use xlink:href="#DejaVuSans-6f" x="1126.412109"/>
      <use xlink:href="#DejaVuSans-6c" x="1187.59375"/>
      <use xlink:href="#DejaVuSans-79" x="1215.376953"/>
      <use xlink:href="#DejaVuSans-61" x="1274.556641"/>
     </g>
    </g>
    <g id="line2d_30">
     <path d="M 659.140625 291.525394 
L 667.140625 291.525394 
L 675.140625 291.525394 
" style="fill: none; stroke: #f45b5b; stroke-linecap: square"/>
    </g>
    <g id="text_28">
     <!-- Plus_cre_p53mut_1 - polyg -->
     <g transform="translate(681.540625 294.325394) scale(0.08 -0.08)">
      <use xlink:href="#DejaVuSans-50"/>
      <use xlink:href="#DejaVuSans-6c" x="60.302734"/>
      <use xlink:href="#DejaVuSans-75" x="88.085938"/>
      <use xlink:href="#DejaVuSans-73" x="151.464844"/>
      <use xlink:href="#DejaVuSans-5f" x="203.564453"/>
      <use xlink:href="#DejaVuSans-63" x="253.564453"/>
      <use xlink:href="#DejaVuSans-72" x="308.544922"/>
      <use xlink:href="#DejaVuSans-65" x="347.408203"/>
      <use xlink:href="#DejaVuSans-5f" x="408.931641"/>
      <use xlink:href="#DejaVuSans-70" x="458.931641"/>
      <use xlink:href="#DejaVuSans-35" x="522.408203"/>
      <use xlink:href="#DejaVuSans-33" x="586.03125"/>
      <use xlink:href="#DejaVuSans-6d" x="649.654297"/>
      <use xlink:href="#DejaVuSans-75" x="747.066406"/>
      <use xlink:href="#DejaVuSans-74" x="810.445312"/>
      <use xlink:href="#DejaVuSans-5f" x="849.654297"/>
      <use xlink:href="#DejaVuSans-31" x="899.654297"/>
      <use xlink:href="#DejaVuSans-20" x="963.277344"/>
      <use xlink:href="#DejaVuSans-2d" x="995.064453"/>
      <use xlink:href="#DejaVuSans-20" x="1031.148438"/>
      <use xlink:href="#DejaVuSans-70" x="1062.935547"/>
      <use xlink:href="#DejaVuSans-6f" x="1126.412109"/>
      <use xlink:href="#DejaVuSans-6c" x="1187.59375"/>
      <use xlink:href="#DejaVuSans-79" x="1215.376953"/>
      <use xlink:href="#DejaVuSans-67" x="1274.556641"/>
     </g>
    </g>
    <g id="line2d_31">
     <path d="M 659.140625 303.490394 
L 667.140625 303.490394 
L 675.140625 303.490394 
" style="fill: none; stroke: #91e8e1; stroke-linecap: square"/>
    </g>
    <g id="text_29">
     <!-- Plus_cre_p53mut_2 - illumina_universal_adapter -->
     <g transform="translate(681.540625 306.290394) scale(0.08 -0.08)">
      <use xlink:href="#DejaVuSans-50"/>
      <use xlink:href="#DejaVuSans-6c" x="60.302734"/>
      <use xlink:href="#DejaVuSans-75" x="88.085938"/>
      <use xlink:href="#DejaVuSans-73" x="151.464844"/>
      <use xlink:href="#DejaVuSans-5f" x="203.564453"/>
      <use xlink:href="#DejaVuSans-63" x="253.564453"/>
      <use xlink:href="#DejaVuSans-72" x="308.544922"/>
      <use xlink:href="#DejaVuSans-65" x="347.408203"/>
      <use xlink:href="#DejaVuSans-5f" x="408.931641"/>
      <use xlink:href="#DejaVuSans-70" x="458.931641"/>
      <use xlink:href="#DejaVuSans-35" x="522.408203"/>
      <use xlink:href="#DejaVuSans-33" x="586.03125"/>
      <use xlink:href="#DejaVuSans-6d" x="649.654297"/>
      <use xlink:href="#DejaVuSans-75" x="747.066406"/>
      <use xlink:href="#DejaVuSans-74" x="810.445312"/>
      <use xlink:href="#DejaVuSans-5f" x="849.654297"/>
      <use xlink:href="#DejaVuSans-32" x="899.654297"/>
      <use xlink:href="#DejaVuSans-20" x="963.277344"/>
      <use xlink:href="#DejaVuSans-2d" x="995.064453"/>
      <use xlink:href="#DejaVuSans-20" x="1031.148438"/>
      <use xlink:href="#DejaVuSans-69" x="1062.935547"/>
      <use xlink:href="#DejaVuSans-6c" x="1090.71875"/>
      <use xlink:href="#DejaVuSans-6c" x="1118.501953"/>
      <use xlink:href="#DejaVuSans-75" x="1146.285156"/>
      <use xlink:href="#DejaVuSans-6d" x="1209.664062"/>
      <use xlink:href="#DejaVuSans-69" x="1307.076172"/>
      <use xlink:href="#DejaVuSans-6e" x="1334.859375"/>
      <use xlink:href="#DejaVuSans-61" x="1398.238281"/>
      <use xlink:href="#DejaVuSans-5f" x="1459.517578"/>
      <use xlink:href="#DejaVuSans-75" x="1509.517578"/>
      <use xlink:href="#DejaVuSans-6e" x="1572.896484"/>
      <use xlink:href="#DejaVuSans-69" x="1636.275391"/>
      <use xlink:href="#DejaVuSans-76" x="1664.058594"/>
      <use xlink:href="#DejaVuSans-65" x="1723.238281"/>
      <use xlink:href="#DejaVuSans-72" x="1784.761719"/>
      <use xlink:href="#DejaVuSans-73" x="1825.875"/>
      <use xlink:href="#DejaVuSans-61" x="1877.974609"/>
      <use xlink:href="#DejaVuSans-6c" x="1939.253906"/>
      <use xlink:href="#DejaVuSans-5f" x="1967.037109"/>
      <use xlink:href="#DejaVuSans-61" x="2017.037109"/>
      <use xlink:href="#DejaVuSans-64" x="2078.316406"/>
      <use xlink:href="#DejaVuSans-61" x="2141.792969"/>
      <use xlink:href="#DejaVuSans-70" x="2203.072266"/>
      <use xlink:href="#DejaVuSans-74" x="2266.548828"/>
      <use xlink:href="#DejaVuSans-65" x="2305.757812"/>
      <use xlink:href="#DejaVuSans-72" x="2367.28125"/>
     </g>
    </g>
    <g id="line2d_32">
     <path d="M 856.458125 291.525394 
L 864.458125 291.525394 
L 872.458125 291.525394 
" style="fill: none; stroke: #7cb5ec; stroke-linecap: square"/>
    </g>
    <g id="text_30">
     <!-- Plus_cre_p53mut_2 - polya -->
     <g transform="translate(878.858125 294.325394) scale(0.08 -0.08)">
      <use xlink:href="#DejaVuSans-50"/>
      <use xlink:href="#DejaVuSans-6c" x="60.302734"/>
      <use xlink:href="#DejaVuSans-75" x="88.085938"/>
      <use xlink:href="#DejaVuSans-73" x="151.464844"/>
      <use xlink:href="#DejaVuSans-5f" x="203.564453"/>
      <use xlink:href="#DejaVuSans-63" x="253.564453"/>
      <use xlink:href="#DejaVuSans-72" x="308.544922"/>
      <use xlink:href="#DejaVuSans-65" x="347.408203"/>
      <use xlink:href="#DejaVuSans-5f" x="408.931641"/>
      <use xlink:href="#DejaVuSans-70" x="458.931641"/>
      <use xlink:href="#DejaVuSans-35" x="522.408203"/>
      <use xlink:href="#DejaVuSans-33" x="586.03125"/>
      <use xlink:href="#DejaVuSans-6d" x="649.654297"/>
      <use xlink:href="#DejaVuSans-75" x="747.066406"/>
      <use xlink:href="#DejaVuSans-74" x="810.445312"/>
      <use xlink:href="#DejaVuSans-5f" x="849.654297"/>
      <use xlink:href="#DejaVuSans-32" x="899.654297"/>
      <use xlink:href="#DejaVuSans-20" x="963.277344"/>
      <use xlink:href="#DejaVuSans-2d" x="995.064453"/>
      <use xlink:href="#DejaVuSans-20" x="1031.148438"/>
      <use xlink:href="#DejaVuSans-70" x="1062.935547"/>
      <use xlink:href="#DejaVuSans-6f" x="1126.412109"/>
      <use xlink:href="#DejaVuSans-6c" x="1187.59375"/>
      <use xlink:href="#DejaVuSans-79" x="1215.376953"/>
      <use xlink:href="#DejaVuSans-61" x="1274.556641"/>
     </g>
    </g>
    <g id="line2d_33">
     <path d="M 856.458125 303.490394 
L 864.458125 303.490394 
L 872.458125 303.490394 
" style="fill: none; stroke: #434348; stroke-linecap: square"/>
    </g>
    <g id="text_31">
     <!-- Plus_cre_p53mut_2 - polyg -->
     <g transform="translate(878.858125 306.290394) scale(0.08 -0.08)">
      <use xlink:href="#DejaVuSans-50"/>
      <use xlink:href="#DejaVuSans-6c" x="60.302734"/>
      <use xlink:href="#DejaVuSans-75" x="88.085938"/>
      <use xlink:href="#DejaVuSans-73" x="151.464844"/>
      <use xlink:href="#DejaVuSans-5f" x="203.564453"/>
      <use xlink:href="#DejaVuSans-63" x="253.564453"/>
      <use xlink:href="#DejaVuSans-72" x="308.544922"/>
      <use xlink:href="#DejaVuSans-65" x="347.408203"/>
      <use xlink:href="#DejaVuSans-5f" x="408.931641"/>
      <use xlink:href="#DejaVuSans-70" x="458.931641"/>
      <use xlink:href="#DejaVuSans-35" x="522.408203"/>
      <use xlink:href="#DejaVuSans-33" x="586.03125"/>
      <use xlink:href="#DejaVuSans-6d" x="649.654297"/>
      <use xlink:href="#DejaVuSans-75" x="747.066406"/>
      <use xlink:href="#DejaVuSans-74" x="810.445312"/>
      <use xlink:href="#DejaVuSans-5f" x="849.654297"/>
      <use xlink:href="#DejaVuSans-32" x="899.654297"/>
      <use xlink:href="#DejaVuSans-20" x="963.277344"/>
      <use xlink:href="#DejaVuSans-2d" x="995.064453"/>
      <use xlink:href="#DejaVuSans-20" x="1031.148438"/>
      <use xlink:href="#DejaVuSans-70" x="1062.935547"/>
      <use xlink:href="#DejaVuSans-6f" x="1126.412109"/>
      <use xlink:href="#DejaVuSans-6c" x="1187.59375"/>
      <use xlink:href="#DejaVuSans-79" x="1215.376953"/>
      <use xlink:href="#DejaVuSans-67" x="1274.556641"/>
     </g>
    </g>
   </g>
  </g>
 </g>
 <defs>
  <clipPath id="pf697f50ddc">
   <rect x="45.690625" y="31.48286" width="947.41" height="242.5072"/>
  </clipPath>
 </defs>
</svg>
