<?xml version="1.0" encoding="utf-8" standalone="no"?>
<!DOCTYPE svg PUBLIC "-//W3C//DTD SVG 1.1//EN"
  "http://www.w3.org/Graphics/SVG/1.1/DTD/svg11.dtd">
<svg xmlns:xlink="http://www.w3.org/1999/xlink" width="1000.318125pt" height="330.541644pt" viewBox="0 0 1000.318125 330.541644" xmlns="http://www.w3.org/2000/svg" version="1.1">
 <metadata>
  <rdf:RDF xmlns:dc="http://purl.org/dc/elements/1.1/" xmlns:cc="http://creativecommons.org/ns#" xmlns:rdf="http://www.w3.org/1999/02/22-rdf-syntax-ns#">
   <cc:Work>
    <dc:type rdf:resource="http://purl.org/dc/dcmitype/StillImage"/>
    <dc:date>2025-05-20T01:35:28.372402</dc:date>
    <dc:format>image/svg+xml</dc:format>
    <dc:creator>
     <cc:Agent>
      <dc:title>Matplotlib v3.8.2, https://matplotlib.org/</dc:title>
     </cc:Agent>
    </dc:creator>
   </cc:Work>
  </rdf:RDF>
 </metadata>
 <defs>
  <style type="text/css">*{stroke-linejoin: round; stroke-linecap: butt}</style>
 </defs>
 <g id="figure_1">
  <g id="axes_1">
   <g id="patch_1">
    <path d="M 38.058125 273.99006 
L 993.118125 273.99006 
L 993.118125 31.48286 
L 38.058125 31.48286 
z
" style="fill: #ffffff"/>
   </g>
   <g id="matplotlib.axis_1">
    <g id="xtick_1">
     <g id="text_1">
      <!-- 0 -->
      <g transform="translate(73.097853 287.06881) scale(0.08 -0.08)">
       <defs>
        <path id="DejaVuSans-30" d="M 2034 4250 
Q 1547 4250 1301 3770 
Q 1056 3291 1056 2328 
Q 1056 1369 1301 889 
Q 1547 409 2034 409 
Q 2525 409 2770 889 
Q 3016 1369 3016 2328 
Q 3016 3291 2770 3770 
Q 2525 4250 2034 4250 
z
M 2034 4750 
Q 2819 4750 3233 4129 
Q 3647 3509 3647 2328 
Q 3647 1150 3233 529 
Q 2819 -91 2034 -91 
Q 1250 -91 836 529 
Q 422 1150 422 2328 
Q 422 3509 836 4129 
Q 1250 4750 2034 4750 
z
" transform="scale(0.015625)"/>
       </defs>
       <use xlink:href="#DejaVuSans-30"/>
      </g>
     </g>
    </g>
    <g id="xtick_2">
     <g id="text_2">
      <!-- 20 -->
      <g transform="translate(187.094647 287.06881) scale(0.08 -0.08)">
       <defs>
        <path id="DejaVuSans-32" d="M 1228 531 
L 3431 531 
L 3431 0 
L 469 0 
L 469 531 
Q 828 903 1448 1529 
Q 2069 2156 2228 2338 
Q 2531 2678 2651 2914 
Q 2772 3150 2772 3378 
Q 2772 3750 2511 3984 
Q 2250 4219 1831 4219 
Q 1534 4219 1204 4116 
Q 875 4013 500 3803 
L 500 4441 
Q 881 4594 1212 4672 
Q 1544 4750 1819 4750 
Q 2544 4750 2975 4387 
Q 3406 4025 3406 3419 
Q 3406 3131 3298 2873 
Q 3191 2616 2906 2266 
Q 2828 2175 2409 1742 
Q 1991 1309 1228 531 
z
" transform="scale(0.015625)"/>
       </defs>
       <use xlink:href="#DejaVuSans-32"/>
       <use xlink:href="#DejaVuSans-30" x="63.623047"/>
      </g>
     </g>
    </g>
    <g id="xtick_3">
     <g id="text_3">
      <!-- 40 -->
      <g transform="translate(303.636441 287.06881) scale(0.08 -0.08)">
       <defs>
        <path id="DejaVuSans-34" d="M 2419 4116 
L 825 1625 
L 2419 1625 
L 2419 4116 
z
M 2253 4666 
L 3047 4666 
L 3047 1625 
L 3713 1625 
L 3713 1100 
L 3047 1100 
L 3047 0 
L 2419 0 
L 2419 1100 
L 313 1100 
L 313 1709 
L 2253 4666 
z
" transform="scale(0.015625)"/>
       </defs>
       <use xlink:href="#DejaVuSans-34"/>
       <use xlink:href="#DejaVuSans-30" x="63.623047"/>
      </g>
     </g>
    </g>
    <g id="xtick_4">
     <g id="text_4">
      <!-- 60 -->
      <g transform="translate(420.178235 287.06881) scale(0.08 -0.08)">
       <defs>
        <path id="DejaVuSans-36" d="M 2113 2584 
Q 1688 2584 1439 2293 
Q 1191 2003 1191 1497 
Q 1191 994 1439 701 
Q 1688 409 2113 409 
Q 2538 409 2786 701 
Q 3034 994 3034 1497 
Q 3034 2003 2786 2293 
Q 2538 2584 2113 2584 
z
M 3366 4563 
L 3366 3988 
Q 3128 4100 2886 4159 
Q 2644 4219 2406 4219 
Q 1781 4219 1451 3797 
Q 1122 3375 1075 2522 
Q 1259 2794 1537 2939 
Q 1816 3084 2150 3084 
Q 2853 3084 3261 2657 
Q 3669 2231 3669 1497 
Q 3669 778 3244 343 
Q 2819 -91 2113 -91 
Q 1303 -91 875 529 
Q 447 1150 447 2328 
Q 447 3434 972 4092 
Q 1497 4750 2381 4750 
Q 2619 4750 2861 4703 
Q 3103 4656 3366 4563 
z
" transform="scale(0.015625)"/>
       </defs>
       <use xlink:href="#DejaVuSans-36"/>
       <use xlink:href="#DejaVuSans-30" x="63.623047"/>
      </g>
     </g>
    </g>
    <g id="xtick_5">
     <g id="text_5">
      <!-- 80 -->
      <g transform="translate(536.720029 287.06881) scale(0.08 -0.08)">
       <defs>
        <path id="DejaVuSans-38" d="M 2034 2216 
Q 1584 2216 1326 1975 
Q 1069 1734 1069 1313 
Q 1069 891 1326 650 
Q 1584 409 2034 409 
Q 2484 409 2743 651 
Q 3003 894 3003 1313 
Q 3003 1734 2745 1975 
Q 2488 2216 2034 2216 
z
M 1403 2484 
Q 997 2584 770 2862 
Q 544 3141 544 3541 
Q 544 4100 942 4425 
Q 1341 4750 2034 4750 
Q 2731 4750 3128 4425 
Q 3525 4100 3525 3541 
Q 3525 3141 3298 2862 
Q 3072 2584 2669 2484 
Q 3125 2378 3379 2068 
Q 3634 1759 3634 1313 
Q 3634 634 3220 271 
Q 2806 -91 2034 -91 
Q 1263 -91 848 271 
Q 434 634 434 1313 
Q 434 1759 690 2068 
Q 947 2378 1403 2484 
z
M 1172 3481 
Q 1172 3119 1398 2916 
Q 1625 2713 2034 2713 
Q 2441 2713 2670 2916 
Q 2900 3119 2900 3481 
Q 2900 3844 2670 4047 
Q 2441 4250 2034 4250 
Q 1625 4250 1398 4047 
Q 1172 3844 1172 3481 
z
" transform="scale(0.015625)"/>
       </defs>
       <use xlink:href="#DejaVuSans-38"/>
       <use xlink:href="#DejaVuSans-30" x="63.623047"/>
      </g>
     </g>
    </g>
    <g id="xtick_6">
     <g id="text_6">
      <!-- 100 -->
      <g transform="translate(650.716822 287.06881) scale(0.08 -0.08)">
       <defs>
        <path id="DejaVuSans-31" d="M 794 531 
L 1825 531 
L 1825 4091 
L 703 3866 
L 703 4441 
L 1819 4666 
L 2450 4666 
L 2450 531 
L 3481 531 
L 3481 0 
L 794 0 
L 794 531 
z
" transform="scale(0.015625)"/>
       </defs>
       <use xlink:href="#DejaVuSans-31"/>
       <use xlink:href="#DejaVuSans-30" x="63.623047"/>
       <use xlink:href="#DejaVuSans-30" x="127.246094"/>
      </g>
     </g>
    </g>
    <g id="xtick_7">
     <g id="text_7">
      <!-- 120 -->
      <g transform="translate(767.258616 287.06881) scale(0.08 -0.08)">
       <use xlink:href="#DejaVuSans-31"/>
       <use xlink:href="#DejaVuSans-32" x="63.623047"/>
       <use xlink:href="#DejaVuSans-30" x="127.246094"/>
      </g>
     </g>
    </g>
    <g id="xtick_8">
     <g id="text_8">
      <!-- 140 -->
      <g transform="translate(883.80041 287.06881) scale(0.08 -0.08)">
       <use xlink:href="#DejaVuSans-31"/>
       <use xlink:href="#DejaVuSans-34" x="63.623047"/>
       <use xlink:href="#DejaVuSans-30" x="127.246094"/>
      </g>
     </g>
    </g>
    <g id="text_9">
     <!-- Read Position -->
     <g transform="translate(481.970937 300.330997) scale(0.1 -0.1)">
      <defs>
       <path id="DejaVuSans-52" d="M 2841 2188 
Q 3044 2119 3236 1894 
Q 3428 1669 3622 1275 
L 4263 0 
L 3584 0 
L 2988 1197 
Q 2756 1666 2539 1819 
Q 2322 1972 1947 1972 
L 1259 1972 
L 1259 0 
L 628 0 
L 628 4666 
L 2053 4666 
Q 2853 4666 3247 4331 
Q 3641 3997 3641 3322 
Q 3641 2881 3436 2590 
Q 3231 2300 2841 2188 
z
M 1259 4147 
L 1259 2491 
L 2053 2491 
Q 2509 2491 2742 2702 
Q 2975 2913 2975 3322 
Q 2975 3731 2742 3939 
Q 2509 4147 2053 4147 
L 1259 4147 
z
" transform="scale(0.015625)"/>
       <path id="DejaVuSans-65" d="M 3597 1894 
L 3597 1613 
L 953 1613 
Q 991 1019 1311 708 
Q 1631 397 2203 397 
Q 2534 397 2845 478 
Q 3156 559 3463 722 
L 3463 178 
Q 3153 47 2828 -22 
Q 2503 -91 2169 -91 
Q 1331 -91 842 396 
Q 353 884 353 1716 
Q 353 2575 817 3079 
Q 1281 3584 2069 3584 
Q 2775 3584 3186 3129 
Q 3597 2675 3597 1894 
z
M 3022 2063 
Q 3016 2534 2758 2815 
Q 2500 3097 2075 3097 
Q 1594 3097 1305 2825 
Q 1016 2553 972 2059 
L 3022 2063 
z
" transform="scale(0.015625)"/>
       <path id="DejaVuSans-61" d="M 2194 1759 
Q 1497 1759 1228 1600 
Q 959 1441 959 1056 
Q 959 750 1161 570 
Q 1363 391 1709 391 
Q 2188 391 2477 730 
Q 2766 1069 2766 1631 
L 2766 1759 
L 2194 1759 
z
M 3341 1997 
L 3341 0 
L 2766 0 
L 2766 531 
Q 2569 213 2275 61 
Q 1981 -91 1556 -91 
Q 1019 -91 701 211 
Q 384 513 384 1019 
Q 384 1609 779 1909 
Q 1175 2209 1959 2209 
L 2766 2209 
L 2766 2266 
Q 2766 2663 2505 2880 
Q 2244 3097 1772 3097 
Q 1472 3097 1187 3025 
Q 903 2953 641 2809 
L 641 3341 
Q 956 3463 1253 3523 
Q 1550 3584 1831 3584 
Q 2591 3584 2966 3190 
Q 3341 2797 3341 1997 
z
" transform="scale(0.015625)"/>
       <path id="DejaVuSans-64" d="M 2906 2969 
L 2906 4863 
L 3481 4863 
L 3481 0 
L 2906 0 
L 2906 525 
Q 2725 213 2448 61 
Q 2172 -91 1784 -91 
Q 1150 -91 751 415 
Q 353 922 353 1747 
Q 353 2572 751 3078 
Q 1150 3584 1784 3584 
Q 2172 3584 2448 3432 
Q 2725 3281 2906 2969 
z
M 947 1747 
Q 947 1113 1208 752 
Q 1469 391 1925 391 
Q 2381 391 2643 752 
Q 2906 1113 2906 1747 
Q 2906 2381 2643 2742 
Q 2381 3103 1925 3103 
Q 1469 3103 1208 2742 
Q 947 2381 947 1747 
z
" transform="scale(0.015625)"/>
       <path id="DejaVuSans-20" transform="scale(0.015625)"/>
       <path id="DejaVuSans-50" d="M 1259 4147 
L 1259 2394 
L 2053 2394 
Q 2494 2394 2734 2622 
Q 2975 2850 2975 3272 
Q 2975 3691 2734 3919 
Q 2494 4147 2053 4147 
L 1259 4147 
z
M 628 4666 
L 2053 4666 
Q 2838 4666 3239 4311 
Q 3641 3956 3641 3272 
Q 3641 2581 3239 2228 
Q 2838 1875 2053 1875 
L 1259 1875 
L 1259 0 
L 628 0 
L 628 4666 
z
" transform="scale(0.015625)"/>
       <path id="DejaVuSans-6f" d="M 1959 3097 
Q 1497 3097 1228 2736 
Q 959 2375 959 1747 
Q 959 1119 1226 758 
Q 1494 397 1959 397 
Q 2419 397 2687 759 
Q 2956 1122 2956 1747 
Q 2956 2369 2687 2733 
Q 2419 3097 1959 3097 
z
M 1959 3584 
Q 2709 3584 3137 3096 
Q 3566 2609 3566 1747 
Q 3566 888 3137 398 
Q 2709 -91 1959 -91 
Q 1206 -91 779 398 
Q 353 888 353 1747 
Q 353 2609 779 3096 
Q 1206 3584 1959 3584 
z
" transform="scale(0.015625)"/>
       <path id="DejaVuSans-73" d="M 2834 3397 
L 2834 2853 
Q 2591 2978 2328 3040 
Q 2066 3103 1784 3103 
Q 1356 3103 1142 2972 
Q 928 2841 928 2578 
Q 928 2378 1081 2264 
Q 1234 2150 1697 2047 
L 1894 2003 
Q 2506 1872 2764 1633 
Q 3022 1394 3022 966 
Q 3022 478 2636 193 
Q 2250 -91 1575 -91 
Q 1294 -91 989 -36 
Q 684 19 347 128 
L 347 722 
Q 666 556 975 473 
Q 1284 391 1588 391 
Q 1994 391 2212 530 
Q 2431 669 2431 922 
Q 2431 1156 2273 1281 
Q 2116 1406 1581 1522 
L 1381 1569 
Q 847 1681 609 1914 
Q 372 2147 372 2553 
Q 372 3047 722 3315 
Q 1072 3584 1716 3584 
Q 2034 3584 2315 3537 
Q 2597 3491 2834 3397 
z
" transform="scale(0.015625)"/>
       <path id="DejaVuSans-69" d="M 603 3500 
L 1178 3500 
L 1178 0 
L 603 0 
L 603 3500 
z
M 603 4863 
L 1178 4863 
L 1178 4134 
L 603 4134 
L 603 4863 
z
" transform="scale(0.015625)"/>
       <path id="DejaVuSans-74" d="M 1172 4494 
L 1172 3500 
L 2356 3500 
L 2356 3053 
L 1172 3053 
L 1172 1153 
Q 1172 725 1289 603 
Q 1406 481 1766 481 
L 2356 481 
L 2356 0 
L 1766 0 
Q 1100 0 847 248 
Q 594 497 594 1153 
L 594 3053 
L 172 3053 
L 172 3500 
L 594 3500 
L 594 4494 
L 1172 4494 
z
" transform="scale(0.015625)"/>
       <path id="DejaVuSans-6e" d="M 3513 2113 
L 3513 0 
L 2938 0 
L 2938 2094 
Q 2938 2591 2744 2837 
Q 2550 3084 2163 3084 
Q 1697 3084 1428 2787 
Q 1159 2491 1159 1978 
L 1159 0 
L 581 0 
L 581 3500 
L 1159 3500 
L 1159 2956 
Q 1366 3272 1645 3428 
Q 1925 3584 2291 3584 
Q 2894 3584 3203 3211 
Q 3513 2838 3513 2113 
z
" transform="scale(0.015625)"/>
      </defs>
      <use xlink:href="#DejaVuSans-52"/>
      <use xlink:href="#DejaVuSans-65" x="64.982422"/>
      <use xlink:href="#DejaVuSans-61" x="126.505859"/>
      <use xlink:href="#DejaVuSans-64" x="187.785156"/>
      <use xlink:href="#DejaVuSans-20" x="251.261719"/>
      <use xlink:href="#DejaVuSans-50" x="283.048828"/>
      <use xlink:href="#DejaVuSans-6f" x="339.726562"/>
      <use xlink:href="#DejaVuSans-73" x="400.908203"/>
      <use xlink:href="#DejaVuSans-69" x="453.007812"/>
      <use xlink:href="#DejaVuSans-74" x="480.791016"/>
      <use xlink:href="#DejaVuSans-69" x="520"/>
      <use xlink:href="#DejaVuSans-6f" x="547.783203"/>
      <use xlink:href="#DejaVuSans-6e" x="608.964844"/>
     </g>
    </g>
   </g>
   <g id="matplotlib.axis_2">
    <g id="ytick_1">
     <g id="line2d_1">
      <path d="M 38.058125 273.99006 
L 993.118125 273.99006 
" clip-path="url(#p74f0e5198e)" style="fill: none; stroke: #dedede; stroke-linecap: square"/>
     </g>
     <g id="text_10">
      <!-- 0 -->
      <g transform="translate(25.968125 277.029435) scale(0.08 -0.08)">
       <use xlink:href="#DejaVuSans-30"/>
      </g>
     </g>
    </g>
    <g id="ytick_2">
     <g id="line2d_2">
      <path d="M 38.058125 243.387662 
L 993.118125 243.387662 
" clip-path="url(#p74f0e5198e)" style="fill: none; stroke: #dedede; stroke-linecap: square"/>
     </g>
     <g id="text_11">
      <!-- 5 -->
      <g transform="translate(25.968125 246.427037) scale(0.08 -0.08)">
       <defs>
        <path id="DejaVuSans-35" d="M 691 4666 
L 3169 4666 
L 3169 4134 
L 1269 4134 
L 1269 2991 
Q 1406 3038 1543 3061 
Q 1681 3084 1819 3084 
Q 2600 3084 3056 2656 
Q 3513 2228 3513 1497 
Q 3513 744 3044 326 
Q 2575 -91 1722 -91 
Q 1428 -91 1123 -41 
Q 819 9 494 109 
L 494 744 
Q 775 591 1075 516 
Q 1375 441 1709 441 
Q 2250 441 2565 725 
Q 2881 1009 2881 1497 
Q 2881 1984 2565 2268 
Q 2250 2553 1709 2553 
Q 1456 2553 1204 2497 
Q 953 2441 691 2322 
L 691 4666 
z
" transform="scale(0.015625)"/>
       </defs>
       <use xlink:href="#DejaVuSans-35"/>
      </g>
     </g>
    </g>
    <g id="ytick_3">
     <g id="line2d_3">
      <path d="M 38.058125 212.785265 
L 993.118125 212.785265 
" clip-path="url(#p74f0e5198e)" style="fill: none; stroke: #dedede; stroke-linecap: square"/>
     </g>
     <g id="text_12">
      <!-- 10 -->
      <g transform="translate(20.878125 215.82464) scale(0.08 -0.08)">
       <use xlink:href="#DejaVuSans-31"/>
       <use xlink:href="#DejaVuSans-30" x="63.623047"/>
      </g>
     </g>
    </g>
    <g id="ytick_4">
     <g id="line2d_4">
      <path d="M 38.058125 182.182867 
L 993.118125 182.182867 
" clip-path="url(#p74f0e5198e)" style="fill: none; stroke: #dedede; stroke-linecap: square"/>
     </g>
     <g id="text_13">
      <!-- 15 -->
      <g transform="translate(20.878125 185.222242) scale(0.08 -0.08)">
       <use xlink:href="#DejaVuSans-31"/>
       <use xlink:href="#DejaVuSans-35" x="63.623047"/>
      </g>
     </g>
    </g>
    <g id="ytick_5">
     <g id="line2d_5">
      <path d="M 38.058125 151.58047 
L 993.118125 151.58047 
" clip-path="url(#p74f0e5198e)" style="fill: none; stroke: #dedede; stroke-linecap: square"/>
     </g>
     <g id="text_14">
      <!-- 20 -->
      <g transform="translate(20.878125 154.619845) scale(0.08 -0.08)">
       <use xlink:href="#DejaVuSans-32"/>
       <use xlink:href="#DejaVuSans-30" x="63.623047"/>
      </g>
     </g>
    </g>
    <g id="ytick_6">
     <g id="line2d_6">
      <path d="M 38.058125 120.978072 
L 993.118125 120.978072 
" clip-path="url(#p74f0e5198e)" style="fill: none; stroke: #dedede; stroke-linecap: square"/>
     </g>
     <g id="text_15">
      <!-- 25 -->
      <g transform="translate(20.878125 124.017447) scale(0.08 -0.08)">
       <use xlink:href="#DejaVuSans-32"/>
       <use xlink:href="#DejaVuSans-35" x="63.623047"/>
      </g>
     </g>
    </g>
    <g id="ytick_7">
     <g id="line2d_7">
      <path d="M 38.058125 90.375675 
L 993.118125 90.375675 
" clip-path="url(#p74f0e5198e)" style="fill: none; stroke: #dedede; stroke-linecap: square"/>
     </g>
     <g id="text_16">
      <!-- 30 -->
      <g transform="translate(20.878125 93.41505) scale(0.08 -0.08)">
       <defs>
        <path id="DejaVuSans-33" d="M 2597 2516 
Q 3050 2419 3304 2112 
Q 3559 1806 3559 1356 
Q 3559 666 3084 287 
Q 2609 -91 1734 -91 
Q 1441 -91 1130 -33 
Q 819 25 488 141 
L 488 750 
Q 750 597 1062 519 
Q 1375 441 1716 441 
Q 2309 441 2620 675 
Q 2931 909 2931 1356 
Q 2931 1769 2642 2001 
Q 2353 2234 1838 2234 
L 1294 2234 
L 1294 2753 
L 1863 2753 
Q 2328 2753 2575 2939 
Q 2822 3125 2822 3475 
Q 2822 3834 2567 4026 
Q 2313 4219 1838 4219 
Q 1578 4219 1281 4162 
Q 984 4106 628 3988 
L 628 4550 
Q 988 4650 1302 4700 
Q 1616 4750 1894 4750 
Q 2613 4750 3031 4423 
Q 3450 4097 3450 3541 
Q 3450 3153 3228 2886 
Q 3006 2619 2597 2516 
z
" transform="scale(0.015625)"/>
       </defs>
       <use xlink:href="#DejaVuSans-33"/>
       <use xlink:href="#DejaVuSans-30" x="63.623047"/>
      </g>
     </g>
    </g>
    <g id="ytick_8">
     <g id="line2d_8">
      <path d="M 38.058125 59.773277 
L 993.118125 59.773277 
" clip-path="url(#p74f0e5198e)" style="fill: none; stroke: #dedede; stroke-linecap: square"/>
     </g>
     <g id="text_17">
      <!-- 35 -->
      <g transform="translate(20.878125 62.812652) scale(0.08 -0.08)">
       <use xlink:href="#DejaVuSans-33"/>
       <use xlink:href="#DejaVuSans-35" x="63.623047"/>
      </g>
     </g>
    </g>
    <g id="text_18">
     <!-- R1 Before filtering: Sequence Quality -->
     <g transform="translate(14.798437 245.672397) rotate(-90) scale(0.1 -0.1)">
      <defs>
       <path id="DejaVuSans-42" d="M 1259 2228 
L 1259 519 
L 2272 519 
Q 2781 519 3026 730 
Q 3272 941 3272 1375 
Q 3272 1813 3026 2020 
Q 2781 2228 2272 2228 
L 1259 2228 
z
M 1259 4147 
L 1259 2741 
L 2194 2741 
Q 2656 2741 2882 2914 
Q 3109 3088 3109 3444 
Q 3109 3797 2882 3972 
Q 2656 4147 2194 4147 
L 1259 4147 
z
M 628 4666 
L 2241 4666 
Q 2963 4666 3353 4366 
Q 3744 4066 3744 3513 
Q 3744 3084 3544 2831 
Q 3344 2578 2956 2516 
Q 3422 2416 3680 2098 
Q 3938 1781 3938 1306 
Q 3938 681 3513 340 
Q 3088 0 2303 0 
L 628 0 
L 628 4666 
z
" transform="scale(0.015625)"/>
       <path id="DejaVuSans-66" d="M 2375 4863 
L 2375 4384 
L 1825 4384 
Q 1516 4384 1395 4259 
Q 1275 4134 1275 3809 
L 1275 3500 
L 2222 3500 
L 2222 3053 
L 1275 3053 
L 1275 0 
L 697 0 
L 697 3053 
L 147 3053 
L 147 3500 
L 697 3500 
L 697 3744 
Q 697 4328 969 4595 
Q 1241 4863 1831 4863 
L 2375 4863 
z
" transform="scale(0.015625)"/>
       <path id="DejaVuSans-72" d="M 2631 2963 
Q 2534 3019 2420 3045 
Q 2306 3072 2169 3072 
Q 1681 3072 1420 2755 
Q 1159 2438 1159 1844 
L 1159 0 
L 581 0 
L 581 3500 
L 1159 3500 
L 1159 2956 
Q 1341 3275 1631 3429 
Q 1922 3584 2338 3584 
Q 2397 3584 2469 3576 
Q 2541 3569 2628 3553 
L 2631 2963 
z
" transform="scale(0.015625)"/>
       <path id="DejaVuSans-6c" d="M 603 4863 
L 1178 4863 
L 1178 0 
L 603 0 
L 603 4863 
z
" transform="scale(0.015625)"/>
       <path id="DejaVuSans-67" d="M 2906 1791 
Q 2906 2416 2648 2759 
Q 2391 3103 1925 3103 
Q 1463 3103 1205 2759 
Q 947 2416 947 1791 
Q 947 1169 1205 825 
Q 1463 481 1925 481 
Q 2391 481 2648 825 
Q 2906 1169 2906 1791 
z
M 3481 434 
Q 3481 -459 3084 -895 
Q 2688 -1331 1869 -1331 
Q 1566 -1331 1297 -1286 
Q 1028 -1241 775 -1147 
L 775 -588 
Q 1028 -725 1275 -790 
Q 1522 -856 1778 -856 
Q 2344 -856 2625 -561 
Q 2906 -266 2906 331 
L 2906 616 
Q 2728 306 2450 153 
Q 2172 0 1784 0 
Q 1141 0 747 490 
Q 353 981 353 1791 
Q 353 2603 747 3093 
Q 1141 3584 1784 3584 
Q 2172 3584 2450 3431 
Q 2728 3278 2906 2969 
L 2906 3500 
L 3481 3500 
L 3481 434 
z
" transform="scale(0.015625)"/>
       <path id="DejaVuSans-3a" d="M 750 794 
L 1409 794 
L 1409 0 
L 750 0 
L 750 794 
z
M 750 3309 
L 1409 3309 
L 1409 2516 
L 750 2516 
L 750 3309 
z
" transform="scale(0.015625)"/>
       <path id="DejaVuSans-53" d="M 3425 4513 
L 3425 3897 
Q 3066 4069 2747 4153 
Q 2428 4238 2131 4238 
Q 1616 4238 1336 4038 
Q 1056 3838 1056 3469 
Q 1056 3159 1242 3001 
Q 1428 2844 1947 2747 
L 2328 2669 
Q 3034 2534 3370 2195 
Q 3706 1856 3706 1288 
Q 3706 609 3251 259 
Q 2797 -91 1919 -91 
Q 1588 -91 1214 -16 
Q 841 59 441 206 
L 441 856 
Q 825 641 1194 531 
Q 1563 422 1919 422 
Q 2459 422 2753 634 
Q 3047 847 3047 1241 
Q 3047 1584 2836 1778 
Q 2625 1972 2144 2069 
L 1759 2144 
Q 1053 2284 737 2584 
Q 422 2884 422 3419 
Q 422 4038 858 4394 
Q 1294 4750 2059 4750 
Q 2388 4750 2728 4690 
Q 3069 4631 3425 4513 
z
" transform="scale(0.015625)"/>
       <path id="DejaVuSans-71" d="M 947 1747 
Q 947 1113 1208 752 
Q 1469 391 1925 391 
Q 2381 391 2643 752 
Q 2906 1113 2906 1747 
Q 2906 2381 2643 2742 
Q 2381 3103 1925 3103 
Q 1469 3103 1208 2742 
Q 947 2381 947 1747 
z
M 2906 525 
Q 2725 213 2448 61 
Q 2172 -91 1784 -91 
Q 1150 -91 751 415 
Q 353 922 353 1747 
Q 353 2572 751 3078 
Q 1150 3584 1784 3584 
Q 2172 3584 2448 3432 
Q 2725 3281 2906 2969 
L 2906 3500 
L 3481 3500 
L 3481 -1331 
L 2906 -1331 
L 2906 525 
z
" transform="scale(0.015625)"/>
       <path id="DejaVuSans-75" d="M 544 1381 
L 544 3500 
L 1119 3500 
L 1119 1403 
Q 1119 906 1312 657 
Q 1506 409 1894 409 
Q 2359 409 2629 706 
Q 2900 1003 2900 1516 
L 2900 3500 
L 3475 3500 
L 3475 0 
L 2900 0 
L 2900 538 
Q 2691 219 2414 64 
Q 2138 -91 1772 -91 
Q 1169 -91 856 284 
Q 544 659 544 1381 
z
M 1991 3584 
L 1991 3584 
z
" transform="scale(0.015625)"/>
       <path id="DejaVuSans-63" d="M 3122 3366 
L 3122 2828 
Q 2878 2963 2633 3030 
Q 2388 3097 2138 3097 
Q 1578 3097 1268 2742 
Q 959 2388 959 1747 
Q 959 1106 1268 751 
Q 1578 397 2138 397 
Q 2388 397 2633 464 
Q 2878 531 3122 666 
L 3122 134 
Q 2881 22 2623 -34 
Q 2366 -91 2075 -91 
Q 1284 -91 818 406 
Q 353 903 353 1747 
Q 353 2603 823 3093 
Q 1294 3584 2113 3584 
Q 2378 3584 2631 3529 
Q 2884 3475 3122 3366 
z
" transform="scale(0.015625)"/>
       <path id="DejaVuSans-51" d="M 2522 4238 
Q 1834 4238 1429 3725 
Q 1025 3213 1025 2328 
Q 1025 1447 1429 934 
Q 1834 422 2522 422 
Q 3209 422 3611 934 
Q 4013 1447 4013 2328 
Q 4013 3213 3611 3725 
Q 3209 4238 2522 4238 
z
M 3406 84 
L 4238 -825 
L 3475 -825 
L 2784 -78 
Q 2681 -84 2626 -87 
Q 2572 -91 2522 -91 
Q 1538 -91 948 567 
Q 359 1225 359 2328 
Q 359 3434 948 4092 
Q 1538 4750 2522 4750 
Q 3503 4750 4090 4092 
Q 4678 3434 4678 2328 
Q 4678 1516 4351 937 
Q 4025 359 3406 84 
z
" transform="scale(0.015625)"/>
       <path id="DejaVuSans-79" d="M 2059 -325 
Q 1816 -950 1584 -1140 
Q 1353 -1331 966 -1331 
L 506 -1331 
L 506 -850 
L 844 -850 
Q 1081 -850 1212 -737 
Q 1344 -625 1503 -206 
L 1606 56 
L 191 3500 
L 800 3500 
L 1894 763 
L 2988 3500 
L 3597 3500 
L 2059 -325 
z
" transform="scale(0.015625)"/>
      </defs>
      <use xlink:href="#DejaVuSans-52"/>
      <use xlink:href="#DejaVuSans-31" x="69.482422"/>
      <use xlink:href="#DejaVuSans-20" x="133.105469"/>
      <use xlink:href="#DejaVuSans-42" x="164.892578"/>
      <use xlink:href="#DejaVuSans-65" x="233.496094"/>
      <use xlink:href="#DejaVuSans-66" x="295.019531"/>
      <use xlink:href="#DejaVuSans-6f" x="330.224609"/>
      <use xlink:href="#DejaVuSans-72" x="391.40625"/>
      <use xlink:href="#DejaVuSans-65" x="430.269531"/>
      <use xlink:href="#DejaVuSans-20" x="491.792969"/>
      <use xlink:href="#DejaVuSans-66" x="523.580078"/>
      <use xlink:href="#DejaVuSans-69" x="558.785156"/>
      <use xlink:href="#DejaVuSans-6c" x="586.568359"/>
      <use xlink:href="#DejaVuSans-74" x="614.351562"/>
      <use xlink:href="#DejaVuSans-65" x="653.560547"/>
      <use xlink:href="#DejaVuSans-72" x="715.083984"/>
      <use xlink:href="#DejaVuSans-69" x="756.197266"/>
      <use xlink:href="#DejaVuSans-6e" x="783.980469"/>
      <use xlink:href="#DejaVuSans-67" x="847.359375"/>
      <use xlink:href="#DejaVuSans-3a" x="910.835938"/>
      <use xlink:href="#DejaVuSans-20" x="944.527344"/>
      <use xlink:href="#DejaVuSans-53" x="976.314453"/>
      <use xlink:href="#DejaVuSans-65" x="1039.791016"/>
      <use xlink:href="#DejaVuSans-71" x="1101.314453"/>
      <use xlink:href="#DejaVuSans-75" x="1164.791016"/>
      <use xlink:href="#DejaVuSans-65" x="1228.169922"/>
      <use xlink:href="#DejaVuSans-6e" x="1289.693359"/>
      <use xlink:href="#DejaVuSans-63" x="1353.072266"/>
      <use xlink:href="#DejaVuSans-65" x="1408.052734"/>
      <use xlink:href="#DejaVuSans-20" x="1469.576172"/>
      <use xlink:href="#DejaVuSans-51" x="1501.363281"/>
      <use xlink:href="#DejaVuSans-75" x="1580.074219"/>
      <use xlink:href="#DejaVuSans-61" x="1643.453125"/>
      <use xlink:href="#DejaVuSans-6c" x="1704.732422"/>
      <use xlink:href="#DejaVuSans-69" x="1732.515625"/>
      <use xlink:href="#DejaVuSans-74" x="1760.298828"/>
      <use xlink:href="#DejaVuSans-79" x="1799.507812"/>
     </g>
    </g>
   </g>
   <g id="line2d_9">
    <path d="M 81.469943 37.433527 
L 87.297033 34.651157 
L 93.124123 34.327996 
L 98.951212 34.730723 
L 104.778302 34.346969 
L 110.605392 34.298617 
L 116.432481 35.152424 
L 122.259571 34.913725 
L 128.086661 34.037273 
L 139.74084 34.131528 
L 145.56793 35.858727 
L 151.395019 34.018911 
L 157.222109 34.910053 
L 168.876289 32.846839 
L 174.703378 32.624666 
L 180.530468 33.013317 
L 186.357558 32.564073 
L 192.184647 33.009644 
L 198.011737 32.329047 
L 203.838827 32.152165 
L 215.493006 32.445948 
L 221.320096 32.422078 
L 227.147185 33.886097 
L 232.974275 34.091133 
L 238.801365 33.882425 
L 244.628454 33.427673 
L 250.455544 34.072159 
L 262.109724 33.428897 
L 273.763903 33.517644 
L 279.590993 33.859167 
L 285.418082 33.94975 
L 297.072262 33.124097 
L 302.899351 33.314444 
L 308.726441 34.403277 
L 314.553531 33.277109 
L 320.38062 33.703707 
L 326.20771 33.346271 
L 337.861889 34.201302 
L 343.688979 35.861788 
L 349.516069 33.408087 
L 355.343159 34.456526 
L 361.170248 34.086237 
L 366.997338 34.607089 
L 372.824428 33.911191 
L 384.478607 36.365503 
L 390.305697 34.768058 
L 396.132786 35.908915 
L 401.959876 35.929113 
L 407.786966 36.061315 
L 413.614055 34.95106 
L 419.441145 35.048376 
L 425.268235 34.8972 
L 431.095325 36.441397 
L 442.749504 35.810988 
L 448.576594 35.329918 
L 454.403683 36.426708 
L 460.230773 36.63052 
L 466.057863 36.644597 
L 471.884952 37.140968 
L 483.539132 37.508197 
L 489.366221 37.474534 
L 495.193311 36.344081 
L 501.020401 35.519041 
L 506.84749 35.154872 
L 512.67458 35.087547 
L 518.50167 34.829875 
L 535.982939 34.813962 
L 541.810029 35.041031 
L 553.464208 34.63708 
L 559.291298 34.71175 
L 565.118387 34.515282 
L 570.945477 34.471215 
L 576.772567 34.547109 
L 588.426746 34.370839 
L 605.908015 34.359822 
L 623.389284 34.814574 
L 629.216374 34.3892 
L 652.524733 34.488964 
L 675.833091 34.624227 
L 699.14145 34.880675 
L 710.79563 34.907605 
L 716.622719 35.115701 
L 722.449809 35.061841 
L 728.276899 35.189147 
L 745.758168 35.278506 
L 751.585257 35.650631 
L 757.412347 35.489663 
L 769.066526 35.727137 
L 774.893616 35.91932 
L 780.720706 35.889942 
L 804.029065 36.471999 
L 809.856154 36.483628 
L 850.645782 37.634279 
L 856.472872 37.991102 
L 868.127051 38.458095 
L 873.954141 38.518688 
L 879.781231 38.715767 
L 885.60832 39.417786 
L 891.43541 39.23968 
L 903.089589 39.863969 
L 908.916679 40.480302 
L 914.743769 40.636986 
L 920.570858 40.502947 
L 926.397948 40.717164 
L 938.052127 41.628503 
L 943.879217 41.685424 
L 949.706307 41.942484 
L 949.706307 41.942484 
" clip-path="url(#p74f0e5198e)" style="fill: none; stroke: #7cb5ec; stroke-linecap: square"/>
   </g>
   <g id="line2d_10">
    <path d="M 81.469943 37.390071 
L 87.297033 34.460198 
L 93.124123 34.012179 
L 98.951212 34.336564 
L 104.778302 34.061755 
L 110.605392 33.996266 
L 116.432481 35.04654 
L 122.259571 34.758265 
L 128.086661 33.780213 
L 139.74084 33.8812 
L 145.56793 35.491499 
L 151.395019 33.835909 
L 157.222109 34.581383 
L 168.876289 32.606305 
L 174.703378 32.445948 
L 180.530468 32.794203 
L 186.357558 32.265394 
L 192.184647 32.788083 
L 198.011737 32.154613 
L 203.838827 31.9863 
L 209.665916 32.184604 
L 215.493006 32.251929 
L 221.320096 32.206637 
L 227.147185 33.555591 
L 232.974275 33.758791 
L 238.801365 33.623528 
L 244.628454 33.129606 
L 250.455544 33.736757 
L 262.109724 33.18469 
L 267.936813 33.583745 
L 273.763903 33.260584 
L 285.418082 33.769808 
L 291.245172 33.230594 
L 297.072262 32.930078 
L 302.899351 33.05616 
L 308.726441 34.143769 
L 314.553531 33.072073 
L 320.38062 33.582521 
L 326.20771 33.160208 
L 332.0348 33.925268 
L 337.861889 34.575263 
L 343.688979 36.835556 
L 349.516069 33.646786 
L 355.343159 36.850857 
L 361.170248 34.740516 
L 366.997338 35.684294 
L 372.824428 34.489576 
L 378.651517 36.085797 
L 384.478607 38.376693 
L 390.305697 36.107219 
L 396.132786 37.887054 
L 401.959876 37.919493 
L 407.786966 39.245801 
L 413.614055 36.428544 
L 419.441145 37.265826 
L 425.268235 37.024679 
L 431.095325 40.384822 
L 436.922414 40.393391 
L 442.749504 39.247637 
L 448.576594 37.808712 
L 454.403683 40.163261 
L 460.230773 40.506008 
L 466.057863 41.364099 
L 471.884952 41.96513 
L 477.712042 41.73194 
L 489.366221 42.055101 
L 501.020401 38.270196 
L 506.84749 37.329479 
L 524.32876 36.592573 
L 530.155849 36.533816 
L 535.982939 36.359995 
L 541.810029 36.440785 
L 553.464208 35.691026 
L 559.291298 35.606564 
L 565.118387 35.243007 
L 570.945477 35.056945 
L 576.772567 35.023282 
L 582.599656 34.779075 
L 594.253836 34.5924 
L 605.908015 34.465706 
L 623.389284 34.82253 
L 629.216374 34.373899 
L 710.79563 34.716646 
L 716.622719 34.919234 
L 722.449809 34.865374 
L 734.103988 35.003084 
L 745.758168 35.072858 
L 751.585257 35.454776 
L 757.412347 35.288911 
L 769.066526 35.535566 
L 774.893616 35.729585 
L 780.720706 35.700207 
L 838.991603 37.087108 
L 844.818692 37.296428 
L 850.645782 37.34784 
L 856.472872 37.710785 
L 868.127051 38.130037 
L 873.954141 38.16676 
L 879.781231 38.338134 
L 885.60832 39.020567 
L 891.43541 38.795334 
L 903.089589 39.378003 
L 908.916679 39.967405 
L 914.743769 40.073902 
L 920.570858 39.911709 
L 926.397948 40.075126 
L 938.052127 40.876909 
L 943.879217 40.914856 
L 949.706307 41.09847 
L 949.706307 41.09847 
" clip-path="url(#p74f0e5198e)" style="fill: none; stroke: #434348; stroke-linecap: square"/>
   </g>
   <g id="line2d_11">
    <path d="M 38.058125 273.99006 
L 993.118125 273.99006 
" clip-path="url(#p74f0e5198e)" style="fill: none; stroke: #dedede; stroke-width: 2; stroke-linecap: square"/>
   </g>
   <g id="text_19">
    <!-- Fastp: Sequence Quality -->
    <g transform="translate(418.601875 19.3575) scale(0.16 -0.16)">
     <defs>
      <path id="DejaVuSans-46" d="M 628 4666 
L 3309 4666 
L 3309 4134 
L 1259 4134 
L 1259 2759 
L 3109 2759 
L 3109 2228 
L 1259 2228 
L 1259 0 
L 628 0 
L 628 4666 
z
" transform="scale(0.015625)"/>
      <path id="DejaVuSans-70" d="M 1159 525 
L 1159 -1331 
L 581 -1331 
L 581 3500 
L 1159 3500 
L 1159 2969 
Q 1341 3281 1617 3432 
Q 1894 3584 2278 3584 
Q 2916 3584 3314 3078 
Q 3713 2572 3713 1747 
Q 3713 922 3314 415 
Q 2916 -91 2278 -91 
Q 1894 -91 1617 61 
Q 1341 213 1159 525 
z
M 3116 1747 
Q 3116 2381 2855 2742 
Q 2594 3103 2138 3103 
Q 1681 3103 1420 2742 
Q 1159 2381 1159 1747 
Q 1159 1113 1420 752 
Q 1681 391 2138 391 
Q 2594 391 2855 752 
Q 3116 1113 3116 1747 
z
" transform="scale(0.015625)"/>
     </defs>
     <use xlink:href="#DejaVuSans-46"/>
     <use xlink:href="#DejaVuSans-61" x="48.394531"/>
     <use xlink:href="#DejaVuSans-73" x="109.673828"/>
     <use xlink:href="#DejaVuSans-74" x="161.773438"/>
     <use xlink:href="#DejaVuSans-70" x="200.982422"/>
     <use xlink:href="#DejaVuSans-3a" x="264.458984"/>
     <use xlink:href="#DejaVuSans-20" x="298.150391"/>
     <use xlink:href="#DejaVuSans-53" x="329.9375"/>
     <use xlink:href="#DejaVuSans-65" x="393.414062"/>
     <use xlink:href="#DejaVuSans-71" x="454.9375"/>
     <use xlink:href="#DejaVuSans-75" x="518.414062"/>
     <use xlink:href="#DejaVuSans-65" x="581.792969"/>
     <use xlink:href="#DejaVuSans-6e" x="643.316406"/>
     <use xlink:href="#DejaVuSans-63" x="706.695312"/>
     <use xlink:href="#DejaVuSans-65" x="761.675781"/>
     <use xlink:href="#DejaVuSans-20" x="823.199219"/>
     <use xlink:href="#DejaVuSans-51" x="854.986328"/>
     <use xlink:href="#DejaVuSans-75" x="933.697266"/>
     <use xlink:href="#DejaVuSans-61" x="997.076172"/>
     <use xlink:href="#DejaVuSans-6c" x="1058.355469"/>
     <use xlink:href="#DejaVuSans-69" x="1086.138672"/>
     <use xlink:href="#DejaVuSans-74" x="1113.921875"/>
     <use xlink:href="#DejaVuSans-79" x="1153.130859"/>
    </g>
   </g>
   <g id="legend_1">
    <g id="line2d_12">
     <path d="M 45.258125 315.455394 
L 53.258125 315.455394 
L 61.258125 315.455394 
" style="fill: none; stroke: #7cb5ec; stroke-linecap: square"/>
    </g>
    <g id="text_20">
     <!-- Minus_cre_p53mut -->
     <g transform="translate(67.658125 318.255394) scale(0.08 -0.08)">
      <defs>
       <path id="DejaVuSans-4d" d="M 628 4666 
L 1569 4666 
L 2759 1491 
L 3956 4666 
L 4897 4666 
L 4897 0 
L 4281 0 
L 4281 4097 
L 3078 897 
L 2444 897 
L 1241 4097 
L 1241 0 
L 628 0 
L 628 4666 
z
" transform="scale(0.015625)"/>
       <path id="DejaVuSans-5f" d="M 3263 -1063 
L 3263 -1509 
L -63 -1509 
L -63 -1063 
L 3263 -1063 
z
" transform="scale(0.015625)"/>
       <path id="DejaVuSans-6d" d="M 3328 2828 
Q 3544 3216 3844 3400 
Q 4144 3584 4550 3584 
Q 5097 3584 5394 3201 
Q 5691 2819 5691 2113 
L 5691 0 
L 5113 0 
L 5113 2094 
Q 5113 2597 4934 2840 
Q 4756 3084 4391 3084 
Q 3944 3084 3684 2787 
Q 3425 2491 3425 1978 
L 3425 0 
L 2847 0 
L 2847 2094 
Q 2847 2600 2669 2842 
Q 2491 3084 2119 3084 
Q 1678 3084 1418 2786 
Q 1159 2488 1159 1978 
L 1159 0 
L 581 0 
L 581 3500 
L 1159 3500 
L 1159 2956 
Q 1356 3278 1631 3431 
Q 1906 3584 2284 3584 
Q 2666 3584 2933 3390 
Q 3200 3197 3328 2828 
z
" transform="scale(0.015625)"/>
      </defs>
      <use xlink:href="#DejaVuSans-4d"/>
      <use xlink:href="#DejaVuSans-69" x="86.279297"/>
      <use xlink:href="#DejaVuSans-6e" x="114.0625"/>
      <use xlink:href="#DejaVuSans-75" x="177.441406"/>
      <use xlink:href="#DejaVuSans-73" x="240.820312"/>
      <use xlink:href="#DejaVuSans-5f" x="292.919922"/>
      <use xlink:href="#DejaVuSans-63" x="342.919922"/>
      <use xlink:href="#DejaVuSans-72" x="397.900391"/>
      <use xlink:href="#DejaVuSans-65" x="436.763672"/>
      <use xlink:href="#DejaVuSans-5f" x="498.287109"/>
      <use xlink:href="#DejaVuSans-70" x="548.287109"/>
      <use xlink:href="#DejaVuSans-35" x="611.763672"/>
      <use xlink:href="#DejaVuSans-33" x="675.386719"/>
      <use xlink:href="#DejaVuSans-6d" x="739.009766"/>
      <use xlink:href="#DejaVuSans-75" x="836.421875"/>
      <use xlink:href="#DejaVuSans-74" x="899.800781"/>
     </g>
    </g>
    <g id="line2d_13">
     <path d="M 895.546875 315.455394 
L 903.546875 315.455394 
L 911.546875 315.455394 
" style="fill: none; stroke: #434348; stroke-linecap: square"/>
    </g>
    <g id="text_21">
     <!-- Plus_cre_p53mut -->
     <g transform="translate(917.946875 318.255394) scale(0.08 -0.08)">
      <use xlink:href="#DejaVuSans-50"/>
      <use xlink:href="#DejaVuSans-6c" x="60.302734"/>
      <use xlink:href="#DejaVuSans-75" x="88.085938"/>
      <use xlink:href="#DejaVuSans-73" x="151.464844"/>
      <use xlink:href="#DejaVuSans-5f" x="203.564453"/>
      <use xlink:href="#DejaVuSans-63" x="253.564453"/>
      <use xlink:href="#DejaVuSans-72" x="308.544922"/>
      <use xlink:href="#DejaVuSans-65" x="347.408203"/>
      <use xlink:href="#DejaVuSans-5f" x="408.931641"/>
      <use xlink:href="#DejaVuSans-70" x="458.931641"/>
      <use xlink:href="#DejaVuSans-35" x="522.408203"/>
      <use xlink:href="#DejaVuSans-33" x="586.03125"/>
      <use xlink:href="#DejaVuSans-6d" x="649.654297"/>
      <use xlink:href="#DejaVuSans-75" x="747.066406"/>
      <use xlink:href="#DejaVuSans-74" x="810.445312"/>
     </g>
    </g>
   </g>
  </g>
 </g>
 <defs>
  <clipPath id="p74f0e5198e">
   <rect x="38.058125" y="31.48286" width="955.06" height="242.5072"/>
  </clipPath>
 </defs>
</svg>
