<?xml version="1.0" encoding="utf-8" standalone="no"?>
<!DOCTYPE svg PUBLIC "-//W3C//DTD SVG 1.1//EN"
  "http://www.w3.org/Graphics/SVG/1.1/DTD/svg11.dtd">
<svg xmlns:xlink="http://www.w3.org/1999/xlink" width="999.508887pt" height="330.541644pt" viewBox="0 0 999.508887 330.541644" xmlns="http://www.w3.org/2000/svg" version="1.1">
 <metadata>
  <rdf:RDF xmlns:dc="http://purl.org/dc/elements/1.1/" xmlns:cc="http://creativecommons.org/ns#" xmlns:rdf="http://www.w3.org/1999/02/22-rdf-syntax-ns#">
   <cc:Work>
    <dc:type rdf:resource="http://purl.org/dc/dcmitype/StillImage"/>
    <dc:date>2025-05-20T01:35:09.720023</dc:date>
    <dc:format>image/svg+xml</dc:format>
    <dc:creator>
     <cc:Agent>
      <dc:title>Matplotlib v3.8.2, https://matplotlib.org/</dc:title>
     </cc:Agent>
    </dc:creator>
   </cc:Work>
  </rdf:RDF>
 </metadata>
 <defs>
  <style type="text/css">*{stroke-linejoin: round; stroke-linecap: butt}</style>
 </defs>
 <g id="figure_1">
  <g id="axes_1">
   <g id="patch_1">
    <path d="M 41.958125 273.99006 
L 992.308887 273.99006 
L 992.308887 31.48286 
L 41.958125 31.48286 
z
" style="fill: #ffffff"/>
   </g>
   <g id="matplotlib.axis_1">
    <g id="xtick_1">
     <g id="text_1">
      <!-- 0 -->
      <g transform="translate(80.879514 287.06881) scale(0.08 -0.08)">
       <defs>
        <path id="DejaVuSans-30" d="M 2034 4250 
Q 1547 4250 1301 3770 
Q 1056 3291 1056 2328 
Q 1056 1369 1301 889 
Q 1547 409 2034 409 
Q 2525 409 2770 889 
Q 3016 1369 3016 2328 
Q 3016 3291 2770 3770 
Q 2525 4250 2034 4250 
z
M 2034 4750 
Q 2819 4750 3233 4129 
Q 3647 3509 3647 2328 
Q 3647 1150 3233 529 
Q 2819 -91 2034 -91 
Q 1250 -91 836 529 
Q 422 1150 422 2328 
Q 422 3509 836 4129 
Q 1250 4750 2034 4750 
z
" transform="scale(0.015625)"/>
       </defs>
       <use xlink:href="#DejaVuSans-30"/>
      </g>
     </g>
    </g>
    <g id="xtick_2">
     <g id="text_2">
      <!-- 100 -->
      <g transform="translate(248.926836 287.06881) scale(0.08 -0.08)">
       <defs>
        <path id="DejaVuSans-31" d="M 794 531 
L 1825 531 
L 1825 4091 
L 703 3866 
L 703 4441 
L 1819 4666 
L 2450 4666 
L 2450 531 
L 3481 531 
L 3481 0 
L 794 0 
L 794 531 
z
" transform="scale(0.015625)"/>
       </defs>
       <use xlink:href="#DejaVuSans-31"/>
       <use xlink:href="#DejaVuSans-30" x="63.623047"/>
       <use xlink:href="#DejaVuSans-30" x="127.246094"/>
      </g>
     </g>
    </g>
    <g id="xtick_3">
     <g id="text_3">
      <!-- 200 -->
      <g transform="translate(422.064158 287.06881) scale(0.08 -0.08)">
       <defs>
        <path id="DejaVuSans-32" d="M 1228 531 
L 3431 531 
L 3431 0 
L 469 0 
L 469 531 
Q 828 903 1448 1529 
Q 2069 2156 2228 2338 
Q 2531 2678 2651 2914 
Q 2772 3150 2772 3378 
Q 2772 3750 2511 3984 
Q 2250 4219 1831 4219 
Q 1534 4219 1204 4116 
Q 875 4013 500 3803 
L 500 4441 
Q 881 4594 1212 4672 
Q 1544 4750 1819 4750 
Q 2544 4750 2975 4387 
Q 3406 4025 3406 3419 
Q 3406 3131 3298 2873 
Q 3191 2616 2906 2266 
Q 2828 2175 2409 1742 
Q 1991 1309 1228 531 
z
" transform="scale(0.015625)"/>
       </defs>
       <use xlink:href="#DejaVuSans-32"/>
       <use xlink:href="#DejaVuSans-30" x="63.623047"/>
       <use xlink:href="#DejaVuSans-30" x="127.246094"/>
      </g>
     </g>
    </g>
    <g id="xtick_4">
     <g id="text_4">
      <!-- 300 -->
      <g transform="translate(595.201481 287.06881) scale(0.08 -0.08)">
       <defs>
        <path id="DejaVuSans-33" d="M 2597 2516 
Q 3050 2419 3304 2112 
Q 3559 1806 3559 1356 
Q 3559 666 3084 287 
Q 2609 -91 1734 -91 
Q 1441 -91 1130 -33 
Q 819 25 488 141 
L 488 750 
Q 750 597 1062 519 
Q 1375 441 1716 441 
Q 2309 441 2620 675 
Q 2931 909 2931 1356 
Q 2931 1769 2642 2001 
Q 2353 2234 1838 2234 
L 1294 2234 
L 1294 2753 
L 1863 2753 
Q 2328 2753 2575 2939 
Q 2822 3125 2822 3475 
Q 2822 3834 2567 4026 
Q 2313 4219 1838 4219 
Q 1578 4219 1281 4162 
Q 984 4106 628 3988 
L 628 4550 
Q 988 4650 1302 4700 
Q 1616 4750 1894 4750 
Q 2613 4750 3031 4423 
Q 3450 4097 3450 3541 
Q 3450 3153 3228 2886 
Q 3006 2619 2597 2516 
z
" transform="scale(0.015625)"/>
       </defs>
       <use xlink:href="#DejaVuSans-33"/>
       <use xlink:href="#DejaVuSans-30" x="63.623047"/>
       <use xlink:href="#DejaVuSans-30" x="127.246094"/>
      </g>
     </g>
    </g>
    <g id="xtick_5">
     <g id="text_5">
      <!-- 400 -->
      <g transform="translate(768.338803 287.06881) scale(0.08 -0.08)">
       <defs>
        <path id="DejaVuSans-34" d="M 2419 4116 
L 825 1625 
L 2419 1625 
L 2419 4116 
z
M 2253 4666 
L 3047 4666 
L 3047 1625 
L 3713 1625 
L 3713 1100 
L 3047 1100 
L 3047 0 
L 2419 0 
L 2419 1100 
L 313 1100 
L 313 1709 
L 2253 4666 
z
" transform="scale(0.015625)"/>
       </defs>
       <use xlink:href="#DejaVuSans-34"/>
       <use xlink:href="#DejaVuSans-30" x="63.623047"/>
       <use xlink:href="#DejaVuSans-30" x="127.246094"/>
      </g>
     </g>
    </g>
    <g id="xtick_6">
     <g id="text_6">
      <!-- 500 -->
      <g transform="translate(941.476125 287.06881) scale(0.08 -0.08)">
       <defs>
        <path id="DejaVuSans-35" d="M 691 4666 
L 3169 4666 
L 3169 4134 
L 1269 4134 
L 1269 2991 
Q 1406 3038 1543 3061 
Q 1681 3084 1819 3084 
Q 2600 3084 3056 2656 
Q 3513 2228 3513 1497 
Q 3513 744 3044 326 
Q 2575 -91 1722 -91 
Q 1428 -91 1123 -41 
Q 819 9 494 109 
L 494 744 
Q 775 591 1075 516 
Q 1375 441 1709 441 
Q 2250 441 2565 725 
Q 2881 1009 2881 1497 
Q 2881 1984 2565 2268 
Q 2250 2553 1709 2553 
Q 1456 2553 1204 2497 
Q 953 2441 691 2322 
L 691 4666 
z
" transform="scale(0.015625)"/>
       </defs>
       <use xlink:href="#DejaVuSans-35"/>
       <use xlink:href="#DejaVuSans-30" x="63.623047"/>
       <use xlink:href="#DejaVuSans-30" x="127.246094"/>
      </g>
     </g>
    </g>
    <g id="text_7">
     <!-- Occurrence of read -->
     <g transform="translate(469.292881 300.330997) scale(0.1 -0.1)">
      <defs>
       <path id="DejaVuSans-4f" d="M 2522 4238 
Q 1834 4238 1429 3725 
Q 1025 3213 1025 2328 
Q 1025 1447 1429 934 
Q 1834 422 2522 422 
Q 3209 422 3611 934 
Q 4013 1447 4013 2328 
Q 4013 3213 3611 3725 
Q 3209 4238 2522 4238 
z
M 2522 4750 
Q 3503 4750 4090 4092 
Q 4678 3434 4678 2328 
Q 4678 1225 4090 567 
Q 3503 -91 2522 -91 
Q 1538 -91 948 565 
Q 359 1222 359 2328 
Q 359 3434 948 4092 
Q 1538 4750 2522 4750 
z
" transform="scale(0.015625)"/>
       <path id="DejaVuSans-63" d="M 3122 3366 
L 3122 2828 
Q 2878 2963 2633 3030 
Q 2388 3097 2138 3097 
Q 1578 3097 1268 2742 
Q 959 2388 959 1747 
Q 959 1106 1268 751 
Q 1578 397 2138 397 
Q 2388 397 2633 464 
Q 2878 531 3122 666 
L 3122 134 
Q 2881 22 2623 -34 
Q 2366 -91 2075 -91 
Q 1284 -91 818 406 
Q 353 903 353 1747 
Q 353 2603 823 3093 
Q 1294 3584 2113 3584 
Q 2378 3584 2631 3529 
Q 2884 3475 3122 3366 
z
" transform="scale(0.015625)"/>
       <path id="DejaVuSans-75" d="M 544 1381 
L 544 3500 
L 1119 3500 
L 1119 1403 
Q 1119 906 1312 657 
Q 1506 409 1894 409 
Q 2359 409 2629 706 
Q 2900 1003 2900 1516 
L 2900 3500 
L 3475 3500 
L 3475 0 
L 2900 0 
L 2900 538 
Q 2691 219 2414 64 
Q 2138 -91 1772 -91 
Q 1169 -91 856 284 
Q 544 659 544 1381 
z
M 1991 3584 
L 1991 3584 
z
" transform="scale(0.015625)"/>
       <path id="DejaVuSans-72" d="M 2631 2963 
Q 2534 3019 2420 3045 
Q 2306 3072 2169 3072 
Q 1681 3072 1420 2755 
Q 1159 2438 1159 1844 
L 1159 0 
L 581 0 
L 581 3500 
L 1159 3500 
L 1159 2956 
Q 1341 3275 1631 3429 
Q 1922 3584 2338 3584 
Q 2397 3584 2469 3576 
Q 2541 3569 2628 3553 
L 2631 2963 
z
" transform="scale(0.015625)"/>
       <path id="DejaVuSans-65" d="M 3597 1894 
L 3597 1613 
L 953 1613 
Q 991 1019 1311 708 
Q 1631 397 2203 397 
Q 2534 397 2845 478 
Q 3156 559 3463 722 
L 3463 178 
Q 3153 47 2828 -22 
Q 2503 -91 2169 -91 
Q 1331 -91 842 396 
Q 353 884 353 1716 
Q 353 2575 817 3079 
Q 1281 3584 2069 3584 
Q 2775 3584 3186 3129 
Q 3597 2675 3597 1894 
z
M 3022 2063 
Q 3016 2534 2758 2815 
Q 2500 3097 2075 3097 
Q 1594 3097 1305 2825 
Q 1016 2553 972 2059 
L 3022 2063 
z
" transform="scale(0.015625)"/>
       <path id="DejaVuSans-6e" d="M 3513 2113 
L 3513 0 
L 2938 0 
L 2938 2094 
Q 2938 2591 2744 2837 
Q 2550 3084 2163 3084 
Q 1697 3084 1428 2787 
Q 1159 2491 1159 1978 
L 1159 0 
L 581 0 
L 581 3500 
L 1159 3500 
L 1159 2956 
Q 1366 3272 1645 3428 
Q 1925 3584 2291 3584 
Q 2894 3584 3203 3211 
Q 3513 2838 3513 2113 
z
" transform="scale(0.015625)"/>
       <path id="DejaVuSans-20" transform="scale(0.015625)"/>
       <path id="DejaVuSans-6f" d="M 1959 3097 
Q 1497 3097 1228 2736 
Q 959 2375 959 1747 
Q 959 1119 1226 758 
Q 1494 397 1959 397 
Q 2419 397 2687 759 
Q 2956 1122 2956 1747 
Q 2956 2369 2687 2733 
Q 2419 3097 1959 3097 
z
M 1959 3584 
Q 2709 3584 3137 3096 
Q 3566 2609 3566 1747 
Q 3566 888 3137 398 
Q 2709 -91 1959 -91 
Q 1206 -91 779 398 
Q 353 888 353 1747 
Q 353 2609 779 3096 
Q 1206 3584 1959 3584 
z
" transform="scale(0.015625)"/>
       <path id="DejaVuSans-66" d="M 2375 4863 
L 2375 4384 
L 1825 4384 
Q 1516 4384 1395 4259 
Q 1275 4134 1275 3809 
L 1275 3500 
L 2222 3500 
L 2222 3053 
L 1275 3053 
L 1275 0 
L 697 0 
L 697 3053 
L 147 3053 
L 147 3500 
L 697 3500 
L 697 3744 
Q 697 4328 969 4595 
Q 1241 4863 1831 4863 
L 2375 4863 
z
" transform="scale(0.015625)"/>
       <path id="DejaVuSans-61" d="M 2194 1759 
Q 1497 1759 1228 1600 
Q 959 1441 959 1056 
Q 959 750 1161 570 
Q 1363 391 1709 391 
Q 2188 391 2477 730 
Q 2766 1069 2766 1631 
L 2766 1759 
L 2194 1759 
z
M 3341 1997 
L 3341 0 
L 2766 0 
L 2766 531 
Q 2569 213 2275 61 
Q 1981 -91 1556 -91 
Q 1019 -91 701 211 
Q 384 513 384 1019 
Q 384 1609 779 1909 
Q 1175 2209 1959 2209 
L 2766 2209 
L 2766 2266 
Q 2766 2663 2505 2880 
Q 2244 3097 1772 3097 
Q 1472 3097 1187 3025 
Q 903 2953 641 2809 
L 641 3341 
Q 956 3463 1253 3523 
Q 1550 3584 1831 3584 
Q 2591 3584 2966 3190 
Q 3341 2797 3341 1997 
z
" transform="scale(0.015625)"/>
       <path id="DejaVuSans-64" d="M 2906 2969 
L 2906 4863 
L 3481 4863 
L 3481 0 
L 2906 0 
L 2906 525 
Q 2725 213 2448 61 
Q 2172 -91 1784 -91 
Q 1150 -91 751 415 
Q 353 922 353 1747 
Q 353 2572 751 3078 
Q 1150 3584 1784 3584 
Q 2172 3584 2448 3432 
Q 2725 3281 2906 2969 
z
M 947 1747 
Q 947 1113 1208 752 
Q 1469 391 1925 391 
Q 2381 391 2643 752 
Q 2906 1113 2906 1747 
Q 2906 2381 2643 2742 
Q 2381 3103 1925 3103 
Q 1469 3103 1208 2742 
Q 947 2381 947 1747 
z
" transform="scale(0.015625)"/>
      </defs>
      <use xlink:href="#DejaVuSans-4f"/>
      <use xlink:href="#DejaVuSans-63" x="78.710938"/>
      <use xlink:href="#DejaVuSans-63" x="133.691406"/>
      <use xlink:href="#DejaVuSans-75" x="188.671875"/>
      <use xlink:href="#DejaVuSans-72" x="252.050781"/>
      <use xlink:href="#DejaVuSans-72" x="291.414062"/>
      <use xlink:href="#DejaVuSans-65" x="330.277344"/>
      <use xlink:href="#DejaVuSans-6e" x="391.800781"/>
      <use xlink:href="#DejaVuSans-63" x="455.179688"/>
      <use xlink:href="#DejaVuSans-65" x="510.160156"/>
      <use xlink:href="#DejaVuSans-20" x="571.683594"/>
      <use xlink:href="#DejaVuSans-6f" x="603.470703"/>
      <use xlink:href="#DejaVuSans-66" x="664.652344"/>
      <use xlink:href="#DejaVuSans-20" x="699.857422"/>
      <use xlink:href="#DejaVuSans-72" x="731.644531"/>
      <use xlink:href="#DejaVuSans-65" x="770.507812"/>
      <use xlink:href="#DejaVuSans-61" x="832.03125"/>
      <use xlink:href="#DejaVuSans-64" x="893.310547"/>
     </g>
    </g>
   </g>
   <g id="matplotlib.axis_2">
    <g id="ytick_1">
     <g id="line2d_1">
      <path d="M 41.958125 268.335792 
L 992.308887 268.335792 
" clip-path="url(#p7ed317eda3)" style="fill: none; stroke: #dedede; stroke-linecap: square"/>
     </g>
     <g id="text_8">
      <!-- $\mathdefault{10^{1}}$ -->
      <g transform="translate(20.878125 271.375167) scale(0.08 -0.08)">
       <use xlink:href="#DejaVuSans-31" transform="translate(0 0.684375)"/>
       <use xlink:href="#DejaVuSans-30" transform="translate(63.623047 0.684375)"/>
       <use xlink:href="#DejaVuSans-31" transform="translate(128.203125 38.965625) scale(0.7)"/>
      </g>
     </g>
    </g>
    <g id="ytick_2">
     <g id="line2d_2">
      <path d="M 41.958125 231.5955 
L 992.308887 231.5955 
" clip-path="url(#p7ed317eda3)" style="fill: none; stroke: #dedede; stroke-linecap: square"/>
     </g>
     <g id="text_9">
      <!-- $\mathdefault{10^{2}}$ -->
      <g transform="translate(20.878125 234.634875) scale(0.08 -0.08)">
       <use xlink:href="#DejaVuSans-31" transform="translate(0 0.765625)"/>
       <use xlink:href="#DejaVuSans-30" transform="translate(63.623047 0.765625)"/>
       <use xlink:href="#DejaVuSans-32" transform="translate(128.203125 39.046875) scale(0.7)"/>
      </g>
     </g>
    </g>
    <g id="ytick_3">
     <g id="line2d_3">
      <path d="M 41.958125 194.855207 
L 992.308887 194.855207 
" clip-path="url(#p7ed317eda3)" style="fill: none; stroke: #dedede; stroke-linecap: square"/>
     </g>
     <g id="text_10">
      <!-- $\mathdefault{10^{3}}$ -->
      <g transform="translate(20.878125 197.894582) scale(0.08 -0.08)">
       <use xlink:href="#DejaVuSans-31" transform="translate(0 0.765625)"/>
       <use xlink:href="#DejaVuSans-30" transform="translate(63.623047 0.765625)"/>
       <use xlink:href="#DejaVuSans-33" transform="translate(128.203125 39.046875) scale(0.7)"/>
      </g>
     </g>
    </g>
    <g id="ytick_4">
     <g id="line2d_4">
      <path d="M 41.958125 158.114914 
L 992.308887 158.114914 
" clip-path="url(#p7ed317eda3)" style="fill: none; stroke: #dedede; stroke-linecap: square"/>
     </g>
     <g id="text_11">
      <!-- $\mathdefault{10^{4}}$ -->
      <g transform="translate(20.878125 161.154289) scale(0.08 -0.08)">
       <use xlink:href="#DejaVuSans-31" transform="translate(0 0.684375)"/>
       <use xlink:href="#DejaVuSans-30" transform="translate(63.623047 0.684375)"/>
       <use xlink:href="#DejaVuSans-34" transform="translate(128.203125 38.965625) scale(0.7)"/>
      </g>
     </g>
    </g>
    <g id="ytick_5">
     <g id="line2d_5">
      <path d="M 41.958125 121.374622 
L 992.308887 121.374622 
" clip-path="url(#p7ed317eda3)" style="fill: none; stroke: #dedede; stroke-linecap: square"/>
     </g>
     <g id="text_12">
      <!-- $\mathdefault{10^{5}}$ -->
      <g transform="translate(20.878125 124.413997) scale(0.08 -0.08)">
       <use xlink:href="#DejaVuSans-31" transform="translate(0 0.684375)"/>
       <use xlink:href="#DejaVuSans-30" transform="translate(63.623047 0.684375)"/>
       <use xlink:href="#DejaVuSans-35" transform="translate(128.203125 38.965625) scale(0.7)"/>
      </g>
     </g>
    </g>
    <g id="ytick_6">
     <g id="line2d_6">
      <path d="M 41.958125 84.634329 
L 992.308887 84.634329 
" clip-path="url(#p7ed317eda3)" style="fill: none; stroke: #dedede; stroke-linecap: square"/>
     </g>
     <g id="text_13">
      <!-- $\mathdefault{10^{6}}$ -->
      <g transform="translate(20.878125 87.673704) scale(0.08 -0.08)">
       <defs>
        <path id="DejaVuSans-36" d="M 2113 2584 
Q 1688 2584 1439 2293 
Q 1191 2003 1191 1497 
Q 1191 994 1439 701 
Q 1688 409 2113 409 
Q 2538 409 2786 701 
Q 3034 994 3034 1497 
Q 3034 2003 2786 2293 
Q 2538 2584 2113 2584 
z
M 3366 4563 
L 3366 3988 
Q 3128 4100 2886 4159 
Q 2644 4219 2406 4219 
Q 1781 4219 1451 3797 
Q 1122 3375 1075 2522 
Q 1259 2794 1537 2939 
Q 1816 3084 2150 3084 
Q 2853 3084 3261 2657 
Q 3669 2231 3669 1497 
Q 3669 778 3244 343 
Q 2819 -91 2113 -91 
Q 1303 -91 875 529 
Q 447 1150 447 2328 
Q 447 3434 972 4092 
Q 1497 4750 2381 4750 
Q 2619 4750 2861 4703 
Q 3103 4656 3366 4563 
z
" transform="scale(0.015625)"/>
       </defs>
       <use xlink:href="#DejaVuSans-31" transform="translate(0 0.765625)"/>
       <use xlink:href="#DejaVuSans-30" transform="translate(63.623047 0.765625)"/>
       <use xlink:href="#DejaVuSans-36" transform="translate(128.203125 39.046875) scale(0.7)"/>
      </g>
     </g>
    </g>
    <g id="ytick_7">
     <g id="line2d_7">
      <path d="M 41.958125 47.894036 
L 992.308887 47.894036 
" clip-path="url(#p7ed317eda3)" style="fill: none; stroke: #dedede; stroke-linecap: square"/>
     </g>
     <g id="text_14">
      <!-- $\mathdefault{10^{7}}$ -->
      <g transform="translate(20.878125 50.933411) scale(0.08 -0.08)">
       <defs>
        <path id="DejaVuSans-37" d="M 525 4666 
L 3525 4666 
L 3525 4397 
L 1831 0 
L 1172 0 
L 2766 4134 
L 525 4134 
L 525 4666 
z
" transform="scale(0.015625)"/>
       </defs>
       <use xlink:href="#DejaVuSans-31" transform="translate(0 0.684375)"/>
       <use xlink:href="#DejaVuSans-30" transform="translate(63.623047 0.684375)"/>
       <use xlink:href="#DejaVuSans-37" transform="translate(128.203125 38.965625) scale(0.7)"/>
      </g>
     </g>
    </g>
    <g id="ytick_8">
     <g id="line2d_8">
      <path d="M 41.958125 271.896294 
L 992.308887 271.896294 
" clip-path="url(#p7ed317eda3)" style="fill: none; stroke: #dedede; stroke-linecap: square"/>
     </g>
     <g id="line2d_9">
      <defs>
       <path id="m6bbaeca0ae" d="M 0 0 
L -2 0 
" style="stroke: #000000; stroke-width: 0.6"/>
      </defs>
      <g>
       <use xlink:href="#m6bbaeca0ae" x="41.958125" y="271.896294" style="stroke: #000000; stroke-width: 0.6"/>
      </g>
     </g>
    </g>
    <g id="ytick_9">
     <g id="line2d_10">
      <path d="M 41.958125 270.016936 
L 992.308887 270.016936 
" clip-path="url(#p7ed317eda3)" style="fill: none; stroke: #dedede; stroke-linecap: square"/>
     </g>
     <g id="line2d_11">
      <g>
       <use xlink:href="#m6bbaeca0ae" x="41.958125" y="270.016936" style="stroke: #000000; stroke-width: 0.6"/>
      </g>
     </g>
    </g>
    <g id="ytick_10">
     <g id="line2d_12">
      <path d="M 41.958125 257.275862 
L 992.308887 257.275862 
" clip-path="url(#p7ed317eda3)" style="fill: none; stroke: #dedede; stroke-linecap: square"/>
     </g>
     <g id="line2d_13">
      <g>
       <use xlink:href="#m6bbaeca0ae" x="41.958125" y="257.275862" style="stroke: #000000; stroke-width: 0.6"/>
      </g>
     </g>
    </g>
    <g id="ytick_11">
     <g id="line2d_14">
      <path d="M 41.958125 250.806218 
L 992.308887 250.806218 
" clip-path="url(#p7ed317eda3)" style="fill: none; stroke: #dedede; stroke-linecap: square"/>
     </g>
     <g id="line2d_15">
      <g>
       <use xlink:href="#m6bbaeca0ae" x="41.958125" y="250.806218" style="stroke: #000000; stroke-width: 0.6"/>
      </g>
     </g>
    </g>
    <g id="ytick_12">
     <g id="line2d_16">
      <path d="M 41.958125 246.215932 
L 992.308887 246.215932 
" clip-path="url(#p7ed317eda3)" style="fill: none; stroke: #dedede; stroke-linecap: square"/>
     </g>
     <g id="line2d_17">
      <g>
       <use xlink:href="#m6bbaeca0ae" x="41.958125" y="246.215932" style="stroke: #000000; stroke-width: 0.6"/>
      </g>
     </g>
    </g>
    <g id="ytick_13">
     <g id="line2d_18">
      <path d="M 41.958125 242.65543 
L 992.308887 242.65543 
" clip-path="url(#p7ed317eda3)" style="fill: none; stroke: #dedede; stroke-linecap: square"/>
     </g>
     <g id="line2d_19">
      <g>
       <use xlink:href="#m6bbaeca0ae" x="41.958125" y="242.65543" style="stroke: #000000; stroke-width: 0.6"/>
      </g>
     </g>
    </g>
    <g id="ytick_14">
     <g id="line2d_20">
      <path d="M 41.958125 239.746288 
L 992.308887 239.746288 
" clip-path="url(#p7ed317eda3)" style="fill: none; stroke: #dedede; stroke-linecap: square"/>
     </g>
     <g id="line2d_21">
      <g>
       <use xlink:href="#m6bbaeca0ae" x="41.958125" y="239.746288" style="stroke: #000000; stroke-width: 0.6"/>
      </g>
     </g>
    </g>
    <g id="ytick_15">
     <g id="line2d_22">
      <path d="M 41.958125 237.286643 
L 992.308887 237.286643 
" clip-path="url(#p7ed317eda3)" style="fill: none; stroke: #dedede; stroke-linecap: square"/>
     </g>
     <g id="line2d_23">
      <g>
       <use xlink:href="#m6bbaeca0ae" x="41.958125" y="237.286643" style="stroke: #000000; stroke-width: 0.6"/>
      </g>
     </g>
    </g>
    <g id="ytick_16">
     <g id="line2d_24">
      <path d="M 41.958125 235.156002 
L 992.308887 235.156002 
" clip-path="url(#p7ed317eda3)" style="fill: none; stroke: #dedede; stroke-linecap: square"/>
     </g>
     <g id="line2d_25">
      <g>
       <use xlink:href="#m6bbaeca0ae" x="41.958125" y="235.156002" style="stroke: #000000; stroke-width: 0.6"/>
      </g>
     </g>
    </g>
    <g id="ytick_17">
     <g id="line2d_26">
      <path d="M 41.958125 233.276643 
L 992.308887 233.276643 
" clip-path="url(#p7ed317eda3)" style="fill: none; stroke: #dedede; stroke-linecap: square"/>
     </g>
     <g id="line2d_27">
      <g>
       <use xlink:href="#m6bbaeca0ae" x="41.958125" y="233.276643" style="stroke: #000000; stroke-width: 0.6"/>
      </g>
     </g>
    </g>
    <g id="ytick_18">
     <g id="line2d_28">
      <path d="M 41.958125 220.535569 
L 992.308887 220.535569 
" clip-path="url(#p7ed317eda3)" style="fill: none; stroke: #dedede; stroke-linecap: square"/>
     </g>
     <g id="line2d_29">
      <g>
       <use xlink:href="#m6bbaeca0ae" x="41.958125" y="220.535569" style="stroke: #000000; stroke-width: 0.6"/>
      </g>
     </g>
    </g>
    <g id="ytick_19">
     <g id="line2d_30">
      <path d="M 41.958125 214.065925 
L 992.308887 214.065925 
" clip-path="url(#p7ed317eda3)" style="fill: none; stroke: #dedede; stroke-linecap: square"/>
     </g>
     <g id="line2d_31">
      <g>
       <use xlink:href="#m6bbaeca0ae" x="41.958125" y="214.065925" style="stroke: #000000; stroke-width: 0.6"/>
      </g>
     </g>
    </g>
    <g id="ytick_20">
     <g id="line2d_32">
      <path d="M 41.958125 209.475639 
L 992.308887 209.475639 
" clip-path="url(#p7ed317eda3)" style="fill: none; stroke: #dedede; stroke-linecap: square"/>
     </g>
     <g id="line2d_33">
      <g>
       <use xlink:href="#m6bbaeca0ae" x="41.958125" y="209.475639" style="stroke: #000000; stroke-width: 0.6"/>
      </g>
     </g>
    </g>
    <g id="ytick_21">
     <g id="line2d_34">
      <path d="M 41.958125 205.915137 
L 992.308887 205.915137 
" clip-path="url(#p7ed317eda3)" style="fill: none; stroke: #dedede; stroke-linecap: square"/>
     </g>
     <g id="line2d_35">
      <g>
       <use xlink:href="#m6bbaeca0ae" x="41.958125" y="205.915137" style="stroke: #000000; stroke-width: 0.6"/>
      </g>
     </g>
    </g>
    <g id="ytick_22">
     <g id="line2d_36">
      <path d="M 41.958125 203.005995 
L 992.308887 203.005995 
" clip-path="url(#p7ed317eda3)" style="fill: none; stroke: #dedede; stroke-linecap: square"/>
     </g>
     <g id="line2d_37">
      <g>
       <use xlink:href="#m6bbaeca0ae" x="41.958125" y="203.005995" style="stroke: #000000; stroke-width: 0.6"/>
      </g>
     </g>
    </g>
    <g id="ytick_23">
     <g id="line2d_38">
      <path d="M 41.958125 200.54635 
L 992.308887 200.54635 
" clip-path="url(#p7ed317eda3)" style="fill: none; stroke: #dedede; stroke-linecap: square"/>
     </g>
     <g id="line2d_39">
      <g>
       <use xlink:href="#m6bbaeca0ae" x="41.958125" y="200.54635" style="stroke: #000000; stroke-width: 0.6"/>
      </g>
     </g>
    </g>
    <g id="ytick_24">
     <g id="line2d_40">
      <path d="M 41.958125 198.415709 
L 992.308887 198.415709 
" clip-path="url(#p7ed317eda3)" style="fill: none; stroke: #dedede; stroke-linecap: square"/>
     </g>
     <g id="line2d_41">
      <g>
       <use xlink:href="#m6bbaeca0ae" x="41.958125" y="198.415709" style="stroke: #000000; stroke-width: 0.6"/>
      </g>
     </g>
    </g>
    <g id="ytick_25">
     <g id="line2d_42">
      <path d="M 41.958125 196.536351 
L 992.308887 196.536351 
" clip-path="url(#p7ed317eda3)" style="fill: none; stroke: #dedede; stroke-linecap: square"/>
     </g>
     <g id="line2d_43">
      <g>
       <use xlink:href="#m6bbaeca0ae" x="41.958125" y="196.536351" style="stroke: #000000; stroke-width: 0.6"/>
      </g>
     </g>
    </g>
    <g id="ytick_26">
     <g id="line2d_44">
      <path d="M 41.958125 183.795277 
L 992.308887 183.795277 
" clip-path="url(#p7ed317eda3)" style="fill: none; stroke: #dedede; stroke-linecap: square"/>
     </g>
     <g id="line2d_45">
      <g>
       <use xlink:href="#m6bbaeca0ae" x="41.958125" y="183.795277" style="stroke: #000000; stroke-width: 0.6"/>
      </g>
     </g>
    </g>
    <g id="ytick_27">
     <g id="line2d_46">
      <path d="M 41.958125 177.325632 
L 992.308887 177.325632 
" clip-path="url(#p7ed317eda3)" style="fill: none; stroke: #dedede; stroke-linecap: square"/>
     </g>
     <g id="line2d_47">
      <g>
       <use xlink:href="#m6bbaeca0ae" x="41.958125" y="177.325632" style="stroke: #000000; stroke-width: 0.6"/>
      </g>
     </g>
    </g>
    <g id="ytick_28">
     <g id="line2d_48">
      <path d="M 41.958125 172.735347 
L 992.308887 172.735347 
" clip-path="url(#p7ed317eda3)" style="fill: none; stroke: #dedede; stroke-linecap: square"/>
     </g>
     <g id="line2d_49">
      <g>
       <use xlink:href="#m6bbaeca0ae" x="41.958125" y="172.735347" style="stroke: #000000; stroke-width: 0.6"/>
      </g>
     </g>
    </g>
    <g id="ytick_29">
     <g id="line2d_50">
      <path d="M 41.958125 169.174844 
L 992.308887 169.174844 
" clip-path="url(#p7ed317eda3)" style="fill: none; stroke: #dedede; stroke-linecap: square"/>
     </g>
     <g id="line2d_51">
      <g>
       <use xlink:href="#m6bbaeca0ae" x="41.958125" y="169.174844" style="stroke: #000000; stroke-width: 0.6"/>
      </g>
     </g>
    </g>
    <g id="ytick_30">
     <g id="line2d_52">
      <path d="M 41.958125 166.265702 
L 992.308887 166.265702 
" clip-path="url(#p7ed317eda3)" style="fill: none; stroke: #dedede; stroke-linecap: square"/>
     </g>
     <g id="line2d_53">
      <g>
       <use xlink:href="#m6bbaeca0ae" x="41.958125" y="166.265702" style="stroke: #000000; stroke-width: 0.6"/>
      </g>
     </g>
    </g>
    <g id="ytick_31">
     <g id="line2d_54">
      <path d="M 41.958125 163.806058 
L 992.308887 163.806058 
" clip-path="url(#p7ed317eda3)" style="fill: none; stroke: #dedede; stroke-linecap: square"/>
     </g>
     <g id="line2d_55">
      <g>
       <use xlink:href="#m6bbaeca0ae" x="41.958125" y="163.806058" style="stroke: #000000; stroke-width: 0.6"/>
      </g>
     </g>
    </g>
    <g id="ytick_32">
     <g id="line2d_56">
      <path d="M 41.958125 161.675417 
L 992.308887 161.675417 
" clip-path="url(#p7ed317eda3)" style="fill: none; stroke: #dedede; stroke-linecap: square"/>
     </g>
     <g id="line2d_57">
      <g>
       <use xlink:href="#m6bbaeca0ae" x="41.958125" y="161.675417" style="stroke: #000000; stroke-width: 0.6"/>
      </g>
     </g>
    </g>
    <g id="ytick_33">
     <g id="line2d_58">
      <path d="M 41.958125 159.796058 
L 992.308887 159.796058 
" clip-path="url(#p7ed317eda3)" style="fill: none; stroke: #dedede; stroke-linecap: square"/>
     </g>
     <g id="line2d_59">
      <g>
       <use xlink:href="#m6bbaeca0ae" x="41.958125" y="159.796058" style="stroke: #000000; stroke-width: 0.6"/>
      </g>
     </g>
    </g>
    <g id="ytick_34">
     <g id="line2d_60">
      <path d="M 41.958125 147.054984 
L 992.308887 147.054984 
" clip-path="url(#p7ed317eda3)" style="fill: none; stroke: #dedede; stroke-linecap: square"/>
     </g>
     <g id="line2d_61">
      <g>
       <use xlink:href="#m6bbaeca0ae" x="41.958125" y="147.054984" style="stroke: #000000; stroke-width: 0.6"/>
      </g>
     </g>
    </g>
    <g id="ytick_35">
     <g id="line2d_62">
      <path d="M 41.958125 140.58534 
L 992.308887 140.58534 
" clip-path="url(#p7ed317eda3)" style="fill: none; stroke: #dedede; stroke-linecap: square"/>
     </g>
     <g id="line2d_63">
      <g>
       <use xlink:href="#m6bbaeca0ae" x="41.958125" y="140.58534" style="stroke: #000000; stroke-width: 0.6"/>
      </g>
     </g>
    </g>
    <g id="ytick_36">
     <g id="line2d_64">
      <path d="M 41.958125 135.995054 
L 992.308887 135.995054 
" clip-path="url(#p7ed317eda3)" style="fill: none; stroke: #dedede; stroke-linecap: square"/>
     </g>
     <g id="line2d_65">
      <g>
       <use xlink:href="#m6bbaeca0ae" x="41.958125" y="135.995054" style="stroke: #000000; stroke-width: 0.6"/>
      </g>
     </g>
    </g>
    <g id="ytick_37">
     <g id="line2d_66">
      <path d="M 41.958125 132.434552 
L 992.308887 132.434552 
" clip-path="url(#p7ed317eda3)" style="fill: none; stroke: #dedede; stroke-linecap: square"/>
     </g>
     <g id="line2d_67">
      <g>
       <use xlink:href="#m6bbaeca0ae" x="41.958125" y="132.434552" style="stroke: #000000; stroke-width: 0.6"/>
      </g>
     </g>
    </g>
    <g id="ytick_38">
     <g id="line2d_68">
      <path d="M 41.958125 129.52541 
L 992.308887 129.52541 
" clip-path="url(#p7ed317eda3)" style="fill: none; stroke: #dedede; stroke-linecap: square"/>
     </g>
     <g id="line2d_69">
      <g>
       <use xlink:href="#m6bbaeca0ae" x="41.958125" y="129.52541" style="stroke: #000000; stroke-width: 0.6"/>
      </g>
     </g>
    </g>
    <g id="ytick_39">
     <g id="line2d_70">
      <path d="M 41.958125 127.065765 
L 992.308887 127.065765 
" clip-path="url(#p7ed317eda3)" style="fill: none; stroke: #dedede; stroke-linecap: square"/>
     </g>
     <g id="line2d_71">
      <g>
       <use xlink:href="#m6bbaeca0ae" x="41.958125" y="127.065765" style="stroke: #000000; stroke-width: 0.6"/>
      </g>
     </g>
    </g>
    <g id="ytick_40">
     <g id="line2d_72">
      <path d="M 41.958125 124.935124 
L 992.308887 124.935124 
" clip-path="url(#p7ed317eda3)" style="fill: none; stroke: #dedede; stroke-linecap: square"/>
     </g>
     <g id="line2d_73">
      <g>
       <use xlink:href="#m6bbaeca0ae" x="41.958125" y="124.935124" style="stroke: #000000; stroke-width: 0.6"/>
      </g>
     </g>
    </g>
    <g id="ytick_41">
     <g id="line2d_74">
      <path d="M 41.958125 123.055765 
L 992.308887 123.055765 
" clip-path="url(#p7ed317eda3)" style="fill: none; stroke: #dedede; stroke-linecap: square"/>
     </g>
     <g id="line2d_75">
      <g>
       <use xlink:href="#m6bbaeca0ae" x="41.958125" y="123.055765" style="stroke: #000000; stroke-width: 0.6"/>
      </g>
     </g>
    </g>
    <g id="ytick_42">
     <g id="line2d_76">
      <path d="M 41.958125 110.314692 
L 992.308887 110.314692 
" clip-path="url(#p7ed317eda3)" style="fill: none; stroke: #dedede; stroke-linecap: square"/>
     </g>
     <g id="line2d_77">
      <g>
       <use xlink:href="#m6bbaeca0ae" x="41.958125" y="110.314692" style="stroke: #000000; stroke-width: 0.6"/>
      </g>
     </g>
    </g>
    <g id="ytick_43">
     <g id="line2d_78">
      <path d="M 41.958125 103.845047 
L 992.308887 103.845047 
" clip-path="url(#p7ed317eda3)" style="fill: none; stroke: #dedede; stroke-linecap: square"/>
     </g>
     <g id="line2d_79">
      <g>
       <use xlink:href="#m6bbaeca0ae" x="41.958125" y="103.845047" style="stroke: #000000; stroke-width: 0.6"/>
      </g>
     </g>
    </g>
    <g id="ytick_44">
     <g id="line2d_80">
      <path d="M 41.958125 99.254761 
L 992.308887 99.254761 
" clip-path="url(#p7ed317eda3)" style="fill: none; stroke: #dedede; stroke-linecap: square"/>
     </g>
     <g id="line2d_81">
      <g>
       <use xlink:href="#m6bbaeca0ae" x="41.958125" y="99.254761" style="stroke: #000000; stroke-width: 0.6"/>
      </g>
     </g>
    </g>
    <g id="ytick_45">
     <g id="line2d_82">
      <path d="M 41.958125 95.694259 
L 992.308887 95.694259 
" clip-path="url(#p7ed317eda3)" style="fill: none; stroke: #dedede; stroke-linecap: square"/>
     </g>
     <g id="line2d_83">
      <g>
       <use xlink:href="#m6bbaeca0ae" x="41.958125" y="95.694259" style="stroke: #000000; stroke-width: 0.6"/>
      </g>
     </g>
    </g>
    <g id="ytick_46">
     <g id="line2d_84">
      <path d="M 41.958125 92.785117 
L 992.308887 92.785117 
" clip-path="url(#p7ed317eda3)" style="fill: none; stroke: #dedede; stroke-linecap: square"/>
     </g>
     <g id="line2d_85">
      <g>
       <use xlink:href="#m6bbaeca0ae" x="41.958125" y="92.785117" style="stroke: #000000; stroke-width: 0.6"/>
      </g>
     </g>
    </g>
    <g id="ytick_47">
     <g id="line2d_86">
      <path d="M 41.958125 90.325472 
L 992.308887 90.325472 
" clip-path="url(#p7ed317eda3)" style="fill: none; stroke: #dedede; stroke-linecap: square"/>
     </g>
     <g id="line2d_87">
      <g>
       <use xlink:href="#m6bbaeca0ae" x="41.958125" y="90.325472" style="stroke: #000000; stroke-width: 0.6"/>
      </g>
     </g>
    </g>
    <g id="ytick_48">
     <g id="line2d_88">
      <path d="M 41.958125 88.194831 
L 992.308887 88.194831 
" clip-path="url(#p7ed317eda3)" style="fill: none; stroke: #dedede; stroke-linecap: square"/>
     </g>
     <g id="line2d_89">
      <g>
       <use xlink:href="#m6bbaeca0ae" x="41.958125" y="88.194831" style="stroke: #000000; stroke-width: 0.6"/>
      </g>
     </g>
    </g>
    <g id="ytick_49">
     <g id="line2d_90">
      <path d="M 41.958125 86.315473 
L 992.308887 86.315473 
" clip-path="url(#p7ed317eda3)" style="fill: none; stroke: #dedede; stroke-linecap: square"/>
     </g>
     <g id="line2d_91">
      <g>
       <use xlink:href="#m6bbaeca0ae" x="41.958125" y="86.315473" style="stroke: #000000; stroke-width: 0.6"/>
      </g>
     </g>
    </g>
    <g id="ytick_50">
     <g id="line2d_92">
      <path d="M 41.958125 73.574399 
L 992.308887 73.574399 
" clip-path="url(#p7ed317eda3)" style="fill: none; stroke: #dedede; stroke-linecap: square"/>
     </g>
     <g id="line2d_93">
      <g>
       <use xlink:href="#m6bbaeca0ae" x="41.958125" y="73.574399" style="stroke: #000000; stroke-width: 0.6"/>
      </g>
     </g>
    </g>
    <g id="ytick_51">
     <g id="line2d_94">
      <path d="M 41.958125 67.104755 
L 992.308887 67.104755 
" clip-path="url(#p7ed317eda3)" style="fill: none; stroke: #dedede; stroke-linecap: square"/>
     </g>
     <g id="line2d_95">
      <g>
       <use xlink:href="#m6bbaeca0ae" x="41.958125" y="67.104755" style="stroke: #000000; stroke-width: 0.6"/>
      </g>
     </g>
    </g>
    <g id="ytick_52">
     <g id="line2d_96">
      <path d="M 41.958125 62.514469 
L 992.308887 62.514469 
" clip-path="url(#p7ed317eda3)" style="fill: none; stroke: #dedede; stroke-linecap: square"/>
     </g>
     <g id="line2d_97">
      <g>
       <use xlink:href="#m6bbaeca0ae" x="41.958125" y="62.514469" style="stroke: #000000; stroke-width: 0.6"/>
      </g>
     </g>
    </g>
    <g id="ytick_53">
     <g id="line2d_98">
      <path d="M 41.958125 58.953967 
L 992.308887 58.953967 
" clip-path="url(#p7ed317eda3)" style="fill: none; stroke: #dedede; stroke-linecap: square"/>
     </g>
     <g id="line2d_99">
      <g>
       <use xlink:href="#m6bbaeca0ae" x="41.958125" y="58.953967" style="stroke: #000000; stroke-width: 0.6"/>
      </g>
     </g>
    </g>
    <g id="ytick_54">
     <g id="line2d_100">
      <path d="M 41.958125 56.044824 
L 992.308887 56.044824 
" clip-path="url(#p7ed317eda3)" style="fill: none; stroke: #dedede; stroke-linecap: square"/>
     </g>
     <g id="line2d_101">
      <g>
       <use xlink:href="#m6bbaeca0ae" x="41.958125" y="56.044824" style="stroke: #000000; stroke-width: 0.6"/>
      </g>
     </g>
    </g>
    <g id="ytick_55">
     <g id="line2d_102">
      <path d="M 41.958125 53.58518 
L 992.308887 53.58518 
" clip-path="url(#p7ed317eda3)" style="fill: none; stroke: #dedede; stroke-linecap: square"/>
     </g>
     <g id="line2d_103">
      <g>
       <use xlink:href="#m6bbaeca0ae" x="41.958125" y="53.58518" style="stroke: #000000; stroke-width: 0.6"/>
      </g>
     </g>
    </g>
    <g id="ytick_56">
     <g id="line2d_104">
      <path d="M 41.958125 51.454539 
L 992.308887 51.454539 
" clip-path="url(#p7ed317eda3)" style="fill: none; stroke: #dedede; stroke-linecap: square"/>
     </g>
     <g id="line2d_105">
      <g>
       <use xlink:href="#m6bbaeca0ae" x="41.958125" y="51.454539" style="stroke: #000000; stroke-width: 0.6"/>
      </g>
     </g>
    </g>
    <g id="ytick_57">
     <g id="line2d_106">
      <path d="M 41.958125 49.57518 
L 992.308887 49.57518 
" clip-path="url(#p7ed317eda3)" style="fill: none; stroke: #dedede; stroke-linecap: square"/>
     </g>
     <g id="line2d_107">
      <g>
       <use xlink:href="#m6bbaeca0ae" x="41.958125" y="49.57518" style="stroke: #000000; stroke-width: 0.6"/>
      </g>
     </g>
    </g>
    <g id="ytick_58">
     <g id="line2d_108">
      <path d="M 41.958125 36.834106 
L 992.308887 36.834106 
" clip-path="url(#p7ed317eda3)" style="fill: none; stroke: #dedede; stroke-linecap: square"/>
     </g>
     <g id="line2d_109">
      <g>
       <use xlink:href="#m6bbaeca0ae" x="41.958125" y="36.834106" style="stroke: #000000; stroke-width: 0.6"/>
      </g>
     </g>
    </g>
    <g id="text_15">
     <!-- Number of Reads (log10) -->
     <g transform="translate(14.798438 215.464585) rotate(-90) scale(0.1 -0.1)">
      <defs>
       <path id="DejaVuSans-4e" d="M 628 4666 
L 1478 4666 
L 3547 763 
L 3547 4666 
L 4159 4666 
L 4159 0 
L 3309 0 
L 1241 3903 
L 1241 0 
L 628 0 
L 628 4666 
z
" transform="scale(0.015625)"/>
       <path id="DejaVuSans-6d" d="M 3328 2828 
Q 3544 3216 3844 3400 
Q 4144 3584 4550 3584 
Q 5097 3584 5394 3201 
Q 5691 2819 5691 2113 
L 5691 0 
L 5113 0 
L 5113 2094 
Q 5113 2597 4934 2840 
Q 4756 3084 4391 3084 
Q 3944 3084 3684 2787 
Q 3425 2491 3425 1978 
L 3425 0 
L 2847 0 
L 2847 2094 
Q 2847 2600 2669 2842 
Q 2491 3084 2119 3084 
Q 1678 3084 1418 2786 
Q 1159 2488 1159 1978 
L 1159 0 
L 581 0 
L 581 3500 
L 1159 3500 
L 1159 2956 
Q 1356 3278 1631 3431 
Q 1906 3584 2284 3584 
Q 2666 3584 2933 3390 
Q 3200 3197 3328 2828 
z
" transform="scale(0.015625)"/>
       <path id="DejaVuSans-62" d="M 3116 1747 
Q 3116 2381 2855 2742 
Q 2594 3103 2138 3103 
Q 1681 3103 1420 2742 
Q 1159 2381 1159 1747 
Q 1159 1113 1420 752 
Q 1681 391 2138 391 
Q 2594 391 2855 752 
Q 3116 1113 3116 1747 
z
M 1159 2969 
Q 1341 3281 1617 3432 
Q 1894 3584 2278 3584 
Q 2916 3584 3314 3078 
Q 3713 2572 3713 1747 
Q 3713 922 3314 415 
Q 2916 -91 2278 -91 
Q 1894 -91 1617 61 
Q 1341 213 1159 525 
L 1159 0 
L 581 0 
L 581 4863 
L 1159 4863 
L 1159 2969 
z
" transform="scale(0.015625)"/>
       <path id="DejaVuSans-52" d="M 2841 2188 
Q 3044 2119 3236 1894 
Q 3428 1669 3622 1275 
L 4263 0 
L 3584 0 
L 2988 1197 
Q 2756 1666 2539 1819 
Q 2322 1972 1947 1972 
L 1259 1972 
L 1259 0 
L 628 0 
L 628 4666 
L 2053 4666 
Q 2853 4666 3247 4331 
Q 3641 3997 3641 3322 
Q 3641 2881 3436 2590 
Q 3231 2300 2841 2188 
z
M 1259 4147 
L 1259 2491 
L 2053 2491 
Q 2509 2491 2742 2702 
Q 2975 2913 2975 3322 
Q 2975 3731 2742 3939 
Q 2509 4147 2053 4147 
L 1259 4147 
z
" transform="scale(0.015625)"/>
       <path id="DejaVuSans-73" d="M 2834 3397 
L 2834 2853 
Q 2591 2978 2328 3040 
Q 2066 3103 1784 3103 
Q 1356 3103 1142 2972 
Q 928 2841 928 2578 
Q 928 2378 1081 2264 
Q 1234 2150 1697 2047 
L 1894 2003 
Q 2506 1872 2764 1633 
Q 3022 1394 3022 966 
Q 3022 478 2636 193 
Q 2250 -91 1575 -91 
Q 1294 -91 989 -36 
Q 684 19 347 128 
L 347 722 
Q 666 556 975 473 
Q 1284 391 1588 391 
Q 1994 391 2212 530 
Q 2431 669 2431 922 
Q 2431 1156 2273 1281 
Q 2116 1406 1581 1522 
L 1381 1569 
Q 847 1681 609 1914 
Q 372 2147 372 2553 
Q 372 3047 722 3315 
Q 1072 3584 1716 3584 
Q 2034 3584 2315 3537 
Q 2597 3491 2834 3397 
z
" transform="scale(0.015625)"/>
       <path id="DejaVuSans-28" d="M 1984 4856 
Q 1566 4138 1362 3434 
Q 1159 2731 1159 2009 
Q 1159 1288 1364 580 
Q 1569 -128 1984 -844 
L 1484 -844 
Q 1016 -109 783 600 
Q 550 1309 550 2009 
Q 550 2706 781 3412 
Q 1013 4119 1484 4856 
L 1984 4856 
z
" transform="scale(0.015625)"/>
       <path id="DejaVuSans-6c" d="M 603 4863 
L 1178 4863 
L 1178 0 
L 603 0 
L 603 4863 
z
" transform="scale(0.015625)"/>
       <path id="DejaVuSans-67" d="M 2906 1791 
Q 2906 2416 2648 2759 
Q 2391 3103 1925 3103 
Q 1463 3103 1205 2759 
Q 947 2416 947 1791 
Q 947 1169 1205 825 
Q 1463 481 1925 481 
Q 2391 481 2648 825 
Q 2906 1169 2906 1791 
z
M 3481 434 
Q 3481 -459 3084 -895 
Q 2688 -1331 1869 -1331 
Q 1566 -1331 1297 -1286 
Q 1028 -1241 775 -1147 
L 775 -588 
Q 1028 -725 1275 -790 
Q 1522 -856 1778 -856 
Q 2344 -856 2625 -561 
Q 2906 -266 2906 331 
L 2906 616 
Q 2728 306 2450 153 
Q 2172 0 1784 0 
Q 1141 0 747 490 
Q 353 981 353 1791 
Q 353 2603 747 3093 
Q 1141 3584 1784 3584 
Q 2172 3584 2450 3431 
Q 2728 3278 2906 2969 
L 2906 3500 
L 3481 3500 
L 3481 434 
z
" transform="scale(0.015625)"/>
       <path id="DejaVuSans-29" d="M 513 4856 
L 1013 4856 
Q 1481 4119 1714 3412 
Q 1947 2706 1947 2009 
Q 1947 1309 1714 600 
Q 1481 -109 1013 -844 
L 513 -844 
Q 928 -128 1133 580 
Q 1338 1288 1338 2009 
Q 1338 2731 1133 3434 
Q 928 4138 513 4856 
z
" transform="scale(0.015625)"/>
      </defs>
      <use xlink:href="#DejaVuSans-4e"/>
      <use xlink:href="#DejaVuSans-75" x="74.804688"/>
      <use xlink:href="#DejaVuSans-6d" x="138.183594"/>
      <use xlink:href="#DejaVuSans-62" x="235.595703"/>
      <use xlink:href="#DejaVuSans-65" x="299.072266"/>
      <use xlink:href="#DejaVuSans-72" x="360.595703"/>
      <use xlink:href="#DejaVuSans-20" x="401.708984"/>
      <use xlink:href="#DejaVuSans-6f" x="433.496094"/>
      <use xlink:href="#DejaVuSans-66" x="494.677734"/>
      <use xlink:href="#DejaVuSans-20" x="529.882812"/>
      <use xlink:href="#DejaVuSans-52" x="561.669922"/>
      <use xlink:href="#DejaVuSans-65" x="626.652344"/>
      <use xlink:href="#DejaVuSans-61" x="688.175781"/>
      <use xlink:href="#DejaVuSans-64" x="749.455078"/>
      <use xlink:href="#DejaVuSans-73" x="812.931641"/>
      <use xlink:href="#DejaVuSans-20" x="865.03125"/>
      <use xlink:href="#DejaVuSans-28" x="896.818359"/>
      <use xlink:href="#DejaVuSans-6c" x="935.832031"/>
      <use xlink:href="#DejaVuSans-6f" x="963.615234"/>
      <use xlink:href="#DejaVuSans-67" x="1024.796875"/>
      <use xlink:href="#DejaVuSans-31" x="1088.273438"/>
      <use xlink:href="#DejaVuSans-30" x="1151.896484"/>
      <use xlink:href="#DejaVuSans-29" x="1215.519531"/>
     </g>
    </g>
   </g>
   <g id="line2d_110">
    <path d="M 85.155887 42.505915 
L 90.350007 67.69718 
L 93.812753 85.622112 
L 99.006873 106.308406 
L 102.469619 113.291151 
L 107.663739 119.140126 
L 111.126485 124.217143 
L 116.320605 132.906422 
L 119.783351 136.60989 
L 124.977471 139.723981 
L 128.440218 142.6747 
L 133.634337 148.451472 
L 137.097084 150.853604 
L 142.291203 152.798641 
L 145.75395 155.110322 
L 150.948069 159.712948 
L 154.410816 161.599804 
L 159.604936 162.814072 
L 163.067682 164.576583 
L 168.261802 168.032767 
L 171.724548 169.578818 
L 176.918668 170.592245 
L 180.381414 172.283079 
L 185.575534 175.526848 
L 189.03828 176.405926 
L 194.2324 177.093309 
L 197.695146 177.999169 
L 202.889266 180.839664 
L 206.352013 181.52365 
L 211.546132 182.775469 
L 215.008879 183.851221 
L 220.202998 186.00819 
L 223.665745 186.463711 
L 228.859864 188.438838 
L 232.322611 188.205744 
L 237.516731 190.13778 
L 240.979477 190.878928 
L 246.173597 192.459515 
L 249.636343 191.734723 
L 254.830463 193.940522 
L 258.293209 195.177564 
L 263.487329 194.919159 
L 266.950075 196.151003 
L 272.144195 198.217494 
L 275.606941 198.415709 
L 280.801061 198.455649 
L 284.263808 201.316875 
L 289.457927 201.316875 
L 292.920674 201.876796 
L 298.114793 202.431409 
L 301.57754 202.126506 
L 306.77166 205.567908 
L 310.234406 205.075966 
L 315.428526 204.805772 
L 318.891272 205.787996 
L 324.085392 206.599774 
L 327.548138 207.596281 
L 332.742258 207.073083 
L 336.205004 207.738747 
L 341.399124 208.508306 
L 344.86187 209.238075 
L 350.05599 209.55562 
L 353.518737 210.59075 
L 358.712856 213.086082 
L 362.175603 211.60628 
L 367.369722 214.442647 
L 370.832469 212.788755 
L 376.026588 216.847926 
L 381.220708 214.172655 
L 384.683455 216.410745 
L 389.877574 219.160509 
L 393.340321 216.410745 
L 398.53444 216.847926 
L 401.997187 216.472471 
L 407.191306 217.03902 
L 410.654053 217.962358 
L 415.848173 218.942427 
L 419.310919 219.986657 
L 424.505039 221.354011 
L 427.967785 219.381613 
L 433.161905 220.063926 
L 436.624651 220.219597 
L 441.818771 221.02158 
L 445.281517 221.866015 
L 450.475637 222.394995 
L 453.938383 225.019834 
L 459.132503 223.035154 
L 462.59525 223.897857 
L 467.789369 224.096072 
L 471.252116 226.113146 
L 476.446235 226.113146 
L 479.908982 225.666792 
L 485.103102 225.448212 
L 488.565848 226.113146 
L 493.759968 226.226713 
L 497.222714 226.689241 
L 502.416834 228.29236 
L 505.87958 226.925632 
L 511.0737 227.532401 
L 514.536446 227.286918 
L 519.730566 229.93032 
L 523.193312 229.090331 
L 528.387432 232.24686 
L 531.850179 230.665755 
L 537.044298 230.367501 
L 540.507045 230.816999 
L 545.701164 232.753445 
L 549.163911 232.08151 
L 554.35803 233.454926 
L 557.820777 231.279527 
L 563.014897 234.002046 
L 566.477643 231.917856 
L 571.671763 233.81758 
L 575.134509 234.762004 
L 580.328629 233.276643 
L 583.791375 232.925945 
L 588.985495 234.957787 
L 592.448241 233.635222 
L 597.642361 234.957787 
L 601.105107 239.746288 
L 606.299227 233.454926 
L 609.761974 233.635222 
L 614.956093 234.568594 
L 618.41884 235.559975 
L 623.612959 235.974443 
L 627.075706 238.225508 
L 632.269826 235.765864 
L 635.732572 237.286643 
L 640.926692 237.060311 
L 644.389438 239.746288 
L 649.583558 238.225508 
L 653.046304 242.65543 
L 658.240424 239.746288 
L 663.434544 240.014464 
L 666.89729 237.749171 
L 672.09141 241.13465 
L 675.554156 240.564729 
L 680.748276 238.967787 
L 684.211022 241.725685 
L 689.405142 238.967787 
L 692.867888 241.725685 
L 698.062008 242.339457 
L 701.524754 242.977786 
L 706.718874 241.725685 
L 710.181621 242.65543 
L 715.37574 245.061976 
L 718.838487 243.985876 
L 724.032606 243.64272 
L 727.495353 245.061976 
L 732.689472 241.725685 
L 736.152219 240.847145 
L 741.346339 242.65543 
L 744.809085 245.821934 
L 750.003205 244.695153 
L 758.660071 247.459895 
L 762.122817 243.985876 
L 767.316937 245.437431 
L 770.779683 246.619906 
L 775.973803 244.695153 
L 779.436549 246.619906 
L 784.630669 244.336573 
L 788.093416 249.285438 
L 793.287535 249.776434 
L 796.750282 244.695153 
L 801.944401 251.347154 
L 805.407148 245.437431 
L 810.601268 246.215932 
L 814.064014 248.346573 
L 819.258134 252.487361 
L 822.72088 248.809101 
L 827.915 246.619906 
L 831.377746 248.346573 
L 836.571866 248.346573 
L 840.034612 253.71536 
L 845.228732 254.36672 
L 848.691478 249.776434 
L 853.885598 250.28302 
L 857.348345 253.08955 
L 862.542464 250.806218 
L 866.005211 248.809101 
L 871.19933 256.497361 
L 874.662077 248.809101 
L 879.856196 247.897076 
L 883.318943 250.806218 
L 888.513063 254.36672 
L 891.975809 247.459895 
L 897.169929 251.907075 
L 900.632675 251.907075 
L 905.826795 256.497361 
L 909.289541 257.275862 
L 914.483661 252.487361 
L 917.946407 254.36672 
L 923.140527 250.28302 
L 926.603273 247.897076 
L 931.797393 253.71536 
L 935.26014 255.755083 
L 940.454259 255.045806 
L 943.917006 251.907075 
L 949.111125 250.28302 
L 949.111125 250.28302 
" clip-path="url(#p7ed317eda3)" style="fill: none; stroke: #7cb5ec; stroke-linecap: square"/>
   </g>
   <g id="line2d_111">
    <path d="M 85.155887 45.39231 
L 93.812753 89.273259 
L 99.006873 108.860195 
L 102.469619 115.80852 
L 107.663739 122.17225 
L 111.126485 127.040028 
L 116.320605 135.226814 
L 119.783351 138.98546 
L 124.977471 142.491447 
L 128.440218 145.475565 
L 133.634337 150.964323 
L 137.097084 153.48081 
L 142.291203 155.790787 
L 145.75395 157.894652 
L 150.948069 162.122407 
L 154.410816 163.539325 
L 163.067682 167.343782 
L 168.261802 170.487956 
L 176.918668 173.370094 
L 180.381414 174.752421 
L 185.575534 177.272534 
L 189.03828 178.301611 
L 194.2324 180.177436 
L 197.695146 181.113796 
L 202.889266 183.108215 
L 206.352013 184.605322 
L 211.546132 185.073777 
L 215.008879 186.615314 
L 220.202998 188.300689 
L 223.665745 189.204004 
L 228.859864 189.855364 
L 232.322611 191.656185 
L 240.979477 193.175659 
L 246.173597 193.820438 
L 249.636343 194.383564 
L 254.830463 195.978875 
L 258.293209 197.580324 
L 263.487329 197.732469 
L 266.950075 199.573655 
L 272.144195 199.964436 
L 275.606941 200.985431 
L 280.801061 202.126506 
L 284.263808 201.221472 
L 289.457927 202.873578 
L 292.920674 202.716116 
L 298.114793 204.540077 
L 301.57754 205.50558 
L 306.77166 204.687139 
L 310.234406 205.106272 
L 315.428526 207.349985 
L 318.891272 206.834673 
L 327.548138 208.811519 
L 332.742258 210.548029 
L 336.205004 209.238075 
L 341.399124 211.335065 
L 344.86187 211.651935 
L 350.05599 211.560757 
L 353.518737 212.068809 
L 358.712856 211.975224 
L 362.175603 213.594282 
L 367.369722 213.594282 
L 370.832469 214.226289 
L 376.026588 216.975067 
L 381.220708 216.596644 
L 384.683455 218.098736 
L 393.340321 218.167364 
L 398.53444 220.695934 
L 401.997187 219.307571 
L 407.191306 218.375039 
L 410.654053 220.695934 
L 415.848173 220.376801 
L 419.310919 219.605825 
L 424.505039 223.799665 
L 427.967785 223.222875 
L 433.161905 222.849616 
L 436.624651 223.508664 
L 441.818771 223.702074 
L 445.281517 224.809882 
L 450.475637 225.557128 
L 453.938383 224.19611 
L 459.132503 224.29678 
L 462.59525 226.000381 
L 467.789369 226.456301 
L 471.252116 228.553941 
L 476.446235 227.781721 
L 479.908982 225.019834 
L 485.103102 229.787215 
L 488.565848 230.96969 
L 493.759968 228.034997 
L 497.222714 228.954534 
L 502.416834 231.123856 
L 505.87958 230.515931 
L 511.0737 230.07472 
L 514.536446 227.656574 
L 519.730566 231.917856 
L 523.193312 230.07472 
L 528.387432 232.58279 
L 531.850179 235.559975 
L 537.044298 234.188669 
L 540.507045 235.974443 
L 545.701164 233.81758 
L 549.163911 237.516231 
L 554.35803 233.454926 
L 557.820777 232.925945 
L 563.014897 233.276643 
L 566.477643 233.276643 
L 571.671763 231.917856 
L 575.134509 234.188669 
L 580.328629 233.81758 
L 583.791375 238.716504 
L 588.985495 236.185785 
L 592.448241 238.967787 
L 597.642361 237.985562 
L 601.105107 237.060311 
L 606.299227 238.716504 
L 609.761974 239.22309 
L 614.956093 237.516231 
L 618.41884 236.837145 
L 623.612959 238.716504 
L 627.075706 240.287224 
L 632.269826 237.749171 
L 635.732572 237.286643 
L 640.926692 242.977786 
L 644.389438 240.847145 
L 649.583558 240.564729 
L 653.046304 241.13465 
L 658.240424 240.287224 
L 663.434544 242.977786 
L 672.09141 239.746288 
L 675.554156 242.02962 
L 680.748276 241.427431 
L 684.211022 241.725685 
L 689.405142 246.215932 
L 692.867888 242.977786 
L 698.062008 242.977786 
L 701.524754 245.437431 
L 706.718874 246.215932 
L 710.181621 246.215932 
L 715.37574 247.459895 
L 718.838487 243.64272 
L 724.032606 246.619906 
L 727.495353 248.809101 
L 732.689472 245.061976 
L 736.152219 249.285438 
L 741.346339 248.809101 
L 744.809085 245.821934 
L 750.003205 246.215932 
L 753.465951 248.809101 
L 758.660071 250.806218 
L 762.122817 250.28302 
L 767.316937 249.285438 
L 770.779683 251.907075 
L 775.973803 247.459895 
L 779.436549 248.809101 
L 784.630669 248.809101 
L 788.093416 254.36672 
L 793.287535 247.459895 
L 796.750282 248.346573 
L 801.944401 251.347154 
L 805.407148 254.36672 
L 810.601268 252.487361 
L 814.064014 258.094303 
L 819.258134 253.08955 
L 822.72088 252.487361 
L 827.915 251.347154 
L 831.377746 252.487361 
L 836.571866 248.809101 
L 840.034612 253.71536 
L 845.228732 251.347154 
L 848.691478 255.045806 
L 853.885598 246.215932 
L 857.348345 258.094303 
L 862.542464 250.28302 
L 866.005211 253.71536 
L 871.19933 250.28302 
L 874.662077 258.094303 
L 879.856196 253.71536 
L 883.318943 258.094303 
L 888.513063 250.28302 
L 891.975809 253.71536 
L 897.169929 257.275862 
L 900.632675 254.36672 
L 905.826795 255.755083 
L 909.289541 251.347154 
L 914.483661 257.275862 
L 917.946407 255.045806 
L 923.140527 259.869031 
L 926.603273 254.36672 
L 931.797393 255.045806 
L 935.26014 262.967005 
L 940.454259 260.836364 
L 943.917006 256.497361 
L 949.111125 254.36672 
L 949.111125 254.36672 
" clip-path="url(#p7ed317eda3)" style="fill: none; stroke: #434348; stroke-linecap: square"/>
   </g>
   <g id="line2d_112">
    <path clip-path="url(#p7ed317eda3)" style="fill: none; stroke: #dedede; stroke-width: 2; stroke-linecap: square"/>
   </g>
   <g id="text_16">
    <!-- RSeQC: Read Duplication -->
    <g transform="translate(416.428506 19.3575) scale(0.16 -0.16)">
     <defs>
      <path id="DejaVuSans-53" d="M 3425 4513 
L 3425 3897 
Q 3066 4069 2747 4153 
Q 2428 4238 2131 4238 
Q 1616 4238 1336 4038 
Q 1056 3838 1056 3469 
Q 1056 3159 1242 3001 
Q 1428 2844 1947 2747 
L 2328 2669 
Q 3034 2534 3370 2195 
Q 3706 1856 3706 1288 
Q 3706 609 3251 259 
Q 2797 -91 1919 -91 
Q 1588 -91 1214 -16 
Q 841 59 441 206 
L 441 856 
Q 825 641 1194 531 
Q 1563 422 1919 422 
Q 2459 422 2753 634 
Q 3047 847 3047 1241 
Q 3047 1584 2836 1778 
Q 2625 1972 2144 2069 
L 1759 2144 
Q 1053 2284 737 2584 
Q 422 2884 422 3419 
Q 422 4038 858 4394 
Q 1294 4750 2059 4750 
Q 2388 4750 2728 4690 
Q 3069 4631 3425 4513 
z
" transform="scale(0.015625)"/>
      <path id="DejaVuSans-51" d="M 2522 4238 
Q 1834 4238 1429 3725 
Q 1025 3213 1025 2328 
Q 1025 1447 1429 934 
Q 1834 422 2522 422 
Q 3209 422 3611 934 
Q 4013 1447 4013 2328 
Q 4013 3213 3611 3725 
Q 3209 4238 2522 4238 
z
M 3406 84 
L 4238 -825 
L 3475 -825 
L 2784 -78 
Q 2681 -84 2626 -87 
Q 2572 -91 2522 -91 
Q 1538 -91 948 567 
Q 359 1225 359 2328 
Q 359 3434 948 4092 
Q 1538 4750 2522 4750 
Q 3503 4750 4090 4092 
Q 4678 3434 4678 2328 
Q 4678 1516 4351 937 
Q 4025 359 3406 84 
z
" transform="scale(0.015625)"/>
      <path id="DejaVuSans-43" d="M 4122 4306 
L 4122 3641 
Q 3803 3938 3442 4084 
Q 3081 4231 2675 4231 
Q 1875 4231 1450 3742 
Q 1025 3253 1025 2328 
Q 1025 1406 1450 917 
Q 1875 428 2675 428 
Q 3081 428 3442 575 
Q 3803 722 4122 1019 
L 4122 359 
Q 3791 134 3420 21 
Q 3050 -91 2638 -91 
Q 1578 -91 968 557 
Q 359 1206 359 2328 
Q 359 3453 968 4101 
Q 1578 4750 2638 4750 
Q 3056 4750 3426 4639 
Q 3797 4528 4122 4306 
z
" transform="scale(0.015625)"/>
      <path id="DejaVuSans-3a" d="M 750 794 
L 1409 794 
L 1409 0 
L 750 0 
L 750 794 
z
M 750 3309 
L 1409 3309 
L 1409 2516 
L 750 2516 
L 750 3309 
z
" transform="scale(0.015625)"/>
      <path id="DejaVuSans-44" d="M 1259 4147 
L 1259 519 
L 2022 519 
Q 2988 519 3436 956 
Q 3884 1394 3884 2338 
Q 3884 3275 3436 3711 
Q 2988 4147 2022 4147 
L 1259 4147 
z
M 628 4666 
L 1925 4666 
Q 3281 4666 3915 4102 
Q 4550 3538 4550 2338 
Q 4550 1131 3912 565 
Q 3275 0 1925 0 
L 628 0 
L 628 4666 
z
" transform="scale(0.015625)"/>
      <path id="DejaVuSans-70" d="M 1159 525 
L 1159 -1331 
L 581 -1331 
L 581 3500 
L 1159 3500 
L 1159 2969 
Q 1341 3281 1617 3432 
Q 1894 3584 2278 3584 
Q 2916 3584 3314 3078 
Q 3713 2572 3713 1747 
Q 3713 922 3314 415 
Q 2916 -91 2278 -91 
Q 1894 -91 1617 61 
Q 1341 213 1159 525 
z
M 3116 1747 
Q 3116 2381 2855 2742 
Q 2594 3103 2138 3103 
Q 1681 3103 1420 2742 
Q 1159 2381 1159 1747 
Q 1159 1113 1420 752 
Q 1681 391 2138 391 
Q 2594 391 2855 752 
Q 3116 1113 3116 1747 
z
" transform="scale(0.015625)"/>
      <path id="DejaVuSans-69" d="M 603 3500 
L 1178 3500 
L 1178 0 
L 603 0 
L 603 3500 
z
M 603 4863 
L 1178 4863 
L 1178 4134 
L 603 4134 
L 603 4863 
z
" transform="scale(0.015625)"/>
      <path id="DejaVuSans-74" d="M 1172 4494 
L 1172 3500 
L 2356 3500 
L 2356 3053 
L 1172 3053 
L 1172 1153 
Q 1172 725 1289 603 
Q 1406 481 1766 481 
L 2356 481 
L 2356 0 
L 1766 0 
Q 1100 0 847 248 
Q 594 497 594 1153 
L 594 3053 
L 172 3053 
L 172 3500 
L 594 3500 
L 594 4494 
L 1172 4494 
z
" transform="scale(0.015625)"/>
     </defs>
     <use xlink:href="#DejaVuSans-52"/>
     <use xlink:href="#DejaVuSans-53" x="69.482422"/>
     <use xlink:href="#DejaVuSans-65" x="132.958984"/>
     <use xlink:href="#DejaVuSans-51" x="194.482422"/>
     <use xlink:href="#DejaVuSans-43" x="273.193359"/>
     <use xlink:href="#DejaVuSans-3a" x="343.017578"/>
     <use xlink:href="#DejaVuSans-20" x="376.708984"/>
     <use xlink:href="#DejaVuSans-52" x="408.496094"/>
     <use xlink:href="#DejaVuSans-65" x="473.478516"/>
     <use xlink:href="#DejaVuSans-61" x="535.001953"/>
     <use xlink:href="#DejaVuSans-64" x="596.28125"/>
     <use xlink:href="#DejaVuSans-20" x="659.757812"/>
     <use xlink:href="#DejaVuSans-44" x="691.544922"/>
     <use xlink:href="#DejaVuSans-75" x="768.546875"/>
     <use xlink:href="#DejaVuSans-70" x="831.925781"/>
     <use xlink:href="#DejaVuSans-6c" x="895.402344"/>
     <use xlink:href="#DejaVuSans-69" x="923.185547"/>
     <use xlink:href="#DejaVuSans-63" x="950.96875"/>
     <use xlink:href="#DejaVuSans-61" x="1005.949219"/>
     <use xlink:href="#DejaVuSans-74" x="1067.228516"/>
     <use xlink:href="#DejaVuSans-69" x="1106.4375"/>
     <use xlink:href="#DejaVuSans-6f" x="1134.220703"/>
     <use xlink:href="#DejaVuSans-6e" x="1195.402344"/>
    </g>
   </g>
   <g id="legend_1">
    <g id="line2d_113">
     <path d="M 49.158125 315.455394 
L 57.158125 315.455394 
L 65.158125 315.455394 
" style="fill: none; stroke: #7cb5ec; stroke-linecap: square"/>
    </g>
    <g id="text_17">
     <!-- Minus_cre_p53mut -->
     <g transform="translate(71.558125 318.255394) scale(0.08 -0.08)">
      <defs>
       <path id="DejaVuSans-4d" d="M 628 4666 
L 1569 4666 
L 2759 1491 
L 3956 4666 
L 4897 4666 
L 4897 0 
L 4281 0 
L 4281 4097 
L 3078 897 
L 2444 897 
L 1241 4097 
L 1241 0 
L 628 0 
L 628 4666 
z
" transform="scale(0.015625)"/>
       <path id="DejaVuSans-5f" d="M 3263 -1063 
L 3263 -1509 
L -63 -1509 
L -63 -1063 
L 3263 -1063 
z
" transform="scale(0.015625)"/>
      </defs>
      <use xlink:href="#DejaVuSans-4d"/>
      <use xlink:href="#DejaVuSans-69" x="86.279297"/>
      <use xlink:href="#DejaVuSans-6e" x="114.0625"/>
      <use xlink:href="#DejaVuSans-75" x="177.441406"/>
      <use xlink:href="#DejaVuSans-73" x="240.820312"/>
      <use xlink:href="#DejaVuSans-5f" x="292.919922"/>
      <use xlink:href="#DejaVuSans-63" x="342.919922"/>
      <use xlink:href="#DejaVuSans-72" x="397.900391"/>
      <use xlink:href="#DejaVuSans-65" x="436.763672"/>
      <use xlink:href="#DejaVuSans-5f" x="498.287109"/>
      <use xlink:href="#DejaVuSans-70" x="548.287109"/>
      <use xlink:href="#DejaVuSans-35" x="611.763672"/>
      <use xlink:href="#DejaVuSans-33" x="675.386719"/>
      <use xlink:href="#DejaVuSans-6d" x="739.009766"/>
      <use xlink:href="#DejaVuSans-75" x="836.421875"/>
      <use xlink:href="#DejaVuSans-74" x="899.800781"/>
     </g>
    </g>
    <g id="line2d_114">
     <path d="M 894.737637 315.455394 
L 902.737637 315.455394 
L 910.737637 315.455394 
" style="fill: none; stroke: #434348; stroke-linecap: square"/>
    </g>
    <g id="text_18">
     <!-- Plus_cre_p53mut -->
     <g transform="translate(917.137637 318.255394) scale(0.08 -0.08)">
      <defs>
       <path id="DejaVuSans-50" d="M 1259 4147 
L 1259 2394 
L 2053 2394 
Q 2494 2394 2734 2622 
Q 2975 2850 2975 3272 
Q 2975 3691 2734 3919 
Q 2494 4147 2053 4147 
L 1259 4147 
z
M 628 4666 
L 2053 4666 
Q 2838 4666 3239 4311 
Q 3641 3956 3641 3272 
Q 3641 2581 3239 2228 
Q 2838 1875 2053 1875 
L 1259 1875 
L 1259 0 
L 628 0 
L 628 4666 
z
" transform="scale(0.015625)"/>
      </defs>
      <use xlink:href="#DejaVuSans-50"/>
      <use xlink:href="#DejaVuSans-6c" x="60.302734"/>
      <use xlink:href="#DejaVuSans-75" x="88.085938"/>
      <use xlink:href="#DejaVuSans-73" x="151.464844"/>
      <use xlink:href="#DejaVuSans-5f" x="203.564453"/>
      <use xlink:href="#DejaVuSans-63" x="253.564453"/>
      <use xlink:href="#DejaVuSans-72" x="308.544922"/>
      <use xlink:href="#DejaVuSans-65" x="347.408203"/>
      <use xlink:href="#DejaVuSans-5f" x="408.931641"/>
      <use xlink:href="#DejaVuSans-70" x="458.931641"/>
      <use xlink:href="#DejaVuSans-35" x="522.408203"/>
      <use xlink:href="#DejaVuSans-33" x="586.03125"/>
      <use xlink:href="#DejaVuSans-6d" x="649.654297"/>
      <use xlink:href="#DejaVuSans-75" x="747.066406"/>
      <use xlink:href="#DejaVuSans-74" x="810.445312"/>
     </g>
    </g>
   </g>
  </g>
 </g>
 <defs>
  <clipPath id="p7ed317eda3">
   <rect x="41.958125" y="31.48286" width="950.350762" height="242.5072"/>
  </clipPath>
 </defs>
</svg>
