<?xml version="1.0" encoding="utf-8" standalone="no"?>
<!DOCTYPE svg PUBLIC "-//W3C//DTD SVG 1.1//EN"
  "http://www.w3.org/Graphics/SVG/1.1/DTD/svg11.dtd">
<svg xmlns:xlink="http://www.w3.org/1999/xlink" width="1000.358125pt" height="330.541644pt" viewBox="0 0 1000.358125 330.541644" xmlns="http://www.w3.org/2000/svg" version="1.1">
 <metadata>
  <rdf:RDF xmlns:dc="http://purl.org/dc/elements/1.1/" xmlns:cc="http://creativecommons.org/ns#" xmlns:rdf="http://www.w3.org/1999/02/22-rdf-syntax-ns#">
   <cc:Work>
    <dc:type rdf:resource="http://purl.org/dc/dcmitype/StillImage"/>
    <dc:date>2025-05-20T01:35:08.840180</dc:date>
    <dc:format>image/svg+xml</dc:format>
    <dc:creator>
     <cc:Agent>
      <dc:title>Matplotlib v3.8.2, https://matplotlib.org/</dc:title>
     </cc:Agent>
    </dc:creator>
   </cc:Work>
  </rdf:RDF>
 </metadata>
 <defs>
  <style type="text/css">*{stroke-linejoin: round; stroke-linecap: butt}</style>
 </defs>
 <g id="figure_1">
  <g id="axes_1">
   <g id="patch_1">
    <path d="M 32.968125 273.99006 
L 993.158125 273.99006 
L 993.158125 31.48286 
L 32.968125 31.48286 
z
" style="fill: #ffffff"/>
   </g>
   <g id="matplotlib.axis_1">
    <g id="xtick_1">
     <g id="text_1">
      <!-- −200 -->
      <g transform="translate(149.389381 287.06881) scale(0.08 -0.08)">
       <defs>
        <path id="DejaVuSans-2212" d="M 678 2272 
L 4684 2272 
L 4684 1741 
L 678 1741 
L 678 2272 
z
" transform="scale(0.015625)"/>
        <path id="DejaVuSans-32" d="M 1228 531 
L 3431 531 
L 3431 0 
L 469 0 
L 469 531 
Q 828 903 1448 1529 
Q 2069 2156 2228 2338 
Q 2531 2678 2651 2914 
Q 2772 3150 2772 3378 
Q 2772 3750 2511 3984 
Q 2250 4219 1831 4219 
Q 1534 4219 1204 4116 
Q 875 4013 500 3803 
L 500 4441 
Q 881 4594 1212 4672 
Q 1544 4750 1819 4750 
Q 2544 4750 2975 4387 
Q 3406 4025 3406 3419 
Q 3406 3131 3298 2873 
Q 3191 2616 2906 2266 
Q 2828 2175 2409 1742 
Q 1991 1309 1228 531 
z
" transform="scale(0.015625)"/>
        <path id="DejaVuSans-30" d="M 2034 4250 
Q 1547 4250 1301 3770 
Q 1056 3291 1056 2328 
Q 1056 1369 1301 889 
Q 1547 409 2034 409 
Q 2525 409 2770 889 
Q 3016 1369 3016 2328 
Q 3016 3291 2770 3770 
Q 2525 4250 2034 4250 
z
M 2034 4750 
Q 2819 4750 3233 4129 
Q 3647 3509 3647 2328 
Q 3647 1150 3233 529 
Q 2819 -91 2034 -91 
Q 1250 -91 836 529 
Q 422 1150 422 2328 
Q 422 3509 836 4129 
Q 1250 4750 2034 4750 
z
" transform="scale(0.015625)"/>
       </defs>
       <use xlink:href="#DejaVuSans-2212"/>
       <use xlink:href="#DejaVuSans-32" x="83.789062"/>
       <use xlink:href="#DejaVuSans-30" x="147.412109"/>
       <use xlink:href="#DejaVuSans-30" x="211.035156"/>
      </g>
     </g>
    </g>
    <g id="xtick_2">
     <g id="text_2">
      <!-- −100 -->
      <g transform="translate(325.732816 287.06881) scale(0.08 -0.08)">
       <defs>
        <path id="DejaVuSans-31" d="M 794 531 
L 1825 531 
L 1825 4091 
L 703 3866 
L 703 4441 
L 1819 4666 
L 2450 4666 
L 2450 531 
L 3481 531 
L 3481 0 
L 794 0 
L 794 531 
z
" transform="scale(0.015625)"/>
       </defs>
       <use xlink:href="#DejaVuSans-2212"/>
       <use xlink:href="#DejaVuSans-31" x="83.789062"/>
       <use xlink:href="#DejaVuSans-30" x="147.412109"/>
       <use xlink:href="#DejaVuSans-30" x="211.035156"/>
      </g>
     </g>
    </g>
    <g id="xtick_3">
     <g id="text_3">
      <!-- 0 -->
      <g transform="translate(510.518125 287.06881) scale(0.08 -0.08)">
       <use xlink:href="#DejaVuSans-30"/>
      </g>
     </g>
    </g>
    <g id="xtick_4">
     <g id="text_4">
      <!-- 100 -->
      <g transform="translate(681.771559 287.06881) scale(0.08 -0.08)">
       <use xlink:href="#DejaVuSans-31"/>
       <use xlink:href="#DejaVuSans-30" x="63.623047"/>
       <use xlink:href="#DejaVuSans-30" x="127.246094"/>
      </g>
     </g>
    </g>
    <g id="xtick_5">
     <g id="text_5">
      <!-- 200 -->
      <g transform="translate(858.114994 287.06881) scale(0.08 -0.08)">
       <use xlink:href="#DejaVuSans-32"/>
       <use xlink:href="#DejaVuSans-30" x="63.623047"/>
       <use xlink:href="#DejaVuSans-30" x="127.246094"/>
      </g>
     </g>
    </g>
    <g id="text_6">
     <!-- Inner Distance (bp) -->
     <g transform="translate(464.827969 300.330997) scale(0.1 -0.1)">
      <defs>
       <path id="DejaVuSans-49" d="M 628 4666 
L 1259 4666 
L 1259 0 
L 628 0 
L 628 4666 
z
" transform="scale(0.015625)"/>
       <path id="DejaVuSans-6e" d="M 3513 2113 
L 3513 0 
L 2938 0 
L 2938 2094 
Q 2938 2591 2744 2837 
Q 2550 3084 2163 3084 
Q 1697 3084 1428 2787 
Q 1159 2491 1159 1978 
L 1159 0 
L 581 0 
L 581 3500 
L 1159 3500 
L 1159 2956 
Q 1366 3272 1645 3428 
Q 1925 3584 2291 3584 
Q 2894 3584 3203 3211 
Q 3513 2838 3513 2113 
z
" transform="scale(0.015625)"/>
       <path id="DejaVuSans-65" d="M 3597 1894 
L 3597 1613 
L 953 1613 
Q 991 1019 1311 708 
Q 1631 397 2203 397 
Q 2534 397 2845 478 
Q 3156 559 3463 722 
L 3463 178 
Q 3153 47 2828 -22 
Q 2503 -91 2169 -91 
Q 1331 -91 842 396 
Q 353 884 353 1716 
Q 353 2575 817 3079 
Q 1281 3584 2069 3584 
Q 2775 3584 3186 3129 
Q 3597 2675 3597 1894 
z
M 3022 2063 
Q 3016 2534 2758 2815 
Q 2500 3097 2075 3097 
Q 1594 3097 1305 2825 
Q 1016 2553 972 2059 
L 3022 2063 
z
" transform="scale(0.015625)"/>
       <path id="DejaVuSans-72" d="M 2631 2963 
Q 2534 3019 2420 3045 
Q 2306 3072 2169 3072 
Q 1681 3072 1420 2755 
Q 1159 2438 1159 1844 
L 1159 0 
L 581 0 
L 581 3500 
L 1159 3500 
L 1159 2956 
Q 1341 3275 1631 3429 
Q 1922 3584 2338 3584 
Q 2397 3584 2469 3576 
Q 2541 3569 2628 3553 
L 2631 2963 
z
" transform="scale(0.015625)"/>
       <path id="DejaVuSans-20" transform="scale(0.015625)"/>
       <path id="DejaVuSans-44" d="M 1259 4147 
L 1259 519 
L 2022 519 
Q 2988 519 3436 956 
Q 3884 1394 3884 2338 
Q 3884 3275 3436 3711 
Q 2988 4147 2022 4147 
L 1259 4147 
z
M 628 4666 
L 1925 4666 
Q 3281 4666 3915 4102 
Q 4550 3538 4550 2338 
Q 4550 1131 3912 565 
Q 3275 0 1925 0 
L 628 0 
L 628 4666 
z
" transform="scale(0.015625)"/>
       <path id="DejaVuSans-69" d="M 603 3500 
L 1178 3500 
L 1178 0 
L 603 0 
L 603 3500 
z
M 603 4863 
L 1178 4863 
L 1178 4134 
L 603 4134 
L 603 4863 
z
" transform="scale(0.015625)"/>
       <path id="DejaVuSans-73" d="M 2834 3397 
L 2834 2853 
Q 2591 2978 2328 3040 
Q 2066 3103 1784 3103 
Q 1356 3103 1142 2972 
Q 928 2841 928 2578 
Q 928 2378 1081 2264 
Q 1234 2150 1697 2047 
L 1894 2003 
Q 2506 1872 2764 1633 
Q 3022 1394 3022 966 
Q 3022 478 2636 193 
Q 2250 -91 1575 -91 
Q 1294 -91 989 -36 
Q 684 19 347 128 
L 347 722 
Q 666 556 975 473 
Q 1284 391 1588 391 
Q 1994 391 2212 530 
Q 2431 669 2431 922 
Q 2431 1156 2273 1281 
Q 2116 1406 1581 1522 
L 1381 1569 
Q 847 1681 609 1914 
Q 372 2147 372 2553 
Q 372 3047 722 3315 
Q 1072 3584 1716 3584 
Q 2034 3584 2315 3537 
Q 2597 3491 2834 3397 
z
" transform="scale(0.015625)"/>
       <path id="DejaVuSans-74" d="M 1172 4494 
L 1172 3500 
L 2356 3500 
L 2356 3053 
L 1172 3053 
L 1172 1153 
Q 1172 725 1289 603 
Q 1406 481 1766 481 
L 2356 481 
L 2356 0 
L 1766 0 
Q 1100 0 847 248 
Q 594 497 594 1153 
L 594 3053 
L 172 3053 
L 172 3500 
L 594 3500 
L 594 4494 
L 1172 4494 
z
" transform="scale(0.015625)"/>
       <path id="DejaVuSans-61" d="M 2194 1759 
Q 1497 1759 1228 1600 
Q 959 1441 959 1056 
Q 959 750 1161 570 
Q 1363 391 1709 391 
Q 2188 391 2477 730 
Q 2766 1069 2766 1631 
L 2766 1759 
L 2194 1759 
z
M 3341 1997 
L 3341 0 
L 2766 0 
L 2766 531 
Q 2569 213 2275 61 
Q 1981 -91 1556 -91 
Q 1019 -91 701 211 
Q 384 513 384 1019 
Q 384 1609 779 1909 
Q 1175 2209 1959 2209 
L 2766 2209 
L 2766 2266 
Q 2766 2663 2505 2880 
Q 2244 3097 1772 3097 
Q 1472 3097 1187 3025 
Q 903 2953 641 2809 
L 641 3341 
Q 956 3463 1253 3523 
Q 1550 3584 1831 3584 
Q 2591 3584 2966 3190 
Q 3341 2797 3341 1997 
z
" transform="scale(0.015625)"/>
       <path id="DejaVuSans-63" d="M 3122 3366 
L 3122 2828 
Q 2878 2963 2633 3030 
Q 2388 3097 2138 3097 
Q 1578 3097 1268 2742 
Q 959 2388 959 1747 
Q 959 1106 1268 751 
Q 1578 397 2138 397 
Q 2388 397 2633 464 
Q 2878 531 3122 666 
L 3122 134 
Q 2881 22 2623 -34 
Q 2366 -91 2075 -91 
Q 1284 -91 818 406 
Q 353 903 353 1747 
Q 353 2603 823 3093 
Q 1294 3584 2113 3584 
Q 2378 3584 2631 3529 
Q 2884 3475 3122 3366 
z
" transform="scale(0.015625)"/>
       <path id="DejaVuSans-28" d="M 1984 4856 
Q 1566 4138 1362 3434 
Q 1159 2731 1159 2009 
Q 1159 1288 1364 580 
Q 1569 -128 1984 -844 
L 1484 -844 
Q 1016 -109 783 600 
Q 550 1309 550 2009 
Q 550 2706 781 3412 
Q 1013 4119 1484 4856 
L 1984 4856 
z
" transform="scale(0.015625)"/>
       <path id="DejaVuSans-62" d="M 3116 1747 
Q 3116 2381 2855 2742 
Q 2594 3103 2138 3103 
Q 1681 3103 1420 2742 
Q 1159 2381 1159 1747 
Q 1159 1113 1420 752 
Q 1681 391 2138 391 
Q 2594 391 2855 752 
Q 3116 1113 3116 1747 
z
M 1159 2969 
Q 1341 3281 1617 3432 
Q 1894 3584 2278 3584 
Q 2916 3584 3314 3078 
Q 3713 2572 3713 1747 
Q 3713 922 3314 415 
Q 2916 -91 2278 -91 
Q 1894 -91 1617 61 
Q 1341 213 1159 525 
L 1159 0 
L 581 0 
L 581 4863 
L 1159 4863 
L 1159 2969 
z
" transform="scale(0.015625)"/>
       <path id="DejaVuSans-70" d="M 1159 525 
L 1159 -1331 
L 581 -1331 
L 581 3500 
L 1159 3500 
L 1159 2969 
Q 1341 3281 1617 3432 
Q 1894 3584 2278 3584 
Q 2916 3584 3314 3078 
Q 3713 2572 3713 1747 
Q 3713 922 3314 415 
Q 2916 -91 2278 -91 
Q 1894 -91 1617 61 
Q 1341 213 1159 525 
z
M 3116 1747 
Q 3116 2381 2855 2742 
Q 2594 3103 2138 3103 
Q 1681 3103 1420 2742 
Q 1159 2381 1159 1747 
Q 1159 1113 1420 752 
Q 1681 391 2138 391 
Q 2594 391 2855 752 
Q 3116 1113 3116 1747 
z
" transform="scale(0.015625)"/>
       <path id="DejaVuSans-29" d="M 513 4856 
L 1013 4856 
Q 1481 4119 1714 3412 
Q 1947 2706 1947 2009 
Q 1947 1309 1714 600 
Q 1481 -109 1013 -844 
L 513 -844 
Q 928 -128 1133 580 
Q 1338 1288 1338 2009 
Q 1338 2731 1133 3434 
Q 928 4138 513 4856 
z
" transform="scale(0.015625)"/>
      </defs>
      <use xlink:href="#DejaVuSans-49"/>
      <use xlink:href="#DejaVuSans-6e" x="29.492188"/>
      <use xlink:href="#DejaVuSans-6e" x="92.871094"/>
      <use xlink:href="#DejaVuSans-65" x="156.25"/>
      <use xlink:href="#DejaVuSans-72" x="217.773438"/>
      <use xlink:href="#DejaVuSans-20" x="258.886719"/>
      <use xlink:href="#DejaVuSans-44" x="290.673828"/>
      <use xlink:href="#DejaVuSans-69" x="367.675781"/>
      <use xlink:href="#DejaVuSans-73" x="395.458984"/>
      <use xlink:href="#DejaVuSans-74" x="447.558594"/>
      <use xlink:href="#DejaVuSans-61" x="486.767578"/>
      <use xlink:href="#DejaVuSans-6e" x="548.046875"/>
      <use xlink:href="#DejaVuSans-63" x="611.425781"/>
      <use xlink:href="#DejaVuSans-65" x="666.40625"/>
      <use xlink:href="#DejaVuSans-20" x="727.929688"/>
      <use xlink:href="#DejaVuSans-28" x="759.716797"/>
      <use xlink:href="#DejaVuSans-62" x="798.730469"/>
      <use xlink:href="#DejaVuSans-70" x="862.207031"/>
      <use xlink:href="#DejaVuSans-29" x="925.683594"/>
     </g>
    </g>
   </g>
   <g id="matplotlib.axis_2">
    <g id="ytick_1">
     <g id="line2d_1">
      <path d="M 32.968125 262.967005 
L 993.158125 262.967005 
" clip-path="url(#p0690d60b85)" style="fill: none; stroke: #dedede; stroke-linecap: square"/>
     </g>
     <g id="text_7">
      <!-- 0 -->
      <g transform="translate(20.878125 266.00638) scale(0.08 -0.08)">
       <use xlink:href="#DejaVuSans-30"/>
      </g>
     </g>
    </g>
    <g id="ytick_2">
     <g id="line2d_2">
      <path d="M 32.968125 217.14749 
L 993.158125 217.14749 
" clip-path="url(#p0690d60b85)" style="fill: none; stroke: #dedede; stroke-linecap: square"/>
     </g>
     <g id="text_8">
      <!-- 1 -->
      <g transform="translate(20.878125 220.186865) scale(0.08 -0.08)">
       <use xlink:href="#DejaVuSans-31"/>
      </g>
     </g>
    </g>
    <g id="ytick_3">
     <g id="line2d_3">
      <path d="M 32.968125 171.327975 
L 993.158125 171.327975 
" clip-path="url(#p0690d60b85)" style="fill: none; stroke: #dedede; stroke-linecap: square"/>
     </g>
     <g id="text_9">
      <!-- 2 -->
      <g transform="translate(20.878125 174.36735) scale(0.08 -0.08)">
       <use xlink:href="#DejaVuSans-32"/>
      </g>
     </g>
    </g>
    <g id="ytick_4">
     <g id="line2d_4">
      <path d="M 32.968125 125.50846 
L 993.158125 125.50846 
" clip-path="url(#p0690d60b85)" style="fill: none; stroke: #dedede; stroke-linecap: square"/>
     </g>
     <g id="text_10">
      <!-- 3 -->
      <g transform="translate(20.878125 128.547835) scale(0.08 -0.08)">
       <defs>
        <path id="DejaVuSans-33" d="M 2597 2516 
Q 3050 2419 3304 2112 
Q 3559 1806 3559 1356 
Q 3559 666 3084 287 
Q 2609 -91 1734 -91 
Q 1441 -91 1130 -33 
Q 819 25 488 141 
L 488 750 
Q 750 597 1062 519 
Q 1375 441 1716 441 
Q 2309 441 2620 675 
Q 2931 909 2931 1356 
Q 2931 1769 2642 2001 
Q 2353 2234 1838 2234 
L 1294 2234 
L 1294 2753 
L 1863 2753 
Q 2328 2753 2575 2939 
Q 2822 3125 2822 3475 
Q 2822 3834 2567 4026 
Q 2313 4219 1838 4219 
Q 1578 4219 1281 4162 
Q 984 4106 628 3988 
L 628 4550 
Q 988 4650 1302 4700 
Q 1616 4750 1894 4750 
Q 2613 4750 3031 4423 
Q 3450 4097 3450 3541 
Q 3450 3153 3228 2886 
Q 3006 2619 2597 2516 
z
" transform="scale(0.015625)"/>
       </defs>
       <use xlink:href="#DejaVuSans-33"/>
      </g>
     </g>
    </g>
    <g id="ytick_5">
     <g id="line2d_5">
      <path d="M 32.968125 79.688944 
L 993.158125 79.688944 
" clip-path="url(#p0690d60b85)" style="fill: none; stroke: #dedede; stroke-linecap: square"/>
     </g>
     <g id="text_11">
      <!-- 4 -->
      <g transform="translate(20.878125 82.728319) scale(0.08 -0.08)">
       <defs>
        <path id="DejaVuSans-34" d="M 2419 4116 
L 825 1625 
L 2419 1625 
L 2419 4116 
z
M 2253 4666 
L 3047 4666 
L 3047 1625 
L 3713 1625 
L 3713 1100 
L 3047 1100 
L 3047 0 
L 2419 0 
L 2419 1100 
L 313 1100 
L 313 1709 
L 2253 4666 
z
" transform="scale(0.015625)"/>
       </defs>
       <use xlink:href="#DejaVuSans-34"/>
      </g>
     </g>
    </g>
    <g id="ytick_6">
     <g id="line2d_6">
      <path d="M 32.968125 33.869429 
L 993.158125 33.869429 
" clip-path="url(#p0690d60b85)" style="fill: none; stroke: #dedede; stroke-linecap: square"/>
     </g>
     <g id="text_12">
      <!-- 5 -->
      <g transform="translate(20.878125 36.908804) scale(0.08 -0.08)">
       <defs>
        <path id="DejaVuSans-35" d="M 691 4666 
L 3169 4666 
L 3169 4134 
L 1269 4134 
L 1269 2991 
Q 1406 3038 1543 3061 
Q 1681 3084 1819 3084 
Q 2600 3084 3056 2656 
Q 3513 2228 3513 1497 
Q 3513 744 3044 326 
Q 2575 -91 1722 -91 
Q 1428 -91 1123 -41 
Q 819 9 494 109 
L 494 744 
Q 775 591 1075 516 
Q 1375 441 1709 441 
Q 2250 441 2565 725 
Q 2881 1009 2881 1497 
Q 2881 1984 2565 2268 
Q 2250 2553 1709 2553 
Q 1456 2553 1204 2497 
Q 953 2441 691 2322 
L 691 4666 
z
" transform="scale(0.015625)"/>
       </defs>
       <use xlink:href="#DejaVuSans-35"/>
      </g>
     </g>
    </g>
    <g id="text_13">
     <!-- Percentage -->
     <g transform="translate(14.798437 180.859116) rotate(-90) scale(0.1 -0.1)">
      <defs>
       <path id="DejaVuSans-50" d="M 1259 4147 
L 1259 2394 
L 2053 2394 
Q 2494 2394 2734 2622 
Q 2975 2850 2975 3272 
Q 2975 3691 2734 3919 
Q 2494 4147 2053 4147 
L 1259 4147 
z
M 628 4666 
L 2053 4666 
Q 2838 4666 3239 4311 
Q 3641 3956 3641 3272 
Q 3641 2581 3239 2228 
Q 2838 1875 2053 1875 
L 1259 1875 
L 1259 0 
L 628 0 
L 628 4666 
z
" transform="scale(0.015625)"/>
       <path id="DejaVuSans-67" d="M 2906 1791 
Q 2906 2416 2648 2759 
Q 2391 3103 1925 3103 
Q 1463 3103 1205 2759 
Q 947 2416 947 1791 
Q 947 1169 1205 825 
Q 1463 481 1925 481 
Q 2391 481 2648 825 
Q 2906 1169 2906 1791 
z
M 3481 434 
Q 3481 -459 3084 -895 
Q 2688 -1331 1869 -1331 
Q 1566 -1331 1297 -1286 
Q 1028 -1241 775 -1147 
L 775 -588 
Q 1028 -725 1275 -790 
Q 1522 -856 1778 -856 
Q 2344 -856 2625 -561 
Q 2906 -266 2906 331 
L 2906 616 
Q 2728 306 2450 153 
Q 2172 0 1784 0 
Q 1141 0 747 490 
Q 353 981 353 1791 
Q 353 2603 747 3093 
Q 1141 3584 1784 3584 
Q 2172 3584 2450 3431 
Q 2728 3278 2906 2969 
L 2906 3500 
L 3481 3500 
L 3481 434 
z
" transform="scale(0.015625)"/>
      </defs>
      <use xlink:href="#DejaVuSans-50"/>
      <use xlink:href="#DejaVuSans-65" x="56.677734"/>
      <use xlink:href="#DejaVuSans-72" x="118.201172"/>
      <use xlink:href="#DejaVuSans-63" x="157.064453"/>
      <use xlink:href="#DejaVuSans-65" x="212.044922"/>
      <use xlink:href="#DejaVuSans-6e" x="273.568359"/>
      <use xlink:href="#DejaVuSans-74" x="336.947266"/>
      <use xlink:href="#DejaVuSans-61" x="376.15625"/>
      <use xlink:href="#DejaVuSans-67" x="437.435547"/>
      <use xlink:href="#DejaVuSans-65" x="500.912109"/>
     </g>
    </g>
   </g>
   <g id="line2d_7">
    <path d="M 76.613125 262.967005 
L 85.430297 262.967005 
L 94.247468 262.967005 
L 103.06464 262.967005 
L 111.881812 262.967005 
L 120.698984 262.967005 
L 129.516155 262.967005 
L 138.333327 262.967005 
L 147.150499 262.967005 
L 155.96767 262.967005 
L 164.784842 262.967005 
L 173.602014 262.967005 
L 182.419186 262.967005 
L 191.236357 262.967005 
L 200.053529 262.967005 
L 208.870701 262.967005 
L 217.687872 262.967005 
L 226.505044 262.967005 
L 235.322216 262.967005 
L 244.139388 242.022018 
L 252.956559 45.912193 
L 261.773731 43.757299 
L 270.590903 42.505915 
L 279.408074 47.279536 
L 288.225246 52.63778 
L 297.042418 57.691634 
L 305.85959 67.185729 
L 314.676761 77.15332 
L 323.493933 90.058525 
L 332.311105 100.818499 
L 341.128277 115.351953 
L 349.945448 124.662446 
L 358.76262 137.29225 
L 367.579792 145.187085 
L 376.396963 158.285553 
L 385.214135 164.1028 
L 394.031307 174.91109 
L 402.848479 179.6219 
L 411.66565 186.608394 
L 420.482822 188.961383 
L 429.299994 194.222996 
L 438.117165 197.967486 
L 446.934337 201.103195 
L 455.751509 203.620459 
L 464.568681 206.374471 
L 473.385852 209.466695 
L 482.203024 211.017639 
L 491.020196 213.298154 
L 499.837367 214.689655 
L 508.654539 214.032557 
L 517.471711 217.588615 
L 526.288883 220.521397 
L 535.106054 221.366927 
L 543.923226 224.362519 
L 552.740398 224.980964 
L 561.557569 227.493396 
L 570.374741 229.174793 
L 579.191913 230.745063 
L 588.009085 232.010942 
L 596.826256 232.928946 
L 605.643428 234.083699 
L 614.4606 236.253087 
L 623.277771 235.866559 
L 632.094943 238.064937 
L 640.912115 239.123058 
L 649.729287 239.847798 
L 658.546458 241.089519 
L 667.36363 241.509868 
L 676.180802 243.031823 
L 684.997973 243.684089 
L 693.815145 244.002974 
L 702.632317 244.949968 
L 711.449489 245.225369 
L 720.26666 247.322284 
L 729.083832 247.472063 
L 737.901004 247.737801 
L 746.718176 248.54951 
L 755.535347 249.143797 
L 764.352519 249.791231 
L 773.169691 250.462824 
L 781.986862 250.651256 
L 790.804034 250.622267 
L 799.621206 251.656229 
L 808.438378 251.806009 
L 817.255549 252.313327 
L 826.072721 252.211863 
L 834.889893 253.250657 
L 843.707064 253.564711 
L 852.524236 253.830449 
L 861.341408 254.415073 
L 870.15858 254.598674 
L 878.975751 254.729127 
L 887.792923 255.352403 
L 896.610095 255.163971 
L 905.427266 255.598815 
L 914.244438 256.139954 
L 923.06161 256.545809 
L 931.878782 255.985343 
L 940.695953 256.879189 
L 949.513125 256.874357 
" clip-path="url(#p0690d60b85)" style="fill: none; stroke: #7cb5ec; stroke-linecap: square"/>
   </g>
   <g id="line2d_8">
    <path d="M 76.613125 262.967005 
L 85.430297 262.967005 
L 94.247468 262.967005 
L 103.06464 262.967005 
L 111.881812 262.967005 
L 120.698984 262.967005 
L 129.516155 262.967005 
L 138.333327 262.967005 
L 147.150499 262.967005 
L 155.96767 262.967005 
L 164.784842 262.967005 
L 173.602014 262.967005 
L 182.419186 262.967005 
L 191.236357 262.967005 
L 200.053529 262.967005 
L 208.870701 262.967005 
L 217.687872 262.967005 
L 226.505044 262.967005 
L 235.322216 262.967005 
L 244.139388 242.634073 
L 252.956559 49.765822 
L 261.773731 48.577722 
L 270.590903 50.09424 
L 279.408074 53.315633 
L 288.225246 60.405597 
L 297.042418 65.26425 
L 305.85959 77.237015 
L 314.676761 84.124132 
L 323.493933 93.846268 
L 332.311105 104.558488 
L 341.128277 116.304258 
L 349.945448 123.85304 
L 358.76262 135.01442 
L 367.579792 143.857555 
L 376.396963 154.34278 
L 385.214135 160.070775 
L 394.031307 168.875273 
L 402.848479 176.05217 
L 411.66565 181.379302 
L 420.482822 186.696774 
L 429.299994 191.893505 
L 438.117165 194.04271 
L 446.934337 198.408737 
L 455.751509 200.760788 
L 464.568681 204.518276 
L 473.385852 206.083091 
L 482.203024 208.845665 
L 491.020196 210.212463 
L 499.837367 211.74347 
L 508.654539 212.226437 
L 517.471711 216.703546 
L 526.288883 217.809542 
L 535.106054 219.533736 
L 543.923226 222.359096 
L 552.740398 224.281307 
L 561.557569 226.652677 
L 570.374741 227.686228 
L 579.191913 229.057856 
L 588.009085 231.661051 
L 596.826256 232.655964 
L 605.643428 233.844064 
L 614.4606 235.336433 
L 623.277771 236.114011 
L 632.094943 237.133073 
L 640.912115 238.760673 
L 649.729287 240.026048 
L 658.546458 240.731181 
L 667.36363 242.054512 
L 676.180802 242.996298 
L 684.997973 243.542052 
L 693.815145 243.942915 
L 702.632317 245.097207 
L 711.449489 245.725065 
L 720.26666 247.352665 
L 729.083832 247.637616 
L 737.901004 248.091606 
L 746.718176 249.22175 
L 755.535347 249.574316 
L 764.352519 250.269789 
L 773.169691 250.042795 
L 781.986862 251.134301 
L 790.804034 251.670395 
L 799.621206 251.849093 
L 808.438378 252.264445 
L 817.255549 253.032364 
L 826.072721 253.061342 
L 834.889893 253.264188 
L 843.707064 253.597436 
L 852.524236 253.882386 
L 861.341408 254.408821 
L 870.15858 254.804854 
L 878.975751 255.01736 
L 887.792923 255.538965 
L 896.610095 255.688685 
L 905.427266 256.128185 
L 914.244438 255.949487 
L 923.06161 256.239268 
L 931.878782 256.326202 
L 940.695953 256.741554 
L 949.513125 256.876785 
" clip-path="url(#p0690d60b85)" style="fill: none; stroke: #434348; stroke-linecap: square"/>
   </g>
   <g id="line2d_9">
    <path d="M 32.968125 262.967005 
L 993.158125 262.967005 
" clip-path="url(#p0690d60b85)" style="fill: none; stroke: #dedede; stroke-width: 2; stroke-linecap: square"/>
   </g>
   <g id="text_14">
    <!-- RSeQC: Inner Distance -->
    <g transform="translate(422.148125 19.3575) scale(0.16 -0.16)">
     <defs>
      <path id="DejaVuSans-52" d="M 2841 2188 
Q 3044 2119 3236 1894 
Q 3428 1669 3622 1275 
L 4263 0 
L 3584 0 
L 2988 1197 
Q 2756 1666 2539 1819 
Q 2322 1972 1947 1972 
L 1259 1972 
L 1259 0 
L 628 0 
L 628 4666 
L 2053 4666 
Q 2853 4666 3247 4331 
Q 3641 3997 3641 3322 
Q 3641 2881 3436 2590 
Q 3231 2300 2841 2188 
z
M 1259 4147 
L 1259 2491 
L 2053 2491 
Q 2509 2491 2742 2702 
Q 2975 2913 2975 3322 
Q 2975 3731 2742 3939 
Q 2509 4147 2053 4147 
L 1259 4147 
z
" transform="scale(0.015625)"/>
      <path id="DejaVuSans-53" d="M 3425 4513 
L 3425 3897 
Q 3066 4069 2747 4153 
Q 2428 4238 2131 4238 
Q 1616 4238 1336 4038 
Q 1056 3838 1056 3469 
Q 1056 3159 1242 3001 
Q 1428 2844 1947 2747 
L 2328 2669 
Q 3034 2534 3370 2195 
Q 3706 1856 3706 1288 
Q 3706 609 3251 259 
Q 2797 -91 1919 -91 
Q 1588 -91 1214 -16 
Q 841 59 441 206 
L 441 856 
Q 825 641 1194 531 
Q 1563 422 1919 422 
Q 2459 422 2753 634 
Q 3047 847 3047 1241 
Q 3047 1584 2836 1778 
Q 2625 1972 2144 2069 
L 1759 2144 
Q 1053 2284 737 2584 
Q 422 2884 422 3419 
Q 422 4038 858 4394 
Q 1294 4750 2059 4750 
Q 2388 4750 2728 4690 
Q 3069 4631 3425 4513 
z
" transform="scale(0.015625)"/>
      <path id="DejaVuSans-51" d="M 2522 4238 
Q 1834 4238 1429 3725 
Q 1025 3213 1025 2328 
Q 1025 1447 1429 934 
Q 1834 422 2522 422 
Q 3209 422 3611 934 
Q 4013 1447 4013 2328 
Q 4013 3213 3611 3725 
Q 3209 4238 2522 4238 
z
M 3406 84 
L 4238 -825 
L 3475 -825 
L 2784 -78 
Q 2681 -84 2626 -87 
Q 2572 -91 2522 -91 
Q 1538 -91 948 567 
Q 359 1225 359 2328 
Q 359 3434 948 4092 
Q 1538 4750 2522 4750 
Q 3503 4750 4090 4092 
Q 4678 3434 4678 2328 
Q 4678 1516 4351 937 
Q 4025 359 3406 84 
z
" transform="scale(0.015625)"/>
      <path id="DejaVuSans-43" d="M 4122 4306 
L 4122 3641 
Q 3803 3938 3442 4084 
Q 3081 4231 2675 4231 
Q 1875 4231 1450 3742 
Q 1025 3253 1025 2328 
Q 1025 1406 1450 917 
Q 1875 428 2675 428 
Q 3081 428 3442 575 
Q 3803 722 4122 1019 
L 4122 359 
Q 3791 134 3420 21 
Q 3050 -91 2638 -91 
Q 1578 -91 968 557 
Q 359 1206 359 2328 
Q 359 3453 968 4101 
Q 1578 4750 2638 4750 
Q 3056 4750 3426 4639 
Q 3797 4528 4122 4306 
z
" transform="scale(0.015625)"/>
      <path id="DejaVuSans-3a" d="M 750 794 
L 1409 794 
L 1409 0 
L 750 0 
L 750 794 
z
M 750 3309 
L 1409 3309 
L 1409 2516 
L 750 2516 
L 750 3309 
z
" transform="scale(0.015625)"/>
     </defs>
     <use xlink:href="#DejaVuSans-52"/>
     <use xlink:href="#DejaVuSans-53" x="69.482422"/>
     <use xlink:href="#DejaVuSans-65" x="132.958984"/>
     <use xlink:href="#DejaVuSans-51" x="194.482422"/>
     <use xlink:href="#DejaVuSans-43" x="273.193359"/>
     <use xlink:href="#DejaVuSans-3a" x="343.017578"/>
     <use xlink:href="#DejaVuSans-20" x="376.708984"/>
     <use xlink:href="#DejaVuSans-49" x="408.496094"/>
     <use xlink:href="#DejaVuSans-6e" x="437.988281"/>
     <use xlink:href="#DejaVuSans-6e" x="501.367188"/>
     <use xlink:href="#DejaVuSans-65" x="564.746094"/>
     <use xlink:href="#DejaVuSans-72" x="626.269531"/>
     <use xlink:href="#DejaVuSans-20" x="667.382812"/>
     <use xlink:href="#DejaVuSans-44" x="699.169922"/>
     <use xlink:href="#DejaVuSans-69" x="776.171875"/>
     <use xlink:href="#DejaVuSans-73" x="803.955078"/>
     <use xlink:href="#DejaVuSans-74" x="856.054688"/>
     <use xlink:href="#DejaVuSans-61" x="895.263672"/>
     <use xlink:href="#DejaVuSans-6e" x="956.542969"/>
     <use xlink:href="#DejaVuSans-63" x="1019.921875"/>
     <use xlink:href="#DejaVuSans-65" x="1074.902344"/>
    </g>
   </g>
   <g id="legend_1">
    <g id="line2d_10">
     <path d="M 40.168125 315.455394 
L 48.168125 315.455394 
L 56.168125 315.455394 
" style="fill: none; stroke: #7cb5ec; stroke-linecap: square"/>
    </g>
    <g id="text_15">
     <!-- Minus_cre_p53mut -->
     <g transform="translate(62.568125 318.255394) scale(0.08 -0.08)">
      <defs>
       <path id="DejaVuSans-4d" d="M 628 4666 
L 1569 4666 
L 2759 1491 
L 3956 4666 
L 4897 4666 
L 4897 0 
L 4281 0 
L 4281 4097 
L 3078 897 
L 2444 897 
L 1241 4097 
L 1241 0 
L 628 0 
L 628 4666 
z
" transform="scale(0.015625)"/>
       <path id="DejaVuSans-75" d="M 544 1381 
L 544 3500 
L 1119 3500 
L 1119 1403 
Q 1119 906 1312 657 
Q 1506 409 1894 409 
Q 2359 409 2629 706 
Q 2900 1003 2900 1516 
L 2900 3500 
L 3475 3500 
L 3475 0 
L 2900 0 
L 2900 538 
Q 2691 219 2414 64 
Q 2138 -91 1772 -91 
Q 1169 -91 856 284 
Q 544 659 544 1381 
z
M 1991 3584 
L 1991 3584 
z
" transform="scale(0.015625)"/>
       <path id="DejaVuSans-5f" d="M 3263 -1063 
L 3263 -1509 
L -63 -1509 
L -63 -1063 
L 3263 -1063 
z
" transform="scale(0.015625)"/>
       <path id="DejaVuSans-6d" d="M 3328 2828 
Q 3544 3216 3844 3400 
Q 4144 3584 4550 3584 
Q 5097 3584 5394 3201 
Q 5691 2819 5691 2113 
L 5691 0 
L 5113 0 
L 5113 2094 
Q 5113 2597 4934 2840 
Q 4756 3084 4391 3084 
Q 3944 3084 3684 2787 
Q 3425 2491 3425 1978 
L 3425 0 
L 2847 0 
L 2847 2094 
Q 2847 2600 2669 2842 
Q 2491 3084 2119 3084 
Q 1678 3084 1418 2786 
Q 1159 2488 1159 1978 
L 1159 0 
L 581 0 
L 581 3500 
L 1159 3500 
L 1159 2956 
Q 1356 3278 1631 3431 
Q 1906 3584 2284 3584 
Q 2666 3584 2933 3390 
Q 3200 3197 3328 2828 
z
" transform="scale(0.015625)"/>
      </defs>
      <use xlink:href="#DejaVuSans-4d"/>
      <use xlink:href="#DejaVuSans-69" x="86.279297"/>
      <use xlink:href="#DejaVuSans-6e" x="114.0625"/>
      <use xlink:href="#DejaVuSans-75" x="177.441406"/>
      <use xlink:href="#DejaVuSans-73" x="240.820312"/>
      <use xlink:href="#DejaVuSans-5f" x="292.919922"/>
      <use xlink:href="#DejaVuSans-63" x="342.919922"/>
      <use xlink:href="#DejaVuSans-72" x="397.900391"/>
      <use xlink:href="#DejaVuSans-65" x="436.763672"/>
      <use xlink:href="#DejaVuSans-5f" x="498.287109"/>
      <use xlink:href="#DejaVuSans-70" x="548.287109"/>
      <use xlink:href="#DejaVuSans-35" x="611.763672"/>
      <use xlink:href="#DejaVuSans-33" x="675.386719"/>
      <use xlink:href="#DejaVuSans-6d" x="739.009766"/>
      <use xlink:href="#DejaVuSans-75" x="836.421875"/>
      <use xlink:href="#DejaVuSans-74" x="899.800781"/>
     </g>
    </g>
    <g id="line2d_11">
     <path d="M 895.586875 315.455394 
L 903.586875 315.455394 
L 911.586875 315.455394 
" style="fill: none; stroke: #434348; stroke-linecap: square"/>
    </g>
    <g id="text_16">
     <!-- Plus_cre_p53mut -->
     <g transform="translate(917.986875 318.255394) scale(0.08 -0.08)">
      <defs>
       <path id="DejaVuSans-6c" d="M 603 4863 
L 1178 4863 
L 1178 0 
L 603 0 
L 603 4863 
z
" transform="scale(0.015625)"/>
      </defs>
      <use xlink:href="#DejaVuSans-50"/>
      <use xlink:href="#DejaVuSans-6c" x="60.302734"/>
      <use xlink:href="#DejaVuSans-75" x="88.085938"/>
      <use xlink:href="#DejaVuSans-73" x="151.464844"/>
      <use xlink:href="#DejaVuSans-5f" x="203.564453"/>
      <use xlink:href="#DejaVuSans-63" x="253.564453"/>
      <use xlink:href="#DejaVuSans-72" x="308.544922"/>
      <use xlink:href="#DejaVuSans-65" x="347.408203"/>
      <use xlink:href="#DejaVuSans-5f" x="408.931641"/>
      <use xlink:href="#DejaVuSans-70" x="458.931641"/>
      <use xlink:href="#DejaVuSans-35" x="522.408203"/>
      <use xlink:href="#DejaVuSans-33" x="586.03125"/>
      <use xlink:href="#DejaVuSans-6d" x="649.654297"/>
      <use xlink:href="#DejaVuSans-75" x="747.066406"/>
      <use xlink:href="#DejaVuSans-74" x="810.445312"/>
     </g>
    </g>
   </g>
  </g>
 </g>
 <defs>
  <clipPath id="p0690d60b85">
   <rect x="32.968125" y="31.48286" width="960.19" height="242.5072"/>
  </clipPath>
 </defs>
</svg>
