<?xml version="1.0" encoding="utf-8" standalone="no"?>
<!DOCTYPE svg PUBLIC "-//W3C//DTD SVG 1.1//EN"
  "http://www.w3.org/Graphics/SVG/1.1/DTD/svg11.dtd">
<svg xmlns:xlink="http://www.w3.org/1999/xlink" width="1000.260625pt" height="330.541644pt" viewBox="0 0 1000.260625 330.541644" xmlns="http://www.w3.org/2000/svg" version="1.1">
 <metadata>
  <rdf:RDF xmlns:dc="http://purl.org/dc/elements/1.1/" xmlns:cc="http://creativecommons.org/ns#" xmlns:rdf="http://www.w3.org/1999/02/22-rdf-syntax-ns#">
   <cc:Work>
    <dc:type rdf:resource="http://purl.org/dc/dcmitype/StillImage"/>
    <dc:date>2025-05-20T01:35:14.491961</dc:date>
    <dc:format>image/svg+xml</dc:format>
    <dc:creator>
     <cc:Agent>
      <dc:title>Matplotlib v3.8.2, https://matplotlib.org/</dc:title>
     </cc:Agent>
    </dc:creator>
   </cc:Work>
  </rdf:RDF>
 </metadata>
 <defs>
  <style type="text/css">*{stroke-linejoin: round; stroke-linecap: butt}</style>
 </defs>
 <g id="figure_1">
  <g id="axes_1">
   <g id="patch_1">
    <path d="M 50.780625 273.99006 
L 993.060625 273.99006 
L 993.060625 31.48286 
L 50.780625 31.48286 
z
" style="fill: #ffffff"/>
   </g>
   <g id="matplotlib.axis_1">
    <g id="xtick_1">
     <g id="text_1">
      <!-- 0 -->
      <g transform="translate(48.235625 287.06881) scale(0.08 -0.08)">
       <defs>
        <path id="DejaVuSans-30" d="M 2034 4250 
Q 1547 4250 1301 3770 
Q 1056 3291 1056 2328 
Q 1056 1369 1301 889 
Q 1547 409 2034 409 
Q 2525 409 2770 889 
Q 3016 1369 3016 2328 
Q 3016 3291 2770 3770 
Q 2525 4250 2034 4250 
z
M 2034 4750 
Q 2819 4750 3233 4129 
Q 3647 3509 3647 2328 
Q 3647 1150 3233 529 
Q 2819 -91 2034 -91 
Q 1250 -91 836 529 
Q 422 1150 422 2328 
Q 422 3509 836 4129 
Q 1250 4750 2034 4750 
z
" transform="scale(0.015625)"/>
       </defs>
       <use xlink:href="#DejaVuSans-30"/>
      </g>
     </g>
    </g>
    <g id="xtick_2">
     <g id="text_2">
      <!-- 200 -->
      <g transform="translate(222.62753 287.06881) scale(0.08 -0.08)">
       <defs>
        <path id="DejaVuSans-32" d="M 1228 531 
L 3431 531 
L 3431 0 
L 469 0 
L 469 531 
Q 828 903 1448 1529 
Q 2069 2156 2228 2338 
Q 2531 2678 2651 2914 
Q 2772 3150 2772 3378 
Q 2772 3750 2511 3984 
Q 2250 4219 1831 4219 
Q 1534 4219 1204 4116 
Q 875 4013 500 3803 
L 500 4441 
Q 881 4594 1212 4672 
Q 1544 4750 1819 4750 
Q 2544 4750 2975 4387 
Q 3406 4025 3406 3419 
Q 3406 3131 3298 2873 
Q 3191 2616 2906 2266 
Q 2828 2175 2409 1742 
Q 1991 1309 1228 531 
z
" transform="scale(0.015625)"/>
       </defs>
       <use xlink:href="#DejaVuSans-32"/>
       <use xlink:href="#DejaVuSans-30" x="63.623047"/>
       <use xlink:href="#DejaVuSans-30" x="127.246094"/>
      </g>
     </g>
    </g>
    <g id="xtick_3">
     <g id="text_3">
      <!-- 400 -->
      <g transform="translate(402.109435 287.06881) scale(0.08 -0.08)">
       <defs>
        <path id="DejaVuSans-34" d="M 2419 4116 
L 825 1625 
L 2419 1625 
L 2419 4116 
z
M 2253 4666 
L 3047 4666 
L 3047 1625 
L 3713 1625 
L 3713 1100 
L 3047 1100 
L 3047 0 
L 2419 0 
L 2419 1100 
L 313 1100 
L 313 1709 
L 2253 4666 
z
" transform="scale(0.015625)"/>
       </defs>
       <use xlink:href="#DejaVuSans-34"/>
       <use xlink:href="#DejaVuSans-30" x="63.623047"/>
       <use xlink:href="#DejaVuSans-30" x="127.246094"/>
      </g>
     </g>
    </g>
    <g id="xtick_4">
     <g id="text_4">
      <!-- 600 -->
      <g transform="translate(581.591339 287.06881) scale(0.08 -0.08)">
       <defs>
        <path id="DejaVuSans-36" d="M 2113 2584 
Q 1688 2584 1439 2293 
Q 1191 2003 1191 1497 
Q 1191 994 1439 701 
Q 1688 409 2113 409 
Q 2538 409 2786 701 
Q 3034 994 3034 1497 
Q 3034 2003 2786 2293 
Q 2538 2584 2113 2584 
z
M 3366 4563 
L 3366 3988 
Q 3128 4100 2886 4159 
Q 2644 4219 2406 4219 
Q 1781 4219 1451 3797 
Q 1122 3375 1075 2522 
Q 1259 2794 1537 2939 
Q 1816 3084 2150 3084 
Q 2853 3084 3261 2657 
Q 3669 2231 3669 1497 
Q 3669 778 3244 343 
Q 2819 -91 2113 -91 
Q 1303 -91 875 529 
Q 447 1150 447 2328 
Q 447 3434 972 4092 
Q 1497 4750 2381 4750 
Q 2619 4750 2861 4703 
Q 3103 4656 3366 4563 
z
" transform="scale(0.015625)"/>
       </defs>
       <use xlink:href="#DejaVuSans-36"/>
       <use xlink:href="#DejaVuSans-30" x="63.623047"/>
       <use xlink:href="#DejaVuSans-30" x="127.246094"/>
      </g>
     </g>
    </g>
    <g id="xtick_5">
     <g id="text_5">
      <!-- 800 -->
      <g transform="translate(761.073244 287.06881) scale(0.08 -0.08)">
       <defs>
        <path id="DejaVuSans-38" d="M 2034 2216 
Q 1584 2216 1326 1975 
Q 1069 1734 1069 1313 
Q 1069 891 1326 650 
Q 1584 409 2034 409 
Q 2484 409 2743 651 
Q 3003 894 3003 1313 
Q 3003 1734 2745 1975 
Q 2488 2216 2034 2216 
z
M 1403 2484 
Q 997 2584 770 2862 
Q 544 3141 544 3541 
Q 544 4100 942 4425 
Q 1341 4750 2034 4750 
Q 2731 4750 3128 4425 
Q 3525 4100 3525 3541 
Q 3525 3141 3298 2862 
Q 3072 2584 2669 2484 
Q 3125 2378 3379 2068 
Q 3634 1759 3634 1313 
Q 3634 634 3220 271 
Q 2806 -91 2034 -91 
Q 1263 -91 848 271 
Q 434 634 434 1313 
Q 434 1759 690 2068 
Q 947 2378 1403 2484 
z
M 1172 3481 
Q 1172 3119 1398 2916 
Q 1625 2713 2034 2713 
Q 2441 2713 2670 2916 
Q 2900 3119 2900 3481 
Q 2900 3844 2670 4047 
Q 2441 4250 2034 4250 
Q 1625 4250 1398 4047 
Q 1172 3844 1172 3481 
z
" transform="scale(0.015625)"/>
       </defs>
       <use xlink:href="#DejaVuSans-38"/>
       <use xlink:href="#DejaVuSans-30" x="63.623047"/>
       <use xlink:href="#DejaVuSans-30" x="127.246094"/>
      </g>
     </g>
    </g>
    <g id="xtick_6">
     <g id="text_6">
      <!-- 1000 -->
      <g transform="translate(938.010149 287.06881) scale(0.08 -0.08)">
       <defs>
        <path id="DejaVuSans-31" d="M 794 531 
L 1825 531 
L 1825 4091 
L 703 3866 
L 703 4441 
L 1819 4666 
L 2450 4666 
L 2450 531 
L 3481 531 
L 3481 0 
L 794 0 
L 794 531 
z
" transform="scale(0.015625)"/>
       </defs>
       <use xlink:href="#DejaVuSans-31"/>
       <use xlink:href="#DejaVuSans-30" x="63.623047"/>
       <use xlink:href="#DejaVuSans-30" x="127.246094"/>
       <use xlink:href="#DejaVuSans-30" x="190.869141"/>
      </g>
     </g>
    </g>
    <g id="text_7">
     <!-- Fragment Length (bp) -->
     <g transform="translate(467.362813 300.330997) scale(0.1 -0.1)">
      <defs>
       <path id="DejaVuSans-46" d="M 628 4666 
L 3309 4666 
L 3309 4134 
L 1259 4134 
L 1259 2759 
L 3109 2759 
L 3109 2228 
L 1259 2228 
L 1259 0 
L 628 0 
L 628 4666 
z
" transform="scale(0.015625)"/>
       <path id="DejaVuSans-72" d="M 2631 2963 
Q 2534 3019 2420 3045 
Q 2306 3072 2169 3072 
Q 1681 3072 1420 2755 
Q 1159 2438 1159 1844 
L 1159 0 
L 581 0 
L 581 3500 
L 1159 3500 
L 1159 2956 
Q 1341 3275 1631 3429 
Q 1922 3584 2338 3584 
Q 2397 3584 2469 3576 
Q 2541 3569 2628 3553 
L 2631 2963 
z
" transform="scale(0.015625)"/>
       <path id="DejaVuSans-61" d="M 2194 1759 
Q 1497 1759 1228 1600 
Q 959 1441 959 1056 
Q 959 750 1161 570 
Q 1363 391 1709 391 
Q 2188 391 2477 730 
Q 2766 1069 2766 1631 
L 2766 1759 
L 2194 1759 
z
M 3341 1997 
L 3341 0 
L 2766 0 
L 2766 531 
Q 2569 213 2275 61 
Q 1981 -91 1556 -91 
Q 1019 -91 701 211 
Q 384 513 384 1019 
Q 384 1609 779 1909 
Q 1175 2209 1959 2209 
L 2766 2209 
L 2766 2266 
Q 2766 2663 2505 2880 
Q 2244 3097 1772 3097 
Q 1472 3097 1187 3025 
Q 903 2953 641 2809 
L 641 3341 
Q 956 3463 1253 3523 
Q 1550 3584 1831 3584 
Q 2591 3584 2966 3190 
Q 3341 2797 3341 1997 
z
" transform="scale(0.015625)"/>
       <path id="DejaVuSans-67" d="M 2906 1791 
Q 2906 2416 2648 2759 
Q 2391 3103 1925 3103 
Q 1463 3103 1205 2759 
Q 947 2416 947 1791 
Q 947 1169 1205 825 
Q 1463 481 1925 481 
Q 2391 481 2648 825 
Q 2906 1169 2906 1791 
z
M 3481 434 
Q 3481 -459 3084 -895 
Q 2688 -1331 1869 -1331 
Q 1566 -1331 1297 -1286 
Q 1028 -1241 775 -1147 
L 775 -588 
Q 1028 -725 1275 -790 
Q 1522 -856 1778 -856 
Q 2344 -856 2625 -561 
Q 2906 -266 2906 331 
L 2906 616 
Q 2728 306 2450 153 
Q 2172 0 1784 0 
Q 1141 0 747 490 
Q 353 981 353 1791 
Q 353 2603 747 3093 
Q 1141 3584 1784 3584 
Q 2172 3584 2450 3431 
Q 2728 3278 2906 2969 
L 2906 3500 
L 3481 3500 
L 3481 434 
z
" transform="scale(0.015625)"/>
       <path id="DejaVuSans-6d" d="M 3328 2828 
Q 3544 3216 3844 3400 
Q 4144 3584 4550 3584 
Q 5097 3584 5394 3201 
Q 5691 2819 5691 2113 
L 5691 0 
L 5113 0 
L 5113 2094 
Q 5113 2597 4934 2840 
Q 4756 3084 4391 3084 
Q 3944 3084 3684 2787 
Q 3425 2491 3425 1978 
L 3425 0 
L 2847 0 
L 2847 2094 
Q 2847 2600 2669 2842 
Q 2491 3084 2119 3084 
Q 1678 3084 1418 2786 
Q 1159 2488 1159 1978 
L 1159 0 
L 581 0 
L 581 3500 
L 1159 3500 
L 1159 2956 
Q 1356 3278 1631 3431 
Q 1906 3584 2284 3584 
Q 2666 3584 2933 3390 
Q 3200 3197 3328 2828 
z
" transform="scale(0.015625)"/>
       <path id="DejaVuSans-65" d="M 3597 1894 
L 3597 1613 
L 953 1613 
Q 991 1019 1311 708 
Q 1631 397 2203 397 
Q 2534 397 2845 478 
Q 3156 559 3463 722 
L 3463 178 
Q 3153 47 2828 -22 
Q 2503 -91 2169 -91 
Q 1331 -91 842 396 
Q 353 884 353 1716 
Q 353 2575 817 3079 
Q 1281 3584 2069 3584 
Q 2775 3584 3186 3129 
Q 3597 2675 3597 1894 
z
M 3022 2063 
Q 3016 2534 2758 2815 
Q 2500 3097 2075 3097 
Q 1594 3097 1305 2825 
Q 1016 2553 972 2059 
L 3022 2063 
z
" transform="scale(0.015625)"/>
       <path id="DejaVuSans-6e" d="M 3513 2113 
L 3513 0 
L 2938 0 
L 2938 2094 
Q 2938 2591 2744 2837 
Q 2550 3084 2163 3084 
Q 1697 3084 1428 2787 
Q 1159 2491 1159 1978 
L 1159 0 
L 581 0 
L 581 3500 
L 1159 3500 
L 1159 2956 
Q 1366 3272 1645 3428 
Q 1925 3584 2291 3584 
Q 2894 3584 3203 3211 
Q 3513 2838 3513 2113 
z
" transform="scale(0.015625)"/>
       <path id="DejaVuSans-74" d="M 1172 4494 
L 1172 3500 
L 2356 3500 
L 2356 3053 
L 1172 3053 
L 1172 1153 
Q 1172 725 1289 603 
Q 1406 481 1766 481 
L 2356 481 
L 2356 0 
L 1766 0 
Q 1100 0 847 248 
Q 594 497 594 1153 
L 594 3053 
L 172 3053 
L 172 3500 
L 594 3500 
L 594 4494 
L 1172 4494 
z
" transform="scale(0.015625)"/>
       <path id="DejaVuSans-20" transform="scale(0.015625)"/>
       <path id="DejaVuSans-4c" d="M 628 4666 
L 1259 4666 
L 1259 531 
L 3531 531 
L 3531 0 
L 628 0 
L 628 4666 
z
" transform="scale(0.015625)"/>
       <path id="DejaVuSans-68" d="M 3513 2113 
L 3513 0 
L 2938 0 
L 2938 2094 
Q 2938 2591 2744 2837 
Q 2550 3084 2163 3084 
Q 1697 3084 1428 2787 
Q 1159 2491 1159 1978 
L 1159 0 
L 581 0 
L 581 4863 
L 1159 4863 
L 1159 2956 
Q 1366 3272 1645 3428 
Q 1925 3584 2291 3584 
Q 2894 3584 3203 3211 
Q 3513 2838 3513 2113 
z
" transform="scale(0.015625)"/>
       <path id="DejaVuSans-28" d="M 1984 4856 
Q 1566 4138 1362 3434 
Q 1159 2731 1159 2009 
Q 1159 1288 1364 580 
Q 1569 -128 1984 -844 
L 1484 -844 
Q 1016 -109 783 600 
Q 550 1309 550 2009 
Q 550 2706 781 3412 
Q 1013 4119 1484 4856 
L 1984 4856 
z
" transform="scale(0.015625)"/>
       <path id="DejaVuSans-62" d="M 3116 1747 
Q 3116 2381 2855 2742 
Q 2594 3103 2138 3103 
Q 1681 3103 1420 2742 
Q 1159 2381 1159 1747 
Q 1159 1113 1420 752 
Q 1681 391 2138 391 
Q 2594 391 2855 752 
Q 3116 1113 3116 1747 
z
M 1159 2969 
Q 1341 3281 1617 3432 
Q 1894 3584 2278 3584 
Q 2916 3584 3314 3078 
Q 3713 2572 3713 1747 
Q 3713 922 3314 415 
Q 2916 -91 2278 -91 
Q 1894 -91 1617 61 
Q 1341 213 1159 525 
L 1159 0 
L 581 0 
L 581 4863 
L 1159 4863 
L 1159 2969 
z
" transform="scale(0.015625)"/>
       <path id="DejaVuSans-70" d="M 1159 525 
L 1159 -1331 
L 581 -1331 
L 581 3500 
L 1159 3500 
L 1159 2969 
Q 1341 3281 1617 3432 
Q 1894 3584 2278 3584 
Q 2916 3584 3314 3078 
Q 3713 2572 3713 1747 
Q 3713 922 3314 415 
Q 2916 -91 2278 -91 
Q 1894 -91 1617 61 
Q 1341 213 1159 525 
z
M 3116 1747 
Q 3116 2381 2855 2742 
Q 2594 3103 2138 3103 
Q 1681 3103 1420 2742 
Q 1159 2381 1159 1747 
Q 1159 1113 1420 752 
Q 1681 391 2138 391 
Q 2594 391 2855 752 
Q 3116 1113 3116 1747 
z
" transform="scale(0.015625)"/>
       <path id="DejaVuSans-29" d="M 513 4856 
L 1013 4856 
Q 1481 4119 1714 3412 
Q 1947 2706 1947 2009 
Q 1947 1309 1714 600 
Q 1481 -109 1013 -844 
L 513 -844 
Q 928 -128 1133 580 
Q 1338 1288 1338 2009 
Q 1338 2731 1133 3434 
Q 928 4138 513 4856 
z
" transform="scale(0.015625)"/>
      </defs>
      <use xlink:href="#DejaVuSans-46"/>
      <use xlink:href="#DejaVuSans-72" x="50.269531"/>
      <use xlink:href="#DejaVuSans-61" x="91.382812"/>
      <use xlink:href="#DejaVuSans-67" x="152.662109"/>
      <use xlink:href="#DejaVuSans-6d" x="216.138672"/>
      <use xlink:href="#DejaVuSans-65" x="313.550781"/>
      <use xlink:href="#DejaVuSans-6e" x="375.074219"/>
      <use xlink:href="#DejaVuSans-74" x="438.453125"/>
      <use xlink:href="#DejaVuSans-20" x="477.662109"/>
      <use xlink:href="#DejaVuSans-4c" x="509.449219"/>
      <use xlink:href="#DejaVuSans-65" x="563.412109"/>
      <use xlink:href="#DejaVuSans-6e" x="624.935547"/>
      <use xlink:href="#DejaVuSans-67" x="688.314453"/>
      <use xlink:href="#DejaVuSans-74" x="751.791016"/>
      <use xlink:href="#DejaVuSans-68" x="791"/>
      <use xlink:href="#DejaVuSans-20" x="854.378906"/>
      <use xlink:href="#DejaVuSans-28" x="886.166016"/>
      <use xlink:href="#DejaVuSans-62" x="925.179688"/>
      <use xlink:href="#DejaVuSans-70" x="988.65625"/>
      <use xlink:href="#DejaVuSans-29" x="1052.132812"/>
     </g>
    </g>
   </g>
   <g id="matplotlib.axis_2">
    <g id="ytick_1">
     <g id="line2d_1">
      <path d="M 50.780625 273.99006 
L 993.060625 273.99006 
" clip-path="url(#pf5baf330ff)" style="fill: none; stroke: #dedede; stroke-linecap: square"/>
     </g>
     <g id="text_8">
      <!-- 0.000 -->
      <g transform="translate(20.878125 277.029435) scale(0.08 -0.08)">
       <defs>
        <path id="DejaVuSans-2e" d="M 684 794 
L 1344 794 
L 1344 0 
L 684 0 
L 684 794 
z
" transform="scale(0.015625)"/>
       </defs>
       <use xlink:href="#DejaVuSans-30"/>
       <use xlink:href="#DejaVuSans-2e" x="63.623047"/>
       <use xlink:href="#DejaVuSans-30" x="95.410156"/>
       <use xlink:href="#DejaVuSans-30" x="159.033203"/>
       <use xlink:href="#DejaVuSans-30" x="222.65625"/>
      </g>
     </g>
    </g>
    <g id="ytick_2">
     <g id="line2d_2">
      <path d="M 50.780625 227.139969 
L 993.060625 227.139969 
" clip-path="url(#pf5baf330ff)" style="fill: none; stroke: #dedede; stroke-linecap: square"/>
     </g>
     <g id="text_9">
      <!-- 0.001 -->
      <g transform="translate(20.878125 230.179344) scale(0.08 -0.08)">
       <use xlink:href="#DejaVuSans-30"/>
       <use xlink:href="#DejaVuSans-2e" x="63.623047"/>
       <use xlink:href="#DejaVuSans-30" x="95.410156"/>
       <use xlink:href="#DejaVuSans-30" x="159.033203"/>
       <use xlink:href="#DejaVuSans-31" x="222.65625"/>
      </g>
     </g>
    </g>
    <g id="ytick_3">
     <g id="line2d_3">
      <path d="M 50.780625 180.289877 
L 993.060625 180.289877 
" clip-path="url(#pf5baf330ff)" style="fill: none; stroke: #dedede; stroke-linecap: square"/>
     </g>
     <g id="text_10">
      <!-- 0.002 -->
      <g transform="translate(20.878125 183.329252) scale(0.08 -0.08)">
       <use xlink:href="#DejaVuSans-30"/>
       <use xlink:href="#DejaVuSans-2e" x="63.623047"/>
       <use xlink:href="#DejaVuSans-30" x="95.410156"/>
       <use xlink:href="#DejaVuSans-30" x="159.033203"/>
       <use xlink:href="#DejaVuSans-32" x="222.65625"/>
      </g>
     </g>
    </g>
    <g id="ytick_4">
     <g id="line2d_4">
      <path d="M 50.780625 133.439786 
L 993.060625 133.439786 
" clip-path="url(#pf5baf330ff)" style="fill: none; stroke: #dedede; stroke-linecap: square"/>
     </g>
     <g id="text_11">
      <!-- 0.003 -->
      <g transform="translate(20.878125 136.479161) scale(0.08 -0.08)">
       <defs>
        <path id="DejaVuSans-33" d="M 2597 2516 
Q 3050 2419 3304 2112 
Q 3559 1806 3559 1356 
Q 3559 666 3084 287 
Q 2609 -91 1734 -91 
Q 1441 -91 1130 -33 
Q 819 25 488 141 
L 488 750 
Q 750 597 1062 519 
Q 1375 441 1716 441 
Q 2309 441 2620 675 
Q 2931 909 2931 1356 
Q 2931 1769 2642 2001 
Q 2353 2234 1838 2234 
L 1294 2234 
L 1294 2753 
L 1863 2753 
Q 2328 2753 2575 2939 
Q 2822 3125 2822 3475 
Q 2822 3834 2567 4026 
Q 2313 4219 1838 4219 
Q 1578 4219 1281 4162 
Q 984 4106 628 3988 
L 628 4550 
Q 988 4650 1302 4700 
Q 1616 4750 1894 4750 
Q 2613 4750 3031 4423 
Q 3450 4097 3450 3541 
Q 3450 3153 3228 2886 
Q 3006 2619 2597 2516 
z
" transform="scale(0.015625)"/>
       </defs>
       <use xlink:href="#DejaVuSans-30"/>
       <use xlink:href="#DejaVuSans-2e" x="63.623047"/>
       <use xlink:href="#DejaVuSans-30" x="95.410156"/>
       <use xlink:href="#DejaVuSans-30" x="159.033203"/>
       <use xlink:href="#DejaVuSans-33" x="222.65625"/>
      </g>
     </g>
    </g>
    <g id="ytick_5">
     <g id="line2d_5">
      <path d="M 50.780625 86.589694 
L 993.060625 86.589694 
" clip-path="url(#pf5baf330ff)" style="fill: none; stroke: #dedede; stroke-linecap: square"/>
     </g>
     <g id="text_12">
      <!-- 0.004 -->
      <g transform="translate(20.878125 89.629069) scale(0.08 -0.08)">
       <use xlink:href="#DejaVuSans-30"/>
       <use xlink:href="#DejaVuSans-2e" x="63.623047"/>
       <use xlink:href="#DejaVuSans-30" x="95.410156"/>
       <use xlink:href="#DejaVuSans-30" x="159.033203"/>
       <use xlink:href="#DejaVuSans-34" x="222.65625"/>
      </g>
     </g>
    </g>
    <g id="ytick_6">
     <g id="line2d_6">
      <path d="M 50.780625 39.739603 
L 993.060625 39.739603 
" clip-path="url(#pf5baf330ff)" style="fill: none; stroke: #dedede; stroke-linecap: square"/>
     </g>
     <g id="text_13">
      <!-- 0.005 -->
      <g transform="translate(20.878125 42.778978) scale(0.08 -0.08)">
       <defs>
        <path id="DejaVuSans-35" d="M 691 4666 
L 3169 4666 
L 3169 4134 
L 1269 4134 
L 1269 2991 
Q 1406 3038 1543 3061 
Q 1681 3084 1819 3084 
Q 2600 3084 3056 2656 
Q 3513 2228 3513 1497 
Q 3513 744 3044 326 
Q 2575 -91 1722 -91 
Q 1428 -91 1123 -41 
Q 819 9 494 109 
L 494 744 
Q 775 591 1075 516 
Q 1375 441 1709 441 
Q 2250 441 2565 725 
Q 2881 1009 2881 1497 
Q 2881 1984 2565 2268 
Q 2250 2553 1709 2553 
Q 1456 2553 1204 2497 
Q 953 2441 691 2322 
L 691 4666 
z
" transform="scale(0.015625)"/>
       </defs>
       <use xlink:href="#DejaVuSans-30"/>
       <use xlink:href="#DejaVuSans-2e" x="63.623047"/>
       <use xlink:href="#DejaVuSans-30" x="95.410156"/>
       <use xlink:href="#DejaVuSans-30" x="159.033203"/>
       <use xlink:href="#DejaVuSans-35" x="222.65625"/>
      </g>
     </g>
    </g>
    <g id="text_14">
     <!-- Fraction -->
     <g transform="translate(14.798437 172.695835) rotate(-90) scale(0.1 -0.1)">
      <defs>
       <path id="DejaVuSans-63" d="M 3122 3366 
L 3122 2828 
Q 2878 2963 2633 3030 
Q 2388 3097 2138 3097 
Q 1578 3097 1268 2742 
Q 959 2388 959 1747 
Q 959 1106 1268 751 
Q 1578 397 2138 397 
Q 2388 397 2633 464 
Q 2878 531 3122 666 
L 3122 134 
Q 2881 22 2623 -34 
Q 2366 -91 2075 -91 
Q 1284 -91 818 406 
Q 353 903 353 1747 
Q 353 2603 823 3093 
Q 1294 3584 2113 3584 
Q 2378 3584 2631 3529 
Q 2884 3475 3122 3366 
z
" transform="scale(0.015625)"/>
       <path id="DejaVuSans-69" d="M 603 3500 
L 1178 3500 
L 1178 0 
L 603 0 
L 603 3500 
z
M 603 4863 
L 1178 4863 
L 1178 4134 
L 603 4134 
L 603 4863 
z
" transform="scale(0.015625)"/>
       <path id="DejaVuSans-6f" d="M 1959 3097 
Q 1497 3097 1228 2736 
Q 959 2375 959 1747 
Q 959 1119 1226 758 
Q 1494 397 1959 397 
Q 2419 397 2687 759 
Q 2956 1122 2956 1747 
Q 2956 2369 2687 2733 
Q 2419 3097 1959 3097 
z
M 1959 3584 
Q 2709 3584 3137 3096 
Q 3566 2609 3566 1747 
Q 3566 888 3137 398 
Q 2709 -91 1959 -91 
Q 1206 -91 779 398 
Q 353 888 353 1747 
Q 353 2609 779 3096 
Q 1206 3584 1959 3584 
z
" transform="scale(0.015625)"/>
      </defs>
      <use xlink:href="#DejaVuSans-46"/>
      <use xlink:href="#DejaVuSans-72" x="50.269531"/>
      <use xlink:href="#DejaVuSans-61" x="91.382812"/>
      <use xlink:href="#DejaVuSans-63" x="152.662109"/>
      <use xlink:href="#DejaVuSans-74" x="207.642578"/>
      <use xlink:href="#DejaVuSans-69" x="246.851562"/>
      <use xlink:href="#DejaVuSans-6f" x="274.634766"/>
      <use xlink:href="#DejaVuSans-6e" x="335.816406"/>
     </g>
    </g>
   </g>
   <g id="line2d_7">
    <path d="M 50.780625 273.99006 
L 75.908092 273.99006 
L 77.702911 273.025239 
L 79.49773 270.602639 
L 81.292549 270.001529 
L 84.882187 269.231309 
L 86.677006 268.486533 
L 88.471825 267.437138 
L 90.266644 267.253813 
L 92.061463 266.681165 
L 93.856282 265.592931 
L 95.651101 264.195861 
L 97.44592 263.371862 
L 99.240739 262.695674 
L 101.035558 260.762452 
L 102.830377 259.029467 
L 104.625196 257.035668 
L 106.420015 253.842131 
L 110.009654 248.713077 
L 111.804473 245.03244 
L 113.599292 241.744032 
L 117.18893 234.365002 
L 118.983749 230.113122 
L 120.778568 225.340457 
L 122.573387 220.1326 
L 124.368206 211.920248 
L 126.163025 207.685468 
L 127.957844 204.169837 
L 129.752663 197.360176 
L 133.342301 181.915575 
L 135.13712 176.111786 
L 136.931939 167.573825 
L 138.726758 163.396671 
L 140.521577 155.522576 
L 144.111215 134.085849 
L 145.906035 127.421892 
L 147.700854 122.473585 
L 151.290492 104.910423 
L 153.085311 97.338979 
L 154.88013 94.045886 
L 156.674949 86.212551 
L 158.469768 79.804396 
L 160.264587 72.711292 
L 162.059406 67.327279 
L 163.854225 62.760332 
L 165.649044 61.166024 
L 169.238682 50.448597 
L 171.033501 47.527494 
L 172.82832 45.301177 
L 174.623139 46.28784 
L 176.417958 48.796194 
L 178.212777 48.532428 
L 180.007596 45.055214 
L 181.802415 43.030822 
L 183.597235 44.718362 
L 185.392054 48.914725 
L 187.186873 49.021075 
L 188.981692 46.273785 
L 190.776511 48.947988 
L 192.57133 52.002614 
L 194.366149 58.449187 
L 196.160968 62.024786 
L 199.750606 65.474358 
L 201.545425 66.719165 
L 203.340244 70.730001 
L 205.135063 66.978246 
L 206.929882 67.418637 
L 208.724701 70.752958 
L 210.51952 75.431408 
L 212.314339 81.686832 
L 214.109158 82.011503 
L 215.903977 85.469977 
L 217.698796 86.971991 
L 219.493615 88.709193 
L 221.288435 90.814167 
L 223.083254 94.563111 
L 224.878073 97.894153 
L 226.672892 98.615176 
L 228.467711 100.218854 
L 230.26253 104.319174 
L 232.057349 105.761689 
L 233.852168 108.719335 
L 235.646987 106.729143 
L 237.441806 110.381576 
L 239.236625 114.512349 
L 241.031444 116.770992 
L 242.826263 119.605422 
L 244.621082 120.456688 
L 246.415901 122.815591 
L 248.21072 124.361644 
L 250.005539 128.570187 
L 251.800358 129.83514 
L 253.595177 131.686187 
L 257.184815 135.095937 
L 258.979635 137.653483 
L 260.774454 138.797094 
L 262.569273 140.240077 
L 264.364092 137.588361 
L 266.158911 141.395868 
L 267.95373 145.618467 
L 269.748549 148.85206 
L 271.543368 150.669375 
L 273.338187 150.884886 
L 276.030415 154.808581 
L 279.620054 158.208492 
L 283.209692 157.532445 
L 285.004511 160.402482 
L 286.79933 162.00335 
L 288.594149 163.845964 
L 290.388968 164.326646 
L 292.183787 164.456889 
L 293.978606 169.713001 
L 295.773425 171.349006 
L 297.568244 169.432837 
L 299.363063 172.064875 
L 301.157882 172.536656 
L 302.952701 172.19137 
L 304.74752 173.95106 
L 306.542339 180.615017 
L 308.337158 178.855796 
L 310.131977 178.739608 
L 311.926796 182.350813 
L 313.721615 183.476152 
L 315.516435 183.08308 
L 317.311254 184.438921 
L 319.106073 185.107004 
L 320.900892 185.425584 
L 322.695711 186.338224 
L 324.49053 188.509726 
L 326.285349 191.006836 
L 328.080168 191.417242 
L 329.874987 190.740259 
L 331.669806 193.097287 
L 333.464625 195.966386 
L 335.259444 195.69325 
L 337.054263 195.756498 
L 338.849082 198.134609 
L 340.643901 201.914005 
L 342.43872 201.399123 
L 344.233539 203.628719 
L 346.028358 202.392813 
L 347.823177 200.976535 
L 349.617996 203.317634 
L 351.412815 204.611634 
L 355.002454 208.202225 
L 356.797273 209.22262 
L 358.592092 208.830953 
L 360.386911 211.227804 
L 362.18173 214.8198 
L 365.771368 209.042715 
L 367.566187 209.983934 
L 369.361006 213.21331 
L 371.155825 213.068544 
L 372.950644 215.349675 
L 374.745463 214.899445 
L 376.540282 214.083785 
L 378.335101 217.380158 
L 380.12992 216.555596 
L 381.924739 217.966721 
L 383.719558 218.993675 
L 385.514377 219.485601 
L 387.309196 220.969343 
L 389.104015 221.853873 
L 390.898835 222.055328 
L 392.693654 221.920868 
L 394.488473 222.348141 
L 396.283292 223.932143 
L 398.078111 224.652229 
L 399.87293 226.153774 
L 401.667749 227.179838 
L 403.462568 226.726751 
L 405.257387 227.46642 
L 407.052206 229.471604 
L 408.847025 229.675496 
L 410.641844 227.86905 
L 412.436663 227.261451 
L 414.231482 228.003556 
L 416.026301 230.401672 
L 417.82112 231.854259 
L 419.615939 232.669638 
L 421.410758 232.427376 
L 423.205577 233.79062 
L 425.000396 233.8571 
L 426.795215 232.479239 
L 430.384854 235.034584 
L 432.179673 233.318933 
L 433.974492 236.33205 
L 435.769311 238.509221 
L 437.56413 236.658408 
L 439.358949 235.825179 
L 441.153768 237.845402 
L 442.948587 240.796723 
L 444.743406 240.444504 
L 446.538225 240.41705 
L 448.333044 240.031942 
L 450.127863 238.84195 
L 451.922682 240.300675 
L 453.717501 244.232709 
L 455.51232 241.893812 
L 457.307139 243.330002 
L 459.101958 243.96974 
L 464.486415 244.918688 
L 466.281235 245.701787 
L 468.076054 245.651424 
L 469.870873 247.483309 
L 471.665692 247.230693 
L 473.460511 248.026817 
L 475.25533 247.168804 
L 477.050149 247.025302 
L 478.844968 248.31115 
L 480.639787 247.93143 
L 482.434606 248.260318 
L 484.229425 248.9351 
L 486.024244 249.213764 
L 487.819063 249.651625 
L 489.613882 249.96271 
L 491.408701 251.61619 
L 493.20352 251.188823 
L 494.998339 250.442033 
L 496.793158 251.705533 
L 498.587977 251.737485 
L 500.382796 251.627949 
L 502.177615 251.801435 
L 503.972435 251.005686 
L 505.767254 251.832637 
L 507.562073 253.1019 
L 509.356892 254.039651 
L 511.151711 254.435441 
L 512.94653 254.683137 
L 514.741349 255.607911 
L 516.536168 253.763657 
L 518.330987 255.862588 
L 520.125806 256.652434 
L 521.920625 256.931333 
L 523.715444 257.066214 
L 525.510263 256.935924 
L 527.305082 255.531405 
L 529.099901 255.724755 
L 530.89472 258.230158 
L 532.689539 258.014226 
L 534.484358 256.964034 
L 536.279177 257.926897 
L 539.868815 258.602194 
L 541.663635 257.976418 
L 543.458454 257.830058 
L 545.253273 259.478197 
L 547.048092 260.313066 
L 548.842911 260.695784 
L 550.63773 260.177201 
L 552.432549 259.509727 
L 554.227368 260.038946 
L 556.022187 260.774211 
L 557.817006 261.210292 
L 561.406644 261.759563 
L 563.201463 261.051049 
L 564.996282 261.903814 
L 566.791101 262.097961 
L 570.380739 261.548597 
L 573.970377 262.218084 
L 575.765196 263.847718 
L 577.560015 263.139673 
L 579.354835 263.107065 
L 581.149654 263.650479 
L 582.944473 263.448649 
L 584.739292 263.801196 
L 586.534111 264.659724 
L 588.32893 265.040287 
L 590.123749 265.02328 
L 591.918568 265.217146 
L 593.713387 264.486238 
L 595.508206 264.391601 
L 597.303025 265.496466 
L 599.097844 265.899002 
L 600.892663 265.428768 
L 604.482301 266.442979 
L 608.071939 266.4263 
L 609.866758 266.227047 
L 611.661577 266.359773 
L 613.456396 267.189348 
L 615.251215 266.96428 
L 617.046035 267.259061 
L 620.635673 266.861865 
L 622.430492 267.858086 
L 624.225311 268.34008 
L 626.02013 267.451521 
L 627.814949 267.443697 
L 629.609768 266.842985 
L 631.404587 267.630066 
L 634.994225 267.62496 
L 636.789044 267.444259 
L 638.583863 267.610952 
L 640.378682 268.159941 
L 642.173501 268.525184 
L 643.96832 268.71474 
L 645.763139 269.278862 
L 647.557958 269.167874 
L 649.352777 269.203199 
L 652.942415 269.637415 
L 654.737235 269.526436 
L 656.532054 269.778195 
L 658.326873 269.884184 
L 660.121692 269.720199 
L 663.71133 270.136223 
L 667.300968 270.063081 
L 670.890606 270.509361 
L 672.685425 270.036118 
L 674.480244 269.923153 
L 676.275063 270.638587 
L 678.069882 270.397286 
L 679.864701 269.753636 
L 681.65952 270.469393 
L 683.454339 270.917205 
L 685.249158 270.588509 
L 687.043977 271.117999 
L 688.838796 271.048019 
L 690.633615 271.130181 
L 694.223254 270.856581 
L 696.018073 271.22426 
L 697.812892 271.870131 
L 699.607711 271.68764 
L 701.40253 271.305386 
L 703.197349 271.412785 
L 704.992168 271.670025 
L 708.581806 271.793634 
L 710.376625 271.811025 
L 712.171444 271.493451 
L 713.966263 271.860292 
L 715.761082 272.078047 
L 717.555901 272.031534 
L 719.35072 272.314757 
L 721.145539 272.11466 
L 722.940358 272.334701 
L 725.632587 272.080399 
L 731.017044 272.678084 
L 738.19632 272.899901 
L 739.991139 272.731399 
L 743.580777 272.731203 
L 747.170415 272.436408 
L 748.965235 272.712692 
L 750.760054 273.115669 
L 752.554873 273.300792 
L 756.144511 272.897563 
L 757.93933 272.682034 
L 761.528968 273.094492 
L 763.323787 272.892915 
L 770.503063 273.294022 
L 772.297882 273.051859 
L 774.092701 273.279724 
L 775.88752 273.301654 
L 777.682339 273.179867 
L 781.271977 273.210446 
L 783.066796 273.170881 
L 786.656435 273.390323 
L 788.451254 273.189392 
L 792.040892 273.183002 
L 793.835711 273.569416 
L 795.63053 273.423516 
L 797.425349 273.490947 
L 799.220168 273.727222 
L 802.809806 273.407629 
L 804.604625 273.414863 
L 806.399444 273.308026 
L 808.194263 273.36768 
L 809.989082 273.649352 
L 827.937273 273.647283 
L 831.526911 273.877289 
L 835.116549 273.716589 
L 840.501006 273.846001 
L 842.295825 273.744959 
L 845.885463 273.884961 
L 847.680282 273.780462 
L 851.26992 273.750448 
L 853.064739 273.69862 
L 856.654377 273.845855 
L 858.449196 273.778728 
L 863.833654 273.940346 
L 869.218111 273.896616 
L 874.602568 273.847699 
L 879.987025 273.910436 
L 901.524854 273.913711 
L 914.088587 273.968312 
L 915.883406 273.907375 
L 919.473044 273.961956 
L 928.447139 273.975961 
L 946.39533 273.965856 
L 948.190149 273.878938 
L 948.190149 273.878938 
" clip-path="url(#pf5baf330ff)" style="fill: none; stroke: #7cb5ec; stroke-linecap: square"/>
   </g>
   <g id="line2d_8">
    <path d="M 50.780625 273.99006 
L 75.908092 273.99006 
L 77.702911 273.034253 
L 79.49773 271.07196 
L 83.087368 269.615658 
L 84.882187 269.438157 
L 86.677006 268.804692 
L 88.471825 267.954878 
L 90.266644 267.473821 
L 92.061463 266.172279 
L 93.856282 265.798134 
L 97.44592 263.38081 
L 99.240739 262.397052 
L 101.035558 260.527733 
L 104.625196 256.024409 
L 106.420015 254.225318 
L 108.214835 251.287021 
L 110.009654 248.106322 
L 111.804473 246.432461 
L 113.599292 241.227416 
L 115.394111 236.397734 
L 118.983749 229.144122 
L 120.778568 224.149527 
L 122.573387 220.801151 
L 124.368206 214.267906 
L 126.163025 209.918343 
L 127.957844 206.126297 
L 129.752663 201.439414 
L 131.547482 193.775208 
L 133.342301 188.338254 
L 135.13712 183.533309 
L 136.931939 177.499017 
L 140.521577 167.197151 
L 142.316396 157.108452 
L 144.111215 152.218239 
L 145.906035 142.599447 
L 147.700854 139.437534 
L 149.495673 137.288989 
L 151.290492 128.630624 
L 153.085311 121.648555 
L 154.88013 113.428706 
L 156.674949 108.812567 
L 158.469768 103.487585 
L 160.264587 98.707002 
L 162.059406 90.371434 
L 163.854225 88.112791 
L 165.649044 86.603281 
L 167.443863 81.077781 
L 169.238682 74.451304 
L 171.033501 66.187417 
L 172.82832 67.25841 
L 174.623139 65.702518 
L 176.417958 65.254163 
L 178.212777 60.82027 
L 180.007596 58.315664 
L 181.802415 58.27631 
L 183.597235 60.309604 
L 185.392054 58.084225 
L 187.186873 55.628811 
L 188.981692 57.322911 
L 190.776511 60.093157 
L 192.57133 62.331186 
L 194.366149 60.408458 
L 196.160968 62.447374 
L 197.955787 64.087127 
L 199.750606 64.802528 
L 201.545425 67.546069 
L 203.340244 68.751522 
L 205.135063 73.555999 
L 206.929882 72.572147 
L 208.724701 74.853746 
L 210.51952 76.433532 
L 212.314339 78.297228 
L 214.109158 81.086683 
L 215.903977 84.665561 
L 217.698796 87.431122 
L 219.493615 86.729776 
L 221.288435 91.58204 
L 223.083254 92.615085 
L 224.878073 90.726089 
L 226.672892 94.175193 
L 228.467711 96.990415 
L 230.26253 100.634883 
L 232.057349 102.35475 
L 233.852168 100.757162 
L 235.646987 100.997503 
L 237.441806 104.704751 
L 239.236625 111.194894 
L 241.031444 109.679762 
L 244.621082 112.068648 
L 246.415901 114.154414 
L 248.21072 114.884807 
L 250.005539 116.382136 
L 251.800358 120.408901 
L 253.595177 122.274004 
L 255.389996 122.054745 
L 257.184815 126.498476 
L 258.979635 126.293273 
L 260.774454 127.447659 
L 262.569273 132.181861 
L 264.364092 132.502315 
L 266.158911 134.568873 
L 267.95373 139.62025 
L 269.748549 139.056643 
L 271.543368 140.035342 
L 273.338187 141.973998 
L 276.030415 144.441124 
L 277.825235 146.511898 
L 281.414873 147.963314 
L 283.209692 150.687647 
L 285.004511 152.366286 
L 288.594149 155.995294 
L 290.388968 159.102392 
L 292.183787 157.238695 
L 293.978606 158.489593 
L 295.773425 166.29107 
L 297.568244 168.287352 
L 299.363063 164.214205 
L 301.157882 164.274173 
L 304.74752 169.314775 
L 306.542339 170.910957 
L 308.337158 173.400571 
L 310.131977 175.301279 
L 311.926796 176.050881 
L 313.721615 177.368305 
L 315.516435 179.514508 
L 317.311254 179.661149 
L 319.106073 179.218884 
L 320.900892 183.703843 
L 322.695711 186.475963 
L 326.285349 187.207762 
L 328.080168 188.752409 
L 329.874987 189.751253 
L 331.669806 190.895801 
L 333.464625 192.945492 
L 335.259444 190.567382 
L 337.054263 191.196578 
L 338.849082 192.015518 
L 340.643901 194.778268 
L 342.43872 197.260854 
L 344.233539 198.006239 
L 347.823177 197.234618 
L 349.617996 200.633124 
L 351.412815 201.616507 
L 353.207635 201.122239 
L 355.002454 204.224183 
L 356.797273 205.058115 
L 358.592092 204.942395 
L 360.386911 207.402025 
L 362.18173 210.864715 
L 363.976549 210.304388 
L 365.771368 207.527583 
L 367.566187 207.822739 
L 369.361006 207.411864 
L 371.155825 211.175331 
L 372.950644 210.483824 
L 374.745463 211.537951 
L 376.540282 212.328781 
L 378.335101 212.560689 
L 380.12992 214.944421 
L 381.924739 216.724256 
L 383.719558 217.611129 
L 385.514377 217.555377 
L 387.309196 216.926649 
L 389.104015 218.024815 
L 390.898835 218.95151 
L 392.693654 220.772573 
L 394.488473 220.428693 
L 396.283292 220.47976 
L 398.078111 224.118138 
L 399.87293 226.083968 
L 403.462568 223.22986 
L 405.257387 225.310473 
L 407.052206 228.039303 
L 408.847025 227.596663 
L 410.641844 228.729639 
L 412.436663 229.663877 
L 414.231482 229.937809 
L 416.026301 229.79487 
L 417.82112 231.156286 
L 419.615939 229.224845 
L 421.410758 230.389116 
L 423.205577 230.772397 
L 425.000396 233.586541 
L 426.795215 233.774035 
L 428.590035 235.265602 
L 430.384854 233.970993 
L 432.179673 234.27238 
L 433.974492 234.026464 
L 435.769311 234.988999 
L 437.56413 236.368312 
L 441.153768 236.434699 
L 442.948587 238.780858 
L 444.743406 239.176881 
L 446.538225 237.131688 
L 448.333044 236.552527 
L 450.127863 240.127985 
L 451.922682 240.08924 
L 453.717501 239.804907 
L 455.51232 240.68775 
L 457.307139 240.988575 
L 459.101958 240.80867 
L 460.896777 241.633138 
L 462.691596 243.283011 
L 464.486415 244.452061 
L 466.281235 244.196541 
L 468.076054 244.162059 
L 469.870873 244.662137 
L 471.665692 245.3543 
L 473.460511 246.92242 
L 475.25533 246.517494 
L 477.050149 245.332328 
L 478.844968 246.564344 
L 480.639787 246.928557 
L 482.434606 245.955059 
L 484.229425 247.709735 
L 487.819063 249.422996 
L 489.613882 250.401086 
L 491.408701 249.905037 
L 493.20352 250.829296 
L 494.998339 250.676283 
L 496.793158 249.466099 
L 498.587977 250.716012 
L 500.382796 251.556878 
L 502.177615 252.63799 
L 503.972435 254.165912 
L 507.562073 253.549459 
L 509.356892 252.630119 
L 511.151711 254.294235 
L 512.94653 255.622622 
L 514.741349 254.254365 
L 518.330987 254.218291 
L 520.125806 255.836446 
L 521.920625 254.279758 
L 523.715444 255.979573 
L 525.510263 255.550567 
L 527.305082 256.267795 
L 529.099901 256.624652 
L 530.89472 256.462129 
L 532.689539 256.007543 
L 536.279177 257.510587 
L 538.073996 257.247805 
L 539.868815 257.85531 
L 541.663635 259.582767 
L 543.458454 259.973731 
L 545.253273 258.410531 
L 547.048092 258.230814 
L 548.842911 259.624416 
L 550.63773 260.261999 
L 552.432549 260.718694 
L 554.227368 259.873753 
L 556.022187 259.347439 
L 557.817006 261.381201 
L 559.611825 260.888619 
L 561.406644 261.152385 
L 563.201463 262.490892 
L 564.996282 261.871487 
L 566.791101 262.463438 
L 568.58592 262.856042 
L 570.380739 262.964547 
L 572.175558 262.868551 
L 573.970377 262.925099 
L 579.354835 262.658194 
L 581.149654 263.447712 
L 582.944473 263.506977 
L 584.739292 264.069834 
L 586.534111 264.014832 
L 590.123749 264.539413 
L 591.918568 263.857275 
L 593.713387 264.812642 
L 595.508206 266.279519 
L 597.303025 266.349372 
L 599.097844 266.144825 
L 600.892663 265.658802 
L 602.687482 266.068131 
L 606.27712 265.849716 
L 608.071939 266.219316 
L 609.866758 267.136313 
L 611.661577 265.933953 
L 613.456396 266.21435 
L 615.251215 266.936966 
L 617.046035 267.107313 
L 618.840854 267.44379 
L 620.635673 267.029964 
L 622.430492 267.915571 
L 624.225311 268.929735 
L 626.02013 267.468012 
L 627.814949 268.067131 
L 629.609768 267.772069 
L 631.404587 267.798399 
L 633.199406 268.614106 
L 634.994225 268.974102 
L 638.583863 268.580983 
L 640.378682 269.168249 
L 642.173501 269.014018 
L 643.96832 268.650789 
L 645.763139 269.010926 
L 647.557958 269.061196 
L 649.352777 268.900079 
L 651.147596 268.965903 
L 652.942415 269.887098 
L 654.737235 270.100209 
L 658.326873 269.948546 
L 660.121692 269.578192 
L 661.916511 270.419535 
L 663.71133 269.994933 
L 665.506149 269.999913 
L 667.300968 270.883655 
L 669.095787 270.391266 
L 670.890606 270.215414 
L 672.685425 270.211933 
L 676.275063 270.7063 
L 678.069882 270.443775 
L 679.864701 271.24308 
L 683.454339 271.078786 
L 685.249158 271.243989 
L 687.043977 271.212135 
L 690.633615 271.366914 
L 694.223254 271.155067 
L 696.018073 271.309251 
L 697.812892 271.350718 
L 699.607711 271.723696 
L 703.197349 272.055175 
L 704.992168 271.670788 
L 708.581806 272.088307 
L 712.171444 271.835527 
L 713.966263 271.978214 
L 715.761082 271.762029 
L 717.555901 271.765252 
L 719.35072 272.198114 
L 721.145539 272.156624 
L 722.940358 272.461037 
L 725.632587 272.446059 
L 727.427406 272.055601 
L 729.222225 272.290175 
L 731.017044 272.395943 
L 734.606682 272.27076 
L 736.401501 272.358131 
L 738.19632 272.939489 
L 743.580777 272.697382 
L 745.375596 272.910315 
L 748.965235 273.023917 
L 750.760054 272.527972 
L 752.554873 272.446813 
L 754.349692 272.855154 
L 759.734149 273.130797 
L 761.528968 272.936818 
L 766.913425 272.967725 
L 768.708244 273.165709 
L 775.88752 273.16406 
L 777.682339 273.342343 
L 786.656435 273.431462 
L 790.246073 273.571261 
L 793.835711 273.325253 
L 802.809806 273.596321 
L 804.604625 273.445695 
L 806.399444 273.580294 
L 808.194263 273.367497 
L 813.57872 273.526785 
L 815.373539 273.69664 
L 818.963177 273.694483 
L 820.757996 273.821169 
L 822.552815 273.59927 
L 826.142454 273.773648 
L 827.937273 273.662524 
L 831.526911 273.787358 
L 833.32173 273.729342 
L 836.911368 273.829433 
L 849.475101 273.748896 
L 851.26992 273.579349 
L 858.449196 273.87374 
L 881.781844 273.855871 
L 888.96112 273.910483 
L 894.345577 273.955906 
L 897.935215 273.835475 
L 901.524854 273.94311 
L 905.114492 273.92518 
L 921.267863 273.969312 
L 939.216054 273.925335 
L 944.600511 273.98262 
L 948.190149 273.937868 
L 948.190149 273.937868 
" clip-path="url(#pf5baf330ff)" style="fill: none; stroke: #434348; stroke-linecap: square"/>
   </g>
   <g id="line2d_9">
    <path d="M 50.780625 273.99006 
L 993.060625 273.99006 
" clip-path="url(#pf5baf330ff)" style="fill: none; stroke: #dedede; stroke-width: 2; stroke-linecap: square"/>
   </g>
   <g id="text_15">
    <!-- Salmon: Fragment Length Distribution -->
    <g transform="translate(369.159375 19.3575) scale(0.16 -0.16)">
     <defs>
      <path id="DejaVuSans-53" d="M 3425 4513 
L 3425 3897 
Q 3066 4069 2747 4153 
Q 2428 4238 2131 4238 
Q 1616 4238 1336 4038 
Q 1056 3838 1056 3469 
Q 1056 3159 1242 3001 
Q 1428 2844 1947 2747 
L 2328 2669 
Q 3034 2534 3370 2195 
Q 3706 1856 3706 1288 
Q 3706 609 3251 259 
Q 2797 -91 1919 -91 
Q 1588 -91 1214 -16 
Q 841 59 441 206 
L 441 856 
Q 825 641 1194 531 
Q 1563 422 1919 422 
Q 2459 422 2753 634 
Q 3047 847 3047 1241 
Q 3047 1584 2836 1778 
Q 2625 1972 2144 2069 
L 1759 2144 
Q 1053 2284 737 2584 
Q 422 2884 422 3419 
Q 422 4038 858 4394 
Q 1294 4750 2059 4750 
Q 2388 4750 2728 4690 
Q 3069 4631 3425 4513 
z
" transform="scale(0.015625)"/>
      <path id="DejaVuSans-6c" d="M 603 4863 
L 1178 4863 
L 1178 0 
L 603 0 
L 603 4863 
z
" transform="scale(0.015625)"/>
      <path id="DejaVuSans-3a" d="M 750 794 
L 1409 794 
L 1409 0 
L 750 0 
L 750 794 
z
M 750 3309 
L 1409 3309 
L 1409 2516 
L 750 2516 
L 750 3309 
z
" transform="scale(0.015625)"/>
      <path id="DejaVuSans-44" d="M 1259 4147 
L 1259 519 
L 2022 519 
Q 2988 519 3436 956 
Q 3884 1394 3884 2338 
Q 3884 3275 3436 3711 
Q 2988 4147 2022 4147 
L 1259 4147 
z
M 628 4666 
L 1925 4666 
Q 3281 4666 3915 4102 
Q 4550 3538 4550 2338 
Q 4550 1131 3912 565 
Q 3275 0 1925 0 
L 628 0 
L 628 4666 
z
" transform="scale(0.015625)"/>
      <path id="DejaVuSans-73" d="M 2834 3397 
L 2834 2853 
Q 2591 2978 2328 3040 
Q 2066 3103 1784 3103 
Q 1356 3103 1142 2972 
Q 928 2841 928 2578 
Q 928 2378 1081 2264 
Q 1234 2150 1697 2047 
L 1894 2003 
Q 2506 1872 2764 1633 
Q 3022 1394 3022 966 
Q 3022 478 2636 193 
Q 2250 -91 1575 -91 
Q 1294 -91 989 -36 
Q 684 19 347 128 
L 347 722 
Q 666 556 975 473 
Q 1284 391 1588 391 
Q 1994 391 2212 530 
Q 2431 669 2431 922 
Q 2431 1156 2273 1281 
Q 2116 1406 1581 1522 
L 1381 1569 
Q 847 1681 609 1914 
Q 372 2147 372 2553 
Q 372 3047 722 3315 
Q 1072 3584 1716 3584 
Q 2034 3584 2315 3537 
Q 2597 3491 2834 3397 
z
" transform="scale(0.015625)"/>
      <path id="DejaVuSans-75" d="M 544 1381 
L 544 3500 
L 1119 3500 
L 1119 1403 
Q 1119 906 1312 657 
Q 1506 409 1894 409 
Q 2359 409 2629 706 
Q 2900 1003 2900 1516 
L 2900 3500 
L 3475 3500 
L 3475 0 
L 2900 0 
L 2900 538 
Q 2691 219 2414 64 
Q 2138 -91 1772 -91 
Q 1169 -91 856 284 
Q 544 659 544 1381 
z
M 1991 3584 
L 1991 3584 
z
" transform="scale(0.015625)"/>
     </defs>
     <use xlink:href="#DejaVuSans-53"/>
     <use xlink:href="#DejaVuSans-61" x="63.476562"/>
     <use xlink:href="#DejaVuSans-6c" x="124.755859"/>
     <use xlink:href="#DejaVuSans-6d" x="152.539062"/>
     <use xlink:href="#DejaVuSans-6f" x="249.951172"/>
     <use xlink:href="#DejaVuSans-6e" x="311.132812"/>
     <use xlink:href="#DejaVuSans-3a" x="374.511719"/>
     <use xlink:href="#DejaVuSans-20" x="408.203125"/>
     <use xlink:href="#DejaVuSans-46" x="439.990234"/>
     <use xlink:href="#DejaVuSans-72" x="490.259766"/>
     <use xlink:href="#DejaVuSans-61" x="531.373047"/>
     <use xlink:href="#DejaVuSans-67" x="592.652344"/>
     <use xlink:href="#DejaVuSans-6d" x="656.128906"/>
     <use xlink:href="#DejaVuSans-65" x="753.541016"/>
     <use xlink:href="#DejaVuSans-6e" x="815.064453"/>
     <use xlink:href="#DejaVuSans-74" x="878.443359"/>
     <use xlink:href="#DejaVuSans-20" x="917.652344"/>
     <use xlink:href="#DejaVuSans-4c" x="949.439453"/>
     <use xlink:href="#DejaVuSans-65" x="1003.402344"/>
     <use xlink:href="#DejaVuSans-6e" x="1064.925781"/>
     <use xlink:href="#DejaVuSans-67" x="1128.304688"/>
     <use xlink:href="#DejaVuSans-74" x="1191.78125"/>
     <use xlink:href="#DejaVuSans-68" x="1230.990234"/>
     <use xlink:href="#DejaVuSans-20" x="1294.369141"/>
     <use xlink:href="#DejaVuSans-44" x="1326.15625"/>
     <use xlink:href="#DejaVuSans-69" x="1403.158203"/>
     <use xlink:href="#DejaVuSans-73" x="1430.941406"/>
     <use xlink:href="#DejaVuSans-74" x="1483.041016"/>
     <use xlink:href="#DejaVuSans-72" x="1522.25"/>
     <use xlink:href="#DejaVuSans-69" x="1563.363281"/>
     <use xlink:href="#DejaVuSans-62" x="1591.146484"/>
     <use xlink:href="#DejaVuSans-75" x="1654.623047"/>
     <use xlink:href="#DejaVuSans-74" x="1718.001953"/>
     <use xlink:href="#DejaVuSans-69" x="1757.210938"/>
     <use xlink:href="#DejaVuSans-6f" x="1784.994141"/>
     <use xlink:href="#DejaVuSans-6e" x="1846.175781"/>
    </g>
   </g>
   <g id="legend_1">
    <g id="line2d_10">
     <path d="M 57.980625 315.455394 
L 65.980625 315.455394 
L 73.980625 315.455394 
" style="fill: none; stroke: #7cb5ec; stroke-linecap: square"/>
    </g>
    <g id="text_16">
     <!-- Minus_cre_p53mut -->
     <g transform="translate(80.380625 318.255394) scale(0.08 -0.08)">
      <defs>
       <path id="DejaVuSans-4d" d="M 628 4666 
L 1569 4666 
L 2759 1491 
L 3956 4666 
L 4897 4666 
L 4897 0 
L 4281 0 
L 4281 4097 
L 3078 897 
L 2444 897 
L 1241 4097 
L 1241 0 
L 628 0 
L 628 4666 
z
" transform="scale(0.015625)"/>
       <path id="DejaVuSans-5f" d="M 3263 -1063 
L 3263 -1509 
L -63 -1509 
L -63 -1063 
L 3263 -1063 
z
" transform="scale(0.015625)"/>
      </defs>
      <use xlink:href="#DejaVuSans-4d"/>
      <use xlink:href="#DejaVuSans-69" x="86.279297"/>
      <use xlink:href="#DejaVuSans-6e" x="114.0625"/>
      <use xlink:href="#DejaVuSans-75" x="177.441406"/>
      <use xlink:href="#DejaVuSans-73" x="240.820312"/>
      <use xlink:href="#DejaVuSans-5f" x="292.919922"/>
      <use xlink:href="#DejaVuSans-63" x="342.919922"/>
      <use xlink:href="#DejaVuSans-72" x="397.900391"/>
      <use xlink:href="#DejaVuSans-65" x="436.763672"/>
      <use xlink:href="#DejaVuSans-5f" x="498.287109"/>
      <use xlink:href="#DejaVuSans-70" x="548.287109"/>
      <use xlink:href="#DejaVuSans-35" x="611.763672"/>
      <use xlink:href="#DejaVuSans-33" x="675.386719"/>
      <use xlink:href="#DejaVuSans-6d" x="739.009766"/>
      <use xlink:href="#DejaVuSans-75" x="836.421875"/>
      <use xlink:href="#DejaVuSans-74" x="899.800781"/>
     </g>
    </g>
    <g id="line2d_11">
     <path d="M 895.489375 315.455394 
L 903.489375 315.455394 
L 911.489375 315.455394 
" style="fill: none; stroke: #434348; stroke-linecap: square"/>
    </g>
    <g id="text_17">
     <!-- Plus_cre_p53mut -->
     <g transform="translate(917.889375 318.255394) scale(0.08 -0.08)">
      <defs>
       <path id="DejaVuSans-50" d="M 1259 4147 
L 1259 2394 
L 2053 2394 
Q 2494 2394 2734 2622 
Q 2975 2850 2975 3272 
Q 2975 3691 2734 3919 
Q 2494 4147 2053 4147 
L 1259 4147 
z
M 628 4666 
L 2053 4666 
Q 2838 4666 3239 4311 
Q 3641 3956 3641 3272 
Q 3641 2581 3239 2228 
Q 2838 1875 2053 1875 
L 1259 1875 
L 1259 0 
L 628 0 
L 628 4666 
z
" transform="scale(0.015625)"/>
      </defs>
      <use xlink:href="#DejaVuSans-50"/>
      <use xlink:href="#DejaVuSans-6c" x="60.302734"/>
      <use xlink:href="#DejaVuSans-75" x="88.085938"/>
      <use xlink:href="#DejaVuSans-73" x="151.464844"/>
      <use xlink:href="#DejaVuSans-5f" x="203.564453"/>
      <use xlink:href="#DejaVuSans-63" x="253.564453"/>
      <use xlink:href="#DejaVuSans-72" x="308.544922"/>
      <use xlink:href="#DejaVuSans-65" x="347.408203"/>
      <use xlink:href="#DejaVuSans-5f" x="408.931641"/>
      <use xlink:href="#DejaVuSans-70" x="458.931641"/>
      <use xlink:href="#DejaVuSans-35" x="522.408203"/>
      <use xlink:href="#DejaVuSans-33" x="586.03125"/>
      <use xlink:href="#DejaVuSans-6d" x="649.654297"/>
      <use xlink:href="#DejaVuSans-75" x="747.066406"/>
      <use xlink:href="#DejaVuSans-74" x="810.445312"/>
     </g>
    </g>
   </g>
  </g>
 </g>
 <defs>
  <clipPath id="pf5baf330ff">
   <rect x="50.780625" y="31.48286" width="942.28" height="242.5072"/>
  </clipPath>
 </defs>
</svg>
