<?xml version="1.0" encoding="utf-8" standalone="no"?>
<!DOCTYPE svg PUBLIC "-//W3C//DTD SVG 1.1//EN"
  "http://www.w3.org/Graphics/SVG/1.1/DTD/svg11.dtd">
<svg xmlns:xlink="http://www.w3.org/1999/xlink" width="1000.098125pt" height="330.541644pt" viewBox="0 0 1000.098125 330.541644" xmlns="http://www.w3.org/2000/svg" version="1.1">
 <metadata>
  <rdf:RDF xmlns:dc="http://purl.org/dc/elements/1.1/" xmlns:cc="http://creativecommons.org/ns#" xmlns:rdf="http://www.w3.org/1999/02/22-rdf-syntax-ns#">
   <cc:Work>
    <dc:type rdf:resource="http://purl.org/dc/dcmitype/StillImage"/>
    <dc:date>2025-05-20T01:35:06.018716</dc:date>
    <dc:format>image/svg+xml</dc:format>
    <dc:creator>
     <cc:Agent>
      <dc:title>Matplotlib v3.8.2, https://matplotlib.org/</dc:title>
     </cc:Agent>
    </dc:creator>
   </cc:Work>
  </rdf:RDF>
 </metadata>
 <defs>
  <style type="text/css">*{stroke-linejoin: round; stroke-linecap: butt}</style>
 </defs>
 <g id="figure_1">
  <g id="axes_1">
   <g id="patch_1">
    <path d="M 58.418125 273.99006 
L 985.263125 273.99006 
L 985.263125 31.48286 
L 58.418125 31.48286 
z
" style="fill: #ffffff"/>
   </g>
   <g id="matplotlib.axis_1">
    <g id="xtick_1">
     <g id="text_1">
      <!-- 0 -->
      <g transform="translate(55.873125 287.06881) scale(0.08 -0.08)">
       <defs>
        <path id="DejaVuSans-30" d="M 2034 4250 
Q 1547 4250 1301 3770 
Q 1056 3291 1056 2328 
Q 1056 1369 1301 889 
Q 1547 409 2034 409 
Q 2525 409 2770 889 
Q 3016 1369 3016 2328 
Q 3016 3291 2770 3770 
Q 2525 4250 2034 4250 
z
M 2034 4750 
Q 2819 4750 3233 4129 
Q 3647 3509 3647 2328 
Q 3647 1150 3233 529 
Q 2819 -91 2034 -91 
Q 1250 -91 836 529 
Q 422 1150 422 2328 
Q 422 3509 836 4129 
Q 1250 4750 2034 4750 
z
" transform="scale(0.015625)"/>
       </defs>
       <use xlink:href="#DejaVuSans-30"/>
      </g>
     </g>
    </g>
    <g id="xtick_2">
     <g id="text_2">
      <!-- 20 -->
      <g transform="translate(238.697125 287.06881) scale(0.08 -0.08)">
       <defs>
        <path id="DejaVuSans-32" d="M 1228 531 
L 3431 531 
L 3431 0 
L 469 0 
L 469 531 
Q 828 903 1448 1529 
Q 2069 2156 2228 2338 
Q 2531 2678 2651 2914 
Q 2772 3150 2772 3378 
Q 2772 3750 2511 3984 
Q 2250 4219 1831 4219 
Q 1534 4219 1204 4116 
Q 875 4013 500 3803 
L 500 4441 
Q 881 4594 1212 4672 
Q 1544 4750 1819 4750 
Q 2544 4750 2975 4387 
Q 3406 4025 3406 3419 
Q 3406 3131 3298 2873 
Q 3191 2616 2906 2266 
Q 2828 2175 2409 1742 
Q 1991 1309 1228 531 
z
" transform="scale(0.015625)"/>
       </defs>
       <use xlink:href="#DejaVuSans-32"/>
       <use xlink:href="#DejaVuSans-30" x="63.623047"/>
      </g>
     </g>
    </g>
    <g id="xtick_3">
     <g id="text_3">
      <!-- 40 -->
      <g transform="translate(424.066125 287.06881) scale(0.08 -0.08)">
       <defs>
        <path id="DejaVuSans-34" d="M 2419 4116 
L 825 1625 
L 2419 1625 
L 2419 4116 
z
M 2253 4666 
L 3047 4666 
L 3047 1625 
L 3713 1625 
L 3713 1100 
L 3047 1100 
L 3047 0 
L 2419 0 
L 2419 1100 
L 313 1100 
L 313 1709 
L 2253 4666 
z
" transform="scale(0.015625)"/>
       </defs>
       <use xlink:href="#DejaVuSans-34"/>
       <use xlink:href="#DejaVuSans-30" x="63.623047"/>
      </g>
     </g>
    </g>
    <g id="xtick_4">
     <g id="text_4">
      <!-- 60 -->
      <g transform="translate(609.435125 287.06881) scale(0.08 -0.08)">
       <defs>
        <path id="DejaVuSans-36" d="M 2113 2584 
Q 1688 2584 1439 2293 
Q 1191 2003 1191 1497 
Q 1191 994 1439 701 
Q 1688 409 2113 409 
Q 2538 409 2786 701 
Q 3034 994 3034 1497 
Q 3034 2003 2786 2293 
Q 2538 2584 2113 2584 
z
M 3366 4563 
L 3366 3988 
Q 3128 4100 2886 4159 
Q 2644 4219 2406 4219 
Q 1781 4219 1451 3797 
Q 1122 3375 1075 2522 
Q 1259 2794 1537 2939 
Q 1816 3084 2150 3084 
Q 2853 3084 3261 2657 
Q 3669 2231 3669 1497 
Q 3669 778 3244 343 
Q 2819 -91 2113 -91 
Q 1303 -91 875 529 
Q 447 1150 447 2328 
Q 447 3434 972 4092 
Q 1497 4750 2381 4750 
Q 2619 4750 2861 4703 
Q 3103 4656 3366 4563 
z
" transform="scale(0.015625)"/>
       </defs>
       <use xlink:href="#DejaVuSans-36"/>
       <use xlink:href="#DejaVuSans-30" x="63.623047"/>
      </g>
     </g>
    </g>
    <g id="xtick_5">
     <g id="text_5">
      <!-- 80 -->
      <g transform="translate(794.804125 287.06881) scale(0.08 -0.08)">
       <defs>
        <path id="DejaVuSans-38" d="M 2034 2216 
Q 1584 2216 1326 1975 
Q 1069 1734 1069 1313 
Q 1069 891 1326 650 
Q 1584 409 2034 409 
Q 2484 409 2743 651 
Q 3003 894 3003 1313 
Q 3003 1734 2745 1975 
Q 2488 2216 2034 2216 
z
M 1403 2484 
Q 997 2584 770 2862 
Q 544 3141 544 3541 
Q 544 4100 942 4425 
Q 1341 4750 2034 4750 
Q 2731 4750 3128 4425 
Q 3525 4100 3525 3541 
Q 3525 3141 3298 2862 
Q 3072 2584 2669 2484 
Q 3125 2378 3379 2068 
Q 3634 1759 3634 1313 
Q 3634 634 3220 271 
Q 2806 -91 2034 -91 
Q 1263 -91 848 271 
Q 434 634 434 1313 
Q 434 1759 690 2068 
Q 947 2378 1403 2484 
z
M 1172 3481 
Q 1172 3119 1398 2916 
Q 1625 2713 2034 2713 
Q 2441 2713 2670 2916 
Q 2900 3119 2900 3481 
Q 2900 3844 2670 4047 
Q 2441 4250 2034 4250 
Q 1625 4250 1398 4047 
Q 1172 3844 1172 3481 
z
" transform="scale(0.015625)"/>
       </defs>
       <use xlink:href="#DejaVuSans-38"/>
       <use xlink:href="#DejaVuSans-30" x="63.623047"/>
      </g>
     </g>
    </g>
    <g id="xtick_6">
     <g id="text_6">
      <!-- 100 -->
      <g transform="translate(977.628125 287.06881) scale(0.08 -0.08)">
       <defs>
        <path id="DejaVuSans-31" d="M 794 531 
L 1825 531 
L 1825 4091 
L 703 3866 
L 703 4441 
L 1819 4666 
L 2450 4666 
L 2450 531 
L 3481 531 
L 3481 0 
L 794 0 
L 794 531 
z
" transform="scale(0.015625)"/>
       </defs>
       <use xlink:href="#DejaVuSans-31"/>
       <use xlink:href="#DejaVuSans-30" x="63.623047"/>
       <use xlink:href="#DejaVuSans-30" x="127.246094"/>
      </g>
     </g>
    </g>
    <g id="text_7">
     <!-- Transcript Position (%) -->
     <g transform="translate(466.008594 300.330997) scale(0.1 -0.1)">
      <defs>
       <path id="DejaVuSans-54" d="M -19 4666 
L 3928 4666 
L 3928 4134 
L 2272 4134 
L 2272 0 
L 1638 0 
L 1638 4134 
L -19 4134 
L -19 4666 
z
" transform="scale(0.015625)"/>
       <path id="DejaVuSans-72" d="M 2631 2963 
Q 2534 3019 2420 3045 
Q 2306 3072 2169 3072 
Q 1681 3072 1420 2755 
Q 1159 2438 1159 1844 
L 1159 0 
L 581 0 
L 581 3500 
L 1159 3500 
L 1159 2956 
Q 1341 3275 1631 3429 
Q 1922 3584 2338 3584 
Q 2397 3584 2469 3576 
Q 2541 3569 2628 3553 
L 2631 2963 
z
" transform="scale(0.015625)"/>
       <path id="DejaVuSans-61" d="M 2194 1759 
Q 1497 1759 1228 1600 
Q 959 1441 959 1056 
Q 959 750 1161 570 
Q 1363 391 1709 391 
Q 2188 391 2477 730 
Q 2766 1069 2766 1631 
L 2766 1759 
L 2194 1759 
z
M 3341 1997 
L 3341 0 
L 2766 0 
L 2766 531 
Q 2569 213 2275 61 
Q 1981 -91 1556 -91 
Q 1019 -91 701 211 
Q 384 513 384 1019 
Q 384 1609 779 1909 
Q 1175 2209 1959 2209 
L 2766 2209 
L 2766 2266 
Q 2766 2663 2505 2880 
Q 2244 3097 1772 3097 
Q 1472 3097 1187 3025 
Q 903 2953 641 2809 
L 641 3341 
Q 956 3463 1253 3523 
Q 1550 3584 1831 3584 
Q 2591 3584 2966 3190 
Q 3341 2797 3341 1997 
z
" transform="scale(0.015625)"/>
       <path id="DejaVuSans-6e" d="M 3513 2113 
L 3513 0 
L 2938 0 
L 2938 2094 
Q 2938 2591 2744 2837 
Q 2550 3084 2163 3084 
Q 1697 3084 1428 2787 
Q 1159 2491 1159 1978 
L 1159 0 
L 581 0 
L 581 3500 
L 1159 3500 
L 1159 2956 
Q 1366 3272 1645 3428 
Q 1925 3584 2291 3584 
Q 2894 3584 3203 3211 
Q 3513 2838 3513 2113 
z
" transform="scale(0.015625)"/>
       <path id="DejaVuSans-73" d="M 2834 3397 
L 2834 2853 
Q 2591 2978 2328 3040 
Q 2066 3103 1784 3103 
Q 1356 3103 1142 2972 
Q 928 2841 928 2578 
Q 928 2378 1081 2264 
Q 1234 2150 1697 2047 
L 1894 2003 
Q 2506 1872 2764 1633 
Q 3022 1394 3022 966 
Q 3022 478 2636 193 
Q 2250 -91 1575 -91 
Q 1294 -91 989 -36 
Q 684 19 347 128 
L 347 722 
Q 666 556 975 473 
Q 1284 391 1588 391 
Q 1994 391 2212 530 
Q 2431 669 2431 922 
Q 2431 1156 2273 1281 
Q 2116 1406 1581 1522 
L 1381 1569 
Q 847 1681 609 1914 
Q 372 2147 372 2553 
Q 372 3047 722 3315 
Q 1072 3584 1716 3584 
Q 2034 3584 2315 3537 
Q 2597 3491 2834 3397 
z
" transform="scale(0.015625)"/>
       <path id="DejaVuSans-63" d="M 3122 3366 
L 3122 2828 
Q 2878 2963 2633 3030 
Q 2388 3097 2138 3097 
Q 1578 3097 1268 2742 
Q 959 2388 959 1747 
Q 959 1106 1268 751 
Q 1578 397 2138 397 
Q 2388 397 2633 464 
Q 2878 531 3122 666 
L 3122 134 
Q 2881 22 2623 -34 
Q 2366 -91 2075 -91 
Q 1284 -91 818 406 
Q 353 903 353 1747 
Q 353 2603 823 3093 
Q 1294 3584 2113 3584 
Q 2378 3584 2631 3529 
Q 2884 3475 3122 3366 
z
" transform="scale(0.015625)"/>
       <path id="DejaVuSans-69" d="M 603 3500 
L 1178 3500 
L 1178 0 
L 603 0 
L 603 3500 
z
M 603 4863 
L 1178 4863 
L 1178 4134 
L 603 4134 
L 603 4863 
z
" transform="scale(0.015625)"/>
       <path id="DejaVuSans-70" d="M 1159 525 
L 1159 -1331 
L 581 -1331 
L 581 3500 
L 1159 3500 
L 1159 2969 
Q 1341 3281 1617 3432 
Q 1894 3584 2278 3584 
Q 2916 3584 3314 3078 
Q 3713 2572 3713 1747 
Q 3713 922 3314 415 
Q 2916 -91 2278 -91 
Q 1894 -91 1617 61 
Q 1341 213 1159 525 
z
M 3116 1747 
Q 3116 2381 2855 2742 
Q 2594 3103 2138 3103 
Q 1681 3103 1420 2742 
Q 1159 2381 1159 1747 
Q 1159 1113 1420 752 
Q 1681 391 2138 391 
Q 2594 391 2855 752 
Q 3116 1113 3116 1747 
z
" transform="scale(0.015625)"/>
       <path id="DejaVuSans-74" d="M 1172 4494 
L 1172 3500 
L 2356 3500 
L 2356 3053 
L 1172 3053 
L 1172 1153 
Q 1172 725 1289 603 
Q 1406 481 1766 481 
L 2356 481 
L 2356 0 
L 1766 0 
Q 1100 0 847 248 
Q 594 497 594 1153 
L 594 3053 
L 172 3053 
L 172 3500 
L 594 3500 
L 594 4494 
L 1172 4494 
z
" transform="scale(0.015625)"/>
       <path id="DejaVuSans-20" transform="scale(0.015625)"/>
       <path id="DejaVuSans-50" d="M 1259 4147 
L 1259 2394 
L 2053 2394 
Q 2494 2394 2734 2622 
Q 2975 2850 2975 3272 
Q 2975 3691 2734 3919 
Q 2494 4147 2053 4147 
L 1259 4147 
z
M 628 4666 
L 2053 4666 
Q 2838 4666 3239 4311 
Q 3641 3956 3641 3272 
Q 3641 2581 3239 2228 
Q 2838 1875 2053 1875 
L 1259 1875 
L 1259 0 
L 628 0 
L 628 4666 
z
" transform="scale(0.015625)"/>
       <path id="DejaVuSans-6f" d="M 1959 3097 
Q 1497 3097 1228 2736 
Q 959 2375 959 1747 
Q 959 1119 1226 758 
Q 1494 397 1959 397 
Q 2419 397 2687 759 
Q 2956 1122 2956 1747 
Q 2956 2369 2687 2733 
Q 2419 3097 1959 3097 
z
M 1959 3584 
Q 2709 3584 3137 3096 
Q 3566 2609 3566 1747 
Q 3566 888 3137 398 
Q 2709 -91 1959 -91 
Q 1206 -91 779 398 
Q 353 888 353 1747 
Q 353 2609 779 3096 
Q 1206 3584 1959 3584 
z
" transform="scale(0.015625)"/>
       <path id="DejaVuSans-28" d="M 1984 4856 
Q 1566 4138 1362 3434 
Q 1159 2731 1159 2009 
Q 1159 1288 1364 580 
Q 1569 -128 1984 -844 
L 1484 -844 
Q 1016 -109 783 600 
Q 550 1309 550 2009 
Q 550 2706 781 3412 
Q 1013 4119 1484 4856 
L 1984 4856 
z
" transform="scale(0.015625)"/>
       <path id="DejaVuSans-25" d="M 4653 2053 
Q 4381 2053 4226 1822 
Q 4072 1591 4072 1178 
Q 4072 772 4226 539 
Q 4381 306 4653 306 
Q 4919 306 5073 539 
Q 5228 772 5228 1178 
Q 5228 1588 5073 1820 
Q 4919 2053 4653 2053 
z
M 4653 2450 
Q 5147 2450 5437 2106 
Q 5728 1763 5728 1178 
Q 5728 594 5436 251 
Q 5144 -91 4653 -91 
Q 4153 -91 3862 251 
Q 3572 594 3572 1178 
Q 3572 1766 3864 2108 
Q 4156 2450 4653 2450 
z
M 1428 4353 
Q 1159 4353 1004 4120 
Q 850 3888 850 3481 
Q 850 3069 1003 2837 
Q 1156 2606 1428 2606 
Q 1700 2606 1854 2837 
Q 2009 3069 2009 3481 
Q 2009 3884 1853 4118 
Q 1697 4353 1428 4353 
z
M 4250 4750 
L 4750 4750 
L 1831 -91 
L 1331 -91 
L 4250 4750 
z
M 1428 4750 
Q 1922 4750 2215 4408 
Q 2509 4066 2509 3481 
Q 2509 2891 2217 2550 
Q 1925 2209 1428 2209 
Q 931 2209 642 2551 
Q 353 2894 353 3481 
Q 353 4063 643 4406 
Q 934 4750 1428 4750 
z
" transform="scale(0.015625)"/>
       <path id="DejaVuSans-29" d="M 513 4856 
L 1013 4856 
Q 1481 4119 1714 3412 
Q 1947 2706 1947 2009 
Q 1947 1309 1714 600 
Q 1481 -109 1013 -844 
L 513 -844 
Q 928 -128 1133 580 
Q 1338 1288 1338 2009 
Q 1338 2731 1133 3434 
Q 928 4138 513 4856 
z
" transform="scale(0.015625)"/>
      </defs>
      <use xlink:href="#DejaVuSans-54"/>
      <use xlink:href="#DejaVuSans-72" x="46.333984"/>
      <use xlink:href="#DejaVuSans-61" x="87.447266"/>
      <use xlink:href="#DejaVuSans-6e" x="148.726562"/>
      <use xlink:href="#DejaVuSans-73" x="212.105469"/>
      <use xlink:href="#DejaVuSans-63" x="264.205078"/>
      <use xlink:href="#DejaVuSans-72" x="319.185547"/>
      <use xlink:href="#DejaVuSans-69" x="360.298828"/>
      <use xlink:href="#DejaVuSans-70" x="388.082031"/>
      <use xlink:href="#DejaVuSans-74" x="451.558594"/>
      <use xlink:href="#DejaVuSans-20" x="490.767578"/>
      <use xlink:href="#DejaVuSans-50" x="522.554688"/>
      <use xlink:href="#DejaVuSans-6f" x="579.232422"/>
      <use xlink:href="#DejaVuSans-73" x="640.414062"/>
      <use xlink:href="#DejaVuSans-69" x="692.513672"/>
      <use xlink:href="#DejaVuSans-74" x="720.296875"/>
      <use xlink:href="#DejaVuSans-69" x="759.505859"/>
      <use xlink:href="#DejaVuSans-6f" x="787.289062"/>
      <use xlink:href="#DejaVuSans-6e" x="848.470703"/>
      <use xlink:href="#DejaVuSans-20" x="911.849609"/>
      <use xlink:href="#DejaVuSans-28" x="943.636719"/>
      <use xlink:href="#DejaVuSans-25" x="982.650391"/>
      <use xlink:href="#DejaVuSans-29" x="1077.669922"/>
     </g>
    </g>
   </g>
   <g id="matplotlib.axis_2">
    <g id="ytick_1">
     <g id="line2d_1">
      <path d="M 58.418125 273.99006 
L 985.263125 273.99006 
" clip-path="url(#pa577d80e62)" style="fill: none; stroke: #dedede; stroke-linecap: square"/>
     </g>
     <g id="text_8">
      <!-- 0 -->
      <g transform="translate(46.328125 277.029435) scale(0.08 -0.08)">
       <use xlink:href="#DejaVuSans-30"/>
      </g>
     </g>
    </g>
    <g id="ytick_2">
     <g id="line2d_2">
      <path d="M 58.418125 230.471298 
L 985.263125 230.471298 
" clip-path="url(#pa577d80e62)" style="fill: none; stroke: #dedede; stroke-linecap: square"/>
     </g>
     <g id="text_9">
      <!-- 100000 -->
      <g transform="translate(20.878125 233.510673) scale(0.08 -0.08)">
       <use xlink:href="#DejaVuSans-31"/>
       <use xlink:href="#DejaVuSans-30" x="63.623047"/>
       <use xlink:href="#DejaVuSans-30" x="127.246094"/>
       <use xlink:href="#DejaVuSans-30" x="190.869141"/>
       <use xlink:href="#DejaVuSans-30" x="254.492188"/>
       <use xlink:href="#DejaVuSans-30" x="318.115234"/>
      </g>
     </g>
    </g>
    <g id="ytick_3">
     <g id="line2d_3">
      <path d="M 58.418125 186.952535 
L 985.263125 186.952535 
" clip-path="url(#pa577d80e62)" style="fill: none; stroke: #dedede; stroke-linecap: square"/>
     </g>
     <g id="text_10">
      <!-- 200000 -->
      <g transform="translate(20.878125 189.99191) scale(0.08 -0.08)">
       <use xlink:href="#DejaVuSans-32"/>
       <use xlink:href="#DejaVuSans-30" x="63.623047"/>
       <use xlink:href="#DejaVuSans-30" x="127.246094"/>
       <use xlink:href="#DejaVuSans-30" x="190.869141"/>
       <use xlink:href="#DejaVuSans-30" x="254.492188"/>
       <use xlink:href="#DejaVuSans-30" x="318.115234"/>
      </g>
     </g>
    </g>
    <g id="ytick_4">
     <g id="line2d_4">
      <path d="M 58.418125 143.433773 
L 985.263125 143.433773 
" clip-path="url(#pa577d80e62)" style="fill: none; stroke: #dedede; stroke-linecap: square"/>
     </g>
     <g id="text_11">
      <!-- 300000 -->
      <g transform="translate(20.878125 146.473148) scale(0.08 -0.08)">
       <defs>
        <path id="DejaVuSans-33" d="M 2597 2516 
Q 3050 2419 3304 2112 
Q 3559 1806 3559 1356 
Q 3559 666 3084 287 
Q 2609 -91 1734 -91 
Q 1441 -91 1130 -33 
Q 819 25 488 141 
L 488 750 
Q 750 597 1062 519 
Q 1375 441 1716 441 
Q 2309 441 2620 675 
Q 2931 909 2931 1356 
Q 2931 1769 2642 2001 
Q 2353 2234 1838 2234 
L 1294 2234 
L 1294 2753 
L 1863 2753 
Q 2328 2753 2575 2939 
Q 2822 3125 2822 3475 
Q 2822 3834 2567 4026 
Q 2313 4219 1838 4219 
Q 1578 4219 1281 4162 
Q 984 4106 628 3988 
L 628 4550 
Q 988 4650 1302 4700 
Q 1616 4750 1894 4750 
Q 2613 4750 3031 4423 
Q 3450 4097 3450 3541 
Q 3450 3153 3228 2886 
Q 3006 2619 2597 2516 
z
" transform="scale(0.015625)"/>
       </defs>
       <use xlink:href="#DejaVuSans-33"/>
       <use xlink:href="#DejaVuSans-30" x="63.623047"/>
       <use xlink:href="#DejaVuSans-30" x="127.246094"/>
       <use xlink:href="#DejaVuSans-30" x="190.869141"/>
       <use xlink:href="#DejaVuSans-30" x="254.492188"/>
       <use xlink:href="#DejaVuSans-30" x="318.115234"/>
      </g>
     </g>
    </g>
    <g id="ytick_5">
     <g id="line2d_5">
      <path d="M 58.418125 99.91501 
L 985.263125 99.91501 
" clip-path="url(#pa577d80e62)" style="fill: none; stroke: #dedede; stroke-linecap: square"/>
     </g>
     <g id="text_12">
      <!-- 400000 -->
      <g transform="translate(20.878125 102.954385) scale(0.08 -0.08)">
       <use xlink:href="#DejaVuSans-34"/>
       <use xlink:href="#DejaVuSans-30" x="63.623047"/>
       <use xlink:href="#DejaVuSans-30" x="127.246094"/>
       <use xlink:href="#DejaVuSans-30" x="190.869141"/>
       <use xlink:href="#DejaVuSans-30" x="254.492188"/>
       <use xlink:href="#DejaVuSans-30" x="318.115234"/>
      </g>
     </g>
    </g>
    <g id="ytick_6">
     <g id="line2d_6">
      <path d="M 58.418125 56.396248 
L 985.263125 56.396248 
" clip-path="url(#pa577d80e62)" style="fill: none; stroke: #dedede; stroke-linecap: square"/>
     </g>
     <g id="text_13">
      <!-- 500000 -->
      <g transform="translate(20.878125 59.435623) scale(0.08 -0.08)">
       <defs>
        <path id="DejaVuSans-35" d="M 691 4666 
L 3169 4666 
L 3169 4134 
L 1269 4134 
L 1269 2991 
Q 1406 3038 1543 3061 
Q 1681 3084 1819 3084 
Q 2600 3084 3056 2656 
Q 3513 2228 3513 1497 
Q 3513 744 3044 326 
Q 2575 -91 1722 -91 
Q 1428 -91 1123 -41 
Q 819 9 494 109 
L 494 744 
Q 775 591 1075 516 
Q 1375 441 1709 441 
Q 2250 441 2565 725 
Q 2881 1009 2881 1497 
Q 2881 1984 2565 2268 
Q 2250 2553 1709 2553 
Q 1456 2553 1204 2497 
Q 953 2441 691 2322 
L 691 4666 
z
" transform="scale(0.015625)"/>
       </defs>
       <use xlink:href="#DejaVuSans-35"/>
       <use xlink:href="#DejaVuSans-30" x="63.623047"/>
       <use xlink:href="#DejaVuSans-30" x="127.246094"/>
       <use xlink:href="#DejaVuSans-30" x="190.869141"/>
       <use xlink:href="#DejaVuSans-30" x="254.492188"/>
       <use xlink:href="#DejaVuSans-30" x="318.115234"/>
      </g>
     </g>
    </g>
    <g id="text_14">
     <!-- Cumulative mapped-read depth -->
     <g transform="translate(14.798437 232.601304) rotate(-90) scale(0.1 -0.1)">
      <defs>
       <path id="DejaVuSans-43" d="M 4122 4306 
L 4122 3641 
Q 3803 3938 3442 4084 
Q 3081 4231 2675 4231 
Q 1875 4231 1450 3742 
Q 1025 3253 1025 2328 
Q 1025 1406 1450 917 
Q 1875 428 2675 428 
Q 3081 428 3442 575 
Q 3803 722 4122 1019 
L 4122 359 
Q 3791 134 3420 21 
Q 3050 -91 2638 -91 
Q 1578 -91 968 557 
Q 359 1206 359 2328 
Q 359 3453 968 4101 
Q 1578 4750 2638 4750 
Q 3056 4750 3426 4639 
Q 3797 4528 4122 4306 
z
" transform="scale(0.015625)"/>
       <path id="DejaVuSans-75" d="M 544 1381 
L 544 3500 
L 1119 3500 
L 1119 1403 
Q 1119 906 1312 657 
Q 1506 409 1894 409 
Q 2359 409 2629 706 
Q 2900 1003 2900 1516 
L 2900 3500 
L 3475 3500 
L 3475 0 
L 2900 0 
L 2900 538 
Q 2691 219 2414 64 
Q 2138 -91 1772 -91 
Q 1169 -91 856 284 
Q 544 659 544 1381 
z
M 1991 3584 
L 1991 3584 
z
" transform="scale(0.015625)"/>
       <path id="DejaVuSans-6d" d="M 3328 2828 
Q 3544 3216 3844 3400 
Q 4144 3584 4550 3584 
Q 5097 3584 5394 3201 
Q 5691 2819 5691 2113 
L 5691 0 
L 5113 0 
L 5113 2094 
Q 5113 2597 4934 2840 
Q 4756 3084 4391 3084 
Q 3944 3084 3684 2787 
Q 3425 2491 3425 1978 
L 3425 0 
L 2847 0 
L 2847 2094 
Q 2847 2600 2669 2842 
Q 2491 3084 2119 3084 
Q 1678 3084 1418 2786 
Q 1159 2488 1159 1978 
L 1159 0 
L 581 0 
L 581 3500 
L 1159 3500 
L 1159 2956 
Q 1356 3278 1631 3431 
Q 1906 3584 2284 3584 
Q 2666 3584 2933 3390 
Q 3200 3197 3328 2828 
z
" transform="scale(0.015625)"/>
       <path id="DejaVuSans-6c" d="M 603 4863 
L 1178 4863 
L 1178 0 
L 603 0 
L 603 4863 
z
" transform="scale(0.015625)"/>
       <path id="DejaVuSans-76" d="M 191 3500 
L 800 3500 
L 1894 563 
L 2988 3500 
L 3597 3500 
L 2284 0 
L 1503 0 
L 191 3500 
z
" transform="scale(0.015625)"/>
       <path id="DejaVuSans-65" d="M 3597 1894 
L 3597 1613 
L 953 1613 
Q 991 1019 1311 708 
Q 1631 397 2203 397 
Q 2534 397 2845 478 
Q 3156 559 3463 722 
L 3463 178 
Q 3153 47 2828 -22 
Q 2503 -91 2169 -91 
Q 1331 -91 842 396 
Q 353 884 353 1716 
Q 353 2575 817 3079 
Q 1281 3584 2069 3584 
Q 2775 3584 3186 3129 
Q 3597 2675 3597 1894 
z
M 3022 2063 
Q 3016 2534 2758 2815 
Q 2500 3097 2075 3097 
Q 1594 3097 1305 2825 
Q 1016 2553 972 2059 
L 3022 2063 
z
" transform="scale(0.015625)"/>
       <path id="DejaVuSans-64" d="M 2906 2969 
L 2906 4863 
L 3481 4863 
L 3481 0 
L 2906 0 
L 2906 525 
Q 2725 213 2448 61 
Q 2172 -91 1784 -91 
Q 1150 -91 751 415 
Q 353 922 353 1747 
Q 353 2572 751 3078 
Q 1150 3584 1784 3584 
Q 2172 3584 2448 3432 
Q 2725 3281 2906 2969 
z
M 947 1747 
Q 947 1113 1208 752 
Q 1469 391 1925 391 
Q 2381 391 2643 752 
Q 2906 1113 2906 1747 
Q 2906 2381 2643 2742 
Q 2381 3103 1925 3103 
Q 1469 3103 1208 2742 
Q 947 2381 947 1747 
z
" transform="scale(0.015625)"/>
       <path id="DejaVuSans-2d" d="M 313 2009 
L 1997 2009 
L 1997 1497 
L 313 1497 
L 313 2009 
z
" transform="scale(0.015625)"/>
       <path id="DejaVuSans-68" d="M 3513 2113 
L 3513 0 
L 2938 0 
L 2938 2094 
Q 2938 2591 2744 2837 
Q 2550 3084 2163 3084 
Q 1697 3084 1428 2787 
Q 1159 2491 1159 1978 
L 1159 0 
L 581 0 
L 581 4863 
L 1159 4863 
L 1159 2956 
Q 1366 3272 1645 3428 
Q 1925 3584 2291 3584 
Q 2894 3584 3203 3211 
Q 3513 2838 3513 2113 
z
" transform="scale(0.015625)"/>
      </defs>
      <use xlink:href="#DejaVuSans-43"/>
      <use xlink:href="#DejaVuSans-75" x="69.824219"/>
      <use xlink:href="#DejaVuSans-6d" x="133.203125"/>
      <use xlink:href="#DejaVuSans-75" x="230.615234"/>
      <use xlink:href="#DejaVuSans-6c" x="293.994141"/>
      <use xlink:href="#DejaVuSans-61" x="321.777344"/>
      <use xlink:href="#DejaVuSans-74" x="383.056641"/>
      <use xlink:href="#DejaVuSans-69" x="422.265625"/>
      <use xlink:href="#DejaVuSans-76" x="450.048828"/>
      <use xlink:href="#DejaVuSans-65" x="509.228516"/>
      <use xlink:href="#DejaVuSans-20" x="570.751953"/>
      <use xlink:href="#DejaVuSans-6d" x="602.539062"/>
      <use xlink:href="#DejaVuSans-61" x="699.951172"/>
      <use xlink:href="#DejaVuSans-70" x="761.230469"/>
      <use xlink:href="#DejaVuSans-70" x="824.707031"/>
      <use xlink:href="#DejaVuSans-65" x="888.183594"/>
      <use xlink:href="#DejaVuSans-64" x="949.707031"/>
      <use xlink:href="#DejaVuSans-2d" x="1013.183594"/>
      <use xlink:href="#DejaVuSans-72" x="1049.267578"/>
      <use xlink:href="#DejaVuSans-65" x="1088.130859"/>
      <use xlink:href="#DejaVuSans-61" x="1149.654297"/>
      <use xlink:href="#DejaVuSans-64" x="1210.933594"/>
      <use xlink:href="#DejaVuSans-20" x="1274.410156"/>
      <use xlink:href="#DejaVuSans-64" x="1306.197266"/>
      <use xlink:href="#DejaVuSans-65" x="1369.673828"/>
      <use xlink:href="#DejaVuSans-70" x="1431.197266"/>
      <use xlink:href="#DejaVuSans-74" x="1494.673828"/>
      <use xlink:href="#DejaVuSans-68" x="1533.882812"/>
     </g>
    </g>
   </g>
   <g id="line2d_7">
    <path d="M 58.418125 125.00928 
L 67.686575 115.908897 
L 76.955025 107.188555 
L 86.223475 98.928581 
L 95.491925 91.90444 
L 104.760375 85.478588 
L 114.028825 79.006858 
L 123.297275 73.136273 
L 132.565725 69.579489 
L 141.834175 66.24463 
L 151.102625 62.524604 
L 160.371075 61.598893 
L 169.639525 60.918578 
L 178.907975 59.614565 
L 188.176425 58.972948 
L 197.444875 57.419913 
L 206.713325 56.14625 
L 215.981775 55.274161 
L 225.250225 54.157232 
L 234.518675 52.349896 
L 243.787125 52.131445 
L 253.055575 51.106335 
L 262.324025 48.578443 
L 271.592475 47.63622 
L 280.860925 47.682065 
L 290.129375 48.048556 
L 299.397825 46.716511 
L 308.666275 46.673036 
L 317.934725 47.326732 
L 327.203175 46.869909 
L 336.471625 46.574434 
L 345.740075 45.600976 
L 355.008525 42.606449 
L 364.276975 43.167223 
L 373.545425 43.276713 
L 382.813875 43.968829 
L 392.082325 45.114986 
L 401.350775 45.449255 
L 410.619225 46.816288 
L 419.887675 47.60858 
L 429.156125 48.450207 
L 438.424575 49.99697 
L 447.693025 51.732075 
L 456.961475 51.800323 
L 466.229925 52.425277 
L 475.498375 53.639872 
L 484.766825 54.177823 
L 494.035275 55.061265 
L 503.303725 55.129914 
L 512.572175 55.048682 
L 521.840625 56.708415 
L 531.109075 57.81837 
L 540.377525 58.115869 
L 549.645975 59.388278 
L 558.914425 61.682344 
L 568.182875 64.288428 
L 577.451325 66.237191 
L 586.719775 65.949563 
L 595.988225 66.229751 
L 605.256675 66.772976 
L 614.525125 66.434569 
L 623.793575 66.653719 
L 633.062025 67.18884 
L 642.330475 67.978776 
L 651.598925 69.357628 
L 660.867375 70.754655 
L 670.135825 72.215994 
L 679.404275 72.692116 
L 688.672725 73.699772 
L 697.941175 74.322519 
L 707.209625 75.014336 
L 716.478075 75.428189 
L 725.746525 75.642651 
L 735.014975 77.617352 
L 744.283425 78.216338 
L 753.551875 78.819981 
L 762.820325 80.368314 
L 772.088775 82.11038 
L 781.357225 84.54197 
L 790.625675 85.369128 
L 799.894125 85.833632 
L 809.162575 87.29271 
L 818.431025 88.377822 
L 827.699475 91.103051 
L 836.967925 94.336186 
L 846.236375 97.707551 
L 855.504825 102.761575 
L 864.773275 108.009963 
L 874.041725 115.046515 
L 883.310175 121.569237 
L 892.578625 131.13695 
L 901.847075 141.963003 
L 911.115525 155.122932 
L 920.383975 168.358962 
L 929.652425 180.414865 
L 938.920875 192.260291 
L 948.189325 206.720632 
L 957.457775 222.264755 
L 966.726225 242.151659 
L 975.994675 263.53198 
" clip-path="url(#pa577d80e62)" style="fill: none; stroke: #7cb5ec; stroke-linecap: square"/>
   </g>
   <g id="line2d_8">
    <path d="M 58.418125 139.820702 
L 67.686575 131.713221 
L 76.955025 123.728502 
L 86.223475 116.774904 
L 95.491925 111.168153 
L 104.760375 105.835855 
L 114.028825 100.533926 
L 123.297275 96.490717 
L 132.565725 93.902462 
L 141.834175 91.260308 
L 151.102625 88.855347 
L 160.371075 88.275874 
L 169.639525 87.818 
L 178.907975 86.97553 
L 188.176425 86.319521 
L 197.444875 85.146923 
L 206.713325 84.60635 
L 215.981775 83.867394 
L 225.250225 83.285886 
L 234.518675 82.392424 
L 243.787125 82.286053 
L 253.055575 82.441411 
L 262.324025 81.241985 
L 271.592475 80.742649 
L 280.860925 81.170235 
L 290.129375 81.56392 
L 299.397825 81.148774 
L 308.666275 81.294902 
L 317.934725 81.74498 
L 327.203175 81.477037 
L 336.471625 81.590542 
L 345.740075 81.05684 
L 355.008525 79.64325 
L 364.276975 80.525133 
L 373.545425 80.658445 
L 382.813875 81.688731 
L 392.082325 82.773891 
L 401.350775 83.464853 
L 410.619225 84.915363 
L 419.887675 85.650055 
L 429.156125 86.920924 
L 438.424575 88.509332 
L 447.693025 89.417265 
L 456.961475 89.533978 
L 466.229925 90.122634 
L 475.498375 90.874421 
L 484.766825 91.257198 
L 494.035275 91.980215 
L 503.303725 92.333313 
L 512.572175 92.480033 
L 521.840625 93.248187 
L 531.109075 93.921086 
L 540.377525 94.896589 
L 549.645975 95.951546 
L 558.914425 97.969189 
L 568.182875 99.890065 
L 577.451325 101.086493 
L 586.719775 100.983882 
L 595.988225 101.281497 
L 605.256675 102.057776 
L 614.525125 102.249964 
L 623.793575 102.887775 
L 633.062025 103.473278 
L 642.330475 104.082747 
L 651.598925 105.066525 
L 660.867375 106.018702 
L 670.135825 107.155654 
L 679.404275 107.50806 
L 688.672725 108.430348 
L 697.941175 108.88548 
L 707.209625 109.51477 
L 716.478075 109.791274 
L 725.746525 109.867165 
L 735.014975 111.330922 
L 744.283425 111.735608 
L 753.551875 112.482512 
L 762.820325 113.821549 
L 772.088775 114.846378 
L 781.357225 116.074689 
L 790.625675 116.824007 
L 799.894125 117.485488 
L 809.162575 118.766963 
L 818.431025 119.798621 
L 827.699475 122.25102 
L 836.967925 125.210614 
L 846.236375 127.563191 
L 855.504825 131.731818 
L 864.773275 136.307231 
L 874.041725 142.091814 
L 883.310175 147.882658 
L 892.578625 155.210393 
L 901.847075 163.668495 
L 911.115525 173.96214 
L 920.383975 184.383099 
L 929.652425 194.132601 
L 938.920875 204.142594 
L 948.189325 216.340274 
L 957.457775 229.866435 
L 966.726225 246.682324 
L 975.994675 265.078222 
" clip-path="url(#pa577d80e62)" style="fill: none; stroke: #434348; stroke-linecap: square"/>
   </g>
   <g id="line2d_9">
    <path d="M 58.418125 273.99006 
L 985.263125 273.99006 
" clip-path="url(#pa577d80e62)" style="fill: none; stroke: #dedede; stroke-width: 2; stroke-linecap: square"/>
   </g>
   <g id="text_15">
    <!-- Qualimap RNAseq: Coverage Profile Along Genes (total) -->
    <g transform="translate(298.459375 19.3575) scale(0.16 -0.16)">
     <defs>
      <path id="DejaVuSans-51" d="M 2522 4238 
Q 1834 4238 1429 3725 
Q 1025 3213 1025 2328 
Q 1025 1447 1429 934 
Q 1834 422 2522 422 
Q 3209 422 3611 934 
Q 4013 1447 4013 2328 
Q 4013 3213 3611 3725 
Q 3209 4238 2522 4238 
z
M 3406 84 
L 4238 -825 
L 3475 -825 
L 2784 -78 
Q 2681 -84 2626 -87 
Q 2572 -91 2522 -91 
Q 1538 -91 948 567 
Q 359 1225 359 2328 
Q 359 3434 948 4092 
Q 1538 4750 2522 4750 
Q 3503 4750 4090 4092 
Q 4678 3434 4678 2328 
Q 4678 1516 4351 937 
Q 4025 359 3406 84 
z
" transform="scale(0.015625)"/>
      <path id="DejaVuSans-52" d="M 2841 2188 
Q 3044 2119 3236 1894 
Q 3428 1669 3622 1275 
L 4263 0 
L 3584 0 
L 2988 1197 
Q 2756 1666 2539 1819 
Q 2322 1972 1947 1972 
L 1259 1972 
L 1259 0 
L 628 0 
L 628 4666 
L 2053 4666 
Q 2853 4666 3247 4331 
Q 3641 3997 3641 3322 
Q 3641 2881 3436 2590 
Q 3231 2300 2841 2188 
z
M 1259 4147 
L 1259 2491 
L 2053 2491 
Q 2509 2491 2742 2702 
Q 2975 2913 2975 3322 
Q 2975 3731 2742 3939 
Q 2509 4147 2053 4147 
L 1259 4147 
z
" transform="scale(0.015625)"/>
      <path id="DejaVuSans-4e" d="M 628 4666 
L 1478 4666 
L 3547 763 
L 3547 4666 
L 4159 4666 
L 4159 0 
L 3309 0 
L 1241 3903 
L 1241 0 
L 628 0 
L 628 4666 
z
" transform="scale(0.015625)"/>
      <path id="DejaVuSans-41" d="M 2188 4044 
L 1331 1722 
L 3047 1722 
L 2188 4044 
z
M 1831 4666 
L 2547 4666 
L 4325 0 
L 3669 0 
L 3244 1197 
L 1141 1197 
L 716 0 
L 50 0 
L 1831 4666 
z
" transform="scale(0.015625)"/>
      <path id="DejaVuSans-71" d="M 947 1747 
Q 947 1113 1208 752 
Q 1469 391 1925 391 
Q 2381 391 2643 752 
Q 2906 1113 2906 1747 
Q 2906 2381 2643 2742 
Q 2381 3103 1925 3103 
Q 1469 3103 1208 2742 
Q 947 2381 947 1747 
z
M 2906 525 
Q 2725 213 2448 61 
Q 2172 -91 1784 -91 
Q 1150 -91 751 415 
Q 353 922 353 1747 
Q 353 2572 751 3078 
Q 1150 3584 1784 3584 
Q 2172 3584 2448 3432 
Q 2725 3281 2906 2969 
L 2906 3500 
L 3481 3500 
L 3481 -1331 
L 2906 -1331 
L 2906 525 
z
" transform="scale(0.015625)"/>
      <path id="DejaVuSans-3a" d="M 750 794 
L 1409 794 
L 1409 0 
L 750 0 
L 750 794 
z
M 750 3309 
L 1409 3309 
L 1409 2516 
L 750 2516 
L 750 3309 
z
" transform="scale(0.015625)"/>
      <path id="DejaVuSans-67" d="M 2906 1791 
Q 2906 2416 2648 2759 
Q 2391 3103 1925 3103 
Q 1463 3103 1205 2759 
Q 947 2416 947 1791 
Q 947 1169 1205 825 
Q 1463 481 1925 481 
Q 2391 481 2648 825 
Q 2906 1169 2906 1791 
z
M 3481 434 
Q 3481 -459 3084 -895 
Q 2688 -1331 1869 -1331 
Q 1566 -1331 1297 -1286 
Q 1028 -1241 775 -1147 
L 775 -588 
Q 1028 -725 1275 -790 
Q 1522 -856 1778 -856 
Q 2344 -856 2625 -561 
Q 2906 -266 2906 331 
L 2906 616 
Q 2728 306 2450 153 
Q 2172 0 1784 0 
Q 1141 0 747 490 
Q 353 981 353 1791 
Q 353 2603 747 3093 
Q 1141 3584 1784 3584 
Q 2172 3584 2450 3431 
Q 2728 3278 2906 2969 
L 2906 3500 
L 3481 3500 
L 3481 434 
z
" transform="scale(0.015625)"/>
      <path id="DejaVuSans-66" d="M 2375 4863 
L 2375 4384 
L 1825 4384 
Q 1516 4384 1395 4259 
Q 1275 4134 1275 3809 
L 1275 3500 
L 2222 3500 
L 2222 3053 
L 1275 3053 
L 1275 0 
L 697 0 
L 697 3053 
L 147 3053 
L 147 3500 
L 697 3500 
L 697 3744 
Q 697 4328 969 4595 
Q 1241 4863 1831 4863 
L 2375 4863 
z
" transform="scale(0.015625)"/>
      <path id="DejaVuSans-47" d="M 3809 666 
L 3809 1919 
L 2778 1919 
L 2778 2438 
L 4434 2438 
L 4434 434 
Q 4069 175 3628 42 
Q 3188 -91 2688 -91 
Q 1594 -91 976 548 
Q 359 1188 359 2328 
Q 359 3472 976 4111 
Q 1594 4750 2688 4750 
Q 3144 4750 3555 4637 
Q 3966 4525 4313 4306 
L 4313 3634 
Q 3963 3931 3569 4081 
Q 3175 4231 2741 4231 
Q 1884 4231 1454 3753 
Q 1025 3275 1025 2328 
Q 1025 1384 1454 906 
Q 1884 428 2741 428 
Q 3075 428 3337 486 
Q 3600 544 3809 666 
z
" transform="scale(0.015625)"/>
     </defs>
     <use xlink:href="#DejaVuSans-51"/>
     <use xlink:href="#DejaVuSans-75" x="78.710938"/>
     <use xlink:href="#DejaVuSans-61" x="142.089844"/>
     <use xlink:href="#DejaVuSans-6c" x="203.369141"/>
     <use xlink:href="#DejaVuSans-69" x="231.152344"/>
     <use xlink:href="#DejaVuSans-6d" x="258.935547"/>
     <use xlink:href="#DejaVuSans-61" x="356.347656"/>
     <use xlink:href="#DejaVuSans-70" x="417.626953"/>
     <use xlink:href="#DejaVuSans-20" x="481.103516"/>
     <use xlink:href="#DejaVuSans-52" x="512.890625"/>
     <use xlink:href="#DejaVuSans-4e" x="582.373047"/>
     <use xlink:href="#DejaVuSans-41" x="657.177734"/>
     <use xlink:href="#DejaVuSans-73" x="725.585938"/>
     <use xlink:href="#DejaVuSans-65" x="777.685547"/>
     <use xlink:href="#DejaVuSans-71" x="839.208984"/>
     <use xlink:href="#DejaVuSans-3a" x="902.685547"/>
     <use xlink:href="#DejaVuSans-20" x="936.376953"/>
     <use xlink:href="#DejaVuSans-43" x="968.164062"/>
     <use xlink:href="#DejaVuSans-6f" x="1037.988281"/>
     <use xlink:href="#DejaVuSans-76" x="1099.169922"/>
     <use xlink:href="#DejaVuSans-65" x="1158.349609"/>
     <use xlink:href="#DejaVuSans-72" x="1219.873047"/>
     <use xlink:href="#DejaVuSans-61" x="1260.986328"/>
     <use xlink:href="#DejaVuSans-67" x="1322.265625"/>
     <use xlink:href="#DejaVuSans-65" x="1385.742188"/>
     <use xlink:href="#DejaVuSans-20" x="1447.265625"/>
     <use xlink:href="#DejaVuSans-50" x="1479.052734"/>
     <use xlink:href="#DejaVuSans-72" x="1537.605469"/>
     <use xlink:href="#DejaVuSans-6f" x="1576.46875"/>
     <use xlink:href="#DejaVuSans-66" x="1637.650391"/>
     <use xlink:href="#DejaVuSans-69" x="1672.855469"/>
     <use xlink:href="#DejaVuSans-6c" x="1700.638672"/>
     <use xlink:href="#DejaVuSans-65" x="1728.421875"/>
     <use xlink:href="#DejaVuSans-20" x="1789.945312"/>
     <use xlink:href="#DejaVuSans-41" x="1821.732422"/>
     <use xlink:href="#DejaVuSans-6c" x="1890.140625"/>
     <use xlink:href="#DejaVuSans-6f" x="1917.923828"/>
     <use xlink:href="#DejaVuSans-6e" x="1979.105469"/>
     <use xlink:href="#DejaVuSans-67" x="2042.484375"/>
     <use xlink:href="#DejaVuSans-20" x="2105.960938"/>
     <use xlink:href="#DejaVuSans-47" x="2137.748047"/>
     <use xlink:href="#DejaVuSans-65" x="2215.238281"/>
     <use xlink:href="#DejaVuSans-6e" x="2276.761719"/>
     <use xlink:href="#DejaVuSans-65" x="2340.140625"/>
     <use xlink:href="#DejaVuSans-73" x="2401.664062"/>
     <use xlink:href="#DejaVuSans-20" x="2453.763672"/>
     <use xlink:href="#DejaVuSans-28" x="2485.550781"/>
     <use xlink:href="#DejaVuSans-74" x="2524.564453"/>
     <use xlink:href="#DejaVuSans-6f" x="2563.773438"/>
     <use xlink:href="#DejaVuSans-74" x="2624.955078"/>
     <use xlink:href="#DejaVuSans-61" x="2664.164062"/>
     <use xlink:href="#DejaVuSans-6c" x="2725.443359"/>
     <use xlink:href="#DejaVuSans-29" x="2753.226562"/>
    </g>
   </g>
   <g id="legend_1">
    <g id="line2d_10">
     <path d="M 65.618125 315.455394 
L 73.618125 315.455394 
L 81.618125 315.455394 
" style="fill: none; stroke: #7cb5ec; stroke-linecap: square"/>
    </g>
    <g id="text_16">
     <!-- Minus_cre_p53mut -->
     <g transform="translate(88.018125 318.255394) scale(0.08 -0.08)">
      <defs>
       <path id="DejaVuSans-4d" d="M 628 4666 
L 1569 4666 
L 2759 1491 
L 3956 4666 
L 4897 4666 
L 4897 0 
L 4281 0 
L 4281 4097 
L 3078 897 
L 2444 897 
L 1241 4097 
L 1241 0 
L 628 0 
L 628 4666 
z
" transform="scale(0.015625)"/>
       <path id="DejaVuSans-5f" d="M 3263 -1063 
L 3263 -1509 
L -63 -1509 
L -63 -1063 
L 3263 -1063 
z
" transform="scale(0.015625)"/>
      </defs>
      <use xlink:href="#DejaVuSans-4d"/>
      <use xlink:href="#DejaVuSans-69" x="86.279297"/>
      <use xlink:href="#DejaVuSans-6e" x="114.0625"/>
      <use xlink:href="#DejaVuSans-75" x="177.441406"/>
      <use xlink:href="#DejaVuSans-73" x="240.820312"/>
      <use xlink:href="#DejaVuSans-5f" x="292.919922"/>
      <use xlink:href="#DejaVuSans-63" x="342.919922"/>
      <use xlink:href="#DejaVuSans-72" x="397.900391"/>
      <use xlink:href="#DejaVuSans-65" x="436.763672"/>
      <use xlink:href="#DejaVuSans-5f" x="498.287109"/>
      <use xlink:href="#DejaVuSans-70" x="548.287109"/>
      <use xlink:href="#DejaVuSans-35" x="611.763672"/>
      <use xlink:href="#DejaVuSans-33" x="675.386719"/>
      <use xlink:href="#DejaVuSans-6d" x="739.009766"/>
      <use xlink:href="#DejaVuSans-75" x="836.421875"/>
      <use xlink:href="#DejaVuSans-74" x="899.800781"/>
     </g>
    </g>
    <g id="line2d_11">
     <path d="M 887.691875 315.455394 
L 895.691875 315.455394 
L 903.691875 315.455394 
" style="fill: none; stroke: #434348; stroke-linecap: square"/>
    </g>
    <g id="text_17">
     <!-- Plus_cre_p53mut -->
     <g transform="translate(910.091875 318.255394) scale(0.08 -0.08)">
      <use xlink:href="#DejaVuSans-50"/>
      <use xlink:href="#DejaVuSans-6c" x="60.302734"/>
      <use xlink:href="#DejaVuSans-75" x="88.085938"/>
      <use xlink:href="#DejaVuSans-73" x="151.464844"/>
      <use xlink:href="#DejaVuSans-5f" x="203.564453"/>
      <use xlink:href="#DejaVuSans-63" x="253.564453"/>
      <use xlink:href="#DejaVuSans-72" x="308.544922"/>
      <use xlink:href="#DejaVuSans-65" x="347.408203"/>
      <use xlink:href="#DejaVuSans-5f" x="408.931641"/>
      <use xlink:href="#DejaVuSans-70" x="458.931641"/>
      <use xlink:href="#DejaVuSans-35" x="522.408203"/>
      <use xlink:href="#DejaVuSans-33" x="586.03125"/>
      <use xlink:href="#DejaVuSans-6d" x="649.654297"/>
      <use xlink:href="#DejaVuSans-75" x="747.066406"/>
      <use xlink:href="#DejaVuSans-74" x="810.445312"/>
     </g>
    </g>
   </g>
  </g>
 </g>
 <defs>
  <clipPath id="pa577d80e62">
   <rect x="58.418125" y="31.48286" width="926.845" height="242.5072"/>
  </clipPath>
 </defs>
</svg>
