<?xml version="1.0" encoding="utf-8" standalone="no"?>
<!DOCTYPE svg PUBLIC "-//W3C//DTD SVG 1.1//EN"
  "http://www.w3.org/Graphics/SVG/1.1/DTD/svg11.dtd">
<svg xmlns:xlink="http://www.w3.org/1999/xlink" width="1000.358125pt" height="330.541644pt" viewBox="0 0 1000.358125 330.541644" xmlns="http://www.w3.org/2000/svg" version="1.1">
 <metadata>
  <rdf:RDF xmlns:dc="http://purl.org/dc/elements/1.1/" xmlns:cc="http://creativecommons.org/ns#" xmlns:rdf="http://www.w3.org/1999/02/22-rdf-syntax-ns#">
   <cc:Work>
    <dc:type rdf:resource="http://purl.org/dc/dcmitype/StillImage"/>
    <dc:date>2025-05-20T01:35:41.508794</dc:date>
    <dc:format>image/svg+xml</dc:format>
    <dc:creator>
     <cc:Agent>
      <dc:title>Matplotlib v3.8.2, https://matplotlib.org/</dc:title>
     </cc:Agent>
    </dc:creator>
   </cc:Work>
  </rdf:RDF>
 </metadata>
 <defs>
  <style type="text/css">*{stroke-linejoin: round; stroke-linecap: butt}</style>
 </defs>
 <g id="figure_1">
  <g id="axes_1">
   <g id="patch_1">
    <path d="M 32.968125 273.99006 
L 993.158125 273.99006 
L 993.158125 31.48286 
L 32.968125 31.48286 
z
" style="fill: #ffffff"/>
   </g>
   <g id="patch_2">
    <path d="M 32.968125 -696.03874 
L 955.884658 -696.03874 
L 955.884658 -4576.15394 
L 32.968125 -4576.15394 
z
" clip-path="url(#p482cfba97e)" style="fill: #e6c3c3"/>
   </g>
   <g id="patch_3">
    <path d="M 32.968125 31.48286 
L 955.884658 31.48286 
L 955.884658 -696.03874 
L 32.968125 -696.03874 
z
" clip-path="url(#p482cfba97e)" style="fill: #e6dcc3"/>
   </g>
   <g id="patch_4">
    <path d="M 32.968125 273.99006 
L 955.884658 273.99006 
L 955.884658 31.48286 
L 32.968125 31.48286 
z
" clip-path="url(#p482cfba97e)" style="fill: #c3e6c3"/>
   </g>
   <g id="matplotlib.axis_1">
    <g id="xtick_1">
     <g id="text_1">
      <!-- 0 -->
      <g transform="translate(67.696592 287.06881) scale(0.08 -0.08)">
       <defs>
        <path id="DejaVuSans-30" d="M 2034 4250 
Q 1547 4250 1301 3770 
Q 1056 3291 1056 2328 
Q 1056 1369 1301 889 
Q 1547 409 2034 409 
Q 2525 409 2770 889 
Q 3016 1369 3016 2328 
Q 3016 3291 2770 3770 
Q 2525 4250 2034 4250 
z
M 2034 4750 
Q 2819 4750 3233 4129 
Q 3647 3509 3647 2328 
Q 3647 1150 3233 529 
Q 2819 -91 2034 -91 
Q 1250 -91 836 529 
Q 422 1150 422 2328 
Q 422 3509 836 4129 
Q 1250 4750 2034 4750 
z
" transform="scale(0.015625)"/>
       </defs>
       <use xlink:href="#DejaVuSans-30"/>
      </g>
     </g>
    </g>
    <g id="xtick_2">
     <g id="text_2">
      <!-- 20 -->
      <g transform="translate(192.582249 287.06881) scale(0.08 -0.08)">
       <defs>
        <path id="DejaVuSans-32" d="M 1228 531 
L 3431 531 
L 3431 0 
L 469 0 
L 469 531 
Q 828 903 1448 1529 
Q 2069 2156 2228 2338 
Q 2531 2678 2651 2914 
Q 2772 3150 2772 3378 
Q 2772 3750 2511 3984 
Q 2250 4219 1831 4219 
Q 1534 4219 1204 4116 
Q 875 4013 500 3803 
L 500 4441 
Q 881 4594 1212 4672 
Q 1544 4750 1819 4750 
Q 2544 4750 2975 4387 
Q 3406 4025 3406 3419 
Q 3406 3131 3298 2873 
Q 3191 2616 2906 2266 
Q 2828 2175 2409 1742 
Q 1991 1309 1228 531 
z
" transform="scale(0.015625)"/>
       </defs>
       <use xlink:href="#DejaVuSans-32"/>
       <use xlink:href="#DejaVuSans-30" x="63.623047"/>
      </g>
     </g>
    </g>
    <g id="xtick_3">
     <g id="text_3">
      <!-- 40 -->
      <g transform="translate(320.012906 287.06881) scale(0.08 -0.08)">
       <defs>
        <path id="DejaVuSans-34" d="M 2419 4116 
L 825 1625 
L 2419 1625 
L 2419 4116 
z
M 2253 4666 
L 3047 4666 
L 3047 1625 
L 3713 1625 
L 3713 1100 
L 3047 1100 
L 3047 0 
L 2419 0 
L 2419 1100 
L 313 1100 
L 313 1709 
L 2253 4666 
z
" transform="scale(0.015625)"/>
       </defs>
       <use xlink:href="#DejaVuSans-34"/>
       <use xlink:href="#DejaVuSans-30" x="63.623047"/>
      </g>
     </g>
    </g>
    <g id="xtick_4">
     <g id="text_4">
      <!-- 60 -->
      <g transform="translate(447.443563 287.06881) scale(0.08 -0.08)">
       <defs>
        <path id="DejaVuSans-36" d="M 2113 2584 
Q 1688 2584 1439 2293 
Q 1191 2003 1191 1497 
Q 1191 994 1439 701 
Q 1688 409 2113 409 
Q 2538 409 2786 701 
Q 3034 994 3034 1497 
Q 3034 2003 2786 2293 
Q 2538 2584 2113 2584 
z
M 3366 4563 
L 3366 3988 
Q 3128 4100 2886 4159 
Q 2644 4219 2406 4219 
Q 1781 4219 1451 3797 
Q 1122 3375 1075 2522 
Q 1259 2794 1537 2939 
Q 1816 3084 2150 3084 
Q 2853 3084 3261 2657 
Q 3669 2231 3669 1497 
Q 3669 778 3244 343 
Q 2819 -91 2113 -91 
Q 1303 -91 875 529 
Q 447 1150 447 2328 
Q 447 3434 972 4092 
Q 1497 4750 2381 4750 
Q 2619 4750 2861 4703 
Q 3103 4656 3366 4563 
z
" transform="scale(0.015625)"/>
       </defs>
       <use xlink:href="#DejaVuSans-36"/>
       <use xlink:href="#DejaVuSans-30" x="63.623047"/>
      </g>
     </g>
    </g>
    <g id="xtick_5">
     <g id="text_5">
      <!-- 80 -->
      <g transform="translate(574.87422 287.06881) scale(0.08 -0.08)">
       <defs>
        <path id="DejaVuSans-38" d="M 2034 2216 
Q 1584 2216 1326 1975 
Q 1069 1734 1069 1313 
Q 1069 891 1326 650 
Q 1584 409 2034 409 
Q 2484 409 2743 651 
Q 3003 894 3003 1313 
Q 3003 1734 2745 1975 
Q 2488 2216 2034 2216 
z
M 1403 2484 
Q 997 2584 770 2862 
Q 544 3141 544 3541 
Q 544 4100 942 4425 
Q 1341 4750 2034 4750 
Q 2731 4750 3128 4425 
Q 3525 4100 3525 3541 
Q 3525 3141 3298 2862 
Q 3072 2584 2669 2484 
Q 3125 2378 3379 2068 
Q 3634 1759 3634 1313 
Q 3634 634 3220 271 
Q 2806 -91 2034 -91 
Q 1263 -91 848 271 
Q 434 634 434 1313 
Q 434 1759 690 2068 
Q 947 2378 1403 2484 
z
M 1172 3481 
Q 1172 3119 1398 2916 
Q 1625 2713 2034 2713 
Q 2441 2713 2670 2916 
Q 2900 3119 2900 3481 
Q 2900 3844 2670 4047 
Q 2441 4250 2034 4250 
Q 1625 4250 1398 4047 
Q 1172 3844 1172 3481 
z
" transform="scale(0.015625)"/>
       </defs>
       <use xlink:href="#DejaVuSans-38"/>
       <use xlink:href="#DejaVuSans-30" x="63.623047"/>
      </g>
     </g>
    </g>
    <g id="xtick_6">
     <g id="text_6">
      <!-- 100 -->
      <g transform="translate(699.759877 287.06881) scale(0.08 -0.08)">
       <defs>
        <path id="DejaVuSans-31" d="M 794 531 
L 1825 531 
L 1825 4091 
L 703 3866 
L 703 4441 
L 1819 4666 
L 2450 4666 
L 2450 531 
L 3481 531 
L 3481 0 
L 794 0 
L 794 531 
z
" transform="scale(0.015625)"/>
       </defs>
       <use xlink:href="#DejaVuSans-31"/>
       <use xlink:href="#DejaVuSans-30" x="63.623047"/>
       <use xlink:href="#DejaVuSans-30" x="127.246094"/>
      </g>
     </g>
    </g>
    <g id="xtick_7">
     <g id="text_7">
      <!-- 120 -->
      <g transform="translate(827.190534 287.06881) scale(0.08 -0.08)">
       <use xlink:href="#DejaVuSans-31"/>
       <use xlink:href="#DejaVuSans-32" x="63.623047"/>
       <use xlink:href="#DejaVuSans-30" x="127.246094"/>
      </g>
     </g>
    </g>
    <g id="xtick_8">
     <g id="text_8">
      <!-- 140 -->
      <g transform="translate(954.621191 287.06881) scale(0.08 -0.08)">
       <use xlink:href="#DejaVuSans-31"/>
       <use xlink:href="#DejaVuSans-34" x="63.623047"/>
       <use xlink:href="#DejaVuSans-30" x="127.246094"/>
      </g>
     </g>
    </g>
    <g id="text_9">
     <!-- Position (bp) -->
     <g transform="translate(481.76 300.330997) scale(0.1 -0.1)">
      <defs>
       <path id="DejaVuSans-50" d="M 1259 4147 
L 1259 2394 
L 2053 2394 
Q 2494 2394 2734 2622 
Q 2975 2850 2975 3272 
Q 2975 3691 2734 3919 
Q 2494 4147 2053 4147 
L 1259 4147 
z
M 628 4666 
L 2053 4666 
Q 2838 4666 3239 4311 
Q 3641 3956 3641 3272 
Q 3641 2581 3239 2228 
Q 2838 1875 2053 1875 
L 1259 1875 
L 1259 0 
L 628 0 
L 628 4666 
z
" transform="scale(0.015625)"/>
       <path id="DejaVuSans-6f" d="M 1959 3097 
Q 1497 3097 1228 2736 
Q 959 2375 959 1747 
Q 959 1119 1226 758 
Q 1494 397 1959 397 
Q 2419 397 2687 759 
Q 2956 1122 2956 1747 
Q 2956 2369 2687 2733 
Q 2419 3097 1959 3097 
z
M 1959 3584 
Q 2709 3584 3137 3096 
Q 3566 2609 3566 1747 
Q 3566 888 3137 398 
Q 2709 -91 1959 -91 
Q 1206 -91 779 398 
Q 353 888 353 1747 
Q 353 2609 779 3096 
Q 1206 3584 1959 3584 
z
" transform="scale(0.015625)"/>
       <path id="DejaVuSans-73" d="M 2834 3397 
L 2834 2853 
Q 2591 2978 2328 3040 
Q 2066 3103 1784 3103 
Q 1356 3103 1142 2972 
Q 928 2841 928 2578 
Q 928 2378 1081 2264 
Q 1234 2150 1697 2047 
L 1894 2003 
Q 2506 1872 2764 1633 
Q 3022 1394 3022 966 
Q 3022 478 2636 193 
Q 2250 -91 1575 -91 
Q 1294 -91 989 -36 
Q 684 19 347 128 
L 347 722 
Q 666 556 975 473 
Q 1284 391 1588 391 
Q 1994 391 2212 530 
Q 2431 669 2431 922 
Q 2431 1156 2273 1281 
Q 2116 1406 1581 1522 
L 1381 1569 
Q 847 1681 609 1914 
Q 372 2147 372 2553 
Q 372 3047 722 3315 
Q 1072 3584 1716 3584 
Q 2034 3584 2315 3537 
Q 2597 3491 2834 3397 
z
" transform="scale(0.015625)"/>
       <path id="DejaVuSans-69" d="M 603 3500 
L 1178 3500 
L 1178 0 
L 603 0 
L 603 3500 
z
M 603 4863 
L 1178 4863 
L 1178 4134 
L 603 4134 
L 603 4863 
z
" transform="scale(0.015625)"/>
       <path id="DejaVuSans-74" d="M 1172 4494 
L 1172 3500 
L 2356 3500 
L 2356 3053 
L 1172 3053 
L 1172 1153 
Q 1172 725 1289 603 
Q 1406 481 1766 481 
L 2356 481 
L 2356 0 
L 1766 0 
Q 1100 0 847 248 
Q 594 497 594 1153 
L 594 3053 
L 172 3053 
L 172 3500 
L 594 3500 
L 594 4494 
L 1172 4494 
z
" transform="scale(0.015625)"/>
       <path id="DejaVuSans-6e" d="M 3513 2113 
L 3513 0 
L 2938 0 
L 2938 2094 
Q 2938 2591 2744 2837 
Q 2550 3084 2163 3084 
Q 1697 3084 1428 2787 
Q 1159 2491 1159 1978 
L 1159 0 
L 581 0 
L 581 3500 
L 1159 3500 
L 1159 2956 
Q 1366 3272 1645 3428 
Q 1925 3584 2291 3584 
Q 2894 3584 3203 3211 
Q 3513 2838 3513 2113 
z
" transform="scale(0.015625)"/>
       <path id="DejaVuSans-20" transform="scale(0.015625)"/>
       <path id="DejaVuSans-28" d="M 1984 4856 
Q 1566 4138 1362 3434 
Q 1159 2731 1159 2009 
Q 1159 1288 1364 580 
Q 1569 -128 1984 -844 
L 1484 -844 
Q 1016 -109 783 600 
Q 550 1309 550 2009 
Q 550 2706 781 3412 
Q 1013 4119 1484 4856 
L 1984 4856 
z
" transform="scale(0.015625)"/>
       <path id="DejaVuSans-62" d="M 3116 1747 
Q 3116 2381 2855 2742 
Q 2594 3103 2138 3103 
Q 1681 3103 1420 2742 
Q 1159 2381 1159 1747 
Q 1159 1113 1420 752 
Q 1681 391 2138 391 
Q 2594 391 2855 752 
Q 3116 1113 3116 1747 
z
M 1159 2969 
Q 1341 3281 1617 3432 
Q 1894 3584 2278 3584 
Q 2916 3584 3314 3078 
Q 3713 2572 3713 1747 
Q 3713 922 3314 415 
Q 2916 -91 2278 -91 
Q 1894 -91 1617 61 
Q 1341 213 1159 525 
L 1159 0 
L 581 0 
L 581 4863 
L 1159 4863 
L 1159 2969 
z
" transform="scale(0.015625)"/>
       <path id="DejaVuSans-70" d="M 1159 525 
L 1159 -1331 
L 581 -1331 
L 581 3500 
L 1159 3500 
L 1159 2969 
Q 1341 3281 1617 3432 
Q 1894 3584 2278 3584 
Q 2916 3584 3314 3078 
Q 3713 2572 3713 1747 
Q 3713 922 3314 415 
Q 2916 -91 2278 -91 
Q 1894 -91 1617 61 
Q 1341 213 1159 525 
z
M 3116 1747 
Q 3116 2381 2855 2742 
Q 2594 3103 2138 3103 
Q 1681 3103 1420 2742 
Q 1159 2381 1159 1747 
Q 1159 1113 1420 752 
Q 1681 391 2138 391 
Q 2594 391 2855 752 
Q 3116 1113 3116 1747 
z
" transform="scale(0.015625)"/>
       <path id="DejaVuSans-29" d="M 513 4856 
L 1013 4856 
Q 1481 4119 1714 3412 
Q 1947 2706 1947 2009 
Q 1947 1309 1714 600 
Q 1481 -109 1013 -844 
L 513 -844 
Q 928 -128 1133 580 
Q 1338 1288 1338 2009 
Q 1338 2731 1133 3434 
Q 928 4138 513 4856 
z
" transform="scale(0.015625)"/>
      </defs>
      <use xlink:href="#DejaVuSans-50"/>
      <use xlink:href="#DejaVuSans-6f" x="56.677734"/>
      <use xlink:href="#DejaVuSans-73" x="117.859375"/>
      <use xlink:href="#DejaVuSans-69" x="169.958984"/>
      <use xlink:href="#DejaVuSans-74" x="197.742188"/>
      <use xlink:href="#DejaVuSans-69" x="236.951172"/>
      <use xlink:href="#DejaVuSans-6f" x="264.734375"/>
      <use xlink:href="#DejaVuSans-6e" x="325.916016"/>
      <use xlink:href="#DejaVuSans-20" x="389.294922"/>
      <use xlink:href="#DejaVuSans-28" x="421.082031"/>
      <use xlink:href="#DejaVuSans-62" x="460.095703"/>
      <use xlink:href="#DejaVuSans-70" x="523.572266"/>
      <use xlink:href="#DejaVuSans-29" x="587.048828"/>
     </g>
    </g>
   </g>
   <g id="matplotlib.axis_2">
    <g id="ytick_1">
     <g id="line2d_1">
      <path d="M 32.968125 273.99006 
L 993.158125 273.99006 
" clip-path="url(#p482cfba97e)" style="fill: none; stroke: #dedede; stroke-linecap: square"/>
     </g>
     <g id="text_10">
      <!-- 0 -->
      <g transform="translate(20.878125 277.029435) scale(0.08 -0.08)">
       <use xlink:href="#DejaVuSans-30"/>
      </g>
     </g>
    </g>
    <g id="ytick_2">
     <g id="line2d_2">
      <path d="M 32.968125 225.48862 
L 993.158125 225.48862 
" clip-path="url(#p482cfba97e)" style="fill: none; stroke: #dedede; stroke-linecap: square"/>
     </g>
     <g id="text_11">
      <!-- 1 -->
      <g transform="translate(20.878125 228.527995) scale(0.08 -0.08)">
       <use xlink:href="#DejaVuSans-31"/>
      </g>
     </g>
    </g>
    <g id="ytick_3">
     <g id="line2d_3">
      <path d="M 32.968125 176.98718 
L 993.158125 176.98718 
" clip-path="url(#p482cfba97e)" style="fill: none; stroke: #dedede; stroke-linecap: square"/>
     </g>
     <g id="text_12">
      <!-- 2 -->
      <g transform="translate(20.878125 180.026555) scale(0.08 -0.08)">
       <use xlink:href="#DejaVuSans-32"/>
      </g>
     </g>
    </g>
    <g id="ytick_4">
     <g id="line2d_4">
      <path d="M 32.968125 128.48574 
L 993.158125 128.48574 
" clip-path="url(#p482cfba97e)" style="fill: none; stroke: #dedede; stroke-linecap: square"/>
     </g>
     <g id="text_13">
      <!-- 3 -->
      <g transform="translate(20.878125 131.525115) scale(0.08 -0.08)">
       <defs>
        <path id="DejaVuSans-33" d="M 2597 2516 
Q 3050 2419 3304 2112 
Q 3559 1806 3559 1356 
Q 3559 666 3084 287 
Q 2609 -91 1734 -91 
Q 1441 -91 1130 -33 
Q 819 25 488 141 
L 488 750 
Q 750 597 1062 519 
Q 1375 441 1716 441 
Q 2309 441 2620 675 
Q 2931 909 2931 1356 
Q 2931 1769 2642 2001 
Q 2353 2234 1838 2234 
L 1294 2234 
L 1294 2753 
L 1863 2753 
Q 2328 2753 2575 2939 
Q 2822 3125 2822 3475 
Q 2822 3834 2567 4026 
Q 2313 4219 1838 4219 
Q 1578 4219 1281 4162 
Q 984 4106 628 3988 
L 628 4550 
Q 988 4650 1302 4700 
Q 1616 4750 1894 4750 
Q 2613 4750 3031 4423 
Q 3450 4097 3450 3541 
Q 3450 3153 3228 2886 
Q 3006 2619 2597 2516 
z
" transform="scale(0.015625)"/>
       </defs>
       <use xlink:href="#DejaVuSans-33"/>
      </g>
     </g>
    </g>
    <g id="ytick_5">
     <g id="line2d_5">
      <path d="M 32.968125 79.9843 
L 993.158125 79.9843 
" clip-path="url(#p482cfba97e)" style="fill: none; stroke: #dedede; stroke-linecap: square"/>
     </g>
     <g id="text_14">
      <!-- 4 -->
      <g transform="translate(20.878125 83.023675) scale(0.08 -0.08)">
       <use xlink:href="#DejaVuSans-34"/>
      </g>
     </g>
    </g>
    <g id="ytick_6">
     <g id="line2d_6">
      <path d="M 32.968125 31.48286 
L 993.158125 31.48286 
" clip-path="url(#p482cfba97e)" style="fill: none; stroke: #dedede; stroke-linecap: square"/>
     </g>
     <g id="text_15">
      <!-- 5 -->
      <g transform="translate(20.878125 34.522235) scale(0.08 -0.08)">
       <defs>
        <path id="DejaVuSans-35" d="M 691 4666 
L 3169 4666 
L 3169 4134 
L 1269 4134 
L 1269 2991 
Q 1406 3038 1543 3061 
Q 1681 3084 1819 3084 
Q 2600 3084 3056 2656 
Q 3513 2228 3513 1497 
Q 3513 744 3044 326 
Q 2575 -91 1722 -91 
Q 1428 -91 1123 -41 
Q 819 9 494 109 
L 494 744 
Q 775 591 1075 516 
Q 1375 441 1709 441 
Q 2250 441 2565 725 
Q 2881 1009 2881 1497 
Q 2881 1984 2565 2268 
Q 2250 2553 1709 2553 
Q 1456 2553 1204 2497 
Q 953 2441 691 2322 
L 691 4666 
z
" transform="scale(0.015625)"/>
       </defs>
       <use xlink:href="#DejaVuSans-35"/>
      </g>
     </g>
    </g>
    <g id="text_16">
     <!-- % of Sequences -->
     <g transform="translate(14.798437 192.754429) rotate(-90) scale(0.1 -0.1)">
      <defs>
       <path id="DejaVuSans-25" d="M 4653 2053 
Q 4381 2053 4226 1822 
Q 4072 1591 4072 1178 
Q 4072 772 4226 539 
Q 4381 306 4653 306 
Q 4919 306 5073 539 
Q 5228 772 5228 1178 
Q 5228 1588 5073 1820 
Q 4919 2053 4653 2053 
z
M 4653 2450 
Q 5147 2450 5437 2106 
Q 5728 1763 5728 1178 
Q 5728 594 5436 251 
Q 5144 -91 4653 -91 
Q 4153 -91 3862 251 
Q 3572 594 3572 1178 
Q 3572 1766 3864 2108 
Q 4156 2450 4653 2450 
z
M 1428 4353 
Q 1159 4353 1004 4120 
Q 850 3888 850 3481 
Q 850 3069 1003 2837 
Q 1156 2606 1428 2606 
Q 1700 2606 1854 2837 
Q 2009 3069 2009 3481 
Q 2009 3884 1853 4118 
Q 1697 4353 1428 4353 
z
M 4250 4750 
L 4750 4750 
L 1831 -91 
L 1331 -91 
L 4250 4750 
z
M 1428 4750 
Q 1922 4750 2215 4408 
Q 2509 4066 2509 3481 
Q 2509 2891 2217 2550 
Q 1925 2209 1428 2209 
Q 931 2209 642 2551 
Q 353 2894 353 3481 
Q 353 4063 643 4406 
Q 934 4750 1428 4750 
z
" transform="scale(0.015625)"/>
       <path id="DejaVuSans-66" d="M 2375 4863 
L 2375 4384 
L 1825 4384 
Q 1516 4384 1395 4259 
Q 1275 4134 1275 3809 
L 1275 3500 
L 2222 3500 
L 2222 3053 
L 1275 3053 
L 1275 0 
L 697 0 
L 697 3053 
L 147 3053 
L 147 3500 
L 697 3500 
L 697 3744 
Q 697 4328 969 4595 
Q 1241 4863 1831 4863 
L 2375 4863 
z
" transform="scale(0.015625)"/>
       <path id="DejaVuSans-53" d="M 3425 4513 
L 3425 3897 
Q 3066 4069 2747 4153 
Q 2428 4238 2131 4238 
Q 1616 4238 1336 4038 
Q 1056 3838 1056 3469 
Q 1056 3159 1242 3001 
Q 1428 2844 1947 2747 
L 2328 2669 
Q 3034 2534 3370 2195 
Q 3706 1856 3706 1288 
Q 3706 609 3251 259 
Q 2797 -91 1919 -91 
Q 1588 -91 1214 -16 
Q 841 59 441 206 
L 441 856 
Q 825 641 1194 531 
Q 1563 422 1919 422 
Q 2459 422 2753 634 
Q 3047 847 3047 1241 
Q 3047 1584 2836 1778 
Q 2625 1972 2144 2069 
L 1759 2144 
Q 1053 2284 737 2584 
Q 422 2884 422 3419 
Q 422 4038 858 4394 
Q 1294 4750 2059 4750 
Q 2388 4750 2728 4690 
Q 3069 4631 3425 4513 
z
" transform="scale(0.015625)"/>
       <path id="DejaVuSans-65" d="M 3597 1894 
L 3597 1613 
L 953 1613 
Q 991 1019 1311 708 
Q 1631 397 2203 397 
Q 2534 397 2845 478 
Q 3156 559 3463 722 
L 3463 178 
Q 3153 47 2828 -22 
Q 2503 -91 2169 -91 
Q 1331 -91 842 396 
Q 353 884 353 1716 
Q 353 2575 817 3079 
Q 1281 3584 2069 3584 
Q 2775 3584 3186 3129 
Q 3597 2675 3597 1894 
z
M 3022 2063 
Q 3016 2534 2758 2815 
Q 2500 3097 2075 3097 
Q 1594 3097 1305 2825 
Q 1016 2553 972 2059 
L 3022 2063 
z
" transform="scale(0.015625)"/>
       <path id="DejaVuSans-71" d="M 947 1747 
Q 947 1113 1208 752 
Q 1469 391 1925 391 
Q 2381 391 2643 752 
Q 2906 1113 2906 1747 
Q 2906 2381 2643 2742 
Q 2381 3103 1925 3103 
Q 1469 3103 1208 2742 
Q 947 2381 947 1747 
z
M 2906 525 
Q 2725 213 2448 61 
Q 2172 -91 1784 -91 
Q 1150 -91 751 415 
Q 353 922 353 1747 
Q 353 2572 751 3078 
Q 1150 3584 1784 3584 
Q 2172 3584 2448 3432 
Q 2725 3281 2906 2969 
L 2906 3500 
L 3481 3500 
L 3481 -1331 
L 2906 -1331 
L 2906 525 
z
" transform="scale(0.015625)"/>
       <path id="DejaVuSans-75" d="M 544 1381 
L 544 3500 
L 1119 3500 
L 1119 1403 
Q 1119 906 1312 657 
Q 1506 409 1894 409 
Q 2359 409 2629 706 
Q 2900 1003 2900 1516 
L 2900 3500 
L 3475 3500 
L 3475 0 
L 2900 0 
L 2900 538 
Q 2691 219 2414 64 
Q 2138 -91 1772 -91 
Q 1169 -91 856 284 
Q 544 659 544 1381 
z
M 1991 3584 
L 1991 3584 
z
" transform="scale(0.015625)"/>
       <path id="DejaVuSans-63" d="M 3122 3366 
L 3122 2828 
Q 2878 2963 2633 3030 
Q 2388 3097 2138 3097 
Q 1578 3097 1268 2742 
Q 959 2388 959 1747 
Q 959 1106 1268 751 
Q 1578 397 2138 397 
Q 2388 397 2633 464 
Q 2878 531 3122 666 
L 3122 134 
Q 2881 22 2623 -34 
Q 2366 -91 2075 -91 
Q 1284 -91 818 406 
Q 353 903 353 1747 
Q 353 2603 823 3093 
Q 1294 3584 2113 3584 
Q 2378 3584 2631 3529 
Q 2884 3475 3122 3366 
z
" transform="scale(0.015625)"/>
      </defs>
      <use xlink:href="#DejaVuSans-25"/>
      <use xlink:href="#DejaVuSans-20" x="95.019531"/>
      <use xlink:href="#DejaVuSans-6f" x="126.806641"/>
      <use xlink:href="#DejaVuSans-66" x="187.988281"/>
      <use xlink:href="#DejaVuSans-20" x="223.193359"/>
      <use xlink:href="#DejaVuSans-53" x="254.980469"/>
      <use xlink:href="#DejaVuSans-65" x="318.457031"/>
      <use xlink:href="#DejaVuSans-71" x="379.980469"/>
      <use xlink:href="#DejaVuSans-75" x="443.457031"/>
      <use xlink:href="#DejaVuSans-65" x="506.835938"/>
      <use xlink:href="#DejaVuSans-6e" x="568.359375"/>
      <use xlink:href="#DejaVuSans-63" x="631.738281"/>
      <use xlink:href="#DejaVuSans-65" x="686.71875"/>
      <use xlink:href="#DejaVuSans-73" x="748.242188"/>
     </g>
    </g>
   </g>
   <g id="line2d_7">
    <path d="M 76.613125 273.825436 
L 82.984658 273.721002 
L 89.356191 273.677616 
L 95.727724 273.616814 
L 102.099256 273.550023 
L 108.470789 273.498509 
L 114.842322 273.436301 
L 121.213855 273.217352 
L 127.585388 272.959477 
L 133.956921 272.657208 
L 146.699986 272.493286 
L 159.443052 272.263643 
L 172.186118 272.017959 
L 184.929183 271.7841 
L 197.672249 271.551646 
L 210.415315 271.296796 
L 223.15838 271.040082 
L 235.901446 270.803136 
L 248.644512 270.523324 
L 261.387578 270.241159 
L 274.130643 269.983253 
L 286.873709 269.74038 
L 299.616775 269.406579 
L 312.35984 269.122184 
L 325.102906 268.878364 
L 337.845972 268.636132 
L 350.589037 268.371902 
L 363.332103 268.135446 
L 376.075169 267.894681 
L 388.818234 267.673715 
L 401.5613 267.439856 
L 414.304366 267.192797 
L 427.047432 266.966301 
L 439.790497 266.729172 
L 452.533563 266.498216 
L 465.276629 266.281986 
L 478.019694 266.017725 
L 490.76276 265.783682 
L 503.505826 265.548356 
L 516.248891 265.32183 
L 528.991957 265.109266 
L 541.735023 264.889339 
L 554.478089 264.658627 
L 567.221154 264.407504 
L 579.96422 264.189839 
L 592.707286 263.948524 
L 605.450351 263.725542 
L 618.193417 263.506256 
L 630.936483 263.27643 
L 643.679548 263.047765 
L 656.422614 262.827074 
L 669.16568 262.586554 
L 681.908745 262.366291 
L 694.651811 262.158891 
L 707.394877 261.957663 
L 720.137943 261.771773 
L 732.881008 261.590772 
L 745.624074 261.40369 
L 758.36714 261.183091 
L 771.110205 260.982108 
L 783.853271 260.776052 
L 796.596337 260.581699 
L 809.339402 260.387896 
L 822.082468 260.206497 
L 834.825534 260.023479 
L 847.568599 259.825887 
L 860.311665 259.62799 
L 873.054731 259.444575 
L 885.797797 259.254988 
L 898.540862 259.072062 
L 911.283928 258.873156 
L 924.026994 258.690383 
L 936.770059 258.53135 
L 949.513125 258.373631 
" clip-path="url(#p482cfba97e)" style="fill: none; stroke: #7cb5ec; stroke-linecap: square"/>
   </g>
   <g id="line2d_8">
    <path d="M 76.613125 273.99006 
L 82.984658 273.99006 
L 89.356191 273.652867 
L 95.727724 273.590965 
L 102.099256 273.574955 
L 108.470789 273.563833 
L 114.842322 273.556011 
L 121.213855 273.543668 
L 127.585388 273.526741 
L 133.956921 273.511769 
L 146.699986 273.493223 
L 159.443052 273.470644 
L 172.186118 273.449501 
L 184.929183 273.428693 
L 197.672249 273.41305 
L 210.415315 273.393465 
L 223.15838 273.37501 
L 235.901446 273.355181 
L 248.644512 273.334068 
L 261.387578 273.313689 
L 274.130643 273.295081 
L 286.873709 273.271799 
L 299.616775 273.248059 
L 312.35984 273.221141 
L 325.102906 273.189395 
L 337.845972 273.126943 
L 350.589037 272.41519 
L 363.332103 271.685777 
L 376.075169 271.650213 
L 388.818234 271.627786 
L 401.5613 271.603098 
L 414.304366 271.579633 
L 427.047432 271.554823 
L 439.790497 271.529036 
L 452.533563 271.501293 
L 465.276629 271.462398 
L 478.019694 271.40734 
L 490.76276 271.263675 
L 503.505826 271.112953 
L 516.248891 270.80665 
L 528.991957 269.731428 
L 541.735023 269.53347 
L 554.478089 269.464846 
L 567.221154 269.414126 
L 579.96422 269.361787 
L 592.707286 269.311526 
L 605.450351 269.26652 
L 618.193417 269.219467 
L 630.936483 269.170459 
L 643.679548 269.12417 
L 656.422614 269.075436 
L 669.16568 269.026642 
L 681.908745 268.978519 
L 694.651811 268.933483 
L 707.394877 268.894954 
L 720.137943 268.857465 
L 732.881008 268.824589 
L 745.624074 268.792599 
L 758.36714 268.760548 
L 771.110205 268.726664 
L 783.853271 268.696782 
L 796.596337 268.667511 
L 809.339402 268.639371 
L 822.082468 268.609948 
L 834.825534 268.579516 
L 847.568599 268.552201 
L 860.311665 268.526688 
L 873.054731 268.500779 
L 885.797797 268.472455 
L 898.540862 268.445109 
L 911.283928 268.419291 
L 924.026994 268.389899 
L 936.770059 268.363072 
L 949.513125 268.33924 
" clip-path="url(#p482cfba97e)" style="fill: none; stroke: #434348; stroke-linecap: square"/>
   </g>
   <g id="line2d_9">
    <path d="M 76.613125 273.766161 
L 82.984658 273.652745 
L 89.356191 273.60557 
L 95.727724 273.541284 
L 102.099256 273.472049 
L 108.470789 273.418947 
L 114.842322 273.359122 
L 121.213855 273.132535 
L 127.585388 272.875149 
L 133.956921 272.574559 
L 146.699986 272.41021 
L 159.443052 272.185944 
L 172.186118 271.941941 
L 184.929183 271.721464 
L 197.672249 271.507098 
L 210.415315 271.255823 
L 223.15838 270.997948 
L 235.901446 270.763141 
L 248.644512 270.487118 
L 261.387578 270.202172 
L 274.130643 269.946466 
L 286.873709 269.693327 
L 299.616775 269.339025 
L 312.35984 269.055271 
L 325.102906 268.819364 
L 337.845972 268.579455 
L 350.589037 268.31333 
L 363.332103 268.080876 
L 376.075169 267.842587 
L 388.818234 267.623943 
L 401.5613 267.391 
L 414.304366 267.131598 
L 427.047432 266.896394 
L 439.790497 266.656668 
L 452.533563 266.421953 
L 465.276629 266.20392 
L 478.019694 265.932571 
L 490.76276 265.715119 
L 503.505826 265.479029 
L 516.248891 265.241381 
L 528.991957 265.023929 
L 541.735023 264.796883 
L 554.478089 264.568126 
L 567.221154 264.31624 
L 579.96422 264.09173 
L 592.707286 263.854418 
L 605.450351 263.629816 
L 618.193417 263.402465 
L 630.936483 263.167169 
L 643.679548 262.934074 
L 656.422614 262.707883 
L 669.16568 262.470052 
L 681.908745 262.252416 
L 694.651811 262.042236 
L 707.394877 261.838594 
L 720.137943 261.657074 
L 732.881008 261.463576 
L 745.624074 261.273347 
L 758.36714 261.048899 
L 771.110205 260.845715 
L 783.853271 260.636696 
L 796.596337 260.444237 
L 809.339402 260.248662 
L 822.082468 260.067355 
L 834.825534 259.888248 
L 847.568599 259.699608 
L 860.311665 259.502413 
L 873.054731 259.323459 
L 885.797797 259.1387 
L 898.540862 258.955927 
L 911.283928 258.767409 
L 924.026994 258.594993 
L 936.770059 258.436999 
L 949.513125 258.271336 
" clip-path="url(#p482cfba97e)" style="fill: none; stroke: #90ed7d; stroke-linecap: square"/>
   </g>
   <g id="line2d_10">
    <path d="M 76.613125 251.46836 
L 82.984658 251.25106 
L 89.356191 251.114118 
L 95.727724 250.998685 
L 102.099256 250.908612 
L 108.470789 250.78108 
L 114.842322 250.639066 
L 121.213855 250.497051 
L 127.585388 250.344038 
L 133.956921 250.166794 
L 146.699986 249.959517 
L 159.443052 249.840448 
L 172.186118 249.757708 
L 184.929183 249.680743 
L 197.672249 249.621621 
L 210.415315 249.568916 
L 223.15838 249.523238 
L 235.901446 249.487887 
L 248.644512 249.44997 
L 261.387578 249.412449 
L 274.130643 249.379512 
L 286.873709 249.348011 
L 299.616775 249.316082 
L 312.35984 249.283726 
L 325.102906 249.255647 
L 337.845972 249.228454 
L 350.589037 249.198022 
L 363.332103 249.169974 
L 376.075169 249.141131 
L 388.818234 249.112624 
L 401.5613 249.082498 
L 414.304366 249.055672 
L 427.047432 249.031229 
L 439.790497 249.003027 
L 452.533563 248.976232 
L 465.276629 248.948702 
L 478.019694 248.91824 
L 490.76276 248.890833 
L 503.505826 248.862968 
L 516.248891 248.836997 
L 528.991957 248.810049 
L 541.735023 248.783253 
L 554.478089 248.759299 
L 567.221154 248.734978 
L 579.96422 248.708793 
L 592.707286 248.684075 
L 605.450351 248.65841 
L 618.193417 248.63302 
L 630.936483 248.608515 
L 643.679548 248.583278 
L 656.422614 248.550341 
L 669.16568 248.514379 
L 681.908745 248.478539 
L 694.651811 248.442822 
L 707.394877 248.407074 
L 720.137943 248.366193 
L 732.881008 248.323173 
L 745.624074 248.282108 
L 758.36714 248.248743 
L 771.110205 248.222498 
L 783.853271 248.197138 
L 796.596337 248.171106 
L 809.339402 248.144463 
L 822.082468 248.115498 
L 834.825534 248.086441 
L 847.568599 248.059218 
L 860.311665 248.031902 
L 873.054731 248.005534 
L 885.797797 247.978464 
L 898.540862 247.949835 
L 911.283928 247.922153 
L 924.026994 247.893432 
L 936.770059 247.862176 
L 949.513125 247.835013 
" clip-path="url(#p482cfba97e)" style="fill: none; stroke: #f7a35c; stroke-linecap: square"/>
   </g>
   <g id="line2d_11">
    <path d="M 76.613125 273.833515 
L 82.984658 273.72103 
L 89.356191 273.67915 
L 95.727724 273.616019 
L 102.099256 273.557635 
L 108.470789 273.517624 
L 114.842322 273.467258 
L 121.213855 273.266343 
L 127.585388 273.02596 
L 133.956921 272.742568 
L 146.699986 272.580068 
L 159.443052 272.363233 
L 172.186118 272.121838 
L 184.929183 271.908467 
L 197.672249 271.69459 
L 210.415315 271.449654 
L 223.15838 271.201058 
L 235.901446 270.980564 
L 248.644512 270.719047 
L 261.387578 270.44885 
L 274.130643 270.194144 
L 286.873709 269.972794 
L 299.616775 269.663207 
L 312.35984 269.397953 
L 325.102906 269.178938 
L 337.845972 268.964478 
L 350.589037 268.71631 
L 363.332103 268.495544 
L 376.075169 268.272248 
L 388.818234 268.06635 
L 401.5613 267.864189 
L 414.304366 267.647782 
L 427.047432 267.442546 
L 439.790497 267.228124 
L 452.533563 267.010627 
L 465.276629 266.813487 
L 478.019694 266.565942 
L 490.76276 266.364676 
L 503.505826 266.164266 
L 516.248891 265.95397 
L 528.991957 265.764536 
L 541.735023 265.568174 
L 554.478089 265.372591 
L 567.221154 265.155289 
L 579.96422 264.963403 
L 592.707286 264.73925 
L 605.450351 264.539697 
L 618.193417 264.34497 
L 630.936483 264.134596 
L 643.679548 263.920641 
L 656.422614 263.720971 
L 669.16568 263.511103 
L 681.908745 263.304037 
L 694.651811 263.117989 
L 707.394877 262.944475 
L 720.137943 262.772322 
L 732.881008 262.609122 
L 745.624074 262.44596 
L 758.36714 262.242515 
L 771.110205 262.050162 
L 783.853271 261.859988 
L 796.596337 261.670048 
L 809.339402 261.486375 
L 822.082468 261.315001 
L 834.825534 261.146935 
L 847.568599 260.969023 
L 860.311665 260.785738 
L 873.054731 260.621604 
L 885.797797 260.437269 
L 898.540862 260.267179 
L 911.283928 260.068638 
L 924.026994 259.907695 
L 936.770059 259.761464 
L 949.513125 259.606087 
" clip-path="url(#p482cfba97e)" style="fill: none; stroke: #8085e9; stroke-linecap: square"/>
   </g>
   <g id="line2d_12">
    <path d="M 76.613125 273.99006 
L 82.984658 273.99006 
L 89.356191 273.596558 
L 95.727724 273.529222 
L 102.099256 273.509683 
L 108.470789 273.498785 
L 114.842322 273.490689 
L 121.213855 273.479713 
L 127.585388 273.459474 
L 133.956921 273.441142 
L 146.699986 273.423588 
L 159.443052 273.40222 
L 172.186118 273.38198 
L 184.929183 273.36392 
L 197.672249 273.345432 
L 210.415315 273.329318 
L 223.15838 273.310169 
L 235.901446 273.293004 
L 248.644512 273.272337 
L 261.387578 273.25272 
L 274.130643 273.232402 
L 286.873709 273.210762 
L 299.616775 273.186903 
L 312.35984 273.160046 
L 325.102906 273.115597 
L 337.845972 273.047795 
L 350.589037 272.211593 
L 363.332103 271.245196 
L 376.075169 271.084759 
L 388.818234 271.059343 
L 401.5613 271.036145 
L 414.304366 271.012325 
L 427.047432 270.988621 
L 439.790497 270.962505 
L 452.533563 270.923427 
L 465.276629 270.856559 
L 478.019694 270.756062 
L 490.76276 269.838162 
L 503.505826 268.93875 
L 516.248891 267.772255 
L 528.991957 257.779201 
L 541.735023 255.577105 
L 554.478089 255.363462 
L 567.221154 255.295348 
L 579.96422 255.229842 
L 592.707286 255.171148 
L 605.450351 255.115645 
L 618.193417 255.066992 
L 630.936483 255.013708 
L 643.679548 254.954702 
L 656.422614 254.8869 
L 669.16568 254.820849 
L 681.908745 254.749622 
L 694.651811 254.682403 
L 707.394877 254.61826 
L 720.137943 254.550457 
L 732.881008 254.495577 
L 745.624074 254.457395 
L 758.36714 254.424622 
L 771.110205 254.389281 
L 783.853271 254.357793 
L 796.596337 254.325682 
L 809.339402 254.293533 
L 822.082468 254.262706 
L 834.825534 254.230284 
L 847.568599 254.201754 
L 860.311665 254.172524 
L 873.054731 254.140296 
L 885.797797 254.110287 
L 898.540862 254.083976 
L 911.283928 254.056147 
L 924.026994 254.025515 
L 936.770059 253.998386 
L 949.513125 253.973943 
" clip-path="url(#p482cfba97e)" style="fill: none; stroke: #f15c80; stroke-linecap: square"/>
   </g>
   <g id="line2d_13">
    <path d="M 76.613125 273.798174 
L 82.984658 273.676659 
L 89.356191 273.634546 
L 95.727724 273.574216 
L 102.099256 273.512875 
L 108.470789 273.466246 
L 114.842322 273.414714 
L 121.213855 273.213876 
L 127.585388 272.977618 
L 133.956921 272.69878 
L 146.699986 272.544766 
L 159.443052 272.334431 
L 172.186118 272.115105 
L 184.929183 271.907066 
L 197.672249 271.696809 
L 210.415315 271.464444 
L 223.15838 271.22772 
L 235.901446 271.014271 
L 248.644512 270.761122 
L 261.387578 270.492092 
L 274.130643 270.241862 
L 286.873709 270.011132 
L 299.616775 269.683252 
L 312.35984 269.42154 
L 325.102906 269.208714 
L 337.845972 268.988298 
L 350.589037 268.723472 
L 363.332103 268.516679 
L 376.075169 268.294823 
L 388.818234 268.091766 
L 401.5613 267.87283 
L 414.304366 267.647393 
L 427.047432 267.432037 
L 439.790497 267.218861 
L 452.533563 267.002376 
L 465.276629 266.800565 
L 478.019694 266.549673 
L 490.76276 266.344476 
L 503.505826 266.126551 
L 516.248891 265.906874 
L 528.991957 265.714989 
L 541.735023 265.512204 
L 554.478089 265.302609 
L 567.221154 265.070711 
L 579.96422 264.873142 
L 592.707286 264.648212 
L 605.450351 264.44605 
L 618.193417 264.232057 
L 630.936483 264.016389 
L 643.679548 263.796557 
L 656.422614 263.585677 
L 669.16568 263.359423 
L 681.908745 263.147687 
L 694.651811 262.950002 
L 707.394877 262.761346 
L 720.137943 262.584523 
L 732.881008 262.413188 
L 745.624074 262.233679 
L 758.36714 262.029572 
L 771.110205 261.833171 
L 783.853271 261.62848 
L 796.596337 261.435504 
L 809.339402 261.256229 
L 822.082468 261.090849 
L 834.825534 260.911262 
L 847.568599 260.721712 
L 860.311665 260.529125 
L 873.054731 260.359464 
L 885.797797 260.169096 
L 898.540862 259.997527 
L 911.283928 259.796066 
L 924.026994 259.612899 
L 936.770059 259.448336 
L 949.513125 259.285525 
" clip-path="url(#p482cfba97e)" style="fill: none; stroke: #e4d354; stroke-linecap: square"/>
   </g>
   <g id="line2d_14">
    <path d="M 76.613125 233.205851 
L 82.984658 232.760816 
L 89.356191 232.620074 
L 95.727724 232.447649 
L 102.099256 232.343649 
L 108.470789 232.189985 
L 114.842322 232.0125 
L 121.213855 231.869656 
L 127.585388 231.711554 
L 133.956921 231.500519 
L 146.699986 231.209459 
L 159.443052 231.065058 
L 172.186118 230.98087 
L 184.929183 230.905867 
L 197.672249 230.8469 
L 210.415315 230.796846 
L 223.15838 230.756951 
L 235.901446 230.722466 
L 248.644512 230.689304 
L 261.387578 230.654313 
L 274.130643 230.623876 
L 286.873709 230.594101 
L 299.616775 230.565298 
L 312.35984 230.537391 
L 325.102906 230.513571 
L 337.845972 230.487376 
L 350.589037 230.461766 
L 363.332103 230.434909 
L 376.075169 230.410077 
L 388.818234 230.388826 
L 401.5613 230.362398 
L 414.304366 230.33702 
L 427.047432 230.312227 
L 439.790497 230.28685 
L 452.533563 230.259371 
L 465.276629 230.233916 
L 478.019694 230.205191 
L 490.76276 230.177479 
L 503.505826 230.15432 
L 516.248891 230.129488 
L 528.991957 230.10629 
L 541.735023 230.082742 
L 554.478089 230.061296 
L 567.221154 230.037203 
L 579.96422 230.010659 
L 592.707286 229.981817 
L 605.450351 229.952626 
L 618.193417 229.925575 
L 630.936483 229.897784 
L 643.679548 229.869916 
L 656.422614 229.833174 
L 669.16568 229.794563 
L 681.908745 229.758599 
L 694.651811 229.721934 
L 707.394877 229.685542 
L 720.137943 229.648294 
L 732.881008 229.608243 
L 745.624074 229.568971 
L 758.36714 229.53651 
L 771.110205 229.50977 
L 783.853271 229.483731 
L 796.596337 229.455902 
L 809.339402 229.426788 
L 822.082468 229.399737 
L 834.825534 229.368911 
L 847.568599 229.341315 
L 860.311665 229.316094 
L 873.054731 229.287992 
L 885.797797 229.259501 
L 898.540862 229.231827 
L 911.283928 229.204232 
L 924.026994 229.176714 
L 936.770059 229.152076 
L 949.513125 229.128061 
" clip-path="url(#p482cfba97e)" style="fill: none; stroke: #2b908f; stroke-linecap: square"/>
   </g>
   <g id="line2d_15">
    <path d="M 32.968125 273.99006 
L 993.158125 273.99006 
" clip-path="url(#p482cfba97e)" style="fill: none; stroke: #dedede; stroke-width: 2; stroke-linecap: square"/>
   </g>
   <g id="text_17">
    <!-- FastQC: Adapter Content -->
    <g transform="translate(413.765625 19.3575) scale(0.16 -0.16)">
     <defs>
      <path id="DejaVuSans-46" d="M 628 4666 
L 3309 4666 
L 3309 4134 
L 1259 4134 
L 1259 2759 
L 3109 2759 
L 3109 2228 
L 1259 2228 
L 1259 0 
L 628 0 
L 628 4666 
z
" transform="scale(0.015625)"/>
      <path id="DejaVuSans-61" d="M 2194 1759 
Q 1497 1759 1228 1600 
Q 959 1441 959 1056 
Q 959 750 1161 570 
Q 1363 391 1709 391 
Q 2188 391 2477 730 
Q 2766 1069 2766 1631 
L 2766 1759 
L 2194 1759 
z
M 3341 1997 
L 3341 0 
L 2766 0 
L 2766 531 
Q 2569 213 2275 61 
Q 1981 -91 1556 -91 
Q 1019 -91 701 211 
Q 384 513 384 1019 
Q 384 1609 779 1909 
Q 1175 2209 1959 2209 
L 2766 2209 
L 2766 2266 
Q 2766 2663 2505 2880 
Q 2244 3097 1772 3097 
Q 1472 3097 1187 3025 
Q 903 2953 641 2809 
L 641 3341 
Q 956 3463 1253 3523 
Q 1550 3584 1831 3584 
Q 2591 3584 2966 3190 
Q 3341 2797 3341 1997 
z
" transform="scale(0.015625)"/>
      <path id="DejaVuSans-51" d="M 2522 4238 
Q 1834 4238 1429 3725 
Q 1025 3213 1025 2328 
Q 1025 1447 1429 934 
Q 1834 422 2522 422 
Q 3209 422 3611 934 
Q 4013 1447 4013 2328 
Q 4013 3213 3611 3725 
Q 3209 4238 2522 4238 
z
M 3406 84 
L 4238 -825 
L 3475 -825 
L 2784 -78 
Q 2681 -84 2626 -87 
Q 2572 -91 2522 -91 
Q 1538 -91 948 567 
Q 359 1225 359 2328 
Q 359 3434 948 4092 
Q 1538 4750 2522 4750 
Q 3503 4750 4090 4092 
Q 4678 3434 4678 2328 
Q 4678 1516 4351 937 
Q 4025 359 3406 84 
z
" transform="scale(0.015625)"/>
      <path id="DejaVuSans-43" d="M 4122 4306 
L 4122 3641 
Q 3803 3938 3442 4084 
Q 3081 4231 2675 4231 
Q 1875 4231 1450 3742 
Q 1025 3253 1025 2328 
Q 1025 1406 1450 917 
Q 1875 428 2675 428 
Q 3081 428 3442 575 
Q 3803 722 4122 1019 
L 4122 359 
Q 3791 134 3420 21 
Q 3050 -91 2638 -91 
Q 1578 -91 968 557 
Q 359 1206 359 2328 
Q 359 3453 968 4101 
Q 1578 4750 2638 4750 
Q 3056 4750 3426 4639 
Q 3797 4528 4122 4306 
z
" transform="scale(0.015625)"/>
      <path id="DejaVuSans-3a" d="M 750 794 
L 1409 794 
L 1409 0 
L 750 0 
L 750 794 
z
M 750 3309 
L 1409 3309 
L 1409 2516 
L 750 2516 
L 750 3309 
z
" transform="scale(0.015625)"/>
      <path id="DejaVuSans-41" d="M 2188 4044 
L 1331 1722 
L 3047 1722 
L 2188 4044 
z
M 1831 4666 
L 2547 4666 
L 4325 0 
L 3669 0 
L 3244 1197 
L 1141 1197 
L 716 0 
L 50 0 
L 1831 4666 
z
" transform="scale(0.015625)"/>
      <path id="DejaVuSans-64" d="M 2906 2969 
L 2906 4863 
L 3481 4863 
L 3481 0 
L 2906 0 
L 2906 525 
Q 2725 213 2448 61 
Q 2172 -91 1784 -91 
Q 1150 -91 751 415 
Q 353 922 353 1747 
Q 353 2572 751 3078 
Q 1150 3584 1784 3584 
Q 2172 3584 2448 3432 
Q 2725 3281 2906 2969 
z
M 947 1747 
Q 947 1113 1208 752 
Q 1469 391 1925 391 
Q 2381 391 2643 752 
Q 2906 1113 2906 1747 
Q 2906 2381 2643 2742 
Q 2381 3103 1925 3103 
Q 1469 3103 1208 2742 
Q 947 2381 947 1747 
z
" transform="scale(0.015625)"/>
      <path id="DejaVuSans-72" d="M 2631 2963 
Q 2534 3019 2420 3045 
Q 2306 3072 2169 3072 
Q 1681 3072 1420 2755 
Q 1159 2438 1159 1844 
L 1159 0 
L 581 0 
L 581 3500 
L 1159 3500 
L 1159 2956 
Q 1341 3275 1631 3429 
Q 1922 3584 2338 3584 
Q 2397 3584 2469 3576 
Q 2541 3569 2628 3553 
L 2631 2963 
z
" transform="scale(0.015625)"/>
     </defs>
     <use xlink:href="#DejaVuSans-46"/>
     <use xlink:href="#DejaVuSans-61" x="48.394531"/>
     <use xlink:href="#DejaVuSans-73" x="109.673828"/>
     <use xlink:href="#DejaVuSans-74" x="161.773438"/>
     <use xlink:href="#DejaVuSans-51" x="200.982422"/>
     <use xlink:href="#DejaVuSans-43" x="279.693359"/>
     <use xlink:href="#DejaVuSans-3a" x="349.517578"/>
     <use xlink:href="#DejaVuSans-20" x="383.208984"/>
     <use xlink:href="#DejaVuSans-41" x="414.996094"/>
     <use xlink:href="#DejaVuSans-64" x="481.654297"/>
     <use xlink:href="#DejaVuSans-61" x="545.130859"/>
     <use xlink:href="#DejaVuSans-70" x="606.410156"/>
     <use xlink:href="#DejaVuSans-74" x="669.886719"/>
     <use xlink:href="#DejaVuSans-65" x="709.095703"/>
     <use xlink:href="#DejaVuSans-72" x="770.619141"/>
     <use xlink:href="#DejaVuSans-20" x="811.732422"/>
     <use xlink:href="#DejaVuSans-43" x="843.519531"/>
     <use xlink:href="#DejaVuSans-6f" x="913.34375"/>
     <use xlink:href="#DejaVuSans-6e" x="974.525391"/>
     <use xlink:href="#DejaVuSans-74" x="1037.904297"/>
     <use xlink:href="#DejaVuSans-65" x="1077.113281"/>
     <use xlink:href="#DejaVuSans-6e" x="1138.636719"/>
     <use xlink:href="#DejaVuSans-74" x="1202.015625"/>
    </g>
   </g>
   <g id="legend_1">
    <g id="line2d_16">
     <path d="M 40.168125 303.490394 
L 48.168125 303.490394 
L 56.168125 303.490394 
" style="fill: none; stroke: #7cb5ec; stroke-linecap: square"/>
    </g>
    <g id="text_18">
     <!-- Minus_cre_p53mut_1 - polya -->
     <g transform="translate(62.568125 306.290394) scale(0.08 -0.08)">
      <defs>
       <path id="DejaVuSans-4d" d="M 628 4666 
L 1569 4666 
L 2759 1491 
L 3956 4666 
L 4897 4666 
L 4897 0 
L 4281 0 
L 4281 4097 
L 3078 897 
L 2444 897 
L 1241 4097 
L 1241 0 
L 628 0 
L 628 4666 
z
" transform="scale(0.015625)"/>
       <path id="DejaVuSans-5f" d="M 3263 -1063 
L 3263 -1509 
L -63 -1509 
L -63 -1063 
L 3263 -1063 
z
" transform="scale(0.015625)"/>
       <path id="DejaVuSans-6d" d="M 3328 2828 
Q 3544 3216 3844 3400 
Q 4144 3584 4550 3584 
Q 5097 3584 5394 3201 
Q 5691 2819 5691 2113 
L 5691 0 
L 5113 0 
L 5113 2094 
Q 5113 2597 4934 2840 
Q 4756 3084 4391 3084 
Q 3944 3084 3684 2787 
Q 3425 2491 3425 1978 
L 3425 0 
L 2847 0 
L 2847 2094 
Q 2847 2600 2669 2842 
Q 2491 3084 2119 3084 
Q 1678 3084 1418 2786 
Q 1159 2488 1159 1978 
L 1159 0 
L 581 0 
L 581 3500 
L 1159 3500 
L 1159 2956 
Q 1356 3278 1631 3431 
Q 1906 3584 2284 3584 
Q 2666 3584 2933 3390 
Q 3200 3197 3328 2828 
z
" transform="scale(0.015625)"/>
       <path id="DejaVuSans-2d" d="M 313 2009 
L 1997 2009 
L 1997 1497 
L 313 1497 
L 313 2009 
z
" transform="scale(0.015625)"/>
       <path id="DejaVuSans-6c" d="M 603 4863 
L 1178 4863 
L 1178 0 
L 603 0 
L 603 4863 
z
" transform="scale(0.015625)"/>
       <path id="DejaVuSans-79" d="M 2059 -325 
Q 1816 -950 1584 -1140 
Q 1353 -1331 966 -1331 
L 506 -1331 
L 506 -850 
L 844 -850 
Q 1081 -850 1212 -737 
Q 1344 -625 1503 -206 
L 1606 56 
L 191 3500 
L 800 3500 
L 1894 763 
L 2988 3500 
L 3597 3500 
L 2059 -325 
z
" transform="scale(0.015625)"/>
      </defs>
      <use xlink:href="#DejaVuSans-4d"/>
      <use xlink:href="#DejaVuSans-69" x="86.279297"/>
      <use xlink:href="#DejaVuSans-6e" x="114.0625"/>
      <use xlink:href="#DejaVuSans-75" x="177.441406"/>
      <use xlink:href="#DejaVuSans-73" x="240.820312"/>
      <use xlink:href="#DejaVuSans-5f" x="292.919922"/>
      <use xlink:href="#DejaVuSans-63" x="342.919922"/>
      <use xlink:href="#DejaVuSans-72" x="397.900391"/>
      <use xlink:href="#DejaVuSans-65" x="436.763672"/>
      <use xlink:href="#DejaVuSans-5f" x="498.287109"/>
      <use xlink:href="#DejaVuSans-70" x="548.287109"/>
      <use xlink:href="#DejaVuSans-35" x="611.763672"/>
      <use xlink:href="#DejaVuSans-33" x="675.386719"/>
      <use xlink:href="#DejaVuSans-6d" x="739.009766"/>
      <use xlink:href="#DejaVuSans-75" x="836.421875"/>
      <use xlink:href="#DejaVuSans-74" x="899.800781"/>
      <use xlink:href="#DejaVuSans-5f" x="939.009766"/>
      <use xlink:href="#DejaVuSans-31" x="989.009766"/>
      <use xlink:href="#DejaVuSans-20" x="1052.632812"/>
      <use xlink:href="#DejaVuSans-2d" x="1084.419922"/>
      <use xlink:href="#DejaVuSans-20" x="1120.503906"/>
      <use xlink:href="#DejaVuSans-70" x="1152.291016"/>
      <use xlink:href="#DejaVuSans-6f" x="1215.767578"/>
      <use xlink:href="#DejaVuSans-6c" x="1276.949219"/>
      <use xlink:href="#DejaVuSans-79" x="1304.732422"/>
      <use xlink:href="#DejaVuSans-61" x="1363.912109"/>
     </g>
    </g>
    <g id="line2d_17">
     <path d="M 40.168125 315.455394 
L 48.168125 315.455394 
L 56.168125 315.455394 
" style="fill: none; stroke: #434348; stroke-linecap: square"/>
    </g>
    <g id="text_19">
     <!-- Minus_cre_p53mut_1 - polyg -->
     <g transform="translate(62.568125 318.255394) scale(0.08 -0.08)">
      <defs>
       <path id="DejaVuSans-67" d="M 2906 1791 
Q 2906 2416 2648 2759 
Q 2391 3103 1925 3103 
Q 1463 3103 1205 2759 
Q 947 2416 947 1791 
Q 947 1169 1205 825 
Q 1463 481 1925 481 
Q 2391 481 2648 825 
Q 2906 1169 2906 1791 
z
M 3481 434 
Q 3481 -459 3084 -895 
Q 2688 -1331 1869 -1331 
Q 1566 -1331 1297 -1286 
Q 1028 -1241 775 -1147 
L 775 -588 
Q 1028 -725 1275 -790 
Q 1522 -856 1778 -856 
Q 2344 -856 2625 -561 
Q 2906 -266 2906 331 
L 2906 616 
Q 2728 306 2450 153 
Q 2172 0 1784 0 
Q 1141 0 747 490 
Q 353 981 353 1791 
Q 353 2603 747 3093 
Q 1141 3584 1784 3584 
Q 2172 3584 2450 3431 
Q 2728 3278 2906 2969 
L 2906 3500 
L 3481 3500 
L 3481 434 
z
" transform="scale(0.015625)"/>
      </defs>
      <use xlink:href="#DejaVuSans-4d"/>
      <use xlink:href="#DejaVuSans-69" x="86.279297"/>
      <use xlink:href="#DejaVuSans-6e" x="114.0625"/>
      <use xlink:href="#DejaVuSans-75" x="177.441406"/>
      <use xlink:href="#DejaVuSans-73" x="240.820312"/>
      <use xlink:href="#DejaVuSans-5f" x="292.919922"/>
      <use xlink:href="#DejaVuSans-63" x="342.919922"/>
      <use xlink:href="#DejaVuSans-72" x="397.900391"/>
      <use xlink:href="#DejaVuSans-65" x="436.763672"/>
      <use xlink:href="#DejaVuSans-5f" x="498.287109"/>
      <use xlink:href="#DejaVuSans-70" x="548.287109"/>
      <use xlink:href="#DejaVuSans-35" x="611.763672"/>
      <use xlink:href="#DejaVuSans-33" x="675.386719"/>
      <use xlink:href="#DejaVuSans-6d" x="739.009766"/>
      <use xlink:href="#DejaVuSans-75" x="836.421875"/>
      <use xlink:href="#DejaVuSans-74" x="899.800781"/>
      <use xlink:href="#DejaVuSans-5f" x="939.009766"/>
      <use xlink:href="#DejaVuSans-31" x="989.009766"/>
      <use xlink:href="#DejaVuSans-20" x="1052.632812"/>
      <use xlink:href="#DejaVuSans-2d" x="1084.419922"/>
      <use xlink:href="#DejaVuSans-20" x="1120.503906"/>
      <use xlink:href="#DejaVuSans-70" x="1152.291016"/>
      <use xlink:href="#DejaVuSans-6f" x="1215.767578"/>
      <use xlink:href="#DejaVuSans-6c" x="1276.949219"/>
      <use xlink:href="#DejaVuSans-79" x="1304.732422"/>
      <use xlink:href="#DejaVuSans-67" x="1363.912109"/>
     </g>
    </g>
    <g id="line2d_18">
     <path d="M 247.873437 303.490394 
L 255.873437 303.490394 
L 263.873437 303.490394 
" style="fill: none; stroke: #90ed7d; stroke-linecap: square"/>
    </g>
    <g id="text_20">
     <!-- Minus_cre_p53mut_2 - polya -->
     <g transform="translate(270.273437 306.290394) scale(0.08 -0.08)">
      <use xlink:href="#DejaVuSans-4d"/>
      <use xlink:href="#DejaVuSans-69" x="86.279297"/>
      <use xlink:href="#DejaVuSans-6e" x="114.0625"/>
      <use xlink:href="#DejaVuSans-75" x="177.441406"/>
      <use xlink:href="#DejaVuSans-73" x="240.820312"/>
      <use xlink:href="#DejaVuSans-5f" x="292.919922"/>
      <use xlink:href="#DejaVuSans-63" x="342.919922"/>
      <use xlink:href="#DejaVuSans-72" x="397.900391"/>
      <use xlink:href="#DejaVuSans-65" x="436.763672"/>
      <use xlink:href="#DejaVuSans-5f" x="498.287109"/>
      <use xlink:href="#DejaVuSans-70" x="548.287109"/>
      <use xlink:href="#DejaVuSans-35" x="611.763672"/>
      <use xlink:href="#DejaVuSans-33" x="675.386719"/>
      <use xlink:href="#DejaVuSans-6d" x="739.009766"/>
      <use xlink:href="#DejaVuSans-75" x="836.421875"/>
      <use xlink:href="#DejaVuSans-74" x="899.800781"/>
      <use xlink:href="#DejaVuSans-5f" x="939.009766"/>
      <use xlink:href="#DejaVuSans-32" x="989.009766"/>
      <use xlink:href="#DejaVuSans-20" x="1052.632812"/>
      <use xlink:href="#DejaVuSans-2d" x="1084.419922"/>
      <use xlink:href="#DejaVuSans-20" x="1120.503906"/>
      <use xlink:href="#DejaVuSans-70" x="1152.291016"/>
      <use xlink:href="#DejaVuSans-6f" x="1215.767578"/>
      <use xlink:href="#DejaVuSans-6c" x="1276.949219"/>
      <use xlink:href="#DejaVuSans-79" x="1304.732422"/>
      <use xlink:href="#DejaVuSans-61" x="1363.912109"/>
     </g>
    </g>
    <g id="line2d_19">
     <path d="M 247.873437 315.455394 
L 255.873437 315.455394 
L 263.873437 315.455394 
" style="fill: none; stroke: #f7a35c; stroke-linecap: square"/>
    </g>
    <g id="text_21">
     <!-- Minus_cre_p53mut_2 - polyg -->
     <g transform="translate(270.273437 318.255394) scale(0.08 -0.08)">
      <use xlink:href="#DejaVuSans-4d"/>
      <use xlink:href="#DejaVuSans-69" x="86.279297"/>
      <use xlink:href="#DejaVuSans-6e" x="114.0625"/>
      <use xlink:href="#DejaVuSans-75" x="177.441406"/>
      <use xlink:href="#DejaVuSans-73" x="240.820312"/>
      <use xlink:href="#DejaVuSans-5f" x="292.919922"/>
      <use xlink:href="#DejaVuSans-63" x="342.919922"/>
      <use xlink:href="#DejaVuSans-72" x="397.900391"/>
      <use xlink:href="#DejaVuSans-65" x="436.763672"/>
      <use xlink:href="#DejaVuSans-5f" x="498.287109"/>
      <use xlink:href="#DejaVuSans-70" x="548.287109"/>
      <use xlink:href="#DejaVuSans-35" x="611.763672"/>
      <use xlink:href="#DejaVuSans-33" x="675.386719"/>
      <use xlink:href="#DejaVuSans-6d" x="739.009766"/>
      <use xlink:href="#DejaVuSans-75" x="836.421875"/>
      <use xlink:href="#DejaVuSans-74" x="899.800781"/>
      <use xlink:href="#DejaVuSans-5f" x="939.009766"/>
      <use xlink:href="#DejaVuSans-32" x="989.009766"/>
      <use xlink:href="#DejaVuSans-20" x="1052.632812"/>
      <use xlink:href="#DejaVuSans-2d" x="1084.419922"/>
      <use xlink:href="#DejaVuSans-20" x="1120.503906"/>
      <use xlink:href="#DejaVuSans-70" x="1152.291016"/>
      <use xlink:href="#DejaVuSans-6f" x="1215.767578"/>
      <use xlink:href="#DejaVuSans-6c" x="1276.949219"/>
      <use xlink:href="#DejaVuSans-79" x="1304.732422"/>
      <use xlink:href="#DejaVuSans-67" x="1363.912109"/>
     </g>
    </g>
    <g id="line2d_20">
     <path d="M 455.57875 303.490394 
L 463.57875 303.490394 
L 471.57875 303.490394 
" style="fill: none; stroke: #8085e9; stroke-linecap: square"/>
    </g>
    <g id="text_22">
     <!-- Plus_cre_p53mut_1 - polya -->
     <g transform="translate(477.97875 306.290394) scale(0.08 -0.08)">
      <use xlink:href="#DejaVuSans-50"/>
      <use xlink:href="#DejaVuSans-6c" x="60.302734"/>
      <use xlink:href="#DejaVuSans-75" x="88.085938"/>
      <use xlink:href="#DejaVuSans-73" x="151.464844"/>
      <use xlink:href="#DejaVuSans-5f" x="203.564453"/>
      <use xlink:href="#DejaVuSans-63" x="253.564453"/>
      <use xlink:href="#DejaVuSans-72" x="308.544922"/>
      <use xlink:href="#DejaVuSans-65" x="347.408203"/>
      <use xlink:href="#DejaVuSans-5f" x="408.931641"/>
      <use xlink:href="#DejaVuSans-70" x="458.931641"/>
      <use xlink:href="#DejaVuSans-35" x="522.408203"/>
      <use xlink:href="#DejaVuSans-33" x="586.03125"/>
      <use xlink:href="#DejaVuSans-6d" x="649.654297"/>
      <use xlink:href="#DejaVuSans-75" x="747.066406"/>
      <use xlink:href="#DejaVuSans-74" x="810.445312"/>
      <use xlink:href="#DejaVuSans-5f" x="849.654297"/>
      <use xlink:href="#DejaVuSans-31" x="899.654297"/>
      <use xlink:href="#DejaVuSans-20" x="963.277344"/>
      <use xlink:href="#DejaVuSans-2d" x="995.064453"/>
      <use xlink:href="#DejaVuSans-20" x="1031.148438"/>
      <use xlink:href="#DejaVuSans-70" x="1062.935547"/>
      <use xlink:href="#DejaVuSans-6f" x="1126.412109"/>
      <use xlink:href="#DejaVuSans-6c" x="1187.59375"/>
      <use xlink:href="#DejaVuSans-79" x="1215.376953"/>
      <use xlink:href="#DejaVuSans-61" x="1274.556641"/>
     </g>
    </g>
    <g id="line2d_21">
     <path d="M 455.57875 315.455394 
L 463.57875 315.455394 
L 471.57875 315.455394 
" style="fill: none; stroke: #f15c80; stroke-linecap: square"/>
    </g>
    <g id="text_23">
     <!-- Plus_cre_p53mut_1 - polyg -->
     <g transform="translate(477.97875 318.255394) scale(0.08 -0.08)">
      <use xlink:href="#DejaVuSans-50"/>
      <use xlink:href="#DejaVuSans-6c" x="60.302734"/>
      <use xlink:href="#DejaVuSans-75" x="88.085938"/>
      <use xlink:href="#DejaVuSans-73" x="151.464844"/>
      <use xlink:href="#DejaVuSans-5f" x="203.564453"/>
      <use xlink:href="#DejaVuSans-63" x="253.564453"/>
      <use xlink:href="#DejaVuSans-72" x="308.544922"/>
      <use xlink:href="#DejaVuSans-65" x="347.408203"/>
      <use xlink:href="#DejaVuSans-5f" x="408.931641"/>
      <use xlink:href="#DejaVuSans-70" x="458.931641"/>
      <use xlink:href="#DejaVuSans-35" x="522.408203"/>
      <use xlink:href="#DejaVuSans-33" x="586.03125"/>
      <use xlink:href="#DejaVuSans-6d" x="649.654297"/>
      <use xlink:href="#DejaVuSans-75" x="747.066406"/>
      <use xlink:href="#DejaVuSans-74" x="810.445312"/>
      <use xlink:href="#DejaVuSans-5f" x="849.654297"/>
      <use xlink:href="#DejaVuSans-31" x="899.654297"/>
      <use xlink:href="#DejaVuSans-20" x="963.277344"/>
      <use xlink:href="#DejaVuSans-2d" x="995.064453"/>
      <use xlink:href="#DejaVuSans-20" x="1031.148438"/>
      <use xlink:href="#DejaVuSans-70" x="1062.935547"/>
      <use xlink:href="#DejaVuSans-6f" x="1126.412109"/>
      <use xlink:href="#DejaVuSans-6c" x="1187.59375"/>
      <use xlink:href="#DejaVuSans-79" x="1215.376953"/>
      <use xlink:href="#DejaVuSans-67" x="1274.556641"/>
     </g>
    </g>
    <g id="line2d_22">
     <path d="M 656.135312 303.490394 
L 664.135312 303.490394 
L 672.135312 303.490394 
" style="fill: none; stroke: #e4d354; stroke-linecap: square"/>
    </g>
    <g id="text_24">
     <!-- Plus_cre_p53mut_2 - polya -->
     <g transform="translate(678.535312 306.290394) scale(0.08 -0.08)">
      <use xlink:href="#DejaVuSans-50"/>
      <use xlink:href="#DejaVuSans-6c" x="60.302734"/>
      <use xlink:href="#DejaVuSans-75" x="88.085938"/>
      <use xlink:href="#DejaVuSans-73" x="151.464844"/>
      <use xlink:href="#DejaVuSans-5f" x="203.564453"/>
      <use xlink:href="#DejaVuSans-63" x="253.564453"/>
      <use xlink:href="#DejaVuSans-72" x="308.544922"/>
      <use xlink:href="#DejaVuSans-65" x="347.408203"/>
      <use xlink:href="#DejaVuSans-5f" x="408.931641"/>
      <use xlink:href="#DejaVuSans-70" x="458.931641"/>
      <use xlink:href="#DejaVuSans-35" x="522.408203"/>
      <use xlink:href="#DejaVuSans-33" x="586.03125"/>
      <use xlink:href="#DejaVuSans-6d" x="649.654297"/>
      <use xlink:href="#DejaVuSans-75" x="747.066406"/>
      <use xlink:href="#DejaVuSans-74" x="810.445312"/>
      <use xlink:href="#DejaVuSans-5f" x="849.654297"/>
      <use xlink:href="#DejaVuSans-32" x="899.654297"/>
      <use xlink:href="#DejaVuSans-20" x="963.277344"/>
      <use xlink:href="#DejaVuSans-2d" x="995.064453"/>
      <use xlink:href="#DejaVuSans-20" x="1031.148438"/>
      <use xlink:href="#DejaVuSans-70" x="1062.935547"/>
      <use xlink:href="#DejaVuSans-6f" x="1126.412109"/>
      <use xlink:href="#DejaVuSans-6c" x="1187.59375"/>
      <use xlink:href="#DejaVuSans-79" x="1215.376953"/>
      <use xlink:href="#DejaVuSans-61" x="1274.556641"/>
     </g>
    </g>
    <g id="line2d_23">
     <path d="M 856.515625 303.490394 
L 864.515625 303.490394 
L 872.515625 303.490394 
" style="fill: none; stroke: #2b908f; stroke-linecap: square"/>
    </g>
    <g id="text_25">
     <!-- Plus_cre_p53mut_2 - polyg -->
     <g transform="translate(878.915625 306.290394) scale(0.08 -0.08)">
      <use xlink:href="#DejaVuSans-50"/>
      <use xlink:href="#DejaVuSans-6c" x="60.302734"/>
      <use xlink:href="#DejaVuSans-75" x="88.085938"/>
      <use xlink:href="#DejaVuSans-73" x="151.464844"/>
      <use xlink:href="#DejaVuSans-5f" x="203.564453"/>
      <use xlink:href="#DejaVuSans-63" x="253.564453"/>
      <use xlink:href="#DejaVuSans-72" x="308.544922"/>
      <use xlink:href="#DejaVuSans-65" x="347.408203"/>
      <use xlink:href="#DejaVuSans-5f" x="408.931641"/>
      <use xlink:href="#DejaVuSans-70" x="458.931641"/>
      <use xlink:href="#DejaVuSans-35" x="522.408203"/>
      <use xlink:href="#DejaVuSans-33" x="586.03125"/>
      <use xlink:href="#DejaVuSans-6d" x="649.654297"/>
      <use xlink:href="#DejaVuSans-75" x="747.066406"/>
      <use xlink:href="#DejaVuSans-74" x="810.445312"/>
      <use xlink:href="#DejaVuSans-5f" x="849.654297"/>
      <use xlink:href="#DejaVuSans-32" x="899.654297"/>
      <use xlink:href="#DejaVuSans-20" x="963.277344"/>
      <use xlink:href="#DejaVuSans-2d" x="995.064453"/>
      <use xlink:href="#DejaVuSans-20" x="1031.148438"/>
      <use xlink:href="#DejaVuSans-70" x="1062.935547"/>
      <use xlink:href="#DejaVuSans-6f" x="1126.412109"/>
      <use xlink:href="#DejaVuSans-6c" x="1187.59375"/>
      <use xlink:href="#DejaVuSans-79" x="1215.376953"/>
      <use xlink:href="#DejaVuSans-67" x="1274.556641"/>
     </g>
    </g>
   </g>
  </g>
 </g>
 <defs>
  <clipPath id="p482cfba97e">
   <rect x="32.968125" y="31.48286" width="960.19" height="242.5072"/>
  </clipPath>
 </defs>
</svg>
